<svg xmlns="http://www.w3.org/2000/svg" aria-hidden="true" class="cf-icon-svg cf-icon-svg--activity" viewBox="0 0 12 19"><path d="M10.05 3.828a1.11 1.11 0 0 1 1.11 1.108v10.562a1.11 1.11 0 0 1-1.11 1.108h-8.1a1.11 1.11 0 0 1-1.11-1.108V4.936a1.11 1.11 0 0 1 1.11-1.108h.415v1.108h-.414l-.002.002v10.558l.002.002h8.098l.002-.002V4.938l-.002-.002h-.414V3.828h.416zm-.98 4.076H2.82v1.108h6.25zm0 2.337H2.82v1.108h6.25zm0 2.337H2.82v1.108h6.25zm-.543-8.935v1.25a.476.476 0 0 1-.475.476H3.948a.476.476 0 0 1-.475-.475v-1.25a.476.476 0 0 1 .475-.476h.697V1.87a.476.476 0 0 1 .475-.475h1.76a.476.476 0 0 1 .475.475v1.3h.697a.476.476 0 0 1 .475.474zM6.55 2.67a.554.554 0 1 0-.554.554.554.554 0 0 0 .554-.554"/></svg>