<svg xmlns="http://www.w3.org/2000/svg" aria-hidden="true" class="cf-icon-svg cf-icon-svg--agreement" viewBox="0 0 16 19"><path d="m12.358 10.753.153.151.53.53a.8.8 0 0 1 .193.274.7.7 0 0 1 .05.23.34.34 0 0 1-.04.17.5.5 0 0 1-.066.096l-.236.236a.4.4 0 0 1-.254.137.5.5 0 0 1-.23-.043.7.7 0 0 1-.183-.122l-.109-.102-.748-.763a.195.195 0 0 0-.281-.01l-.033.038a.237.237 0 0 0-.002.336l.89.871a.8.8 0 0 1 .175.237.5.5 0 0 1 .056.218.35.35 0 0 1-.04.17.6.6 0 0 1-.09.122l-.298.298a.44.44 0 0 1-.24.14.4.4 0 0 1-.217-.025.6.6 0 0 1-.183-.115 4 4 0 0 1-.13-.125l-.924-.941a.17.17 0 0 0-.25-.005l-.086.087a.19.19 0 0 0 .002.266l.852.834a1 1 0 0 1 .202.264.5.5 0 0 1 .06.22.35.35 0 0 1-.04.172.6.6 0 0 1-.091.12l-.236.237q-.336.298-.77-.137l-.884-.864a.12.12 0 0 0-.17-.002l-.116.094a.18.18 0 0 0 .004.26l.58.585a.6.6 0 0 1 .171.27.5.5 0 0 1 .003.227.46.46 0 0 1-.105.205l-.236.236a.4.4 0 0 1-.258.121.6.6 0 0 1-.227-.034.6.6 0 0 1-.224-.15l-4.795-4.794a4.5 4.5 0 0 1-.624-.768 3.6 3.6 0 0 1-.37-.754 3 3 0 0 1-.148-.708 2.1 2.1 0 0 1 .043-.634l-.845-.845-.858-.808 3.382-3.435 1.77 1.805-.818.817-.018.02-.012.013a1.7 1.7 0 0 0-.36.624 1.6 1.6 0 0 0-.058.709 1.53 1.53 0 0 0 .46.885l.242.241.022.021.015.014a1.52 1.52 0 0 0 1.391.337 1.6 1.6 0 0 0 .756-.45L8.563 6.95l.392.394.004.007 3.397 3.398zm1.34-2.57a2.3 2.3 0 0 1 0 .35 2.8 2.8 0 0 1-.146.698 3.5 3.5 0 0 1-.36.737 4 4 0 0 1-.11.164l-.056-.054-4.127-4.133a.475.475 0 0 0-.672-.001L6.786 7.386a.7.7 0 0 1-.316.2.6.6 0 0 1-.273.006l-.005-.001a.6.6 0 0 1-.255-.135l-.234-.233a.6.6 0 0 1-.19-.342.65.65 0 0 1 .02-.291l.003-.007a.75.75 0 0 1 .161-.274l.003-.003 1.62-1.62a1.7 1.7 0 0 1 .598-.39 2.8 2.8 0 0 1 .708-.174 4 4 0 0 1 .496-.028 5 5 0 0 1 .252.007 9 9 0 0 1 1.325.174l1.249-1.248 3.367 3.367-1.59 1.589a.5.5 0 0 0-.026.2z"/></svg>