<svg xmlns="http://www.w3.org/2000/svg" aria-hidden="true" class="cf-icon-svg cf-icon-svg--audio-mute-round" viewBox="0 0 17 19"><path d="M16.417 9.583A7.917 7.917 0 1 1 8.5 1.666a7.917 7.917 0 0 1 7.917 7.917M7.84 6.05c0-.435-.252-.54-.56-.232L5.16 7.94H3.704a.794.794 0 0 0-.791.793v1.686a.794.794 0 0 0 .791.792h1.457l2.12 2.12c.308.308.56.204.56-.232zm3.84 3.524 1.49-1.49a.396.396 0 0 0-.56-.56l-1.49 1.49-1.49-1.49a.396.396 0 0 0-.56.56l1.49 1.49-1.49 1.49a.396.396 0 1 0 .56.56l1.49-1.49 1.49 1.49a.396.396 0 0 0 .56-.56z"/></svg>