<svg xmlns="http://www.w3.org/2000/svg" aria-hidden="true" class="cf-icon-svg cf-icon-svg--chart-round" viewBox="0 0 17 19"><path d="M16.417 9.583A7.917 7.917 0 1 1 8.5 1.666a7.917 7.917 0 0 1 7.917 7.917m-2.806 4.029a.396.396 0 0 0-.396-.396H4.868v-7.94a.396.396 0 1 0-.792 0v8.336a.396.396 0 0 0 .396.396h8.743a.396.396 0 0 0 .396-.396M5.68 12.396h1.254V7.938a.32.32 0 0 0-.316-.317h-.622a.32.32 0 0 0-.316.317zm2.012 0h1.255V5.495a.32.32 0 0 0-.317-.317h-.62a.32.32 0 0 0-.318.317zm2.013 0h1.255V7.938a.32.32 0 0 0-.317-.317h-.621a.32.32 0 0 0-.317.317zm2.013 0h1.255V10.38a.317.317 0 0 0-.317-.317h-.621a.317.317 0 0 0-.317.317z"/></svg>