<svg xmlns="http://www.w3.org/2000/svg" aria-hidden="true" class="cf-icon-svg cf-icon-svg--close-quote" viewBox="0 0 16 19"><path d="M6.937 9.146a5.66 5.66 0 0 1-.73 3.199 6.04 6.04 0 0 1-2.195 2.166 7 7 0 0 1-1.493.655q-.204.062-.41.113a3 3 0 0 1-.396.081.792.792 0 0 1-.422-1.499 1.5 1.5 0 0 1 .339-.096 6 6 0 0 0 .808-.245 4.68 4.68 0 0 0 2.415-2 3 3 0 0 1-.353.176 3.11 3.11 0 0 1-3.106-.43 3.152 3.152 0 0 1 .743-5.372 3.48 3.48 0 0 1 3.247.356 3.6 3.6 0 0 1 1.007 1.092 4.2 4.2 0 0 1 .51 1.424q.023.19.036.38m8.848.076a5.65 5.65 0 0 1-.758 3.161 6.05 6.05 0 0 1-2.2 2.145 7 7 0 0 1-1.5.649q-.203.06-.41.11a2.3 2.3 0 0 1-.389.075.792.792 0 0 1-.633-1.32.8.8 0 0 1 .248-.185 1.7 1.7 0 0 1 .354-.098 6 6 0 0 0 .806-.247 4.68 4.68 0 0 0 2.393-1.991 3 3 0 0 1-.352.176 3.11 3.11 0 0 1-3.115-.437 3.152 3.152 0 0 1 .794-5.383 3.48 3.48 0 0 1 3.248.404 3.6 3.6 0 0 1 .996 1.116 3.7 3.7 0 0 1 .315.717 3.3 3.3 0 0 1 .165.676q.027.215.038.432"/></svg>