<svg xmlns="http://www.w3.org/2000/svg" aria-hidden="true" class="cf-icon-svg cf-icon-svg--copy-round" viewBox="0 0 17 19"><path d="M16.417 9.579A7.917 7.917 0 1 1 8.5 1.662a7.917 7.917 0 0 1 7.917 7.917m-5.629-.421v-.21H8.27a.267.267 0 0 1-.265-.265V6.176H5.054a.317.317 0 0 0-.317.316v7.612a.317.317 0 0 0 .317.316h5.418a.317.317 0 0 0 .316-.316zM6.21 5.384h2.635a.8.8 0 0 1 .505.228l.128.128V4.703H6.526a.32.32 0 0 0-.317.317zm2.565.807v1.99h2zm1.472.516h2.001l-2-1.988zm2.014.978v-.21h-1.037l.127.127a.8.8 0 0 1 .23.483v4.863h.364a.317.317 0 0 0 .316-.317z"/></svg>