<svg xmlns="http://www.w3.org/2000/svg" aria-hidden="true" class="cf-icon-svg cf-icon-svg--dine-out-round" viewBox="0 0 17 19"><path d="M16.417 9.579A7.917 7.917 0 1 1 8.5 1.662a7.917 7.917 0 0 1 7.917 7.917m-4.165-4.6a10.97 10.97 0 0 0-7.662-.004.396.396 0 1 0 .275.742 10.17 10.17 0 0 1 7.11.003.396.396 0 1 0 .277-.741m-.435 1.48s-.23-.09-.498-.175a9.6 9.6 0 0 0-5.697-.034c-.3.09-.596.205-.596.205a.31.31 0 0 0-.175.407l3.444 8.327c.067.16.175.16.242 0l3.453-8.323a.31.31 0 0 0-.173-.408zM6.875 8.662a1.026 1.026 0 1 0-1.026-1.026 1.026 1.026 0 0 0 1.026 1.026m1.546 3.852a1.026 1.026 0 1 0-1.026-1.025 1.026 1.026 0 0 0 1.026 1.025m1.16-2.747a1.026 1.026 0 1 0-1.026-1.026A1.026 1.026 0 0 0 9.58 9.768z"/></svg>