<svg xmlns="http://www.w3.org/2000/svg" aria-hidden="true" class="cf-icon-svg cf-icon-svg--dollar-round" viewBox="0 0 17 19"><path d="M16.417 9.583a7.916 7.916 0 1 1-15.833 0 7.916 7.916 0 0 1 15.833 0m-4.844 1.754a2.25 2.25 0 0 0-.556-1.477l-.001-.002a3 3 0 0 0-.835-.665l-.003-.002a3.5 3.5 0 0 0-.866-.313H9.31a3.8 3.8 0 0 0-.795-.083q-.253 0-.475-.037a1.8 1.8 0 0 1-.494-.158l-.002-.001a1.2 1.2 0 0 1-.371-.298L7.172 8.3a.73.73 0 0 1-.175-.44c0-.166.073-.41.421-.63.295-.186.71-.297 1.11-.297.088 0 .229.03.391.066l.049.01q.205.045.473.166c.14.063.275.156.381.261a.791.791 0 1 0 1.118-1.12 2.9 2.9 0 0 0-.85-.585 4 4 0 0 0-.785-.268h-.001l-.008-.002v-.786a.792.792 0 1 0-1.583 0v.763c-.415.09-.808.244-1.14.454-.736.465-1.159 1.182-1.159 1.967 0 .51.188 1.021.53 1.44.24.298.55.546.893.717.289.145.615.25.942.305.236.04.476.059.736.059a1.9 1.9 0 0 1 .926.215 1.4 1.4 0 0 1 .383.307c.105.12.165.28.165.436 0 .097 0 .324-.385.573a2.2 2.2 0 0 1-1.132.314c-.151 0-.4-.044-.494-.06a2.4 2.4 0 0 1-.459-.148h-.001a.95.95 0 0 1-.356-.274.792.792 0 1 0-1.197 1.037q.427.492.967.708c.218.087.476.185.774.237h.007v.783a.792.792 0 1 0 1.583 0v-.79a3.6 3.6 0 0 0 1.17-.479c.724-.47 1.107-1.127 1.107-1.9z"/></svg>