<svg xmlns="http://www.w3.org/2000/svg" aria-hidden="true" class="cf-icon-svg cf-icon-svg--download-round" viewBox="0 0 17 19"><path d="M16.417 9.579A7.917 7.917 0 1 1 8.5 1.662a7.917 7.917 0 0 1 7.917 7.917m-4.233-1.805H9.259a.317.317 0 0 1-.317-.317v-2.9H5.16a.32.32 0 0 0-.317.317v9.368a.32.32 0 0 0 .317.316h6.707a.317.317 0 0 0 .317-.316zm-1.676 3.757L8.79 13.249a.396.396 0 0 1-.56 0L6.513 11.53a.396.396 0 0 1 .56-.56l1.041 1.042V8.399a.396.396 0 1 1 .792 0v3.614l1.042-1.042a.396.396 0 0 1 .56.56m-.77-4.552h2.43l-2.43-2.416z"/></svg>