<svg xmlns="http://www.w3.org/2000/svg" aria-hidden="true" class="cf-icon-svg cf-icon-svg--external-link" viewBox="0 0 14 19"><path d="M13.017 3.622v4.6a.554.554 0 0 1-1.108 0V4.96L9.747 7.122a1.7 1.7 0 0 1 .13.646v5.57A1.664 1.664 0 0 1 8.215 15h-5.57a1.664 1.664 0 0 1-1.662-1.663v-5.57a1.664 1.664 0 0 1 1.662-1.662h5.57A1.65 1.65 0 0 1 9 6.302l2.126-2.126H7.863a.554.554 0 1 1 0-1.108h4.6a.554.554 0 0 1 .554.554M8.77 8.1l-2.844 2.844a.554.554 0 0 1-.784-.783l2.947-2.948H2.645a.555.555 0 0 0-.554.555v5.57a.555.555 0 0 0 .554.553h5.57a.555.555 0 0 0 .554-.554z"/></svg>