<svg xmlns="http://www.w3.org/2000/svg" aria-hidden="true" class="cf-icon-svg cf-icon-svg--fax" viewBox="0 0 14 19"><path d="M2.215 16.087a1.48 1.48 0 0 1-1.48-1.48V8.36a1.48 1.48 0 0 1 2.96 0v6.248a1.48 1.48 0 0 1-1.48 1.48zm9.941-8.23h-.316V5.7l-.336-.336-2.503-2.503-.336-.337H2.82A.476.476 0 0 0 2.346 3v2.934a2.4 2.4 0 0 1 .815.188 3 3 0 0 1 .293.148V3.633h4.352v2.276a.63.63 0 0 0 .63.63h2.296v1.319H4.593a2.4 2.4 0 0 1 .052.501v6.248a2.43 2.43 0 0 1-.486 1.458h7.997a1.11 1.11 0 0 0 1.108-1.109v-5.99a1.11 1.11 0 0 0-1.108-1.108zm-5.391 3.041a.475.475 0 1 1-.002-.95h.002a.475.475 0 0 1 0 .95m0 1.543a.475.475 0 0 1-.002-.95h.002a.475.475 0 0 1 0 .95m0 1.543a.475.475 0 1 1-.002-.95h.002a.475.475 0 0 1 0 .95m1.92-3.086h-.002a.475.475 0 0 1 0-.95h.003a.475.475 0 0 1 0 .95zm0 1.543h-.002a.475.475 0 0 1 0-.95h.003a.475.475 0 0 1 0 .95zm0 1.543h-.002a.475.475 0 0 1 0-.95h.003a.475.475 0 0 1 0 .95zm1.92-3.086a.475.475 0 0 1-.001-.95h.001a.475.475 0 1 1 0 .95m0 1.543a.475.475 0 0 1-.001-.95h.001a.475.475 0 1 1 0 .95m0 1.543a.475.475 0 0 1-.001-.95h.001a.475.475 0 1 1 0 .95"/></svg>