<svg xmlns="http://www.w3.org/2000/svg" aria-hidden="true" class="cf-icon-svg cf-icon-svg--fountain-pen" viewBox="0 0 12 19"><path d="m11.235 10.34-.01.015-2.077 3.599a.91.91 0 0 1-.713.411H3.577a.91.91 0 0 1-.713-.411L.765 10.319a.47.47 0 0 1 .022-.595l.127-.099.019-.015c1.966-1.547 3.204-4.239 3.569-7.405v-.263a.475.475 0 0 1 .944-.072v7.14a1.425 1.425 0 1 0 1.109.008V1.875a.475.475 0 0 1 .945.067v.273c.366 3.177 1.59 5.876 3.57 7.418l.143.112a.47.47 0 0 1 .022.594zm-.727 5.46a.464.464 0 0 0-.463-.462H1.944a.463.463 0 0 0-.462.462v1.142a.463.463 0 0 0 .462.462h8.101a.464.464 0 0 0 .463-.462z"/></svg>