<svg xmlns="http://www.w3.org/2000/svg" aria-hidden="true" class="cf-icon-svg cf-icon-svg--getting-a-credit-card" viewBox="0 0 17 19"><path d="M7.912 8.282H.755v-.874A1.11 1.11 0 0 1 1.864 6.3h7.232a4.2 4.2 0 0 1-.672.67l-.09.07a1.2 1.2 0 0 0-.422 1.242m6.895 5.896a1.11 1.11 0 0 1-1.106 1.042H1.864a1.11 1.11 0 0 1-1.109-1.108V9.39h7.723l.883 1.531a1.39 1.39 0 0 0-.92 1.307v.56a1.39 1.39 0 0 0 1.39 1.39zm-7.839-2.065H3.097v1.109h3.871zm9.213-3.888-.007.01-1.446 2.506a.64.64 0 0 1-.496.286H10.85a.64.64 0 0 1-.496-.286l-1.46-2.53a.33.33 0 0 1 .014-.415l.088-.068.014-.01a7.3 7.3 0 0 0 2.42-4.62V2.38a.317.317 0 0 1 .632-.026v4.948a1.029 1.029 0 1 0 .95.008V2.353a.317.317 0 0 1 .632.026v.83a7.23 7.23 0 0 0 2.422 4.524l.1.078a.33.33 0 0 1 .015.414m-.506 4.05a.44.44 0 0 0-.439-.438H9.831a.44.44 0 0 0-.44.439v.56a.44.44 0 0 0 .44.44h5.405a.44.44 0 0 0 .439-.44z"/></svg>