<svg xmlns="http://www.w3.org/2000/svg" aria-hidden="true" class="cf-icon-svg cf-icon-svg--linkedin-square" viewBox="0 0 16 19"><path d="M15.917 17.5H.083V1.666h15.834zM5.77 6.427a.96.96 0 0 0-1.032-.96.962.962 0 1 0-.025 1.92h.013a.963.963 0 0 0 1.044-.96m-.123 1.719H3.803v5.552h1.845zm6.658 2.368c0-1.705-.91-2.5-2.125-2.5a1.83 1.83 0 0 0-1.663.917v-.786H6.67c.025.52 0 5.554 0 5.554h1.848v-3.102a1.3 1.3 0 0 1 .06-.45 1.01 1.01 0 0 1 .946-.676c.67 0 .936.51.936 1.256V13.7h1.846zm-3.8-1.564.013-.019v.019z"/></svg>