<svg xmlns="http://www.w3.org/2000/svg" aria-hidden="true" class="cf-icon-svg cf-icon-svg--money-transfer-round" viewBox="0 0 17 19"><path d="M16.417 9.583A7.917 7.917 0 1 1 8.5 1.666a7.917 7.917 0 0 1 7.917 7.917m-2.983-2.172a.32.32 0 0 0-.316-.317H3.89a.32.32 0 0 0-.317.317v4.36a.32.32 0 0 0 .317.316h9.227a.32.32 0 0 0 .316-.316zm-2.936 2.18a1.986 1.986 0 1 1-.157-.776 2 2 0 0 1 .157.776M6.986 5.814a.317.317 0 0 0 .448 0l.744-.745v.9a.317.317 0 1 0 .633 0v-.9l.745.745a.317.317 0 1 0 .448-.448L8.719 4.08a.317.317 0 0 0-.448 0L6.986 5.366a.316.316 0 0 0 0 .448m3.018 8.002a.317.317 0 1 0-.448-.448l-.745.744v-.9a.317.317 0 0 0-.633 0v.9l-.744-.744a.317.317 0 0 0-.448.448L8.271 15.1a.317.317 0 0 0 .448 0l1.285-1.285zm-.912-3.135a.66.66 0 0 0 .33-.569.67.67 0 0 0-.166-.442.9.9 0 0 0-.25-.2 1 1 0 0 0-.26-.093 1 1 0 0 0-.237-.025 1 1 0 0 1-.142-.011.5.5 0 0 1-.148-.048.4.4 0 0 1-.11-.089.22.22 0 0 1-.052-.13.22.22 0 0 1 .125-.187.64.64 0 0 1 .33-.089 1 1 0 0 1 .117.02l.014.003a.7.7 0 0 1 .142.049.4.4 0 0 1 .113.078.237.237 0 1 0 .336-.336.9.9 0 0 0-.254-.175 1.2 1.2 0 0 0-.236-.08h-.001v-.234a.237.237 0 0 0-.475 0v.227a1 1 0 0 0-.34.135.7.7 0 0 0-.346.588.7.7 0 0 0 .158.431.8.8 0 0 0 .267.214 1 1 0 0 0 .282.092 1.3 1.3 0 0 0 .22.017.7.7 0 0 1 .136.014.6.6 0 0 1 .14.05.4.4 0 0 1 .113.092.2.2 0 0 1 .05.13c0 .047-.014.104-.115.17a.65.65 0 0 1-.337.093 1 1 0 0 1-.148-.018.7.7 0 0 1-.137-.044.3.3 0 0 1-.106-.081.238.238 0 0 0-.359.31.75.75 0 0 0 .289.212 1 1 0 0 0 .232.071h.001v.233a.237.237 0 0 0 .475 0v-.236a1.1 1.1 0 0 0 .349-.142"/></svg>