<svg xmlns="http://www.w3.org/2000/svg" aria-hidden="true" class="cf-icon-svg cf-icon-svg--mortgage" viewBox="0 0 12 19"><path d="m8.266 2.553 2.893 2.893v10.69a.476.476 0 0 1-.475.475H1.316a.476.476 0 0 1-.475-.475V3.028a.476.476 0 0 1 .475-.475zm1.785 3.658H8.058a.575.575 0 0 1-.574-.574V3.662H1.95v11.84h8.102zm-.669 3.34a.55.55 0 0 1-.636.257v2.962a.32.32 0 0 1-.317.317H3.571a.32.32 0 0 1-.317-.317V9.808a.554.554 0 0 1-.43-1.013l.43-.246v-.932a.32.32 0 0 1 .317-.317h.433a.32.32 0 0 1 .316.317v.321l1.395-.799a.55.55 0 0 1 .55 0l2.91 1.656a.554.554 0 0 1 .207.756m-3.976.76H4.312v1.11h1.094zm2.26 0H6.57v1.11h1.095z"/></svg>