<svg xmlns="http://www.w3.org/2000/svg" aria-hidden="true" class="cf-icon-svg cf-icon-svg--mortgage-round" viewBox="0 0 17 19"><path d="M16.417 9.583A7.917 7.917 0 1 1 8.5 1.666a7.917 7.917 0 0 1 7.917 7.917m-4.233-1.805H9.259a.32.32 0 0 1-.317-.317v-2.9H5.16a.32.32 0 0 0-.317.317v9.367a.32.32 0 0 0 .317.317h6.707a.32.32 0 0 0 .317-.317zm-1.048 2.331a.4.4 0 0 1-.344.2.4.4 0 0 1-.12-.019v2.298a.32.32 0 0 1-.317.317H6.677a.32.32 0 0 1-.317-.317V10.29a.396.396 0 0 1-.318-.72l.318-.182v-.726a.32.32 0 0 1 .317-.317h.204a.32.32 0 0 1 .316.317v.246l1.115-.638a.4.4 0 0 1 .392 0l2.284 1.3a.396.396 0 0 1 .148.54zm-3.086.617h-.86v.87h.86zm1.773 0h-.86v.87h.86zm-.085-3.743h2.43l-2.43-2.416z"/></svg>