<svg xmlns="http://www.w3.org/2000/svg" aria-hidden="true" class="cf-icon-svg cf-icon-svg--newspaper" viewBox="0 0 15 19"><path d="M2.644 15.26a17 17 0 0 1-.706-.014l-.11-.025a1.51 1.51 0 0 1-1.14-1.185l-.018-.092c-.005-.106-.01-.406-.01-.667V4.434a.477.477 0 0 1 .476-.475H11.77a.476.476 0 0 1 .475.475v1.529h1.591a.506.506 0 0 1 .504.504v7.192a1.6 1.6 0 0 1-1.6 1.6zm0-1.109h8.572a1.6 1.6 0 0 1-.077-.491v-2.174l-.003-.109v-6.31H1.769v8.21c0 .218.003.43.006.544l.002.008a.4.4 0 0 0 .3.312l.01.002c.133.004.358.008.557.008M9.91 6.815H2.95v1.109h6.96zm-4 2.383H2.95v3.532h2.96zm4.002.026H7.033v1.109h2.878zm0 2.41H7.033v1.108h2.878zm2.336-4.563v6.589a.492.492 0 0 0 .984 0V7.07z"/></svg>