<svg xmlns="http://www.w3.org/2000/svg" aria-hidden="true" class="cf-icon-svg cf-icon-svg--nine-closed" viewBox="0 0 17 19"><path d="M16.417 9.6A7.917 7.917 0 1 1 8.5 1.683 7.917 7.917 0 0 1 16.417 9.6m-5.234-.925a2.3 2.3 0 0 0-.204-.973 2.2 2.2 0 0 0-.55-.74 2.4 2.4 0 0 0-.818-.468 3.2 3.2 0 0 0-2.006 0 2.5 2.5 0 0 0-.823.468 2.2 2.2 0 0 0-.555.75 2.4 2.4 0 0 0-.203 1 2.1 2.1 0 0 0 .647 1.551 2.1 2.1 0 0 0 .684.435 2.2 2.2 0 0 0 .823.153 2 2 0 0 0 .236-.018 1 1 0 0 0 .227-.056l-.019.028-1.631 2.26h1.878l1.583-2.362a6 6 0 0 0 .527-.968 2.7 2.7 0 0 0 .204-1.06M9.362 7.92a1.08 1.08 0 0 1 .274.736.99.99 0 0 1-1.042 1.038.98.98 0 0 1-.744-.292 1.02 1.02 0 0 1-.28-.736 1.05 1.05 0 0 1 .284-.765 1 1 0 0 1 .759-.291.95.95 0 0 1 .749.31"/></svg>