<svg xmlns="http://www.w3.org/2000/svg" aria-hidden="true" class="cf-icon-svg cf-icon-svg--pet" viewBox="0 0 16 19"><path d="M4.086 7.9a1.91 1.91 0 0 1-.763 2.52c-.81.285-1.782-.384-2.17-1.492a1.91 1.91 0 0 1 .762-2.521c.81-.285 1.782.384 2.171 1.492zm6.521 7.878a2.68 2.68 0 0 1-1.903-.788.996.996 0 0 0-1.408 0 2.692 2.692 0 0 1-3.807-3.807 6.377 6.377 0 0 1 9.022 0 2.692 2.692 0 0 1-1.904 4.595M7.73 6.057c.127 1.337-.563 2.496-1.54 2.588s-1.872-.917-1.998-2.254c-.127-1.336.563-2.495 1.54-2.587s1.871.916 1.998 2.253m.54 0c-.127 1.337.563 2.496 1.54 2.588s1.871-.917 1.998-2.254-.563-2.495-1.54-2.587-1.872.916-1.998 2.253m3.644 1.842a1.91 1.91 0 0 0 .763 2.522c.81.284 1.782-.385 2.17-1.493a1.91 1.91 0 0 0-.762-2.521c-.81-.285-1.782.384-2.171 1.492"/></svg>