<svg xmlns="http://www.w3.org/2000/svg" aria-hidden="true" class="cf-icon-svg cf-icon-svg--prepaid-cards-round" viewBox="0 0 17 19"><path d="M16.417 9.583A7.917 7.917 0 1 1 8.5 1.666a7.917 7.917 0 0 1 7.917 7.917m-3.549-4.06a.32.32 0 0 0-.317-.318H4.448a.32.32 0 0 0-.316.317v8.164a.32.32 0 0 0 .316.317h8.103a.32.32 0 0 0 .317-.317zm-.973 4.126h-6.79v-.207a.794.794 0 0 1 .792-.792h5.206a.794.794 0 0 1 .792.792zm-6.79.791h6.79v1.728a.794.794 0 0 1-.792.792H5.897a.794.794 0 0 1-.792-.792zm1.02 1.682h2.217v-.791H6.125zm2.372-6.188a.554.554 0 1 0 .554.554.554.554 0 0 0-.554-.554"/></svg>