<svg xmlns="http://www.w3.org/2000/svg" aria-hidden="true" class="cf-icon-svg cf-icon-svg--price-tag" viewBox="0 0 15 19"><path d="m13.842 11.52-4.389 4.388a1.11 1.11 0 0 1-1.567 0l-6.28-6.28a3.03 3.03 0 0 1-.771-1.892l.043-3.681A1.14 1.14 0 0 1 2 2.935L5.67 2.9a3.04 3.04 0 0 1 1.892.773l6.28 6.28a1.11 1.11 0 0 1 0 1.567M3.826 5.133a.792.792 0 1 0-.792.792.79.79 0 0 0 .792-.792m6.594 7.348a.554.554 0 0 0 0-.784l-.401-.401a2.5 2.5 0 0 0 .35-.83 1.57 1.57 0 0 0-.397-1.503 1.6 1.6 0 0 0-1.017-.46 2.1 2.1 0 0 0-.75.085h-.002a2.4 2.4 0 0 0-.59.277H7.61a2.7 2.7 0 0 0-.438.357 2 2 0 0 1-.259.22 1.3 1.3 0 0 1-.329.17h-.002a.8.8 0 0 1-.338.038h-.002a.53.53 0 0 1-.314-.136.54.54 0 0 1-.106-.534 1.54 1.54 0 0 1 .41-.71 1.6 1.6 0 0 1 .23-.165l.03-.019a2 2 0 0 1 .322-.155 1 1 0 0 1 .325-.06.554.554 0 0 0 0-1.108h-.001a2 2 0 0 0-.717.132 3 3 0 0 0-.529.26l-.01.006-.398-.4a.554.554 0 1 0-.784.785l.388.387a2.5 2.5 0 0 0-.347.803 1.64 1.64 0 0 0 .404 1.561 1.62 1.62 0 0 0 .983.456 1.9 1.9 0 0 0 .805-.089 2.4 2.4 0 0 0 .624-.319 3 3 0 0 0 .398-.339 1.6 1.6 0 0 1 .256-.208 1.4 1.4 0 0 1 .32-.151 1 1 0 0 1 .348-.038.5.5 0 0 1 .308.139c.05.049.165.165.097.488a1.56 1.56 0 0 1-.413.729 2.5 2.5 0 0 1-.28.219 1.7 1.7 0 0 1-.306.157.7.7 0 0 1-.32.042.554.554 0 1 0-.08 1.106q.078.005.152.005a1.7 1.7 0 0 0 .685-.134 2.7 2.7 0 0 0 .507-.27l.01-.007.397.398a.555.555 0 0 0 .783 0z"/></svg>