<svg xmlns="http://www.w3.org/2000/svg" aria-hidden="true" class="cf-icon-svg cf-icon-svg--print" viewBox="0 0 14 19"><path d="m8.698 2.358 3.065 3.066v1.95h.16a1.11 1.11 0 0 1 1.109 1.108v4.837a1.11 1.11 0 0 1-1.109 1.108h-.16v1.726a.477.477 0 0 1-.475.475H2.712a.477.477 0 0 1-.475-.475v-1.726h-.16A1.11 1.11 0 0 1 .968 13.32V8.482a1.11 1.11 0 0 1 1.109-1.108h.16v-4.54a.476.476 0 0 1 .475-.476zm-.22 3.876a.61.61 0 0 1-.608-.608v-2.16H3.345v3.908h7.31v-1.14zm2.177 4.512h-7.31v4.773h7.31zm-1.054.874h-5.26v1.109h5.26zm0 1.962h-5.26v1.108h5.26zm2.437-4.485a.554.554 0 1 0-.554.554.554.554 0 0 0 .554-.554"/></svg>