<svg xmlns="http://www.w3.org/2000/svg" aria-hidden="true" class="cf-icon-svg cf-icon-svg--quick-cash" viewBox="0 0 15 19"><path d="M14.048 10.55a6.548 6.548 0 1 1-7.102-6.525V3.16l-.466.002h-.002a.554.554 0 0 1-.002-1.109l2.044-.007h.002a.554.554 0 0 1 .001 1.108l-.469.002v.868a6.5 6.5 0 0 1 3.614 1.474l.634-.634a.554.554 0 0 1 .784.783l-.626.626a6.52 6.52 0 0 1 1.588 4.276zm-1.059 0A5.49 5.49 0 1 0 7.5 16.04a5.49 5.49 0 0 0 5.49-5.49zm-1.108 0a4.364 4.364 0 1 1-.344-1.705 4.4 4.4 0 0 1 .344 1.705M9.38 11.668a1.38 1.38 0 0 0-.34-.904 1.9 1.9 0 0 0-.512-.407l-.002-.001a2.2 2.2 0 0 0-.532-.193 2.3 2.3 0 0 0-.487-.05 2 2 0 0 1-.296-.023 1.1 1.1 0 0 1-.31-.1.7.7 0 0 1-.234-.188.47.47 0 0 1-.11-.281.48.48 0 0 1 .265-.4 1.35 1.35 0 0 1 .692-.185 1.4 1.4 0 0 1 .245.04l.03.007a1.6 1.6 0 0 1 .294.103.8.8 0 0 1 .24.164.475.475 0 1 0 .67-.672 1.8 1.8 0 0 0-.52-.358 2.5 2.5 0 0 0-.483-.165l-.015-.003v-.496a.475.475 0 0 0-.95 0v.482a2.2 2.2 0 0 0-.71.28 1.42 1.42 0 0 0-.709 1.203 1.4 1.4 0 0 0 .323.88 1.7 1.7 0 0 0 .547.439 2 2 0 0 0 .579.187 3 3 0 0 0 .452.036 1.4 1.4 0 0 1 .285.029 1.2 1.2 0 0 1 .292.105.9.9 0 0 1 .24.192.43.43 0 0 1 .106.279c0 .062 0 .207-.244.365a1.36 1.36 0 0 1-.706.196 2 2 0 0 1-.307-.038 1.5 1.5 0 0 1-.287-.091.6.6 0 0 1-.225-.173.475.475 0 1 0-.718.622 1.54 1.54 0 0 0 .59.433 2.3 2.3 0 0 0 .476.145l.016.003v.494a.475.475 0 0 0 .95 0v-.499a2.2 2.2 0 0 0 .728-.295 1.36 1.36 0 0 0 .677-1.162"/></svg>