<svg xmlns="http://www.w3.org/2000/svg" aria-hidden="true" class="cf-icon-svg cf-icon-svg--rss-round" viewBox="0 0 17 19"><path d="M16.417 9.579A7.917 7.917 0 1 1 8.5 1.662a7.917 7.917 0 0 1 7.917 7.917M6.22 11.842a1.041 1.041 0 1 0 0 1.472 1.04 1.04 0 0 0 0-1.472m7.137.985a8.11 8.11 0 0 0-8.115-8.115.792.792 0 0 0 0 1.583 6.525 6.525 0 0 1 6.533 6.533.791.791 0 1 0 1.582-.001m-3.368 0A4.747 4.747 0 0 0 5.243 8.08a.792.792 0 0 0 0 1.583 3.17 3.17 0 0 1 3.165 3.165.79.79 0 1 0 1.582-.001z"/></svg>