<svg xmlns="http://www.w3.org/2000/svg" aria-hidden="true" class="cf-icon-svg cf-icon-svg--save" viewBox="0 0 14 19"><path d="M13.014 3.638v11.133a.476.476 0 0 1-.475.475H3.214a1.34 1.34 0 0 1-.813-.333L1.325 13.86a1.3 1.3 0 0 1-.34-.808V3.638a.476.476 0 0 1 .476-.475H12.54a.476.476 0 0 1 .474.475m-2.208.954a.476.476 0 0 0-.475-.475H3.67a.476.476 0 0 0-.475.475v3.212a.476.476 0 0 0 .475.475h6.66a.476.476 0 0 0 .476-.475zm-.5 5.883a.477.477 0 0 0-.475-.476H4.16a.477.477 0 0 0-.475.476v3.442a.476.476 0 0 0 .475.475h5.67a.476.476 0 0 0 .475-.475zm-4.356.635H4.74v2.2h1.21z"/></svg>