<svg xmlns="http://www.w3.org/2000/svg" aria-hidden="true" class="cf-icon-svg cf-icon-svg--share-alt-round" viewBox="0 0 17 19"><path d="M16.417 9.583A7.917 7.917 0 1 1 8.5 1.666a7.917 7.917 0 0 1 7.917 7.917m-4.102-1.837a.317.317 0 0 0-.317-.317H9.872v.792h1.651v5.591H5.85V8.221h1.647v-.792H5.375a.317.317 0 0 0-.317.317v6.541a.317.317 0 0 0 .317.317h6.623a.317.317 0 0 0 .317-.317zM6.64 5.76a.396.396 0 1 0 .56.56l1.089-1.09v5.135a.396.396 0 1 0 .792 0V5.23l1.089 1.09a.396.396 0 1 0 .56-.56L8.965 3.995a.396.396 0 0 0-.56 0z"/></svg>