<svg viewBox="0 0 17 19" xmlns="http://www.w3.org/2000/svg"><path d="m16.417 9.583a7.917 7.917 0 1 1 -7.917-7.917 7.917 7.917 0 0 1 7.917 7.917m-4.339-3.332a.794.794 0 0 0 -.791-.792h-.268v.767a1.11 1.11 0 0 1 -1.109 1.108h-2.92a1.11 1.11 0 0 1 -1.11-1.108v-.767h-.267a.794.794 0 0 0 -.792.792v7.403a.794.794 0 0 0 .792.792h5.673a.794.794 0 0 0 .791-.792zm-1.077 2.522h-5.214v.792h5.214zm0 1.713h-5.214v.792h5.214zm0 1.713h-5.214v.791h5.214zm-4.328-5.973a.32.32 0 0 0 .317.317h2.92a.32.32 0 0 0 .317-.317v-.914a.32.32 0 0 0 -.316-.317h-.557v-.843a.32.32 0 0 0 -.317-.316h-1.173a.32.32 0 0 0 -.317.316v.843h-.557a.32.32 0 0 0 -.317.317zm1.384-1.581a.396.396 0 1 1 .396.396.396.396 0 0 1 -.396-.396"/></svg>