<svg xmlns="http://www.w3.org/2000/svg" aria-hidden="true" class="cf-icon-svg cf-icon-svg--appendix" viewBox="0 0 12 19"><path d="M11.16 16.153a.477.477 0 0 1-.476.475H1.316a.477.477 0 0 1-.475-.475V3.046a.477.477 0 0 1 .475-.475h6.95l2.893 2.893zm-1.11-9.924H8.059a.576.576 0 0 1-.574-.574V3.679H1.949v11.84h8.102zm-6.4 6.365a.553.553 0 1 0-.552-.552.55.55 0 0 0 .552.552m1.554 0a.553.553 0 1 0-.553-.552.553.553 0 0 0 .553.552m1.554 0a.553.553 0 1 0-.553-.552.553.553 0 0 0 .553.552m1.553 0a.553.553 0 1 0-.552-.552.553.553 0 0 0 .552.552"/></svg>