<svg xmlns="http://www.w3.org/2000/svg" aria-hidden="true" class="cf-icon-svg cf-icon-svg--audio-max-round" viewBox="0 0 17 19"><path d="M16.417 9.583A7.917 7.917 0 1 1 8.5 1.666a7.917 7.917 0 0 1 7.917 7.917M7.84 6.06c0-.435-.252-.54-.56-.232l-2.12 2.12H3.704a.794.794 0 0 0-.791.792v1.687a.794.794 0 0 0 .791.792h1.457l2.12 2.12c.308.308.56.204.56-.232zm1.792 5.336a2.566 2.566 0 0 0 0-3.625.396.396 0 0 0-.56.56 1.775 1.775 0 0 1 0 2.506.396.396 0 1 0 .56.56zm1.305 1.305a4.41 4.41 0 0 0 0-6.235.396.396 0 0 0-.56.56 3.62 3.62 0 0 1 0 5.116.396.396 0 1 0 .56.56zm2.68-.764a6.25 6.25 0 0 0-1.375-6.776.396.396 0 1 0-.56.56 5.464 5.464 0 0 1 0 7.726.396.396 0 1 0 .56.56 6.2 6.2 0 0 0 1.374-2.07z"/></svg>