<svg viewBox="0 0 17 19" xmlns="http://www.w3.org/2000/svg"><path d="m16.417 9.583a7.917 7.917 0 1 1 -7.917-7.917 7.917 7.917 0 0 1 7.917 7.917m-8.577-3.523c0-.435-.252-.54-.56-.231l-2.12 2.12h-1.456a.794.794 0 0 0 -.791.792v1.686a.794.794 0 0 0 .791.792h1.457l2.12 2.12c.308.308.56.204.56-.231zm1.792 5.337a2.564 2.564 0 0 0 0-3.626.396.396 0 1 0 -.56.56 1.773 1.773 0 0 1 0 2.506.396.396 0 1 0 .56.56m2.597-1.813a4.38 4.38 0 0 0 -1.292-3.118.396.396 0 0 0 -.56.56 3.62 3.62 0 0 1 0 5.116.396.396 0 1 0 .56.56 4.38 4.38 0 0 0 1.292-3.118"/></svg>