<svg viewBox="0 0 16 19" xmlns="http://www.w3.org/2000/svg"><path d="m7.098 4.769v9.63c0 .61-.353.756-.784.325l-2.894-2.896h-1.978a1.11 1.11 0 0 1 -1.109-1.108v-2.272a1.11 1.11 0 0 1 1.109-1.108h1.977l2.895-2.896c.431-.43.784-.285.784.325m2.076 7.474a.55.55 0 0 0 .392-.163 3.53 3.53 0 0 0 0-4.992.554.554 0 1 0 -.784.784 2.42 2.42 0 0 1 0 3.425.554.554 0 0 0 .392.946m2.184 1.629a6.06 6.06 0 0 0 0-8.575.554.554 0 0 0 -.784.783 4.955 4.955 0 0 1 0 7.008.554.554 0 0 0 .784.784m1.79 1.79a8.59 8.59 0 0 0 0-12.157.554.554 0 0 0 -.783.784 7.48 7.48 0 0 1 0 10.59.554.554 0 1 0 .784.784z"/></svg>