<svg xmlns="http://www.w3.org/2000/svg" aria-hidden="true" class="cf-icon-svg cf-icon-svg--audio-max" viewBox="0 0 16 19"><path d="M7.098 4.769v9.63c0 .61-.353.756-.784.325L3.42 11.828H1.442A1.11 1.11 0 0 1 .333 10.72V8.448A1.11 1.11 0 0 1 1.442 7.34h1.977l2.895-2.896c.431-.43.784-.285.784.325m2.076 7.474a.55.55 0 0 0 .392-.163 3.53 3.53 0 0 0 0-4.992.554.554 0 1 0-.784.784 2.42 2.42 0 0 1 0 3.425.554.554 0 0 0 .392.946m2.184 1.629a6.06 6.06 0 0 0 0-8.575.554.554 0 0 0-.784.783 4.955 4.955 0 0 1 0 7.008.554.554 0 0 0 .784.784m1.79 1.79a8.59 8.59 0 0 0 0-12.157.554.554 0 0 0-.783.784 7.48 7.48 0 0 1 0 10.59.554.554 0 1 0 .784.784z"/></svg>