<svg viewBox="0 0 16 19" xmlns="http://www.w3.org/2000/svg"><path d="m15.442 14.75v.491h-14.884v-.49a.476.476 0 0 1 .475-.476h.478l-.003-.048v-.443a.476.476 0 0 1 .475-.475h.713v-6.145h-1.188a.554.554 0 0 1 -.22-1.063l6.492-2.813a.55.55 0 0 1 .44 0l6.492 2.812a.554.554 0 0 1 -.22 1.063h-1.188v6.145h.713a.476.476 0 0 1 .475.475v.443l-.003.048h.478a.476.476 0 0 1 .475.475zm-11.638-1.44h2.058v-5.046h-2.058zm.377-7.254h7.639l-3.82-1.656zm2.79 2.21v5.043h2.058v-5.044zm5.225 5.043v-5.044h-2.059v5.044z"/></svg>