<svg xmlns="http://www.w3.org/2000/svg" aria-hidden="true" class="cf-icon-svg cf-icon-svg--bank-round" viewBox="0 0 17 19"><path d="M16.417 9.583A7.917 7.917 0 1 1 8.5 1.666a7.917 7.917 0 0 1 7.917 7.917m-2.526 3.104a.32.32 0 0 0-.317-.316h-.372v-.384a.32.32 0 0 0-.316-.316h-.55V7.214h.866a.396.396 0 0 0 .158-.76L8.658 4.416a.4.4 0 0 0-.315 0L3.64 6.454a.396.396 0 0 0 .158.76h.865v4.457h-.549a.32.32 0 0 0-.316.316v.384h-.372a.32.32 0 0 0-.317.316v.383h10.782zM5.455 7.954h1.502v3.717H5.455zm5.839-1.532H5.706L8.5 5.212zM7.749 7.954h1.502v3.717H7.75zm2.294 0h1.502v3.717h-1.502z"/></svg>