<svg xmlns="http://www.w3.org/2000/svg" aria-hidden="true" class="cf-icon-svg cf-icon-svg--broadcast-round" viewBox="0 0 17 19"><path d="M16.417 9.583A7.917 7.917 0 1 1 8.5 1.666a7.917 7.917 0 0 1 7.917 7.917m-2.828.124a5.09 5.09 0 1 0-8.688 3.599.396.396 0 0 0 .56-.56 4.298 4.298 0 1 1 6.078 0 .396.396 0 1 0 .56.56 5.06 5.06 0 0 0 1.49-3.599m-2.992 2.097a2.966 2.966 0 1 0-4.194 0 .396.396 0 1 0 .56-.56 2.174 2.174 0 1 1 3.074 0 .396.396 0 0 0 .56.56m-.661 2.8a.396.396 0 0 0-.396-.396h-.644v-3.55a1.03 1.03 0 1 0-.792 0v3.55H7.46a.396.396 0 1 0 0 .792h2.08a.396.396 0 0 0 .396-.396"/></svg>