<svg xmlns="http://www.w3.org/2000/svg" aria-hidden="true" class="cf-icon-svg cf-icon-svg--broadcast" viewBox="0 0 17 19"><path d="M13.27 14.91a.554.554 0 0 1-.392-.946 6.201 6.201 0 1 0-8.763 0 .554.554 0 1 1-.784.784 7.31 7.31 0 1 1 10.331 0 .55.55 0 0 1-.392.162m-2.16-2.159a.554.554 0 0 1-.392-.946 3.142 3.142 0 1 0-4.444 0 .554.554 0 0 1-.783.784 4.25 4.25 0 1 1 6.011 0 .55.55 0 0 1-.391.162zm-1.117 3.32H9.05V10.99a1.511 1.511 0 1 0-1.108 0v5.081H7a.554.554 0 0 0 0 1.109h2.993a.554.554 0 0 0 0-1.109"/></svg>