<svg xmlns="http://www.w3.org/2000/svg" aria-hidden="true" class="cf-icon-svg cf-icon-svg--building-credit-round" viewBox="0 0 17 19"><path d="M16.417 9.583A7.917 7.917 0 1 1 8.5 1.666a7.917 7.917 0 0 1 7.917 7.917M4.074 9.089v.42h8.91v-.42a.794.794 0 0 0-.791-.792H4.866a.794.794 0 0 0-.792.792m8.91 4.072V10.3h-8.91v2.86a.794.794 0 0 0 .792.792h7.327a.794.794 0 0 0 .791-.792zm-4.662-1.223H5.413v.792h2.91zM6.62 5.697a.396.396 0 0 0 .396.395h1.033v1.034a.396.396 0 0 0 .791 0V6.092h1.034a.396.396 0 0 0 0-.791H8.84V4.268a.396.396 0 1 0-.791 0V5.3H7.016a.396.396 0 0 0-.396.396z"/></svg>