<svg xmlns="http://www.w3.org/2000/svg" aria-hidden="true" class="cf-icon-svg cf-icon-svg--bullhorn-round" viewBox="0 0 17 19"><path d="M16.417 9.583A7.917 7.917 0 1 1 8.5 1.666a7.917 7.917 0 0 1 7.917 7.917m-2.896-3.08a.59.59 0 0 0-.768-.598l-8.36 2.097H3.039a.32.32 0 0 0-.316.316v2.219a.32.32 0 0 0 .316.317h1.356l1.045.262-.232.927a.634.634 0 0 0 .461.768l2.188.547a.634.634 0 0 0 .768-.461l.23-.925 3.899.979a.59.59 0 0 0 .768-.6zM6.053 11.27l.022.005a1 1 0 0 1 .162.041l.278.07.741.186.696.174.215.054c.012.003.067.01.073.02.005.009-.014.055-.016.064l-.034.135-.094.376-.075.3c-.01.04 0 .044-.032.043a1 1 0 0 1-.16-.04l-.276-.069-.746-.186c-.061-.015-.984-.251-.985-.247z"/></svg>