<svg xmlns="http://www.w3.org/2000/svg" aria-hidden="true" class="cf-icon-svg cf-icon-svg--bullhorn" viewBox="0 0 17 19"><path d="M16.22 5.224v8.407a.825.825 0 0 1-1.076.839L9.57 13.072l-.325 1.3a.95.95 0 0 1-1.152.69l-3.084-.77a.95.95 0 0 1-.691-1.152l.326-1.304-1.473-.37H1.255a.476.476 0 0 1-.475-.475V7.864a.476.476 0 0 1 .475-.475h1.916l11.973-3.004a.825.825 0 0 1 1.076.84zm-7.627 7.839c.009-.035.072-.2.049-.225-.012-.011-.06-.014-.076-.018l-.147-.037-1.05-.264-1.804-.452-.006.025a1.4 1.4 0 0 0-.044.174l-.07.28-.152.61c-.009.035-.07.192-.047.216.01.011.058.014.072.018l.145.036 1.063.266 1.218.304.423.106c.018.004.142.05.157.038z"/></svg>