<svg viewBox="0 0 17 19" xmlns="http://www.w3.org/2000/svg"><path d="m16.417 9.579a7.917 7.917 0 1 1 -7.917-7.917 7.917 7.917 0 0 1 7.917 7.917m-3.675-1.403a.395.395 0 0 0 -.65-.303v-2.149a.794.794 0 0 0 -.792-.791h-5.615a.794.794 0 0 0 -.792.791v2.15a.396.396 0 0 0 -.65.302v.327a.396.396 0 0 0 .65.303v.989a.8.8 0 0 0 -.262.587v1.465a.32.32 0 0 0 -.243.308v.726a.32.32 0 0 0 .317.316h.452v.728a.32.32 0 0 0 .317.317h.644a.32.32 0 0 0 .317-.317v-.728h3.98v.728a.317.317 0 0 0 .316.317h.78a.317.317 0 0 0 .317-.317v-.728h.452a.317.317 0 0 0 .317-.316v-.726a.32.32 0 0 0 -.243-.308v-1.465a.8.8 0 0 0 -.262-.587v-.989a.395.395 0 0 0 .65-.303zm-6.85 2.007a.554.554 0 1 0 .555.554.554.554 0 0 0 -.555-.554m-.365-3.078h2.65v2.485h-2.65zm5.728-1.115a.396.396 0 0 0 -.396-.395h-4.733a.396.396 0 0 0 0 .791h4.733a.396.396 0 0 0 .396-.396m-2.446 1.115h2.65v2.485h-2.65zm2.284 3.078a.554.554 0 1 0 .554.554.554.554 0 0 0 -.554-.554"/></svg>