<svg xmlns="http://www.w3.org/2000/svg" aria-hidden="true" class="cf-icon-svg cf-icon-svg--bus" viewBox="0 0 14 19"><path d="M13.006 6.945v.462a.554.554 0 0 1-.914.422v1.4a1.1 1.1 0 0 1 .371.825v2.09a.48.48 0 0 1 .344.456v.974a.476.476 0 0 1-.475.475h-.613v1.002a.477.477 0 0 1-.475.476h-1.05a.477.477 0 0 1-.476-.476V14.05h-5.63v1.002a.477.477 0 0 1-.475.476h-.857a.477.477 0 0 1-.475-.476V14.05H1.67a.476.476 0 0 1-.475-.475V12.6a.48.48 0 0 1 .343-.456v-2.09a1.1 1.1 0 0 1 .37-.826v-1.4a.554.554 0 0 1-.914-.42v-.463a.554.554 0 0 1 .915-.42v-2.95a1.11 1.11 0 0 1 1.108-1.107h7.968a1.11 1.11 0 0 1 1.108 1.108v2.948a.554.554 0 0 1 .914.421zm-8.893 3.623a.792.792 0 1 0-.792.792.79.79 0 0 0 .792-.792m2.333-4.794h-3.43v3.171h3.43zM3.098 4.11a.554.554 0 0 0 .554.555h6.696a.554.554 0 0 0 0-1.109H3.652a.554.554 0 0 0-.554.554m7.886 4.834v-3.17h-3.43v3.171zm.487 1.623a.792.792 0 1 0-.792.792.79.79 0 0 0 .792-.792"/></svg>