<svg viewBox="0 0 12 19" xmlns="http://www.w3.org/2000/svg"><path d="m11.146 2.964v13.212a.476.476 0 0 1 -.475.475h-9.341a.476.476 0 0 1 -.475-.475v-13.212a.476.476 0 0 1 .475-.475h9.342a.476.476 0 0 1 .475.475zm-1.108.633h-8.076v2.726h8.076zm-6.385 5.011a.79.79 0 0 0 -.791-.791h-.003a.792.792 0 1 0 0 1.583h.003a.79.79 0 0 0 .791-.792m0 2.634a.79.79 0 0 0 -.791-.791h-.003a.792.792 0 1 0 0 1.583h.003a.79.79 0 0 0 .791-.792m0 2.634a.79.79 0 0 0 -.791-.791h-.003a.792.792 0 1 0 0 1.583h.003a.79.79 0 0 0 .791-.792m3.04-2.634a.79.79 0 0 0 -.792-.791h-.001a.792.792 0 1 0 0 1.583.79.79 0 0 0 .792-.792zm0 2.634a.79.79 0 0 0 -.792-.791h-.001a.792.792 0 1 0 0 1.583.79.79 0 0 0 .792-.792zm.048-5.268a.79.79 0 0 0 -.791-.791h-.005a.792.792 0 0 0 0 1.583h.005a.79.79 0 0 0 .791-.792m3.086 0a.79.79 0 0 0 -.792-.791h-.002a.792.792 0 0 0 0 1.583h.002a.79.79 0 0 0 .792-.792m0 2.587a.792.792 0 1 0 -1.584 0v2.681a.792.792 0 0 0 1.584 0z"/></svg>