<svg xmlns="http://www.w3.org/2000/svg" aria-hidden="true" class="cf-icon-svg cf-icon-svg--calculate-round" viewBox="0 0 17 19"><path d="M16.417 9.583A7.917 7.917 0 1 1 8.5 1.666a7.917 7.917 0 0 1 7.917 7.917m-4.285-4.694a.32.32 0 0 0-.317-.317H5.18a.32.32 0 0 0-.317.317v9.367a.32.32 0 0 0 .317.316h6.634a.32.32 0 0 0 .317-.316zm-6.476.475h5.684v1.915H5.656zm1.18 3.53a.554.554 0 0 0-.554-.555H6.28a.554.554 0 0 0 0 1.108h.002a.554.554 0 0 0 .554-.554zm0 1.86a.554.554 0 0 0-.554-.555H6.28a.554.554 0 1 0 0 1.108h.002a.554.554 0 0 0 .554-.554zm0 1.86a.554.554 0 0 0-.554-.555H6.28a.554.554 0 1 0 0 1.108h.002a.554.554 0 0 0 .554-.554zm2.146-1.86a.554.554 0 0 0-.554-.555h-.002a.554.554 0 1 0 0 1.108h.002a.554.554 0 0 0 .554-.554zm0 1.86a.554.554 0 0 0-.554-.555h-.002a.554.554 0 1 0 0 1.108h.002a.554.554 0 0 0 .554-.554zm.034-3.72a.554.554 0 0 0-.554-.555H8.46a.554.554 0 0 0 0 1.108h.003a.554.554 0 0 0 .554-.554zm2.18 0a.554.554 0 0 0-.555-.555h-.002a.554.554 0 1 0 0 1.108h.002a.554.554 0 0 0 .554-.554zm0 3.72V10.72a.554.554 0 1 0-1.11 0v1.893a.554.554 0 1 0 1.11 0z"/></svg>