<svg xmlns="http://www.w3.org/2000/svg" aria-hidden="true" class="cf-icon-svg cf-icon-svg--car-round" viewBox="0 0 17 19"><path d="M16.417 9.583A7.917 7.917 0 1 1 8.5 1.666a7.917 7.917 0 0 1 7.917 7.917m-3.948-1.455-.758-1.955a.82.82 0 0 0-.726-.498H6.054a.82.82 0 0 0-.727.498L4.57 8.128a1.43 1.43 0 0 0-1.052 1.375v2.046a.32.32 0 0 0 .317.317h.496v1.147a.24.24 0 0 0 .238.237h.892a.24.24 0 0 0 .237-.237v-1.147h5.644v1.147a.24.24 0 0 0 .237.237h.892a.24.24 0 0 0 .238-.237v-1.147h.496a.32.32 0 0 0 .317-.317V9.503a1.43 1.43 0 0 0-1.052-1.375zm-7.445.582a.792.792 0 1 0 .792.792.79.79 0 0 0-.792-.792m5.96-2.402a.2.2 0 0 1 .137.094l.65 1.676H5.267l.65-1.676a.2.2 0 0 1 .136-.094zm1.04 2.402a.792.792 0 1 0 .792.792.79.79 0 0 0-.791-.792z"/></svg>