<svg viewBox="0 0 17 19" xmlns="http://www.w3.org/2000/svg"><path d="m16.417 9.583a7.917 7.917 0 1 1 -7.917-7.917 7.917 7.917 0 0 1 7.917 7.917m-3.948-1.455-.758-1.955a.82.82 0 0 0 -.726-.498h-4.931a.82.82 0 0 0 -.727.498l-.757 1.955a1.43 1.43 0 0 0 -1.052 1.375v2.046a.32.32 0 0 0 .317.317h.496v1.147a.24.24 0 0 0 .238.237h.892a.24.24 0 0 0 .237-.237v-1.147h5.644v1.147a.24.24 0 0 0 .237.237h.892a.24.24 0 0 0 .238-.237v-1.147h.496a.32.32 0 0 0 .317-.317v-2.046a1.43 1.43 0 0 0 -1.052-1.375zm-7.445.582a.792.792 0 1 0 .792.792.79.79 0 0 0 -.792-.792m5.96-2.402a.2.2 0 0 1 .137.094l.65 1.676h-6.504l.65-1.676a.2.2 0 0 1 .136-.094zm1.04 2.402a.792.792 0 1 0 .792.792.79.79 0 0 0 -.791-.792z"/></svg>