<svg viewBox="0 0 16 19" xmlns="http://www.w3.org/2000/svg"><path d="m.947 9.928a2.03 2.03 0 0 1 1.347-1.891l1.094-2.824a1.31 1.31 0 0 1 1.164-.797h6.896a1.31 1.31 0 0 1 1.164.797l1.095 2.824a2.03 2.03 0 0 1 1.346 1.891v2.85a.476.476 0 0 1 -.475.475h-.671v1.477a.476.476 0 0 1 -.475.475h-.978a.476.476 0 0 1 -.475-.475v-1.477h-7.958v1.477a.476.476 0 0 1 -.475.475h-.978a.476.476 0 0 1 -.475-.475v-1.477h-.671a.476.476 0 0 1 -.475-.475zm3.14.006a1.03 1.03 0 1 0 -1.03 1.03 1.03 1.03 0 0 0 1.03-1.03m-.557-2.023h8.938l-.89-2.297a.23.23 0 0 0 -.132-.09h-6.894a.23.23 0 0 0 -.13.09zm10.441 2.023a1.03 1.03 0 1 0 -1.029 1.03 1.03 1.03 0 0 0 1.03-1.03z"/></svg>