<svg viewBox="0 0 15 19" xmlns="http://www.w3.org/2000/svg"><path d="m13.55 15.256h-12.1a.554.554 0 0 1 -.553-.554v-11.534a.554.554 0 1 1 1.108 0v10.98h11.544a.554.554 0 0 1 0 1.108zm-10.429-2.236v-6.132a.476.476 0 0 1 .475-.475h.786a.476.476 0 0 1 .475.475v6.132zm2.785 0v-9.513a.476.476 0 0 1 .475-.475h.786a.476.476 0 0 1 .475.475v9.513zm2.785 0v-6.132a.476.476 0 0 1 .475-.475h.786a.476.476 0 0 1 .475.475v6.132zm2.786 0v-2.753a.476.476 0 0 1 .475-.475h.785a.476.476 0 0 1 .475.475v2.753z"/></svg>