<svg viewBox="0 0 17 19" xmlns="http://www.w3.org/2000/svg"><path d="m16.417 9.583a7.917 7.917 0 1 1 -7.917-7.917 7.917 7.917 0 0 1 7.917 7.917m-2.806 4.029a.396.396 0 0 0 -.396-.396h-8.347v-7.94a.396.396 0 1 0 -.792 0v8.336a.396.396 0 0 0 .396.396h8.743a.396.396 0 0 0 .396-.396m-7.931-1.216h1.254v-4.458a.32.32 0 0 0 -.316-.317h-.622a.32.32 0 0 0 -.316.317zm2.012 0h1.255v-6.901a.32.32 0 0 0 -.317-.317h-.62a.32.32 0 0 0 -.318.317zm2.013 0h1.255v-4.458a.32.32 0 0 0 -.317-.317h-.621a.32.32 0 0 0 -.317.317zm2.013 0h1.255v-2.016a.317.317 0 0 0 -.317-.317h-.621a.317.317 0 0 0 -.317.317z"/></svg>