<svg xmlns="http://www.w3.org/2000/svg" aria-hidden="true" class="cf-icon-svg cf-icon-svg--childcare" viewBox="0 0 8 19"><path d="M7.33 6.603v10.325a.476.476 0 0 1-.475.475h-5.71a.477.477 0 0 1-.475-.475v-1.866h1.916a.554.554 0 1 0 0-1.108H.67V12.26h1.916a.554.554 0 1 0 0-1.109H.67V9.457h1.916a.554.554 0 1 0 0-1.108H.67V6.603a.477.477 0 0 1 .475-.475h5.71a.477.477 0 0 1 .475.475m-.756-1.414H1.426a2.575 2.575 0 0 1 2.02-2.514v-.619a.554.554 0 0 1 1.108 0v.619a2.575 2.575 0 0 1 2.02 2.514"/></svg>