<svg xmlns="http://www.w3.org/2000/svg" aria-hidden="true" class="cf-icon-svg cf-icon-svg--clock-round" viewBox="0 0 17 19"><path fill-rule="evenodd" d="M16.417 9.583A7.917 7.917 0 1 1 8.5 1.666a7.917 7.917 0 0 1 7.917 7.917m-2.81 0A5.106 5.106 0 1 1 8.5 4.477a5.106 5.106 0 0 1 5.106 5.106zm-.792 0A4.315 4.315 0 1 1 8.5 5.268a4.315 4.315 0 0 1 4.315 4.315m-2.163-.992a.396.396 0 0 0-.386-.661.75.75 0 0 0-.305.233l-.414.414-.649.648v-2.51a.67.67 0 0 0-.056-.365.399.399 0 0 0-.735.196c-.009.232 0 .465 0 .697v2.933a.4.4 0 0 0 .258.376c.296.11.495-.169.677-.35l.998-.998z"/></svg>