<svg xmlns="http://www.w3.org/2000/svg" aria-hidden="true" class="cf-icon-svg cf-icon-svg--close-quote-round" viewBox="0 0 17 19"><path d="M16.417 9.583A7.917 7.917 0 1 1 8.5 1.666a7.917 7.917 0 0 1 7.917 7.917m-8.758.15a3.33 3.33 0 0 0-.362-2.507 2.54 2.54 0 0 0-.908-.851 2.5 2.5 0 0 0-1.364-.278 2.259 2.259 0 0 0-1.297 3.99 2.23 2.23 0 0 0 2.515.211 3.34 3.34 0 0 1-1.655 1.403 4 4 0 0 1-.485.164 1.8 1.8 0 0 0-.445.128.567.567 0 0 0 .32 1.059 2.5 2.5 0 0 0 .5-.113 5 5 0 0 0 .475-.161A4.37 4.37 0 0 0 7.57 10.07q.053-.167.09-.337zm6.34 0a3.33 3.33 0 0 0-.362-2.507 2.54 2.54 0 0 0-.908-.851 2.5 2.5 0 0 0-1.364-.278 2.259 2.259 0 0 0-1.297 3.99 2.23 2.23 0 0 0 2.515.211 3.33 3.33 0 0 1-1.654 1.403 4 4 0 0 1-.486.164 2 2 0 0 0-.445.128.568.568 0 0 0 .32 1.059 2.5 2.5 0 0 0 .5-.113q.241-.07.475-.161a4.37 4.37 0 0 0 2.617-2.708q.052-.167.089-.337"/></svg>