<svg xmlns="http://www.w3.org/2000/svg" aria-hidden="true" class="cf-icon-svg cf-icon-svg--clothes-round" viewBox="0 0 17 19"><path d="M16.417 9.579A7.917 7.917 0 1 1 8.5 1.662a7.917 7.917 0 0 1 7.917 7.917m-2.553-1.176a.282.282 0 0 0 .06-.442l-1.63-1.813a2.05 2.05 0 0 0-1.524-.68h-.68a1.728 1.728 0 0 1-3.177 0h-.68a2.05 2.05 0 0 0-1.523.679L3.075 7.96a.282.282 0 0 0 .061.442l1.117.704a.396.396 0 0 0 .508-.086l.56-.702v5.289a.347.347 0 0 0 .345.345h5.672a.347.347 0 0 0 .346-.345V8.324l.555.697a.396.396 0 0 0 .508.086z"/></svg>