<svg xmlns="http://www.w3.org/2000/svg" aria-hidden="true" class="cf-icon-svg cf-icon-svg--compass" viewBox="0 0 15 19"><path d="M14.512 10.415a7 7 0 0 1-.25 1.867 7.2 7.2 0 0 1-.704 1.679 6.8 6.8 0 0 1-1.096 1.42 7.2 7.2 0 0 1-1.42 1.096 7 7 0 0 1-3.55.959 7 7 0 0 1-1.858-.25 7.03 7.03 0 0 1-4.896-4.904 6.98 6.98 0 0 1 .708-5.404A7.2 7.2 0 0 1 2.542 5.46a7 7 0 0 1 1.417-1.096 7 7 0 0 1 1.67-.704q.186-.052.375-.093a1.663 1.663 0 1 1 2.991.002q.185.04.368.091a7 7 0 0 1 1.678.704 6.99 6.99 0 0 1 3.472 6.05zm-1.135.002a5.8 5.8 0 0 0-.21-1.565 5.84 5.84 0 0 0-1.509-2.587 5.8 5.8 0 0 0-1.19-.918 6 6 0 0 0-1.407-.59 5.8 5.8 0 0 0-1.568-.21 5.7 5.7 0 0 0-1.56.21 6 6 0 0 0-1.4.59 5.8 5.8 0 0 0-1.188.918 6 6 0 0 0-.918 1.187 5.9 5.9 0 0 0-.594 4.529 6 6 0 0 0 .594 1.406 5.88 5.88 0 0 0 3.509 2.703 5.8 5.8 0 0 0 1.557.21 5.86 5.86 0 0 0 2.975-.804 6 6 0 0 0 1.19-.918 5.7 5.7 0 0 0 .918-1.19 6 6 0 0 0 .59-1.407 5.8 5.8 0 0 0 .21-1.564zM12.099 9.15a4.8 4.8 0 0 1 0 2.533 5 5 0 0 1-.481 1.148 4.6 4.6 0 0 1-.741.96 5 5 0 0 1-.97.75 4.8 4.8 0 0 1-1.143.481 4.8 4.8 0 0 1-1.27.17 4.7 4.7 0 0 1-1.26-.17 4.78 4.78 0 0 1-3.333-3.34 4.75 4.75 0 0 1 .48-3.666 5 5 0 0 1 .75-.97 4.7 4.7 0 0 1 .96-.742 5 5 0 0 1 1.141-.48 4.7 4.7 0 0 1 1.261-.17 4.7 4.7 0 0 1 1.271.17 5 5 0 0 1 1.145.48 4.8 4.8 0 0 1 1.711 1.708 4.8 4.8 0 0 1 .48 1.138zm-7.505 1.278a.554.554 0 0 0-1.109 0 .554.554 0 0 0 1.109 0m5.229-2.521-2.73 1.466a1.86 1.86 0 0 0-.643.643l-1.466 2.73c-.124.23-.037.317.193.194l2.73-1.467a1.86 1.86 0 0 0 .643-.643l1.467-2.73c.123-.23.036-.317-.194-.193M7.5 9.764a.66.66 0 1 0 .66.66.66.66 0 0 0-.66-.66m-.56-2.801a.555.555 0 0 0 .554.554h.003a.554.554 0 0 0 0-1.108h-.004a.554.554 0 0 0-.554.554zm.005-4.121a.555.555 0 1 0 .555-.555.555.555 0 0 0-.555.555M8.06 13.883a.554.554 0 1 0-.555.555h.001a.554.554 0 0 0 .554-.555m2.9-4.02a.554.554 0 1 0 .555.554.554.554 0 0 0-.555-.553z"/></svg>