<svg viewBox="0 0 17 19" xmlns="http://www.w3.org/2000/svg"><path d="m16.417 9.579a7.917 7.917 0 1 1 -7.917-7.917 7.917 7.917 0 0 1 7.917 7.917m-5.629-.421v-.21h-2.518a.267.267 0 0 1 -.265-.265v-2.507h-2.951a.317.317 0 0 0 -.317.316v7.612a.317.317 0 0 0 .317.316h5.418a.317.317 0 0 0 .316-.316zm-4.578-3.774h2.635a.8.8 0 0 1 .505.228l.128.128v-1.037h-2.952a.32.32 0 0 0 -.317.317zm2.565.807v1.99h2zm1.472.516h2.001l-2-1.988zm2.014.978v-.21h-1.037l.127.127a.8.8 0 0 1 .23.483v4.863h.364a.317.317 0 0 0 .316-.317z"/></svg>