<svg viewBox="0 0 17 19" xmlns="http://www.w3.org/2000/svg"><path d="m16.417 9.579a7.917 7.917 0 1 1 -7.917-7.917 7.917 7.917 0 0 1 7.917 7.917m-6.37 2.817a.317.317 0 0 0 -.316-.317h-5.581a.32.32 0 0 0 -.317.317v.715a.32.32 0 0 0 .317.317h5.58a.317.317 0 0 0 .317-.317zm-4.685-3.741 2.362 2.362a.396.396 0 0 0 .56-.56l-2.363-2.361a.396.396 0 1 0 -.56.56zm8.05 3.235-3.285-3.285.81-.81-2.344-2.345-2.195 2.194 2.345 2.344.823-.823 3.285 3.285a.396.396 0 1 0 .56-.56zm-4.356-6.93 2.363 2.362a.396.396 0 1 0 .56-.56l-2.364-2.362a.396.396 0 1 0 -.56.56z"/></svg>