<svg viewBox="0 0 15 19" xmlns="http://www.w3.org/2000/svg"><path d="m9.316 14.722a.477.477 0 0 1 -.475.475h-7.408a.477.477 0 0 1 -.475-.475v-.863a.477.477 0 0 1 .475-.475h7.408a.476.476 0 0 1 .475.475zm-2.767-2.587a.55.55 0 0 1 -.392-.163l-3.197-3.196a.554.554 0 0 1 .784-.784l3.196 3.198a.554.554 0 0 1 -.392.946zm7.33.992-4.444-4.445 1.085-1.084-3.173-3.173-2.97 2.97 3.173 3.172 1.102-1.101 4.445 4.445a.554.554 0 1 0 .784-.784zm-2.33-5.993a.55.55 0 0 1 -.391-.162l-3.198-3.197a.554.554 0 1 1 .784-.784l3.196 3.197a.554.554 0 0 1 -.391.946"/></svg>