<svg xmlns="http://www.w3.org/2000/svg" aria-hidden="true" class="cf-icon-svg cf-icon-svg--credit-payment-round" viewBox="0 0 17 19"><path d="M16.417 9.583A7.917 7.917 0 1 1 8.5 1.666a7.917 7.917 0 0 1 7.917 7.917M3.107 7.189v.61h4.929a3.6 3.6 0 0 1 .512-1.402h-4.65a.794.794 0 0 0-.791.792m9.959 4.454-.03.013A3.625 3.625 0 0 1 8.009 8.59H3.107v3.337a.794.794 0 0 0 .791.792h8.376a.794.794 0 0 0 .792-.792zm-4.927-1.13H4.887v.792h3.252zm6.32-2.197a2.833 2.833 0 1 0-1.393 2.44 2.83 2.83 0 0 0 1.392-2.44zm-1.69.634a.83.83 0 0 1-.414.713 1.3 1.3 0 0 1-.41.171v.183a.317.317 0 0 1-.633 0v-.179a1.5 1.5 0 0 1-.264-.083.94.94 0 0 1-.361-.264.317.317 0 1 1 .478-.415.3.3 0 0 0 .118.091 1 1 0 0 0 .16.052 1 1 0 0 0 .174.021.8.8 0 0 0 .393-.109c.125-.081.125-.149.125-.182a.2.2 0 0 0-.052-.138.5.5 0 0 0-.13-.104.7.7 0 0 0-.161-.058 1 1 0 0 0-.16-.016 1.6 1.6 0 0 1-.27-.022 1.3 1.3 0 0 1-.35-.113 1 1 0 0 1-.334-.267.86.86 0 0 1-.198-.54.87.87 0 0 1 .433-.738 1.3 1.3 0 0 1 .399-.162v-.175a.317.317 0 1 1 .633 0v.183a1.5 1.5 0 0 1 .27.094 1.1 1.1 0 0 1 .316.218.317.317 0 0 1-.447.448.5.5 0 0 0-.13-.089 1 1 0 0 0-.164-.057l-.018-.004a1 1 0 0 0-.135-.023.76.76 0 0 0-.385.103.25.25 0 0 0-.139.202.24.24 0 0 0 .056.14.4.4 0 0 0 .125.1.6.6 0 0 0 .171.055 1 1 0 0 0 .167.013 1.4 1.4 0 0 1 .294.031 1.3 1.3 0 0 1 .322.116 1.1 1.1 0 0 1 .312.248.84.84 0 0 1 .209.556"/></svg>