<svg viewBox="0 0 17 19" xmlns="http://www.w3.org/2000/svg"><path d="m10.407 8.295h-9.712v-.448a1.11 1.11 0 0 1 1.109-1.108h8.252a3.7 3.7 0 0 0 .35 1.556zm-9.712 1.109h10.517q.071.066.145.129v4.626l-.074.003h-9.48a1.11 1.11 0 0 1 -1.108-1.108zm1.758 3.188h3.819v-1.109h-3.82zm12.395-8.182a2.57 2.57 0 0 1 .156 4.552v5.269a1.27 1.27 0 0 1 -2.539 0v-5.271l-.074-.043a2.57 2.57 0 0 1 -1.226-2.18v-.011a2.57 2.57 0 0 1 1.455-2.316v1.923a.417.417 0 0 0 .416.415h1.396a.417.417 0 0 0 .415-.415v-1.923z"/></svg>