<svg viewBox="0 0 17 19" xmlns="http://www.w3.org/2000/svg"><path d="m16.417 9.583a7.917 7.917 0 1 1 -7.917-7.917 7.917 7.917 0 0 1 7.917 7.917m-12.63-2.166a.794.794 0 0 0 -.791.792v.257h6.596a2.55 2.55 0 0 1 -.22-1.036v-.013zm6.476 1.95q-.06-.053-.118-.109h-7.15v2.45a.794.794 0 0 0 .792.792h6.425q.026 0 .05-.002zm-3.45 1.283h-2.613v.791h2.615zm6.87-3.22a1.76 1.76 0 0 0 -.997-1.587v1.317a.285.285 0 0 1 -.285.284h-.956a.285.285 0 0 1 -.284-.284v-1.317a1.76 1.76 0 0 0 -.107 3.117v3.608a.869.869 0 1 0 1.738 0v-3.608a1.76 1.76 0 0 0 .891-1.53"/></svg>