<svg xmlns="http://www.w3.org/2000/svg" aria-hidden="true" class="cf-icon-svg cf-icon-svg--credit-report-round" viewBox="0 0 17 19"><path d="M16.417 9.583A7.917 7.917 0 1 1 8.5 1.666a7.917 7.917 0 0 1 7.917 7.917m-4.233-1.805H9.259a.32.32 0 0 1-.317-.317v-2.9H5.16a.32.32 0 0 0-.316.317v9.367a.32.32 0 0 0 .316.317h6.708a.32.32 0 0 0 .317-.317zm-4.195 5.557.034-.002a.4.4 0 0 0 .31-.196l2.294-3.974a.396.396 0 0 0-.686-.396l-2.01 3.483-.92-1.105a.396.396 0 1 0-.61.507l1.284 1.54a.4.4 0 0 0 .304.143m1.748-6.352h2.43l-2.43-2.416z"/></svg>