<svg viewBox="0 0 17 19" xmlns="http://www.w3.org/2000/svg"><path d="m5.212 10.418a3 3 0 0 0 -.217.827h-3.92a.474.474 0 0 1 -.473-.472v-.409a.474.474 0 0 1 .472-.473h4.357l.066.004a3 3 0 0 0 -.285.523m11.138-1.102v3.995a.476.476 0 0 1 -.475.475h-1.063a2.78 2.78 0 0 1 -2.556 1.411h-9.061a.474.474 0 0 1 -.473-.473v-.409a.474.474 0 0 1 .473-.473h2.797a3.01 3.01 0 1 0 .076-4.572h-4.398a.474.474 0 0 1 -.472-.473v-.409a.474.474 0 0 1 .472-.472h5.988l.001-.001h1.76a.356.356 0 0 0 0-.713h-2.318a.474.474 0 0 1 -.473-.473v-.529a.474.474 0 0 1 .472-.473h2.512q.023 0 .047.003l.002-.003h.212a4.94 4.94 0 0 1 4.39 3.114h1.611a.476.476 0 0 1 .475.475zm-10.893 3.904h-3.787a.474.474 0 0 1 -.472-.472v-.408a.474.474 0 0 1 .472-.473h3.318a3 3 0 0 0 .468 1.353zm2.923-3.847v.324a2 2 0 0 1 .335.117 1.4 1.4 0 0 1 .394.271.396.396 0 0 1 -.558.56.6.6 0 0 0 -.16-.11 1 1 0 0 0 -.206-.071l-.022-.005a1 1 0 0 0 -.168-.028.94.94 0 0 0 -.478.127.3.3 0 0 0 -.172.25.3.3 0 0 0 .07.175.5.5 0 0 0 .155.124.8.8 0 0 0 .212.068 1 1 0 0 0 .208.016 2 2 0 0 1 .366.038 1.6 1.6 0 0 1 .4.145 1.4 1.4 0 0 1 .39.31 1.05 1.05 0 0 1 .26.692 1.03 1.03 0 0 1 -.516.89 1.6 1.6 0 0 1 -.51.212v.325a.396.396 0 0 1 -.791 0v-.32a2 2 0 0 1 -.328-.103 1.2 1.2 0 0 1 -.45-.33l-.008-.009a.396.396 0 1 1 .606-.509.4.4 0 0 0 .146.113 1 1 0 0 0 .2.064 2 2 0 0 0 .215.027.96.96 0 0 0 .49-.135c.155-.101.155-.185.155-.225a.27.27 0 0 0 -.065-.172.6.6 0 0 0 -.162-.13.8.8 0 0 0 -.2-.072 1 1 0 0 0 -.199-.02 2 2 0 0 1 -.338-.027 1.6 1.6 0 0 1 -.436-.14 1.3 1.3 0 0 1 -.415-.334 1.07 1.07 0 0 1 -.247-.674 1.09 1.09 0 0 1 .54-.919 1.6 1.6 0 0 1 .495-.203v-.312a.396.396 0 0 1 .792 0"/></svg>