<svg xmlns="http://www.w3.org/2000/svg" aria-hidden="true" class="cf-icon-svg cf-icon-svg--debt" viewBox="0 0 16 19"><path d="M14.874 9.97a.554.554 0 0 1 .357.697l-.756 2.34a.554.554 0 1 1-1.054-.34l.347-1.075-7.151 3.66a.55.55 0 0 1-.518-.008l-2.58-1.41-1.97 1.008a.554.554 0 1 1-.505-.987l2.23-1.141a.55.55 0 0 1 .519.007l2.58 1.41 1.162-.595a3.287 3.287 0 1 1 2.967-1.518l2.75-1.407-1.058-.342a.554.554 0 1 1 .34-1.055zm-5.462 1.444a1.1 1.1 0 0 0 .059-1.088 1.12 1.12 0 0 0-.58-.526 1.5 1.5 0 0 0-.519-.105 1.8 1.8 0 0 0-.452.057 2 2 0 0 0-.368.143 1.4 1.4 0 0 1-.216.09 1 1 0 0 1-.252.041.6.6 0 0 1-.228-.047.36.36 0 0 1-.173-.152.36.36 0 0 1 .044-.365 1.06 1.06 0 0 1 .417-.377 1 1 0 0 1 .186-.059l.023-.006a1.2 1.2 0 0 1 .244-.033.6.6 0 0 1 .224.029.396.396 0 0 0 .242-.754 1.4 1.4 0 0 0-.506-.066 2 2 0 0 0-.406.059l-.174-.341a.396.396 0 1 0-.705.36l.17.331a1.8 1.8 0 0 0-.397.454 1.15 1.15 0 0 0-.067 1.128 1.14 1.14 0 0 0 .558.516 1.35 1.35 0 0 0 .555.115 1.7 1.7 0 0 0 .484-.079 2 2 0 0 0 .337-.14 1 1 0 0 1 .21-.082 1 1 0 0 1 .241-.03.7.7 0 0 1 .235.048.33.33 0 0 1 .168.152c.021.041.071.139-.04.332a1.07 1.07 0 0 1-.424.39 2 2 0 0 1-.23.084 1.2 1.2 0 0 1-.233.038.5.5 0 0 1-.215-.04.396.396 0 0 0-.297.734 1.3 1.3 0 0 0 .482.099q.052 0 .103-.005a2 2 0 0 0 .394-.07l.173.34a.396.396 0 1 0 .705-.361l-.176-.343a1.8 1.8 0 0 0 .404-.471"/></svg>