<svg xmlns="http://www.w3.org/2000/svg" aria-hidden="true" class="cf-icon-svg cf-icon-svg--dine-out" viewBox="0 0 13 19"><path d="M11.816 3.746a.6.6 0 0 1-.193-.035 14.66 14.66 0 0 0-10.246-.005.554.554 0 0 1-.386-1.04 15.77 15.77 0 0 1 11.018.006.554.554 0 0 1-.193 1.074m-.446.922s-.311-.12-.697-.243a13.8 13.8 0 0 0-8.202-.05c-.43.132-.84.29-.84.29a.463.463 0 0 0-.262.61l4.943 11.95c.1.241.263.241.363 0L11.631 5.28a.464.464 0 0 0-.26-.61zM2.85 6.372a1.425 1.425 0 1 1 1.425 1.425A1.425 1.425 0 0 1 2.85 6.372m3.662 6.971a1.425 1.425 0 1 1 1.425-1.425 1.425 1.425 0 0 1-1.425 1.425M8.17 9.388a1.425 1.425 0 1 1 1.425-1.425A1.425 1.425 0 0 1 8.17 9.388"/></svg>