<svg xmlns="http://www.w3.org/2000/svg" aria-hidden="true" class="cf-icon-svg cf-icon-svg--dollar" viewBox="0 0 9 19"><path d="M8.699 11.907a3 3 0 0 1-1.503 2.578 4.9 4.9 0 0 1-1.651.663V16.3a1.03 1.03 0 1 1-2.059 0v-1.141l-.063-.011a5.2 5.2 0 0 1-1.064-.325 3.4 3.4 0 0 1-1.311-.962 1.029 1.029 0 1 1 1.556-1.347 1.4 1.4 0 0 0 .52.397l.002.001a3.4 3.4 0 0 0 .648.208h.002a5 5 0 0 0 .695.084 3.13 3.13 0 0 0 1.605-.445c.5-.325.564-.625.564-.851a1 1 0 0 0-.245-.65 2 2 0 0 0-.55-.44 2.7 2.7 0 0 0-.664-.24 3 3 0 0 0-.65-.066 6 6 0 0 1-1.008-.08 4.6 4.6 0 0 1-1.287-.415A3.7 3.7 0 0 1 1.02 9.04a3.1 3.1 0 0 1-.718-1.954 3 3 0 0 1 .321-1.333 3.4 3.4 0 0 1 1.253-1.335 4.9 4.9 0 0 1 1.611-.631V2.674a1.03 1.03 0 1 1 2.059 0v1.144l.063.014h.002a5.5 5.5 0 0 1 1.075.368 4 4 0 0 1 1.157.795A1.03 1.03 0 0 1 6.39 6.453a1.9 1.9 0 0 0-.549-.376 3.5 3.5 0 0 0-.669-.234l-.066-.014a3 3 0 0 0-.558-.093 3.06 3.06 0 0 0-1.572.422 1.1 1.1 0 0 0-.615.928 1.1 1.1 0 0 0 .256.654l.002.003a1.7 1.7 0 0 0 .537.43l.002.002a2.6 2.6 0 0 0 .703.225h.002a4 4 0 0 0 .668.053 5 5 0 0 1 1.087.112l.003.001a4.8 4.8 0 0 1 1.182.428l.004.002a4.1 4.1 0 0 1 1.138.906l.002.002a3.05 3.05 0 0 1 .753 2.003z"/></svg>