<svg xmlns="http://www.w3.org/2000/svg" aria-hidden="true" class="cf-icon-svg cf-icon-svg--edit" viewBox="0 0 15 19"><path d="M5.9 4.544 2.534 7.912 1.225 6.604a1.11 1.11 0 0 1 0-1.567l1.8-1.8a1.11 1.11 0 0 1 1.568 0zm7.926 11.565a.5.5 0 0 1-.099-.011l-3.419-.77a1.96 1.96 0 0 1-.77-.412v.001l-3.709-3.71-2.512-2.511 1.71-1.71 6.22 6.221-1.181 1.182a1.3 1.3 0 0 0 .406.213l1.508.339.95-.95-.34-1.508a1.3 1.3 0 0 0-.213-.405l-.345.345-6.222-6.22.874-.875L9.197 7.84l1.751 1.752 1.957 1.958a2 2 0 0 1 .412.77l.77 3.419c.05.22-.065.37-.26.37z"/></svg>