<svg xmlns="http://www.w3.org/2000/svg" aria-hidden="true" class="cf-icon-svg cf-icon-svg--eight-open" viewBox="0 0 17 19"><path d="M10.594 1.975a8 8 0 0 1 1.895.795 8 8 0 0 1 1.604 1.237 8 8 0 0 1 1.241 1.6 7.91 7.91 0 0 1 0 7.991 8 8 0 0 1-2.845 2.845 7.9 7.9 0 0 1-4.007 1.082 7.8 7.8 0 0 1-3.985-1.082 8 8 0 0 1-1.599-1.241 8 8 0 0 1-1.237-1.604 8 8 0 0 1-.795-1.895 8 8 0 0 1-.283-2.112 7.8 7.8 0 0 1 .283-2.098 7.9 7.9 0 0 1 5.518-5.518 7.8 7.8 0 0 1 2.098-.283 8 8 0 0 1 2.112.283M6.682 3.043A6.79 6.79 0 0 0 1.933 7.79a6.7 6.7 0 0 0-.241 1.8 6.8 6.8 0 0 0 .242 1.815 7 7 0 0 0 .685 1.634 6.8 6.8 0 0 0 1.063 1.378 7 7 0 0 0 1.38 1.071 6.82 6.82 0 0 0 5.235.686 6.8 6.8 0 0 0 3.012-1.757 7 7 0 0 0 1.07-1.382 6.8 6.8 0 0 0 .93-3.445 6.7 6.7 0 0 0-.243-1.8 6.8 6.8 0 0 0-.686-1.62 7 7 0 0 0-1.07-1.38 6.8 6.8 0 0 0-1.38-1.063 7 7 0 0 0-1.633-.685A6.8 6.8 0 0 0 8.482 2.8a6.7 6.7 0 0 0-1.8.243m4.185 7.682a1.6 1.6 0 0 0-.616-.796 1.7 1.7 0 0 0-.46-.218v-.028a1.46 1.46 0 0 0 .723-.518 1.5 1.5 0 0 0 .278-.917 1.65 1.65 0 0 0-.19-.801 1.8 1.8 0 0 0-.505-.58 2.2 2.2 0 0 0-.727-.347 3.2 3.2 0 0 0-.866-.115 3.1 3.1 0 0 0-.87.12 2.2 2.2 0 0 0-.732.357 1.7 1.7 0 0 0-.5.588 1.7 1.7 0 0 0-.185.806 1.4 1.4 0 0 0 .287.903 1.6 1.6 0 0 0 .713.513v.019a1.7 1.7 0 0 0-.454.218 1.7 1.7 0 0 0-.375.342 1.6 1.6 0 0 0-.254.454 1.6 1.6 0 0 0-.093.551 1.9 1.9 0 0 0 .203.903 1.9 1.9 0 0 0 .54.635 2.4 2.4 0 0 0 .782.375 3.53 3.53 0 0 0 1.863 0 2.3 2.3 0 0 0 .785-.38 1.85 1.85 0 0 0 .745-1.542 1.6 1.6 0 0 0-.092-.542m-1.705 1.12a.92.92 0 0 1-.658.237.93.93 0 0 1-.662-.236.82.82 0 0 1-.254-.635.86.86 0 0 1 .254-.638.9.9 0 0 1 .662-.25.9.9 0 0 1 .654.254.86.86 0 0 1 .254.634.83.83 0 0 1-.25.635zm-.093-2.94a.75.75 0 0 1-.565.232.73.73 0 0 1-.57-.232.8.8 0 0 1-.208-.546.73.73 0 0 1 .213-.537.76.76 0 0 1 .565-.213.8.8 0 0 1 .556.213.7.7 0 0 1 .232.537.76.76 0 0 1-.223.546"/></svg>