<svg xmlns="http://www.w3.org/2000/svg" aria-hidden="true" class="cf-icon-svg cf-icon-svg--entertainment-round" viewBox="0 0 17 19"><path d="M16.417 9.579A7.917 7.917 0 1 1 8.5 1.662a7.917 7.917 0 0 1 7.917 7.917m-2.33-1.947a.44.44 0 0 0-.327-.408.66.66 0 0 1-.301-.199.6.6 0 0 1-.169-.265.43.43 0 0 0-.403-.329H4.11a.43.43 0 0 0-.402.33.6.6 0 0 1-.169.264.66.66 0 0 1-.302.199.44.44 0 0 0-.327.408v.752a.43.43 0 0 0 .328.401.6.6 0 0 1 .259.164.865.865 0 0 1-.012 1.282.6.6 0 0 1-.246.154.425.425 0 0 0-.33.4v.752a.44.44 0 0 0 .328.408.67.67 0 0 1 .305.202.6.6 0 0 1 .164.254.43.43 0 0 0 .404.329h8.778a.43.43 0 0 0 .404-.329.6.6 0 0 1 .163-.254.67.67 0 0 1 .306-.202.44.44 0 0 0 .327-.408v-.752a.426.426 0 0 0-.33-.4.6.6 0 0 1-.245-.154.865.865 0 0 1-.012-1.282.6.6 0 0 1 .258-.163.43.43 0 0 0 .329-.402zM5.94 11.504V7.657a.396.396 0 0 0-.791 0v3.847a.396.396 0 0 0 .791 0m3.803-1.174a.9.9 0 0 1-.448.77 1.5 1.5 0 0 1-.48.196v.327a.317.317 0 0 1-.633 0v-.324l-.008-.002a1.6 1.6 0 0 1-.315-.096 1 1 0 0 1-.391-.287.317.317 0 1 1 .479-.415.4.4 0 0 0 .147.113 1 1 0 0 0 .189.061 1.4 1.4 0 0 0 .202.025.9.9 0 0 0 .465-.13c.16-.103.16-.197.16-.238a.28.28 0 0 0-.069-.182.6.6 0 0 0-.158-.127.8.8 0 0 0-.192-.068 1 1 0 0 0-.188-.02 2 2 0 0 1-.299-.023 1.4 1.4 0 0 1-.383-.124 1.1 1.1 0 0 1-.362-.29.93.93 0 0 1-.214-.584.94.94 0 0 1 .47-.797 1.4 1.4 0 0 1 .467-.185v-.316a.317.317 0 1 1 .633 0v.326l.008.001a1.6 1.6 0 0 1 .32.11 1.2 1.2 0 0 1 .344.236.316.316 0 1 1-.447.448.6.6 0 0 0-.157-.107 1 1 0 0 0-.194-.068l-.02-.004a1 1 0 0 0-.161-.027.9.9 0 0 0-.456.122.31.31 0 0 0-.174.261.3.3 0 0 0 .072.184.5.5 0 0 0 .154.124.8.8 0 0 0 .204.065 1 1 0 0 0 .195.015 1.5 1.5 0 0 1 .323.034 1.4 1.4 0 0 1 .352.127 1.2 1.2 0 0 1 .34.27.9.9 0 0 1 .225.6zm2.108 1.174V7.657a.396.396 0 0 0-.792 0v3.847a.396.396 0 0 0 .792 0"/></svg>