<svg xmlns="http://www.w3.org/2000/svg" aria-hidden="true" class="cf-icon-svg cf-icon-svg--entertainment" viewBox="0 0 17 19"><path d="M15.19 10.726a1.22 1.22 0 0 0 .411.915.9.9 0 0 0 .348.218.6.6 0 0 1 .466.567v1.065a.62.62 0 0 1-.463.578.95.95 0 0 0-.433.287.9.9 0 0 0-.231.36.61.61 0 0 1-.572.464H2.284a.61.61 0 0 1-.572-.465.9.9 0 0 0-.232-.36.95.95 0 0 0-.432-.286.62.62 0 0 1-.463-.578v-1.065a.6.6 0 0 1 .465-.567.86.86 0 0 0 .349-.218 1.225 1.225 0 0 0 .017-1.815.9.9 0 0 0-.366-.232.606.606 0 0 1-.465-.568V7.96a.62.62 0 0 1 .463-.577.94.94 0 0 0 .428-.282.9.9 0 0 0 .238-.375.61.61 0 0 1 .57-.466h12.431a.61.61 0 0 1 .57.466.9.9 0 0 0 .24.375.94.94 0 0 0 .427.282.62.62 0 0 1 .463.577v1.066a.606.606 0 0 1-.465.568.9.9 0 0 0-.366.232 1.22 1.22 0 0 0-.394.9M4.868 7.996a.554.554 0 0 0-1.108 0v5.448a.554.554 0 0 0 1.108 0zm4.776 4.868a1.3 1.3 0 0 0 .648-1.116 1.32 1.32 0 0 0-.326-.868 1.8 1.8 0 0 0-.489-.39h-.002a2 2 0 0 0-.507-.183 2.2 2.2 0 0 0-.464-.049 1.6 1.6 0 0 1-.273-.02 1 1 0 0 1-.282-.091.7.7 0 0 1-.211-.17.4.4 0 0 1-.097-.245.42.42 0 0 1 .236-.351 1.25 1.25 0 0 1 .634-.17 1.4 1.4 0 0 1 .224.038l.028.006a1.4 1.4 0 0 1 .271.095.8.8 0 0 1 .216.148.475.475 0 0 0 .671-.673 1.7 1.7 0 0 0-.497-.342 2.3 2.3 0 0 0-.451-.154v-.443a.475.475 0 1 0-.95 0v.43a2.1 2.1 0 0 0-.653.262 1.37 1.37 0 0 0-.68 1.154 1.35 1.35 0 0 0 .31.844 1.6 1.6 0 0 0 .524.42 2 2 0 0 0 .551.178 2.6 2.6 0 0 0 .43.035 1.2 1.2 0 0 1 .261.026 1 1 0 0 1 .268.096.8.8 0 0 1 .217.175.38.38 0 0 1 .092.242c0 .058 0 .179-.216.319a1.25 1.25 0 0 1-.648.179 2 2 0 0 1-.283-.035 1.4 1.4 0 0 1-.264-.084.54.54 0 0 1-.2-.155.475.475 0 1 0-.718.622 1.5 1.5 0 0 0 .566.415 2.2 2.2 0 0 0 .443.136v.44a.475.475 0 1 0 .95 0v-.445a2.1 2.1 0 0 0 .67-.276zm3.596-4.868a.554.554 0 0 0-1.109 0v5.448a.554.554 0 0 0 1.109 0z"/></svg>