<svg viewBox="0 0 17 19" xmlns="http://www.w3.org/2000/svg"><path d="m16.417 9.583a7.917 7.917 0 1 1 -7.917-7.917 7.917 7.917 0 0 1 7.917 7.917m-3.49-3.99a.396.396 0 0 0 -.396-.396h-3.443a.396.396 0 0 0 0 .791h2.488l-1.624 1.624a1.2 1.2 0 0 0 -.562-.142h-4.244a1.19 1.19 0 0 0 -1.188 1.187v4.244a1.19 1.19 0 0 0 1.188 1.187h4.244a1.19 1.19 0 0 0 1.187-1.187v-4.244a1.2 1.2 0 0 0 -.092-.459l1.65-1.65v2.488a.396.396 0 0 0 .792 0zm-5.302 5.466 2.16-2.161v4.002a.396.396 0 0 1 -.395.396h-4.244a.396.396 0 0 1 -.396-.396v-4.243a.396.396 0 0 1 .396-.396h4.157l-2.238 2.239a.396.396 0 1 0 .56.56z"/></svg>