<svg xmlns="http://www.w3.org/2000/svg" aria-hidden="true" class="cf-icon-svg cf-icon-svg--favorite-round" viewBox="0 0 17 19"><path d="M16.417 9.583A7.917 7.917 0 1 1 8.5 1.666a7.917 7.917 0 0 1 7.917 7.917m-3.08-1.993-1.472-.174-1.485-.176-1.247-2.704c-.345-.747-.908-.747-1.253 0L6.633 7.24l-1.485.176-1.471.174c-.817.097-.991.633-.387 1.192l1.088 1.006 1.098 1.015-.292 1.467-.289 1.453c-.16.807.296 1.138 1.014.737l2.598-1.455 2.598 1.455c.717.401 1.173.07 1.013-.737l-.58-2.92 1.097-1.015 1.089-1.006c.604-.559.43-1.095-.387-1.192"/></svg>