<svg viewBox="0 0 17 19" xmlns="http://www.w3.org/2000/svg"><path d="m16.5 9.5a8 8 0 1 1 -8-8 8 8 0 0 1 8 8m-10.35-.704a1.044 1.044 0 0 0 -2.088 0v4.408a1.044 1.044 0 1 0 2.088 0zm-.446-4.586a.4.4 0 0 0 -.4.4v2.353a1.83 1.83 0 0 1 1.106.53q.065.063.122.134h5.137v-.7h-2.365a.423.423 0 0 1 -.422-.422v-2.295zm7.197 4.633a.4.4 0 0 0 -.4-.4h-5.585a2 2 0 0 1 .034.353v4.408a1.83 1.83 0 0 1 -.313 1.029h5.864a.4.4 0 0 0 .4-.4zm-3.987 1.41a.4.4 0 0 0 -.4-.4h-.001a.4.4 0 1 0 .4.4zm0 1.188a.4.4 0 0 0 -.4-.4h-.001a.4.4 0 1 0 .4.4zm0 1.188a.4.4 0 0 0 -.4-.4h-.001a.4.4 0 1 0 .4.4zm1.355-2.377a.4.4 0 0 0 -.4-.4h-.002a.4.4 0 1 0 0 .8h.002a.4.4 0 0 0 .4-.4m0 1.189a.4.4 0 0 0 -.4-.4h-.002a.4.4 0 1 0 0 .8h.002a.4.4 0 0 0 .4-.4m0 1.188a.4.4 0 0 0 -.4-.4h-.002a.4.4 0 1 0 0 .8h.002a.4.4 0 0 0 .4-.4m-.747-6.342h2.147v-.004l-2.146-2.073h-.001zm2.101 3.965a.4.4 0 0 0 -.4-.4.4.4 0 1 0 .4.4m0 1.189a.4.4 0 0 0 -.4-.4.4.4 0 1 0 .4.4m0 1.188a.4.4 0 0 0 -.4-.4.4.4 0 1 0 .4.4"/></svg>