<svg xmlns="http://www.w3.org/2000/svg" aria-hidden="true" class="cf-icon-svg cf-icon-svg--five-closed" viewBox="0 0 17 19"><path d="M16.417 9.6A7.917 7.917 0 1 1 8.5 1.683 7.917 7.917 0 0 1 16.417 9.6m-5.313 1.297a2.1 2.1 0 0 0-.186-.907 1.9 1.9 0 0 0-.504-.653 2.1 2.1 0 0 0-.755-.393 3.2 3.2 0 0 0-.926-.13 4 4 0 0 0-.329.014 2 2 0 0 0-.329.05l.056-1.037h2.64V6.508H6.75l-.158 3.75a4.6 4.6 0 0 1 .801-.208 5 5 0 0 1 .802-.079 2.5 2.5 0 0 1 .481.047 1.3 1.3 0 0 1 .43.162.9.9 0 0 1 .31.31.9.9 0 0 1 .121.482.87.87 0 0 1-.291.713 1.12 1.12 0 0 1-1.362.018 1.1 1.1 0 0 1-.384-.565l-1.417.436a2.1 2.1 0 0 0 .347.699 2.2 2.2 0 0 0 .565.523 2.7 2.7 0 0 0 .732.33 3.14 3.14 0 0 0 1.783-.029 2.5 2.5 0 0 0 .81-.43 2.1 2.1 0 0 0 .57-.727 2.4 2.4 0 0 0 .213-1.043z"/></svg>