<svg viewBox="0 0 17 19" xmlns="http://www.w3.org/2000/svg"><path d="m16.417 9.583a7.917 7.917 0 1 1 -7.917-7.917 7.917 7.917 0 0 1 7.917 7.917m-11.729-4.109a.396.396 0 0 0 -.791 0v8.422a.396.396 0 1 0 .791 0zm8.062.44c0-.19-.116-.25-.257-.133l-.123.09a2.73 2.73 0 0 1 -1.623.626c-1.287-.008-2.112-1.322-3.537-1.27a2.9 2.9 0 0 0 -1.243.36 5 5 0 0 0 -.23.128l-.078.046a.6.6 0 0 0 -.161.45v4.14c0 .19.116.272.259.182l.123-.067a2.9 2.9 0 0 1 1.413-.409c1.381 0 2.2 1.274 3.47 1.271a2.8 2.8 0 0 0 1.679-.679l.1-.075a.76.76 0 0 0 .21-.519z"/></svg>