<svg xmlns="http://www.w3.org/2000/svg" aria-hidden="true" class="cf-icon-svg cf-icon-svg--flag-round" viewBox="0 0 17 19"><path d="M16.417 9.583A7.917 7.917 0 1 1 8.5 1.666a7.917 7.917 0 0 1 7.917 7.917M4.688 5.474a.396.396 0 0 0-.791 0v8.422a.396.396 0 1 0 .791 0zm8.062.44c0-.19-.116-.25-.257-.133l-.123.09a2.73 2.73 0 0 1-1.623.626C9.46 6.489 8.635 5.175 7.21 5.227a2.9 2.9 0 0 0-1.243.36 5 5 0 0 0-.23.128l-.078.046a.6.6 0 0 0-.161.45v4.14c0 .19.116.272.259.182l.123-.067a2.9 2.9 0 0 1 1.413-.409c1.381 0 2.2 1.274 3.47 1.271a2.8 2.8 0 0 0 1.679-.679l.1-.075a.76.76 0 0 0 .21-.519z"/></svg>