<svg viewBox="0 0 10 19" xmlns="http://www.w3.org/2000/svg"><path d="m8.89 16.907a.554.554 0 0 1 -.553.554h-6.674a.554.554 0 0 1 0-1.108h2.783v-1.473a4.16 4.16 0 0 1 -3.007-.89 4.34 4.34 0 0 1 -.878-3.162 4.34 4.34 0 0 1 3.163.877 2.95 2.95 0 0 1 .722 1.313v-3.248a2.426 2.426 0 1 1 -2.796-3.964 2.426 2.426 0 1 1 3.37-3.37 2.426 2.426 0 1 1 3.369 3.37 2.5 2.5 0 0 1 .353.292 2.426 2.426 0 0 1 -3.188 3.642v4.055a2.95 2.95 0 0 1 .722-1.312 4.34 4.34 0 0 1 3.163-.878 4.34 4.34 0 0 1 -.878 3.162 4.16 4.16 0 0 1 -3.007.89v.696h2.783a.554.554 0 0 1 .554.554zm-3.871-9.676a1.425 1.425 0 1 0 -1.425-1.425 1.425 1.425 0 0 0 1.424 1.424z"/></svg>