<svg xmlns="http://www.w3.org/2000/svg" aria-hidden="true" class="cf-icon-svg cf-icon-svg--flower-round" viewBox="0 0 17 19"><path d="M16.417 9.579A7.917 7.917 0 1 1 8.5 1.662a7.917 7.917 0 0 1 7.917 7.917m-7.541 4.847v-.474a2.9 2.9 0 0 0 2.085-.62 3.03 3.03 0 0 0 .612-2.204 3.03 3.03 0 0 0-2.204.612 2.04 2.04 0 0 0-.493.88V9.836a1.69 1.69 0 0 0 2.212-2.545 1.7 1.7 0 0 0-.246-.203 1.7 1.7 0 0 0 .246-.204A1.69 1.69 0 1 0 8.494 4.74a1.69 1.69 0 1 0-2.348 2.348 1.69 1.69 0 1 0 1.938 2.77v2.221a2.04 2.04 0 0 0-.494-.88 3.03 3.03 0 0 0-2.203-.612A3.03 3.03 0 0 0 6 12.791a2.9 2.9 0 0 0 2.085.62v1.015h-1.93a.396.396 0 0 0 0 .792h4.65a.396.396 0 0 0 0-.792zm-.382-6.31a1.03 1.03 0 1 1 1.03-1.028 1.03 1.03 0 0 1-1.03 1.029z"/></svg>