<svg xmlns="http://www.w3.org/2000/svg" aria-hidden="true" class="cf-icon-svg cf-icon-svg--folder-delete-round" viewBox="0 0 17 19"><path d="M16.417 9.579A7.917 7.917 0 1 1 8.5 1.662a7.917 7.917 0 0 1 7.917 7.917m-3.122-2.755a.317.317 0 0 0-.317-.317H7.752l-.436-.852a.57.57 0 0 0-.461-.282H4.038a.32.32 0 0 0-.317.317v7.438a.32.32 0 0 0 .317.316h8.94a.317.317 0 0 0 .317-.316zm-3.036 2.132L9.07 10.144l1.189 1.189a.396.396 0 1 1-.56.56l-1.189-1.19-1.188 1.19a.396.396 0 1 1-.56-.56l1.189-1.189-1.189-1.188a.396.396 0 0 1 .56-.56L8.51 9.584 9.7 8.396a.396.396 0 0 1 .56.56z"/></svg>