<svg xmlns="http://www.w3.org/2000/svg" aria-hidden="true" class="cf-icon-svg cf-icon-svg--folder-add-round" viewBox="0 0 17 19"><path d="M16.417 9.579A7.917 7.917 0 1 1 8.5 1.662a7.917 7.917 0 0 1 7.917 7.917m-3.122-2.755a.317.317 0 0 0-.317-.317H7.752l-.436-.852a.57.57 0 0 0-.461-.282H4.038a.32.32 0 0 0-.317.317v7.438a.32.32 0 0 0 .317.316h8.94a.317.317 0 0 0 .317-.316zm-2.8 3.151a.396.396 0 0 1-.395.396H8.862v1.239a.396.396 0 0 1-.792 0v-1.239H6.83a.396.396 0 1 1 0-.791h1.24V8.34a.396.396 0 0 1 .792 0v1.24H10.1a.396.396 0 0 1 .396.395z"/></svg>