<svg xmlns="http://www.w3.org/2000/svg" aria-hidden="true" class="cf-icon-svg cf-icon-svg--four-open" viewBox="0 0 17 19"><path d="M10.59 1.966a7.95 7.95 0 0 1 5.544 5.532 7.9 7.9 0 0 1 0 4.192 7.9 7.9 0 0 1-2.04 3.494 8 8 0 0 1-1.61 1.246 8 8 0 0 1-1.895.804 7.82 7.82 0 0 1-6.079-.804 8 8 0 0 1-1.603-1.246A7.9 7.9 0 0 1 .866 11.69a7.9 7.9 0 0 1 0-4.193 7.96 7.96 0 0 1 5.53-5.53 7.9 7.9 0 0 1 4.193 0zM6.695 3.034a7 7 0 0 0-1.624.687A6.9 6.9 0 0 0 2.62 6.173a7 7 0 0 0-.688 1.624 6.8 6.8 0 0 0 0 3.595 6.8 6.8 0 0 0 .688 1.627A7 7 0 0 0 3.69 14.4a7 7 0 0 0 1.385 1.076 6.8 6.8 0 0 0 1.62.69 6.8 6.8 0 0 0 3.595 0 6.8 6.8 0 0 0 1.631-.692 7 7 0 0 0 1.387-1.074 7 7 0 0 0 1.07-1.382 6.8 6.8 0 0 0 .687-1.627 6.8 6.8 0 0 0 0-3.595 6.85 6.85 0 0 0-4.775-4.763 6.8 6.8 0 0 0-3.595 0zm4.33 8.817v-1.26h-.908V6.572h-1.86l-2.668 3.973v1.306h3.084v1.278h1.455v-1.278zm-2.344-1.26H7.1l1.556-2.426h.027z"/></svg>