<svg xmlns="http://www.w3.org/2000/svg" aria-hidden="true" class="cf-icon-svg cf-icon-svg--furniture" viewBox="0 0 16 19"><path d="M2.461 7.02a1.61 1.61 0 0 1 1.61 1.611v2.456h7.857V8.63a1.61 1.61 0 1 1 1.988 1.566v4.634a.476.476 0 0 1-.475.475H2.559a.476.476 0 0 1-.475-.475v-4.634A1.61 1.61 0 0 1 2.46 7.02zm1.059-.894a3 3 0 0 0-.227-.084V4.669A1.11 1.11 0 0 1 4.4 3.56h7.198a1.11 1.11 0 0 1 1.108 1.109v1.373a3 3 0 0 0-.227.084 2.72 2.72 0 0 0-1.66 2.505v1.347H5.18V8.631a2.72 2.72 0 0 0-1.66-2.505"/></svg>