<svg xmlns="http://www.w3.org/2000/svg" aria-hidden="true" class="cf-icon-svg cf-icon-svg--gambling-round" viewBox="0 0 17 19"><path d="M16.417 9.579A7.917 7.917 0 1 1 8.5 1.662a7.917 7.917 0 0 1 7.917 7.917m-2.868.028A5.049 5.049 0 1 0 8.5 14.655a5.05 5.05 0 0 0 5.049-5.048m-8.252.687-.932.632q-.028-.088-.054-.178a4.35 4.35 0 0 1 0-2.293l.05-.166.951.646a3.3 3.3 0 0 0-.015 1.359m1.209-4.545.218 1.137a3.3 3.3 0 0 0-.947.948l-1.136-.218q.052-.1.109-.197a4.4 4.4 0 0 1 1.564-1.564 4 4 0 0 1 .192-.106m-.301 6.244a3.3 3.3 0 0 0 .504.415l-.202 1.053a4 4 0 0 1-.19-.107 4.5 4.5 0 0 1-.885-.686 4.4 4.4 0 0 1-.682-.882 4 4 0 0 1-.103-.185l1.082-.207a3.3 3.3 0 0 0 .476.6zm3.438-6.576q.09.024.176.053l-.631.931a3.35 3.35 0 0 0-1.365.017l-.645-.95q.085-.027.172-.052a4.33 4.33 0 0 1 2.293 0zm-.405 7.474.577.851q-.085.027-.172.052a4.34 4.34 0 0 1-2.293 0l-.168-.05.59-.871a3.3 3.3 0 0 0 1.466.018m.468-2.592a.86.86 0 0 1-.43.74 1.4 1.4 0 0 1-.44.181v.291a.317.317 0 0 1-.634 0v-.287a1.5 1.5 0 0 1-.29-.09 1 1 0 0 1-.375-.274.317.317 0 1 1 .48-.415.4.4 0 0 0 .13.1 1 1 0 0 0 .173.057 1.4 1.4 0 0 0 .186.022.8.8 0 0 0 .426-.117c.14-.092.14-.17.14-.208a.24.24 0 0 0-.06-.157.5.5 0 0 0-.142-.115.7.7 0 0 0-.175-.062 1 1 0 0 0-.172-.018 2 2 0 0 1-.284-.022 1.3 1.3 0 0 1-.364-.118 1.1 1.1 0 0 1-.346-.278.9.9 0 0 1-.205-.56.9.9 0 0 1 .449-.763 1.4 1.4 0 0 1 .429-.173v-.28a.317.317 0 0 1 .633 0v.289a1.6 1.6 0 0 1 .296.102 1.1 1.1 0 0 1 .328.226.317.317 0 1 1-.447.448.5.5 0 0 0-.141-.097 1 1 0 0 0-.179-.062l-.018-.004a1 1 0 0 0-.147-.025.8.8 0 0 0-.416.112.28.28 0 0 0-.154.228.27.27 0 0 0 .063.16.4.4 0 0 0 .138.11.7.7 0 0 0 .185.06 1 1 0 0 0 .18.014 1.5 1.5 0 0 1 .306.032 1.4 1.4 0 0 1 .336.12 1.2 1.2 0 0 1 .324.259.87.87 0 0 1 .216.574zm1.183-2.99a3.3 3.3 0 0 0-.604-.477l.207-1.082q.098.051.193.106a4.4 4.4 0 0 1 1.565 1.563q.057.096.109.197l-1.053.202a3.3 3.3 0 0 0-.417-.509m.465 4.1.999.192q-.05.094-.103.185a4.4 4.4 0 0 1-.682.882 4.5 4.5 0 0 1-.885.685 4 4 0 0 1-.192.107l-.191-.997a3.3 3.3 0 0 0 1.054-1.053zm1.335-2.954a4.34 4.34 0 0 1 0 2.293q-.026.09-.054.179l-.85-.577a3.35 3.35 0 0 0-.017-1.471l.87-.59q.027.081.05.166z"/></svg>