<svg xmlns="http://www.w3.org/2000/svg" aria-hidden="true" class="cf-icon-svg cf-icon-svg--gambling" viewBox="0 0 17 19"><path d="M16.417 9.518A7.917 7.917 0 1 1 8.5 1.6a7.917 7.917 0 0 1 7.917 7.917zM2.02 11.588l1.46-.991a5.2 5.2 0 0 1 .025-2.13L2.014 7.455a7 7 0 0 0-.079.26 6.8 6.8 0 0 0 0 3.594q.04.141.085.28zm3.697-6.334-.34-1.782q-.154.08-.302.167A6.9 6.9 0 0 0 2.623 6.09q-.09.152-.17.31l1.781.34a5.2 5.2 0 0 1 1.483-1.486m-.022 8.657a5.2 5.2 0 0 1-1.537-1.59l-1.696.325q.077.148.161.29a7 7 0 0 0 1.07 1.383 7 7 0 0 0 1.385 1.076q.148.087.3.167zM10.57 3.035q-.137-.044-.276-.084a6.8 6.8 0 0 0-3.595 0q-.136.039-.27.082l1.011 1.49a5.25 5.25 0 0 1 2.14-.028zm-.006 12.968-.905-1.333a5.2 5.2 0 0 1-2.297-.03l-.926 1.365q.13.042.263.08a6.8 6.8 0 0 0 3.595 0q.135-.039.27-.082m-1.557-9.39a.475.475 0 0 0-.95 0v.458a2.1 2.1 0 0 0-.683.272 1.4 1.4 0 0 0-.695 1.179 1.38 1.38 0 0 0 .317.863 1.6 1.6 0 0 0 .535.43 2 2 0 0 0 .566.182 2.6 2.6 0 0 0 .441.036 1.3 1.3 0 0 1 .275.027 1.1 1.1 0 0 1 .28.101.9.9 0 0 1 .229.184.4.4 0 0 1 .098.261c0 .058 0 .193-.23.343a1.3 1.3 0 0 1-.678.188 2 2 0 0 1-.296-.036 1.4 1.4 0 0 1-.275-.088.6.6 0 0 1-.214-.164.475.475 0 0 0-.718.622 1.5 1.5 0 0 0 .579.424 2.3 2.3 0 0 0 .465.142h.003v.469a.475.475 0 0 0 .95 0v-.474a2.2 2.2 0 0 0 .701-.286 1.33 1.33 0 0 0 .663-1.14 1.35 1.35 0 0 0-.333-.886 1.8 1.8 0 0 0-.5-.4h-.003a2 2 0 0 0-.52-.188 2.3 2.3 0 0 0-.476-.05 2 2 0 0 1-.285-.022 1 1 0 0 1-.296-.095.7.7 0 0 1-.224-.18.44.44 0 0 1-.104-.263.45.45 0 0 1 .252-.376 1.3 1.3 0 0 1 .664-.178 1.4 1.4 0 0 1 .235.04l.029.005a1.5 1.5 0 0 1 .283.1.8.8 0 0 1 .229.156.475.475 0 0 0 .67-.673 1.7 1.7 0 0 0-.509-.35 2.4 2.4 0 0 0-.475-.162zM11.3 5.17a5.2 5.2 0 0 1 1.6 1.546l1.65-.316q-.08-.157-.17-.309a6.9 6.9 0 0 0-2.454-2.45q-.148-.087-.302-.166zm3.241 7.478-1.565-.3a5.2 5.2 0 0 1-1.654 1.65l.3 1.563q.153-.08.301-.167a7 7 0 0 0 1.387-1.075 7 7 0 0 0 1.07-1.381q.084-.143.161-.29m.527-1.338a6.8 6.8 0 0 0 0-3.594q-.037-.132-.079-.261l-1.364.926a5.24 5.24 0 0 1 .026 2.306l1.332.904q.045-.14.085-.28z"/></svg>