<svg viewBox="0 0 17 19" xmlns="http://www.w3.org/2000/svg"><path d="m7.912 8.282h-7.157v-.874a1.11 1.11 0 0 1 1.109-1.108h7.232a4.2 4.2 0 0 1 -.672.67l-.09.07a1.2 1.2 0 0 0 -.422 1.242m6.895 5.896a1.11 1.11 0 0 1 -1.106 1.042h-11.837a1.11 1.11 0 0 1 -1.109-1.108v-4.722h7.723l.883 1.531a1.39 1.39 0 0 0 -.92 1.307v.56a1.39 1.39 0 0 0 1.39 1.39zm-7.839-2.065h-3.871v1.109h3.871zm9.213-3.888-.007.01-1.446 2.506a.64.64 0 0 1 -.496.286h-3.382a.64.64 0 0 1 -.496-.286l-1.46-2.53a.33.33 0 0 1 .014-.415l.088-.068.014-.01a7.3 7.3 0 0 0 2.42-4.62v-.718a.317.317 0 0 1 .632-.026v4.948a1.029 1.029 0 1 0 .95.008v-4.957a.317.317 0 0 1 .632.026v.83a7.23 7.23 0 0 0 2.422 4.524l.1.078a.33.33 0 0 1 .015.414m-.506 4.05a.44.44 0 0 0 -.439-.438h-5.405a.44.44 0 0 0 -.44.439v.56a.44.44 0 0 0 .44.44h5.405a.44.44 0 0 0 .439-.44z"/></svg>