<svg viewBox="0 0 17 19" xmlns="http://www.w3.org/2000/svg"><path d="m16.417 9.583a7.917 7.917 0 1 1 -7.917-7.917 7.917 7.917 0 0 1 7.917 7.917m-13.165-1.66v.554h4.91a.78.78 0 0 1 .304-.58l.062-.048a3.2 3.2 0 0 0 .656-.717h-5.14a.794.794 0 0 0 -.792.792zm9.574 4.873h-3.344a.936.936 0 0 1 -.934-.935v-.385a.94.94 0 0 1 .655-.892l-.759-1.314h-5.192v3.195a.794.794 0 0 0 .792.792h8.064a.79.79 0 0 0 .718-.46zm-5.048-1.689h-2.801v.792h2.801zm6.053-2.696-.069-.053a5.14 5.14 0 0 1 -1.714-3.45v-.225a.217.217 0 0 0 -.391-.13v3.395a.806.806 0 1 1 -.634.008v-3.404a.217.217 0 0 0 -.39.13v.12a5.2 5.2 0 0 1 -1.715 3.545l-.009.007-.06.047a.224.224 0 0 0 -.01.284l1.002 1.737a.44.44 0 0 0 .34.197h2.322a.44.44 0 0 0 .34-.197l.994-1.72.004-.007a.225.225 0 0 0 -.01-.284m-.337 3.08a.32.32 0 0 0 -.317-.316h-3.68a.32.32 0 0 0 -.316.317v.354a.32.32 0 0 0 .317.316h3.679a.32.32 0 0 0 .317-.316z"/></svg>