<svg viewBox="0 0 17 19" xmlns="http://www.w3.org/2000/svg"><path d="m16.417 9.579a7.917 7.917 0 1 1 -7.917-7.917 7.917 7.917 0 0 1 7.917 7.917m-12.011 4.348h3.716v-3.356l-.695 1.1a.396.396 0 1 1 -.67-.423l.99-1.567-1.302.54a.491.491 0 0 1 -.731-.487v-1.522a.491.491 0 0 1 .731-.489l1.677.697v-3.35h-3.716a.32.32 0 0 0 -.317.317v8.223a.32.32 0 0 0 .317.317m8.54-8.54a.317.317 0 0 0 -.317-.317h-3.716v3.35l1.677-.697a.491.491 0 0 1 .73.489v1.522a.491.491 0 0 1 -.73.488l-1.302-.542.99 1.567a.396.396 0 1 1 -.67.423l-.695-1.1v3.356h3.716a.317.317 0 0 0 .317-.317z"/></svg>