<svg xmlns="http://www.w3.org/2000/svg" aria-hidden="true" class="cf-icon-svg cf-icon-svg--github" viewBox="0 0 14 19"><path d="M9.464 17.178a4.5 4.5 0 0 1-2.013.317 4.3 4.3 0 0 1-2.007-.317.75.75 0 0 1-.277-.587c0-.22-.008-.798-.012-1.567-2.564.557-3.105-1.236-3.105-1.236a2.44 2.44 0 0 0-1.024-1.348c-.836-.572.063-.56.063-.56a1.94 1.94 0 0 1 1.412.95 1.96 1.96 0 0 0 2.682.765 1.97 1.97 0 0 1 .586-1.233c-2.046-.232-4.198-1.023-4.198-4.554a3.57 3.57 0 0 1 .948-2.474 3.3 3.3 0 0 1 .091-2.438s.773-.248 2.534.945a8.7 8.7 0 0 1 4.615 0c1.76-1.193 2.532-.945 2.532-.945a3.3 3.3 0 0 1 .092 2.438 3.56 3.56 0 0 1 .947 2.474c0 3.54-2.155 4.32-4.208 4.548a2.2 2.2 0 0 1 .625 1.706c0 1.232-.011 2.227-.011 2.529a.7.7 0 0 1-.272.587"/></svg>