<svg xmlns="http://www.w3.org/2000/svg" aria-hidden="true" class="cf-icon-svg cf-icon-svg--github-square" viewBox="0 0 16 19"><path d="M15.917 1.666V17.5h-5.15c-.424 0-.557-.238-.557-.455 0-.266.01-1.141.01-2.226a1.94 1.94 0 0 0-.552-1.502c1.808-.202 3.706-.887 3.706-4.005a3.13 3.13 0 0 0-.834-2.177 2.9 2.9 0 0 0-.081-2.147s-.68-.218-2.23.832a7.7 7.7 0 0 0-4.063 0c-1.55-1.05-2.23-.832-2.23-.832a2.92 2.92 0 0 0-.08 2.147 3.14 3.14 0 0 0-.835 2.177c0 3.11 1.894 3.806 3.696 4.011a1.74 1.74 0 0 0-.516 1.084 1.726 1.726 0 0 1-2.361-.674 1.7 1.7 0 0 0-1.243-.836s-.793-.01-.056.494a2.15 2.15 0 0 1 .9 1.187s.478 1.578 2.735 1.088c.004.676.01 1.186.01 1.38 0 .214-.147.454-.553.454H.083V1.666z"/></svg>