<svg xmlns="http://www.w3.org/2000/svg" aria-hidden="true" class="cf-icon-svg cf-icon-svg--healthcare" viewBox="0 0 14 19"><path d="M11.56 10.11v2.046a3.827 3.827 0 1 1-7.655 0v-.45A3.61 3.61 0 0 1 .851 8.141V5.25a1.68 1.68 0 0 1 .763-1.408 1.207 1.207 0 1 1 .48 1.04.57.57 0 0 0-.135.368v2.89a2.5 2.5 0 0 0 5 0V5.25a.57.57 0 0 0-.108-.334 1.208 1.208 0 1 1 .533-1.018 1.68 1.68 0 0 1 .683 1.352v2.89a3.61 3.61 0 0 1-3.054 3.565v.45a2.719 2.719 0 0 0 5.438 0V10.11a2.144 2.144 0 1 1 1.108 0zm.48-2.07a1.035 1.035 0 1 0-1.035 1.035 1.037 1.037 0 0 0 1.036-1.035z"/></svg>