<svg xmlns="http://www.w3.org/2000/svg" aria-hidden="true" class="cf-icon-svg cf-icon-svg--health-insurance" viewBox="0 0 13 19"><path d="M12.365 10.832a.5.5 0 0 1-.012.106q.012.179.012.37c0 3.239-5.865 5.063-5.865 5.063S.635 14.547.635 11.307q0-.19.012-.37a.5.5 0 0 1-.012-.105V3.643a.476.476 0 0 1 .475-.475h10.78a.476.476 0 0 1 .475.475zm-2.291-2.554a.476.476 0 0 0-.475-.475h-1.89v-1.89a.476.476 0 0 0-.474-.474h-1.47a.476.476 0 0 0-.475.475v1.889H3.401a.476.476 0 0 0-.475.475v1.47a.476.476 0 0 0 .475.474h1.89v1.889a.476.476 0 0 0 .474.475h1.47a.476.476 0 0 0 .475-.475v-1.889h1.889a.476.476 0 0 0 .475-.475z"/></svg>