<svg xmlns="http://www.w3.org/2000/svg" aria-hidden="true" class="cf-icon-svg cf-icon-svg--help-round" viewBox="0 0 17 19"><path d="M16.476 9.583a7.916 7.916 0 1 1-15.833 0 7.916 7.916 0 0 1 15.833 0m-5.034-2.687c0-.404-.073-.774-.223-1.13A2.9 2.9 0 0 0 9.692 4.22a2.75 2.75 0 0 0-1.116-.227 2.9 2.9 0 0 0-2.672 1.773 2.8 2.8 0 0 0-.227 1.128v.02a.792.792 0 0 0 1.583 0v-.02a1.33 1.33 0 0 1 .814-1.22c.155-.067.315-.098.502-.098.18 0 .334.03.485.096a1.3 1.3 0 0 1 .7.71c.067.158.098.322.098.513 0 .225-.027.368-.05.45a1.6 1.6 0 0 1-.132.335 2 2 0 0 1-.219.318q-.19.226-.365.424-.203.213-.374.412c-.17.2-.323.414-.451.639q-.221.388-.342.842c-.08.301-.12.636-.12.995v.035a.792.792 0 1 0 1.583 0v-.035q0-.334.068-.59.066-.253.187-.463a2.5 2.5 0 0 1 .276-.39q.148-.173.329-.363l.018-.02q.194-.217.403-.466.208-.249.384-.556a3.1 3.1 0 0 0 .388-1.567zM9.58 14.195a.98.98 0 0 0-.614-.919l-.004-.001a1.02 1.02 0 0 0-.78 0 .97.97 0 0 0-.62.92q.001.208.08.391a1 1 0 0 0 .541.536 1 1 0 0 0 .78.001l.004-.002a1.02 1.02 0 0 0 .534-.534 1 1 0 0 0 .08-.392z"/></svg>