<svg viewBox="0 0 17 19" xmlns="http://www.w3.org/2000/svg"><path d="m16.417 9.583a7.917 7.917 0 1 1 -7.917-7.917 7.917 7.917 0 0 1 7.917 7.917m-2.792-1.198a.396.396 0 0 0 -.149-.54l-4.815-2.741a.4.4 0 0 0 -.393 0l-2.31 1.324v-.895a.32.32 0 0 0 -.317-.317h-.968a.32.32 0 0 0 -.317.317v1.813l-.872.5a.396.396 0 1 0 .393.686l4.589-2.629 4.619 2.63a.395.395 0 0 0 .54-.148m-1.02.786-4.138-2.356-4.11 2.356v4.465a.32.32 0 0 0 .316.317h7.615a.32.32 0 0 0 .317-.317zm-6.647.607h1.647v1.668h-1.647zm5.045 1.668h-1.647v-1.668h1.647z"/></svg>