<svg xmlns="http://www.w3.org/2000/svg" aria-hidden="true" class="cf-icon-svg cf-icon-svg--insurance-round" viewBox="0 0 17 19"><path d="M16.417 9.583A7.917 7.917 0 1 1 8.5 1.666a7.917 7.917 0 0 1 7.917 7.917M12.75 5.691a.32.32 0 0 0-.317-.317h-7.84a.32.32 0 0 0-.316.317v5.563c0 2.34 4.236 3.658 4.236 3.658s4.237-1.318 4.237-3.658zm-2.617 4.933a1.17 1.17 0 0 1-.586 1.005 1.9 1.9 0 0 1-.652.26v.46a.396.396 0 0 1-.792 0v-.456l-.033-.005a2 2 0 0 1-.415-.127 1.3 1.3 0 0 1-.512-.376.396.396 0 0 1 .599-.518.56.56 0 0 0 .207.159 1.3 1.3 0 0 0 .257.082 2 2 0 0 0 .275.033 1.23 1.23 0 0 0 .635-.176c.2-.13.225-.25.225-.341a.4.4 0 0 0-.099-.26.8.8 0 0 0-.218-.176 1 1 0 0 0-.263-.094 1.2 1.2 0 0 0-.256-.026 2.4 2.4 0 0 1-.395-.032 1.8 1.8 0 0 1-.504-.162 1.4 1.4 0 0 1-.474-.381 1.2 1.2 0 0 1-.28-.761 1.23 1.23 0 0 1 .615-1.041 1.9 1.9 0 0 1 .636-.248v-.444a.396.396 0 1 1 .792 0v.456l.005.001.026.006a2 2 0 0 1 .421.144 1.6 1.6 0 0 1 .452.31.396.396 0 0 1-.56.56.8.8 0 0 0-.217-.148 1.4 1.4 0 0 0-.264-.093l-.026-.005a1.3 1.3 0 0 0-.221-.037 1.2 1.2 0 0 0-.622.167.44.44 0 0 0-.245.371.44.44 0 0 0 .102.262.7.7 0 0 0 .215.173 1 1 0 0 0 .279.09 1.6 1.6 0 0 0 .265.02 2 2 0 0 1 .424.044 2 2 0 0 1 .464.168 1.6 1.6 0 0 1 .446.354 1.2 1.2 0 0 1 .294.782"/></svg>