<svg xmlns="http://www.w3.org/2000/svg" aria-hidden="true" class="cf-icon-svg cf-icon-svg--insurance" viewBox="0 0 13 19"><path d="M12.365 10.832a.5.5 0 0 1-.012.106q.012.179.012.37c0 3.239-5.865 5.063-5.865 5.063S.635 14.547.635 11.307q0-.19.012-.37a.5.5 0 0 1-.012-.105V3.643a.476.476 0 0 1 .475-.475h10.78a.476.476 0 0 1 .475.475zm-3.617-.387a1.65 1.65 0 0 0-.409-1.087 2.2 2.2 0 0 0-.617-.491l-.002-.001a2.6 2.6 0 0 0-.641-.232h-.002a2.8 2.8 0 0 0-.59-.062 2 2 0 0 1-.364-.028 1.4 1.4 0 0 1-.384-.123h-.001a.9.9 0 0 1-.294-.236v-.002a.6.6 0 0 1-.141-.358.6.6 0 0 1 .336-.509 1.67 1.67 0 0 1 .858-.23 2 2 0 0 1 .304.05l.036.008a2 2 0 0 1 .365.127 1 1 0 0 1 .3.206.554.554 0 1 0 .782-.785 2.2 2.2 0 0 0-.627-.431 3 3 0 0 0-.585-.2l-.036-.008h-.002v-.626a.554.554 0 0 0-1.109 0v.609a2.7 2.7 0 0 0-.878.343 1.71 1.71 0 0 0-.853 1.446 1.7 1.7 0 0 0 .39 1.058 2 2 0 0 0 .659.529 2.5 2.5 0 0 0 .697.225 3.3 3.3 0 0 0 .548.044 1.7 1.7 0 0 1 .355.036 1.5 1.5 0 0 1 .362.13 1.1 1.1 0 0 1 .3.24.55.55 0 0 1 .135.358c0 .124-.036.289-.31.466a1.7 1.7 0 0 1-.875.243 3 3 0 0 1-.38-.046 2 2 0 0 1-.354-.113.76.76 0 0 1-.284-.218.554.554 0 1 0-.838.726 1.85 1.85 0 0 0 .71.521 3 3 0 0 0 .577.176l.04.007v.625a.554.554 0 1 0 1.108 0v-.63a2.7 2.7 0 0 0 .9-.36 1.63 1.63 0 0 0 .814-1.397"/></svg>