<svg viewBox="0 0 16 19" xmlns="http://www.w3.org/2000/svg"><path d="m15.12 12.471a1.65 1.65 0 0 1 -.485 1.176l-2.216 2.216a1.666 1.666 0 0 1 -2.351 0l-2.583-2.583a1.664 1.664 0 0 1 0-2.351l.712-.712-1.177-1.177-.72.72a1.664 1.664 0 0 1 -2.351 0l-2.584-2.583a1.666 1.666 0 0 1 0-2.352l2.216-2.215a1.665 1.665 0 0 1 2.351 0l2.583 2.582a1.664 1.664 0 0 1 0 2.351l-.712.712 1.177 1.178.72-.72a1.664 1.664 0 0 1 2.351 0l2.583 2.583a1.65 1.65 0 0 1 .485 1.175zm-8.885-4.216-1.047-1.047a.554.554 0 0 1 .784-.784l1.047 1.047.712-.712a.554.554 0 0 0 0-.783l-2.581-2.583a.557.557 0 0 0 -.784 0l-2.217 2.217a.56.56 0 0 0 0 .784l2.583 2.582a.554.554 0 0 0 .783 0zm7.777 4.216a.55.55 0 0 0 -.161-.392l-2.582-2.582a.555.555 0 0 0 -.784 0l-.72.72 1.047 1.047a.554.554 0 1 1 -.784.784l-1.047-1.047-.712.712a.555.555 0 0 0 0 .783l2.583 2.583a.557.557 0 0 0 .783 0l2.216-2.216a.55.55 0 0 0 .161-.392"/></svg>