<svg xmlns="http://www.w3.org/2000/svg" aria-hidden="true" class="cf-icon-svg cf-icon-svg--list" viewBox="0 0 14 19"><path d="M2.85 4.836a1.03 1.03 0 0 1-1.029 1.03h-.003a1.03 1.03 0 1 1 0-2.059h.003a1.03 1.03 0 0 1 1.03 1.03zm0 4.346a1.03 1.03 0 0 1-1.029 1.03h-.003a1.03 1.03 0 1 1 0-2.059h.003a1.03 1.03 0 0 1 1.03 1.03zm0 4.346a1.03 1.03 0 0 1-1.029 1.03h-.003a1.03 1.03 0 1 1 0-2.059h.003a1.03 1.03 0 0 1 1.03 1.03zm1.13-8.692a1.03 1.03 0 0 1 1.029-1.029h7.173a1.03 1.03 0 1 1 0 2.058H5.009a1.03 1.03 0 0 1-1.03-1.029zm9.231 4.347a1.03 1.03 0 0 1-1.029 1.029H5.009a1.03 1.03 0 1 1 0-2.059h7.173a1.03 1.03 0 0 1 1.03 1.03zm0 4.345a1.03 1.03 0 0 1-1.029 1.03H5.009a1.03 1.03 0 1 1 0-2.059h7.173a1.03 1.03 0 0 1 1.03 1.03z"/></svg>