<svg xmlns="http://www.w3.org/2000/svg" aria-hidden="true" class="cf-icon-svg cf-icon-svg--loan" viewBox="0 0 12 19"><path d="m8.266 2.549 2.893 2.893v10.69a.476.476 0 0 1-.475.474H1.316a.476.476 0 0 1-.475-.475V3.024a.476.476 0 0 1 .475-.475zM1.95 3.657v11.84h8.102v-9.29H8.058a.576.576 0 0 1-.574-.574V3.657zm3.573 3.478a1.03 1.03 0 0 1 .256.678 1.01 1.01 0 0 1-.506.872 1.6 1.6 0 0 1-.487.206V9.1a.396.396 0 1 1-.792 0v-.204a2 2 0 0 1-.31-.099 1.14 1.14 0 0 1-.44-.322.396.396 0 1 1 .598-.518.4.4 0 0 0 .136.105 1 1 0 0 0 .19.062 2 2 0 0 0 .208.025.9.9 0 0 0 .466-.128c.145-.094.145-.171.145-.208a.24.24 0 0 0-.06-.157.6.6 0 0 0-.153-.123.8.8 0 0 0-.19-.069 1 1 0 0 0-.19-.019 2 2 0 0 1-.329-.026 1.5 1.5 0 0 1-.426-.137 1.2 1.2 0 0 1-.406-.327 1.05 1.05 0 0 1-.242-.66 1.07 1.07 0 0 1 .53-.9 1.6 1.6 0 0 1 .473-.196V5a.396.396 0 0 1 .792 0v.21a2 2 0 0 1 .316.112 1.3 1.3 0 0 1 .386.265.396.396 0 1 1-.56.561.5.5 0 0 0-.15-.104 1 1 0 0 0-.197-.069l-.021-.004a1 1 0 0 0-.16-.028.9.9 0 0 0-.457.122.28.28 0 0 0-.16.232.27.27 0 0 0 .064.16.5.5 0 0 0 .146.118.7.7 0 0 0 .202.064 1 1 0 0 0 .2.016 1.7 1.7 0 0 1 .357.037 1.6 1.6 0 0 1 .391.141 1.4 1.4 0 0 1 .38.303zm3.391 3.436H3.091v1.108h5.822zm0 2.499H3.091v1.108h5.822zm0-4.997H6.501V9.18h2.412z"/></svg>