<svg xmlns="http://www.w3.org/2000/svg" aria-hidden="true" class="cf-icon-svg cf-icon-svg--loan-round" viewBox="0 0 17 19"><path d="M16.417 9.583A7.917 7.917 0 1 1 8.5 1.666a7.917 7.917 0 0 1 7.917 7.917m-4.233-1.805H9.259a.32.32 0 0 1-.317-.317v-2.9H5.16a.32.32 0 0 0-.316.317v9.367a.32.32 0 0 0 .316.317h6.708a.32.32 0 0 0 .317-.317zm-.904 2.942H5.798v.791h5.482zm0 1.823H5.798v.792h5.482zM8.12 8.415a.82.82 0 0 1-.41.705 1.3 1.3 0 0 1-.4.168v.175a.317.317 0 1 1-.633 0v-.17a1.5 1.5 0 0 1-.256-.082.9.9 0 0 1-.356-.26.317.317 0 0 1 .478-.415.3.3 0 0 0 .113.087 1 1 0 0 0 .157.05 1 1 0 0 0 .17.021.75.75 0 0 0 .383-.105c.12-.079.12-.143.12-.174a.2.2 0 0 0-.05-.133.5.5 0 0 0-.126-.1.7.7 0 0 0-.157-.057.7.7 0 0 0-.155-.016 1.6 1.6 0 0 1-.268-.021 1.2 1.2 0 0 1-.345-.112 1 1 0 0 1-.329-.264.85.85 0 0 1-.196-.534.86.86 0 0 1 .429-.729 1.3 1.3 0 0 1 .388-.16v-.167a.317.317 0 1 1 .634 0v.176a1.5 1.5 0 0 1 .261.091 1.1 1.1 0 0 1 .313.215.317.317 0 1 1-.448.449.4.4 0 0 0-.125-.086 1 1 0 0 0-.161-.057l-.017-.003a1 1 0 0 0-.132-.023.74.74 0 0 0-.375.1.24.24 0 0 0-.133.194.23.23 0 0 0 .054.135.4.4 0 0 0 .12.097.6.6 0 0 0 .167.053 1 1 0 0 0 .163.013 1.4 1.4 0 0 1 .29.03 1.3 1.3 0 0 1 .317.115 1.1 1.1 0 0 1 .308.245.84.84 0 0 1 .207.549m3.16.481H8.956v.792h2.324zM9.737 6.983h2.43l-2.43-2.416z"/></svg>