<svg viewBox="0 0 12 19" xmlns="http://www.w3.org/2000/svg"><path d="m8.266 2.549 2.893 2.893v10.69a.476.476 0 0 1 -.475.474h-9.368a.476.476 0 0 1 -.475-.475v-13.107a.476.476 0 0 1 .475-.475zm-6.316 1.108v11.84h8.102v-9.29h-1.994a.576.576 0 0 1 -.574-.574v-1.976zm3.573 3.478a1.03 1.03 0 0 1 .256.678 1.01 1.01 0 0 1 -.506.872 1.6 1.6 0 0 1 -.487.206v.209a.396.396 0 1 1 -.792 0v-.204a2 2 0 0 1 -.31-.099 1.14 1.14 0 0 1 -.44-.322.396.396 0 1 1 .598-.518.4.4 0 0 0 .136.105 1 1 0 0 0 .19.062 2 2 0 0 0 .208.025.9.9 0 0 0 .466-.128c.145-.094.145-.171.145-.208a.24.24 0 0 0 -.06-.157.6.6 0 0 0 -.153-.123.8.8 0 0 0 -.19-.069 1 1 0 0 0 -.19-.019 2 2 0 0 1 -.329-.026 1.5 1.5 0 0 1 -.426-.137 1.2 1.2 0 0 1 -.406-.327 1.05 1.05 0 0 1 -.242-.66 1.07 1.07 0 0 1 .53-.9 1.6 1.6 0 0 1 .473-.196v-.199a.396.396 0 0 1 .792 0v.21a2 2 0 0 1 .316.112 1.3 1.3 0 0 1 .386.265.396.396 0 1 1 -.56.561.5.5 0 0 0 -.15-.104 1 1 0 0 0 -.197-.069l-.021-.004a1 1 0 0 0 -.16-.028.9.9 0 0 0 -.457.122.28.28 0 0 0 -.16.232.27.27 0 0 0 .064.16.5.5 0 0 0 .146.118.7.7 0 0 0 .202.064 1 1 0 0 0 .2.016 1.7 1.7 0 0 1 .357.037 1.6 1.6 0 0 1 .391.141 1.4 1.4 0 0 1 .38.303zm3.391 3.436h-5.823v1.108h5.822zm0 2.499h-5.823v1.108h5.822zm0-4.997h-2.413v1.107h2.412z"/></svg>