<svg viewBox="0 0 17 19" xmlns="http://www.w3.org/2000/svg"><path d="m16.417 9.583a7.917 7.917 0 1 1 -7.917-7.917 7.917 7.917 0 0 1 7.917 7.917m-2.463 3.307-1.762-3.354a.65.65 0 0 0 -.52-.314h-.48a7 7 0 0 1 -.687.802 4.2 4.2 0 0 0 -1.058 1.54.925.925 0 0 1 -1.755 0 4.2 4.2 0 0 0 -1.059-1.54 7 7 0 0 1 -.686-.802h-.667a.65.65 0 0 0 -.52.314l-1.763 3.354a.197.197 0 0 0 .19.313h10.578a.197.197 0 0 0 .19-.313zm-7.834-5.668c0 1.97 1.624 2.155 2.316 4.074a.136.136 0 0 0 .266 0c.692-1.919 2.316-2.104 2.316-4.074a2.449 2.449 0 1 0 -4.898 0m2.448 1.038a1.03 1.03 0 0 1 -1.028-1.029v-.025a1.03 1.03 0 1 1 2.058 0v.025a1.03 1.03 0 0 1 -1.029 1.03z"/></svg>