<svg viewBox="0 0 16 19" xmlns="http://www.w3.org/2000/svg"><path d="m15.084 15.2h-14.168a.264.264 0 0 1 -.254-.42l2.36-4.492a.87.87 0 0 1 .696-.42h.827a9.5 9.5 0 0 0 .943 1.108h-1.576l-1.637 3.116h11.45l-1.637-3.116h-1.34a9.5 9.5 0 0 0 .943-1.109h.591a.87.87 0 0 1 .696.421l2.36 4.492a.264.264 0 0 1 -.254.42m-3.684-8.011c0 2.64-2.176 2.888-3.103 5.46a.182.182 0 0 1 -.356 0c-.928-2.572-3.104-2.82-3.104-5.46a3.282 3.282 0 0 1 6.563 0m-1.86-.005a1.425 1.425 0 1 0 -1.425 1.425 1.425 1.425 0 0 0 1.425-1.425"/></svg>