<svg viewBox="0 0 17 19" xmlns="http://www.w3.org/2000/svg"><path d="m16.417 9.583a7.917 7.917 0 1 1 -7.917-7.917 7.917 7.917 0 0 1 7.917 7.917m-4.247-1.14a.396.396 0 0 0 -.791 0v.921a2.9 2.9 0 0 1 -.84 2.049 2.8 2.8 0 0 1 -4.019 0 2.9 2.9 0 0 1 -.84-2.049v-.922a.396.396 0 0 0 -.791 0v.922a3.7 3.7 0 0 0 1.067 2.605 3.6 3.6 0 0 0 2.178 1.064v1.325h-1.621a.396.396 0 1 0 0 .791h4.034a.396.396 0 0 0 0-.791h-1.622v-1.325a3.6 3.6 0 0 0 2.178-1.064 3.7 3.7 0 0 0 1.067-2.605zm-5.679.922a2 2 0 0 0 .16.788 2.03 2.03 0 0 0 1.087 1.085 2 2 0 0 0 .796.16 2 2 0 0 0 .792-.16 2.1 2.1 0 0 0 .645-.436 2.03 2.03 0 0 0 .589-1.438l.008-3.157a2 2 0 0 0 -.157-.798 2.03 2.03 0 0 0 -1.077-1.093 2 2 0 0 0 -.792-.16 2 2 0 0 0 -.796.16 2.06 2.06 0 0 0 -1.094 1.094 2 2 0 0 0 -.161.797z"/></svg>