<svg xmlns="http://www.w3.org/2000/svg" aria-hidden="true" class="cf-icon-svg cf-icon-svg--money-transfer" viewBox="0 0 14 19"><path d="M13.014 7.026v5.142a.476.476 0 0 1-.475.475H1.461a.476.476 0 0 1-.475-.475V7.026a.476.476 0 0 1 .475-.475h11.078a.476.476 0 0 1 .475.475m-3.582 2.57a2.424 2.424 0 1 0-.191.947 2.4 2.4 0 0 0 .19-.946zm-.235-4.581a.554.554 0 0 1-.783 0l-.86-.86v1a.554.554 0 1 1-1.108 0v-1l-.86.86a.554.554 0 0 1-.783-.784l1.805-1.805a.554.554 0 0 1 .784 0L9.197 4.23a.554.554 0 0 1 0 .784zm0 9.947-1.805 1.806a.554.554 0 0 1-.784 0l-1.805-1.806a.554.554 0 0 1 .783-.783l.86.86v-1a.554.554 0 0 1 1.108 0v1l.86-.86a.554.554 0 1 1 .783.783m-1.05-4.729a.83.83 0 0 1-.416.716 1.3 1.3 0 0 1-.413.173v.266a.317.317 0 0 1-.633 0v-.262a1.5 1.5 0 0 1-.268-.084.94.94 0 0 1-.362-.265.317.317 0 0 1 .479-.415.3.3 0 0 0 .118.092 1 1 0 0 0 .162.052 1 1 0 0 0 .176.022.77.77 0 0 0 .397-.11c.127-.082.127-.152.127-.185a.22.22 0 0 0-.053-.14.5.5 0 0 0-.132-.106.7.7 0 0 0-.163-.058 1 1 0 0 0-.16-.017 1.6 1.6 0 0 1-.273-.021 1.3 1.3 0 0 1-.352-.114 1 1 0 0 1-.335-.269.86.86 0 0 1-.198-.542.88.88 0 0 1 .435-.74 1.3 1.3 0 0 1 .402-.165v-.255a.317.317 0 0 1 .633 0v.264a1.5 1.5 0 0 1 .273.095 1.1 1.1 0 0 1 .318.218.317.317 0 0 1-.448.449.5.5 0 0 0-.13-.09 1 1 0 0 0-.167-.058l-.017-.004a1 1 0 0 0-.137-.023.77.77 0 0 0-.389.104.25.25 0 0 0-.14.205.24.24 0 0 0 .057.143.4.4 0 0 0 .126.101.6.6 0 0 0 .173.056 1 1 0 0 0 .169.013 1.4 1.4 0 0 1 .295.03 1.3 1.3 0 0 1 .323.117 1.1 1.1 0 0 1 .314.25.85.85 0 0 1 .21.557z"/></svg>