<svg xmlns="http://www.w3.org/2000/svg" aria-hidden="true" class="cf-icon-svg cf-icon-svg--money-round" viewBox="0 0 17 19"><path d="M16.417 9.583A7.917 7.917 0 1 1 8.5 1.666a7.917 7.917 0 0 1 7.917 7.917m-2.307 2.53V7.069a.32.32 0 0 0-.317-.316H3.217a.32.32 0 0 0-.317.316v5.044a.32.32 0 0 0 .317.317h10.576a.32.32 0 0 0 .317-.317m-3.172-2.522a2.357 2.357 0 1 1-.185-.92 2.4 2.4 0 0 1 .185.92m-1.691 1.257a.74.74 0 0 0 .372-.638.75.75 0 0 0-.187-.496 1 1 0 0 0-.284-.226 1.2 1.2 0 0 0-.297-.107 1.3 1.3 0 0 0-.272-.029 1 1 0 0 1-.176-.013.7.7 0 0 1-.187-.06.45.45 0 0 1-.147-.118.28.28 0 0 1 .098-.443.7.7 0 0 1 .564-.087l.017.003a1 1 0 0 1 .176.062.5.5 0 0 1 .148.101.237.237 0 1 0 .336-.336 1 1 0 0 0-.289-.198 1.4 1.4 0 0 0-.27-.093l-.017-.003-.02-.005V7.85a.237.237 0 0 0-.474 0v.306a1.2 1.2 0 0 0-.424.162.78.78 0 0 0-.39.66.77.77 0 0 0 .177.483.9.9 0 0 0 .302.243 1.2 1.2 0 0 0 .322.104 1.5 1.5 0 0 0 .254.02 1 1 0 0 1 .171.018.7.7 0 0 1 .177.063.6.6 0 0 1 .148.119.28.28 0 0 1 .069.183.27.27 0 0 1-.156.24.8.8 0 0 1-.424.117 1 1 0 0 1-.183-.022 1 1 0 0 1-.172-.054.4.4 0 0 1-.142-.11.237.237 0 1 0-.36.312.85.85 0 0 0 .326.239 1.3 1.3 0 0 0 .266.081l.038.007v.313a.237.237 0 0 0 .475 0v-.316a1.3 1.3 0 0 0 .434-.17z"/></svg>