<svg viewBox="0 0 15 19" xmlns="http://www.w3.org/2000/svg"><path d="m2.644 15.26a17 17 0 0 1 -.706-.014l-.11-.025a1.51 1.51 0 0 1 -1.14-1.185l-.018-.092c-.005-.106-.01-.406-.01-.667v-8.843a.477.477 0 0 1 .476-.475h10.634a.476.476 0 0 1 .475.475v1.529h1.591a.506.506 0 0 1 .504.504v7.192a1.6 1.6 0 0 1 -1.6 1.6zm0-1.109h8.572a1.6 1.6 0 0 1 -.077-.491v-2.174l-.003-.109v-6.31h-9.367v8.21c0 .218.003.43.006.544l.002.008a.4.4 0 0 0 .3.312l.01.002c.133.004.358.008.557.008m7.266-7.336h-6.96v1.109h6.96zm-4 2.383h-2.96v3.532h2.96zm4.002.026h-2.879v1.109h2.878zm0 2.41h-2.879v1.108h2.878zm2.336-4.563v6.589a.492.492 0 0 0 .984 0v-6.59z"/></svg>