<svg viewBox="0 0 17 19" xmlns="http://www.w3.org/2000/svg"><path d="m16.417 9.583a7.917 7.917 0 1 1 -7.917-7.917 7.916 7.916 0 0 1 7.917 7.917m-3.317-2.936h-1.233v-.697a.334.334 0 0 0 -.333-.333h-7.448a.334.334 0 0 0 -.333.333v6.194c0 .183.003.393.006.467l.012.065a1.06 1.06 0 0 0 .8.83l.076.018c.09.005.312.01.495.01h7.146a1.186 1.186 0 0 0 1.186-1.187v-5.327a.375.375 0 0 0 -.374-.373m-2.52.933h-5.493v.791h5.491zm-3.157 1.734h-2.335v2.507h2.336zm3.082 1.722h-2.22v.792h2.22zm.002-1.726h-2.22v.791h2.22zm2.174-1.872v4.909a.395.395 0 0 1 -.79 0v-4.909z"/></svg>