<svg xmlns="http://www.w3.org/2000/svg" aria-hidden="true" class="cf-icon-svg cf-icon-svg--nine-open" viewBox="0 0 17 19"><path d="M10.603 1.966a8 8 0 0 1 1.895.795 7.926 7.926 0 0 1 3.636 8.938 8 8 0 0 1-.795 1.895 7.7 7.7 0 0 1-1.237 1.604 8 8 0 0 1-1.604 1.236 7.9 7.9 0 0 1-4.007 1.083 7.8 7.8 0 0 1-2.099-.283A7.94 7.94 0 0 1 .866 11.7a7.88 7.88 0 0 1 .8-6.101 8 8 0 0 1 1.237-1.6 7.7 7.7 0 0 1 1.599-1.237 8 8 0 0 1 1.886-.795 7.8 7.8 0 0 1 2.103-.282 8 8 0 0 1 2.112.282zM6.688 3.034a7 7 0 0 0-1.628.685 6.7 6.7 0 0 0-1.372 1.06A7 7 0 0 0 2.62 6.162a6.83 6.83 0 0 0-.687 5.24 6.82 6.82 0 0 0 4.758 4.766 6.7 6.7 0 0 0 1.8.242 6.8 6.8 0 0 0 3.446-.93 7 7 0 0 0 1.383-1.067 6.6 6.6 0 0 0 1.06-1.374 7 7 0 0 0 .686-1.637 6.9 6.9 0 0 0 0-3.619 6.75 6.75 0 0 0-1.748-3A6.8 6.8 0 0 0 11.94 3.72a7 7 0 0 0-1.634-.685 6.8 6.8 0 0 0-1.815-.242 6.7 6.7 0 0 0-1.803.242zm4.278 4.733a2.2 2.2 0 0 0-.55-.741 2.4 2.4 0 0 0-.818-.468 3.2 3.2 0 0 0-2.006 0 2.5 2.5 0 0 0-.823.468 2.2 2.2 0 0 0-.555.75 2.4 2.4 0 0 0-.203 1 2.1 2.1 0 0 0 .647 1.552 2.1 2.1 0 0 0 .684.435 2.2 2.2 0 0 0 .823.152 2 2 0 0 0 .236-.018 1 1 0 0 0 .226-.056l-.018.028-1.631 2.26h1.878l1.583-2.362a6 6 0 0 0 .527-.967 2.7 2.7 0 0 0 .204-1.06 2.3 2.3 0 0 0-.204-.973M9.334 9.47a1.02 1.02 0 0 1-.753.287.98.98 0 0 1-.744-.292 1.02 1.02 0 0 1-.28-.736 1.05 1.05 0 0 1 .284-.764 1 1 0 0 1 .759-.292.95.95 0 0 1 .749.31 1.08 1.08 0 0 1 .274.737 1 1 0 0 1-.289.75"/></svg>