<svg xmlns="http://www.w3.org/2000/svg" aria-hidden="true" class="cf-icon-svg cf-icon-svg--open-quote" viewBox="0 0 16 19"><path d="M6.808 11.29a3.2 3.2 0 0 1 .097 1.464 3.2 3.2 0 0 1-.535 1.277 3.15 3.15 0 0 1-2.286 1.316 3.43 3.43 0 0 1-2.628-.836A3.9 3.9 0 0 1 .26 12.269a4.4 4.4 0 0 1-.052-.653 6 6 0 0 1 .027-.74 5.5 5.5 0 0 1 .33-1.388 5.7 5.7 0 0 1 1.498-2.193A6.7 6.7 0 0 1 4.41 5.923q.344-.118.699-.201a1.24 1.24 0 0 1 .606-.046.792.792 0 0 1-.066 1.548 5.6 5.6 0 0 0-1.356.458 4.57 4.57 0 0 0-1.988 1.812 3 3 0 0 1 .998-.367 3.09 3.09 0 0 1 3.248 1.552 3 3 0 0 1 .257.611m8.941.435a3 3 0 0 1 .038.708 3.2 3.2 0 0 1-1.207 2.265 3.33 3.33 0 0 1-2.609.615 3.38 3.38 0 0 1-2.165-1.35 3.7 3.7 0 0 1-.55-1.085 4.5 4.5 0 0 1-.203-1.224 5.6 5.6 0 0 1 .567-2.656 5.8 5.8 0 0 1 1.598-1.967 6.9 6.9 0 0 1 2.357-1.21 5 5 0 0 1 .676-.162.792.792 0 0 1 .602 1.404 1.3 1.3 0 0 1-.542.201 5.5 5.5 0 0 0-1.278.47 4.54 4.54 0 0 0-1.885 1.76 3.05 3.05 0 0 1 1.242-.4 3.1 3.1 0 0 1 3.359 2.631"/></svg>