<svg viewBox="0 0 17 19" xmlns="http://www.w3.org/2000/svg"><path d="m16.417 9.579a7.917 7.917 0 1 1 -7.917-7.917 7.917 7.917 0 0 1 7.917 7.917m-2.899 2.037a2.82 2.82 0 0 0 -.832-1.975l-4.926-4.928a.396.396 0 0 0 -.56.56l4.928 4.928a2.03 2.03 0 0 1 .6 1.423 1.93 1.93 0 0 1 -1.944 1.965h-.021a2.03 2.03 0 0 1 -1.424-.6l-4.726-4.724a1.176 1.176 0 0 1 0-1.663l.046-.046a1.177 1.177 0 0 1 1.662 0l4.806 4.806a.444.444 0 1 1 -.628.629l-3.252-3.253a.396.396 0 1 0 -.56.56l3.252 3.251a1.236 1.236 0 1 0 1.748-1.747l-4.807-4.807a1.97 1.97 0 0 0 -2.781 0l-.046.046a1.97 1.97 0 0 0 0 2.782l4.726 4.726a2.82 2.82 0 0 0 1.974.832h.03a2.72 2.72 0 0 0 2.735-2.765"/></svg>