<svg xmlns="http://www.w3.org/2000/svg" aria-hidden="true" class="cf-icon-svg cf-icon-svg--paper-clip-round" viewBox="0 0 17 19"><path d="M16.417 9.579A7.917 7.917 0 1 1 8.5 1.662a7.917 7.917 0 0 1 7.917 7.917m-2.899 2.037a2.82 2.82 0 0 0-.832-1.975L7.76 4.713a.396.396 0 0 0-.56.56l4.928 4.928a2.03 2.03 0 0 1 .6 1.423 1.93 1.93 0 0 1-1.944 1.965h-.021a2.03 2.03 0 0 1-1.424-.6L4.613 8.265a1.176 1.176 0 0 1 0-1.663l.046-.046a1.177 1.177 0 0 1 1.662 0l4.806 4.806a.444.444 0 1 1-.628.629L7.247 8.738a.396.396 0 1 0-.56.56l3.252 3.251a1.236 1.236 0 1 0 1.748-1.747L6.88 5.995a1.97 1.97 0 0 0-2.781 0l-.046.046a1.97 1.97 0 0 0 0 2.782l4.726 4.726a2.82 2.82 0 0 0 1.974.832h.03a2.72 2.72 0 0 0 2.735-2.765"/></svg>