<svg xmlns="http://www.w3.org/2000/svg" aria-hidden="true" class="cf-icon-svg cf-icon-svg--parent-round" viewBox="0 0 17 19"><path d="M16.417 9.583A7.917 7.917 0 1 1 8.5 1.666a7.917 7.917 0 0 1 7.917 7.917m-7.152.384a2.3 2.3 0 0 1-.236-.428 2 2 0 0 1-.094-.267H5.153a2.247 2.247 0 0 0-2.24 2.24v1.345a.9.9 0 0 0 .896.896h3.827a1.4 1.4 0 0 1-.146-.617v-.926a2.31 2.31 0 0 1 1.408-2.123 2.3 2.3 0 0 1 .367-.12M7.17 8.6a2.29 2.29 0 1 0-2.29-2.29A2.29 2.29 0 0 0 7.17 8.6m5.402 2.068H9.796a1.547 1.547 0 0 0-1.543 1.542v.926a.62.62 0 0 0 .617.617h4.628a.62.62 0 0 0 .617-.617v-.926a1.547 1.547 0 0 0-1.543-1.542m-1.388-.463a1.576 1.576 0 1 0-1.576-1.577 1.576 1.576 0 0 0 1.576 1.577"/></svg>