<svg xmlns="http://www.w3.org/2000/svg" aria-hidden="true" class="cf-icon-svg cf-icon-svg--payday-loan-round" viewBox="0 0 17 19"><path d="M16.417 9.583A7.917 7.917 0 1 1 8.5 1.666a7.917 7.917 0 0 1 7.917 7.917m-5.129 4.093-.081.001a2.97 2.97 0 0 1-1.683-.52h-4.11v-.59h3.473a3 3 0 0 1-.425-.709l-.016-.039H5.414v-.59h2.861a3 3 0 0 1-.047-.53 2.98 2.98 0 0 1 1.71-2.695h-1.48V7.37h1.55a.92.92 0 0 1 .83-.537l.45-.002v-1.57a.32.32 0 0 0-.316-.316H4.824a.32.32 0 0 0-.317.316v8.606a.32.32 0 0 0 .317.317h6.148a.32.32 0 0 0 .316-.317zM7.641 8.295a.9.9 0 0 1 .223.592.89.89 0 0 1-.443.76 1.4 1.4 0 0 1-.469.192v.229a.317.317 0 0 1-.633 0v-.226h-.003a1.5 1.5 0 0 1-.31-.095 1 1 0 0 1-.387-.283.317.317 0 1 1 .478-.415.4.4 0 0 0 .143.11 1 1 0 0 0 .185.059 1.4 1.4 0 0 0 .198.024.9.9 0 0 0 .453-.126c.136-.088.154-.165.154-.23a.27.27 0 0 0-.066-.175.6.6 0 0 0-.154-.123.8.8 0 0 0-.187-.067 1 1 0 0 0-.183-.019 2 2 0 0 1-.295-.023 1.3 1.3 0 0 1-.378-.122 1.1 1.1 0 0 1-.357-.287.92.92 0 0 1-.212-.577.93.93 0 0 1 .464-.787 1.4 1.4 0 0 1 .457-.182v-.22a.317.317 0 1 1 .633 0v.23h.003a1.6 1.6 0 0 1 .315.108 1.2 1.2 0 0 1 .34.234.317.317 0 1 1-.447.448.5.5 0 0 0-.153-.105 1 1 0 0 0-.19-.066l-.019-.004a1 1 0 0 0-.157-.027.86.86 0 0 0-.444.12.3.3 0 0 0-.169.251.3.3 0 0 0 .07.177.5.5 0 0 0 .15.12.7.7 0 0 0 .198.064 1 1 0 0 0 .19.015 1.5 1.5 0 0 1 .319.033 1.4 1.4 0 0 1 .347.126 1.2 1.2 0 0 1 .336.267m2.76-2.248H8.458v.633H10.4zm.806 6.997a2.345 2.345 0 0 0 1.851-3.785l.233-.233a.317.317 0 1 0-.448-.447l-.237.237a2.33 2.33 0 0 0-1.083-.442v-.313h.05a.317.317 0 0 0 0-.633h-.002l-.731.003a.317.317 0 0 0 0 .633h.05v.31a2.345 2.345 0 0 0 .317 4.67m1.096-1.718a.317.317 0 0 1-.448.448l-.848-.849a.32.32 0 0 1-.117-.245V9.357a.317.317 0 1 1 .633 0v1.19l.78.778z"/></svg>