<svg xmlns="http://www.w3.org/2000/svg" aria-hidden="true" class="cf-icon-svg cf-icon-svg--percentage-round" viewBox="0 0 17 19"><path d="M16.417 9.583a7.916 7.916 0 1 1-15.833 0 7.916 7.916 0 0 1 15.833 0M5.909 8.836c1 0 1.812-.813 1.812-1.813 0-.999-.813-1.812-1.812-1.812a1.814 1.814 0 0 0 0 3.625m0-1.109a.705.705 0 1 1 .002-1.41.705.705 0 0 1-.002 1.41m5.72-1.402a.792.792 0 0 0-1.316-.88l-4.924 7.372a.792.792 0 0 0 1.317.88zm1.286 5.837c0-1-.813-1.812-1.812-1.812s-1.812.813-1.812 1.812.813 1.812 1.812 1.812 1.812-.813 1.812-1.812m-1.109 0a.705.705 0 1 1-1.409-.001.705.705 0 0 1 1.41.001z"/></svg>