<svg viewBox="0 0 17 19" xmlns="http://www.w3.org/2000/svg"><path d="m16.417 9.579a7.917 7.917 0 1 1 -7.917-7.917 7.917 7.917 0 0 1 7.917 7.917m-11.293.252a1.31 1.31 0 0 0 .524-1.731c-.267-.76-.934-1.22-1.49-1.024a1.31 1.31 0 0 0 -.524 1.73c.267.761.934 1.22 1.49 1.025m6.664.747a4.606 4.606 0 0 0 -6.518 0 1.945 1.945 0 0 0 2.75 2.75.72.72 0 0 1 1.017 0 1.945 1.945 0 0 0 2.75-2.75zm-5.948-3.592c.087.918.7 1.61 1.372 1.547.67-.064 1.143-.86 1.057-1.777s-.701-1.61-1.372-1.546c-.67.063-1.144.859-1.057 1.776m4.003 1.547c.671.063 1.285-.63 1.372-1.547s-.386-1.713-1.057-1.776c-.67-.064-1.285.629-1.372 1.546-.086.918.387 1.713 1.057 1.777m3.057-1.457c-.556-.195-1.223.263-1.49 1.024a1.31 1.31 0 0 0 .524 1.73c.556.196 1.223-.263 1.49-1.024a1.31 1.31 0 0 0 -.524-1.73"/></svg>