<svg xmlns="http://www.w3.org/2000/svg" aria-hidden="true" class="cf-icon-svg cf-icon-svg--phone-round" viewBox="0 0 17 19"><path d="M16.5 9.5a8 8 0 1 1-8-8 8 8 0 0 1 8 8m-6.479-1.112 3.596-2.077-.127-.22a1.85 1.85 0 0 0-2.07-.784 12.2 12.2 0 0 0-4.47 1.591 12.3 12.3 0 0 0-3.595 3.056 1.86 1.86 0 0 0-.381 2.211l.127.22 3.596-2.076-.127-.221a1.6 1.6 0 0 0-.573-.58A12.5 12.5 0 0 1 9.679 7.38a1.6 1.6 0 0 0 .215.787zm-2.749 2.916-.175-.303-3.595 2.077.175.304a.46.46 0 0 0 .629.168l2.798-1.616a.46.46 0 0 0 .168-.63m6.92-3.997-.175-.303-3.595 2.077.175.303a.46.46 0 0 0 .63.168l2.797-1.616a.46.46 0 0 0 .168-.63z"/></svg>