<svg viewBox="0 0 18 19" xmlns="http://www.w3.org/2000/svg"><path d="m16.205 6.813v7.29a1.12 1.12 0 0 1 -1.115 1.115h-12.18a1.12 1.12 0 0 1 -1.115-1.115v-7.29a1.12 1.12 0 0 1 1.115-1.115h2.902v-.365a1.12 1.12 0 0 1 1.115-1.115h4.146a1.12 1.12 0 0 1 1.115 1.115v.365h2.902a1.12 1.12 0 0 1 1.115 1.115m-3.789 3.645a3.416 3.416 0 1 0 -3.416 3.416 3.416 3.416 0 0 0 3.416-3.416m-1.789-1.628a2.301 2.301 0 1 1 -1.627-.673 2.3 2.3 0 0 1 1.627.674zm-.643-3.262a.558.558 0 1 0 .558-.557.56.56 0 0 0 -.558.557"/></svg>