<svg xmlns="http://www.w3.org/2000/svg" aria-hidden="true" class="cf-icon-svg cf-icon-svg--photo-round" viewBox="0 0 17 19"><path d="M16.5 9.5a8 8 0 1 1-8-8 8 8 0 0 1 8 8m-2.874-2.287a.803.803 0 0 0-.8-.8h-2.054v-.251a.8.8 0 0 0-.8-.8h-2.93a.8.8 0 0 0-.8.8v.25H4.186a.8.8 0 0 0-.8.8v5.166a.8.8 0 0 0 .8.8h8.639a.803.803 0 0 0 .8-.8zm-2.692 2.582a2.427 2.427 0 1 1-2.428-2.427 2.43 2.43 0 0 1 2.428 2.427m-4.055 0a1.627 1.627 0 1 0 1.627-1.627A1.63 1.63 0 0 0 6.88 9.795zm2.75-3.931a.4.4 0 1 0 .4.4.4.4 0 0 0-.4-.4"/></svg>