<svg xmlns="http://www.w3.org/2000/svg" aria-hidden="true" class="cf-icon-svg cf-icon-svg--piggy-bank-check-round" viewBox="0 0 17 19"><path d="M16.417 9.583A7.917 7.917 0 1 1 8.5 1.666a7.917 7.917 0 0 1 7.917 7.917m-2.5-.382a.913.913 0 0 0-.91-.91h-.355a3.66 3.66 0 0 0-.833-1.393 3.4 3.4 0 0 1 .369-1.953.2.2 0 0 0-.152-.29.2.2 0 0 0-.124.026L9.914 5.844a3.7 3.7 0 0 0-.738-.075H7.642a3.66 3.66 0 0 0-3.587 2.947.71.71 0 0 0 0 1.419 3.66 3.66 0 0 0 1.001 1.876q.093.092.191.177v1.553a.365.365 0 0 0 .364.364h1.163a.365.365 0 0 0 .365-.364v-.694a4 4 0 0 0 .503.035h1.534a4 4 0 0 0 .503-.035v.694a.365.365 0 0 0 .365.364h1.163a.365.365 0 0 0 .364-.364v-1.553q.098-.085.19-.177a3.66 3.66 0 0 0 .891-1.451h.354a.913.913 0 0 0 .91-.91zM9.487 6.32a.364.364 0 1 1 0 .728H7.464a.364.364 0 1 1 0-.728h2.025zm.558 2.016a.416.416 0 0 0-.569.152L8.23 10.647l-.481-.579a.416.416 0 1 0-.64.533l.865 1.036a.42.42 0 0 0 .32.15l.034-.001a.42.42 0 0 0 .325-.206l1.543-2.674a.417.417 0 0 0-.152-.568z"/></svg>