<svg xmlns="http://www.w3.org/2000/svg" aria-hidden="true" class="cf-icon-svg cf-icon-svg--piggy-bank-check" viewBox="0 0 15 19"><path fill-rule="evenodd" d="M14.22 8.957a1.163 1.163 0 0 0-1.16-1.16h-.45a4.65 4.65 0 0 0-1.061-1.772 4.35 4.35 0 0 1 .47-2.488.253.253 0 0 0-.351-.336L9.122 4.682a4.7 4.7 0 0 0-.939-.096H6.23A4.66 4.66 0 0 0 1.661 8.34a.904.904 0 0 0 0 1.807 4.66 4.66 0 0 0 1.276 2.39q.117.117.243.226v1.977a.465.465 0 0 0 .463.464h1.482a.465.465 0 0 0 .463-.464v-.884a5 5 0 0 0 .641.045h1.954a5 5 0 0 0 .641-.045v.884a.465.465 0 0 0 .464.464h1.48a.465.465 0 0 0 .464-.464v-1.977q.126-.109.244-.226a4.66 4.66 0 0 0 1.134-1.848h.45a1.163 1.163 0 0 0 1.16-1.16zM8.58 5.289a.464.464 0 1 1 0 .927H6.002a.464.464 0 1 1 0-.928zm.71 2.567a.53.53 0 0 0-.725.194L6.98 10.797l-.613-.736a.53.53 0 0 0-.815.678l1.101 1.32a.53.53 0 0 0 .407.19l.045-.002a.53.53 0 0 0 .413-.262l1.965-3.404a.53.53 0 0 0-.193-.725"/></svg>