<svg xmlns="http://www.w3.org/2000/svg" aria-hidden="true" class="cf-icon-svg cf-icon-svg--piggy-bank-round" viewBox="0 0 17 19"><path d="M16.417 9.583A7.917 7.917 0 1 1 8.5 1.666a7.917 7.917 0 0 1 7.917 7.917m-2.5-.382a.913.913 0 0 0-.91-.91h-.355a3.66 3.66 0 0 0-.833-1.393 3.4 3.4 0 0 1 .369-1.953.2.2 0 0 0-.152-.29.2.2 0 0 0-.124.026L9.914 5.844a3.7 3.7 0 0 0-.738-.075H7.642a3.66 3.66 0 0 0-3.587 2.947.71.71 0 0 0 0 1.419 3.66 3.66 0 0 0 1.001 1.876q.093.092.191.177v1.553a.365.365 0 0 0 .364.364h1.163a.365.365 0 0 0 .365-.364v-.694a4 4 0 0 0 .503.035h1.534a4 4 0 0 0 .503-.035v.694a.365.365 0 0 0 .365.364h1.163a.365.365 0 0 0 .364-.364v-1.553q.098-.085.19-.177a3.66 3.66 0 0 0 .891-1.451h.354a.913.913 0 0 0 .91-.91zM9.487 6.32a.364.364 0 1 1 0 .728H7.464a.364.364 0 1 1 0-.728h2.025zm-.003 3.702a.95.95 0 0 1 .235.625.93.93 0 0 1-.466.802 1.5 1.5 0 0 1-.448.19v.193a.364.364 0 0 1-.729 0v-.188a2 2 0 0 1-.285-.091 1.05 1.05 0 0 1-.406-.297.364.364 0 0 1 .55-.477.34.34 0 0 0 .126.098 1 1 0 0 0 .176.056 1.4 1.4 0 0 0 .19.024.85.85 0 0 0 .43-.119c.134-.086.134-.157.134-.191a.22.22 0 0 0-.056-.146.5.5 0 0 0-.14-.113.7.7 0 0 0-.176-.063 1 1 0 0 0-.174-.017 2 2 0 0 1-.304-.024 1.4 1.4 0 0 1-.392-.127 1.1 1.1 0 0 1-.374-.3.97.97 0 0 1-.222-.608.98.98 0 0 1 .487-.829 1.5 1.5 0 0 1 .436-.18v-.184a.364.364 0 1 1 .729 0v.193a1.7 1.7 0 0 1 .292.103 1.2 1.2 0 0 1 .354.244.364.364 0 0 1-.514.516.5.5 0 0 0-.14-.096 1 1 0 0 0-.18-.063l-.02-.004a1 1 0 0 0-.147-.026.83.83 0 0 0-.421.113.26.26 0 0 0-.148.213.25.25 0 0 0 .06.148.4.4 0 0 0 .134.108.7.7 0 0 0 .186.06 1 1 0 0 0 .184.014 1.6 1.6 0 0 1 .328.035 1.5 1.5 0 0 1 .361.13 1.3 1.3 0 0 1 .35.278"/></svg>