<svg xmlns="http://www.w3.org/2000/svg" aria-hidden="true" class="cf-icon-svg cf-icon-svg--pinterest-square" viewBox="0 0 16 19"><path d="M15.917 17.5H.083V1.665h15.834zM12.862 7.306a4.29 4.29 0 0 0-3.685-3.511 6 6 0 0 0-1.172-.065l-.248.015-.534.065a5.5 5.5 0 0 0-1.592.514A4.73 4.73 0 0 0 3.28 7.07a6 6 0 0 0-.158.727 3.5 3.5 0 0 0 .02 1.128 2.69 2.69 0 0 0 1.152 1.988c.128.08.455.273.599.09a1.6 1.6 0 0 0 .148-.486.9.9 0 0 0 .084-.425c-.035-.168-.239-.339-.326-.485a2.5 2.5 0 0 1-.272-.89A3.45 3.45 0 0 1 7.02 5.121a3.6 3.6 0 0 1 1.068-.143l.302.005a6 6 0 0 1 .722.114 2.61 2.61 0 0 1 1.845 1.642 4.1 4.1 0 0 1 .099 1.938 7 7 0 0 1-.134.708 2.82 2.82 0 0 1-1.75 2.2 1.168 1.168 0 0 1-1.524-1.246c.16-.821.47-1.51.638-2.344a1.088 1.088 0 0 0-.811-1.44c-.734-.13-1.229.564-1.41 1.03a2.8 2.8 0 0 0-.084 1.454l.104.38.07.183-.98 4.15a6.5 6.5 0 0 0-.04 2.033c.032.188 0 .493.114.603.138.027.183-.104.237-.178q.224-.302.435-.623a7.2 7.2 0 0 0 .698-1.37c.148-.38.209-.812.321-1.217l.258-1.014c.072.074.128.182.192.262a1.85 1.85 0 0 0 .718.47 3.25 3.25 0 0 0 2.616-.287 4.34 4.34 0 0 0 1.894-2.537c.08-.254.122-.51.183-.791a5.4 5.4 0 0 0 .06-1.796z"/></svg>