<svg viewBox="0 0 15 19" xmlns="http://www.w3.org/2000/svg"><path d="m14.443 4.445a1.615 1.615 0 0 1 -1.613 1.614h-.506v8.396a1.615 1.615 0 0 1 -1.613 1.613h-8.541a1.613 1.613 0 1 1 0-3.227h.505v-8.396a1.615 1.615 0 0 1 1.614-1.615h8.54a1.615 1.615 0 0 1 1.614 1.614zm-12.273 10.515h7.007a1.6 1.6 0 0 1 0-1.01h-7.005a.505.505 0 0 0 0 1.01zm9.045-10.515a1.6 1.6 0 0 1 .08-.505h-7.005a.5.5 0 0 0 -.31.107l-.002.001a.5.5 0 0 0 -.193.397v8.396h6.337a.61.61 0 0 1 .6.467.63.63 0 0 1 -.251.702.505.505 0 1 0 .746.445zm-.86 1.438h-5.76v1.107h5.76zm0 2.26h-5.76v1.107h5.76zm0 2.26h-5.76v1.108h5.76zm2.979-5.958a.506.506 0 0 0 -.505-.505.5.5 0 0 0 -.31.107h-.002a.5.5 0 0 0 -.194.398v.505h.506a.506.506 0 0 0 .505-.505"/></svg>