<svg xmlns="http://www.w3.org/2000/svg" aria-hidden="true" class="cf-icon-svg cf-icon-svg--power-round" viewBox="0 0 17 19"><path d="M16.416 9.583a7.916 7.916 0 1 1-15.833 0 7.916 7.916 0 0 1 15.833 0m-2.854-.455a5.15 5.15 0 0 0-1.01-2.474 5 5 0 0 0-.97-.97.791.791 0 1 0-.953 1.264q.367.277.663.666c.196.257.354.534.468.821a3.5 3.5 0 0 1-.463 3.445q-.28.37-.667.666a3.5 3.5 0 0 1-.82.467c-.29.115-.59.193-.889.23a3.4 3.4 0 0 1-.895-.005 3.54 3.54 0 0 1-1.667-.69 3.5 3.5 0 0 1-.668-.672 3.46 3.46 0 0 1-.69-1.7 3.55 3.55 0 0 1 .241-1.77q.174-.421.457-.795c.185-.245.41-.47.668-.665a.792.792 0 0 0-.959-1.26 5.06 5.06 0 0 0-1.63 2.117 5.104 5.104 0 0 0 5.34 7.012 5.2 5.2 0 0 0 1.278-.33q.632-.253 1.193-.679c.561-.426.699-.61.972-.97.27-.356.49-.74.656-1.143a5.1 5.1 0 0 0 .345-2.565m-5.858-.223a.792.792 0 1 0 1.584 0V4.729a.792.792 0 1 0-1.584 0z"/></svg>