<svg xmlns="http://www.w3.org/2000/svg" aria-hidden="true" class="cf-icon-svg cf-icon-svg--power" viewBox="0 0 15 19"><path d="M7.498 17.1a7 7 0 0 1-.98-.068 7.5 7.5 0 0 1-1.795-.483 7.26 7.26 0 0 1-3.028-2.332A7.2 7.2 0 0 1 .73 12.52a7.3 7.3 0 0 1 .972-7.128 7.2 7.2 0 0 1 1.387-1.385 1.03 1.03 0 0 1 1.247 1.638 5.2 5.2 0 0 0-.993.989 5.3 5.3 0 0 0-.678 1.181 5.2 5.2 0 0 0-.348 1.292 5.2 5.2 0 0 0 .326 2.653 5 5 0 0 0 .69 1.212 5.2 5.2 0 0 0 .992.996 5.3 5.3 0 0 0 1.178.677 5.4 5.4 0 0 0 1.297.35 5 5 0 0 0 1.332.008 5.4 5.4 0 0 0 1.32-.343 5.3 5.3 0 0 0 2.211-1.682 5.2 5.2 0 0 0 1.02-2.465 5.2 5.2 0 0 0 .01-1.336 5.3 5.3 0 0 0-.343-1.318 5.2 5.2 0 0 0-.695-1.222 5 5 0 0 0-.987-.989 1.03 1.03 0 1 1 1.24-1.643 7.2 7.2 0 0 1 1.384 1.386 7.3 7.3 0 0 1 .97 1.706 7.4 7.4 0 0 1 .473 1.827 7.296 7.296 0 0 1-4.522 7.65 7.5 7.5 0 0 1-1.825.471 7 7 0 0 1-.89.056zM7.5 9.613a1.03 1.03 0 0 1-1.03-1.029V2.522a1.03 1.03 0 0 1 2.06 0v6.062a1.03 1.03 0 0 1-1.03 1.03z"/></svg>