<svg xmlns="http://www.w3.org/2000/svg" aria-hidden="true" class="cf-icon-svg cf-icon-svg--prepaid-cards" viewBox="0 0 13 19"><path d="M12.48 3.638v11.096a.476.476 0 0 1-.475.475H.995a.476.476 0 0 1-.475-.475V3.638a.476.476 0 0 1 .475-.475h11.01a.476.476 0 0 1 .475.475M1.852 8.988v.247h9.296V8.99a1.11 1.11 0 0 0-1.108-1.11H2.96a1.11 1.11 0 0 0-1.108 1.108m9.296 3.685v-2.33H1.852v2.33A1.11 1.11 0 0 0 2.96 13.78h7.08a1.11 1.11 0 0 0 1.108-1.108zm-4.864-1.135H3.25v1.109h3.035zM5.7 4.925a.792.792 0 1 0 .792-.791.79.79 0 0 0-.792.791"/></svg>