<svg xmlns="http://www.w3.org/2000/svg" aria-hidden="true" class="cf-icon-svg cf-icon-svg--price-tag-round" viewBox="0 0 17 19"><path d="M16.417 9.58A7.917 7.917 0 1 1 8.5 1.662a7.917 7.917 0 0 1 7.917 7.916zm-2.93.717L8.981 5.793A2.17 2.17 0 0 0 7.63 5.24l-2.635.026a.815.815 0 0 0-.801.8L4.163 8.71a2.17 2.17 0 0 0 .55 1.352l4.505 4.504a.794.794 0 0 0 1.12 0l3.148-3.15a.794.794 0 0 0 0-1.119zM5.724 6.25a.554.554 0 1 0 .554.554.554.554 0 0 0-.554-.554m5.306 5.857a.396.396 0 0 1-.56 0l-.246-.246a2 2 0 0 1-.328.172 1.2 1.2 0 0 1-.465.091q-.05 0-.103-.003a.396.396 0 0 1 .057-.79.4.4 0 0 0 .199-.025 1 1 0 0 0 .198-.102 2 2 0 0 0 .181-.142 1 1 0 0 0 .267-.47c.042-.199-.025-.266-.057-.298a.3.3 0 0 0-.186-.083.7.7 0 0 0-.221.024 1 1 0 0 0-.206.097 1 1 0 0 0-.164.134 2 2 0 0 1-.267.228 1.6 1.6 0 0 1-.422.216 1.3 1.3 0 0 1-.546.06 1.1 1.1 0 0 1-.669-.31 1.12 1.12 0 0 1-.275-1.063 1.7 1.7 0 0 1 .221-.522l-.24-.24a.396.396 0 1 1 .559-.56l.249.248a2 2 0 0 1 .343-.167 1.4 1.4 0 0 1 .485-.09.396.396 0 0 1 .001.792.6.6 0 0 0-.206.039 1 1 0 0 0-.208.1l-.02.012a1 1 0 0 0-.148.106 1 1 0 0 0-.264.457.33.33 0 0 0 .063.328.33.33 0 0 0 .19.082.5.5 0 0 0 .215-.023.8.8 0 0 0 .211-.109 1.3 1.3 0 0 0 .168-.144 1.8 1.8 0 0 1 .296-.24 1.7 1.7 0 0 1 .399-.187 1.5 1.5 0 0 1 .51-.058 1.08 1.08 0 0 1 .692.314 1.06 1.06 0 0 1 .27 1.022 1.7 1.7 0 0 1-.223.54l.25.251a.395.395 0 0 1 0 .56z"/></svg>