<svg viewBox="0 0 13 19" xmlns="http://www.w3.org/2000/svg"><path d="m10.506 3.883a.56.56 0 0 1 .306.092.57.57 0 0 1 .206.251l1.776 4.138a.55.55 0 0 1 .045.23v.005a2.333 2.333 0 1 1 -4.666 0v-.005a.55.55 0 0 1 .045-.23l1.447-3.372h-2.587v7.538l3.918 1.624a.554.554 0 0 1 -.212 1.066h-8.482a.554.554 0 0 1 -.212-1.066l3.88-1.608v-7.554h-2.635l1.447 3.372a.55.55 0 0 1 .045.23v.005a2.333 2.333 0 1 1 -4.666 0v-.005a.55.55 0 0 1 .045-.23l1.776-4.138a.56.56 0 0 1 .206-.25.55.55 0 0 1 .306-.093h3.476v-.68a.554.554 0 1 1 1.108 0v.68zm-6.829 4.717-1.183-2.757-1.182 2.756zm8.012 0-1.183-2.756-1.183 2.756z"/></svg>