<svg xmlns="http://www.w3.org/2000/svg" aria-hidden="true" class="cf-icon-svg cf-icon-svg--serve" viewBox="0 0 11 19"><path d="M8.754 7.968a.447.447 0 0 1 .445-.445h.58a.447.447 0 0 1 .445.445v2.559l-.001.021.001.002v.525a4.94 4.94 0 0 1-3.107 4.38v1.322a.447.447 0 0 1-.446.446H2.63a.447.447 0 0 1-.445-.446v-1.502a2.77 2.77 0 0 1-1.408-2.55V4.07a.447.447 0 0 1 .446-.445h.46a.447.447 0 0 1 .445.445v3.502a.31.31 0 0 0 .62 0V2.55a.447.447 0 0 1 .446-.445h.46a.447.447 0 0 1 .445.445v4.37a.31.31 0 0 0 .62-.003V1.955a.447.447 0 0 1 .446-.446h.46a.447.447 0 0 1 .445.446v4.96a.31.31 0 0 0 .62 0V2.55a.447.447 0 0 1 .446-.445h.46a.447.447 0 0 1 .446.445v7.757a.356.356 0 0 0 .713 0z"/></svg>