<svg viewBox="0 0 17 19" xmlns="http://www.w3.org/2000/svg"><path d="m16.417 9.583a7.917 7.917 0 1 1 -7.917-7.917 7.917 7.917 0 0 1 7.917 7.917m-4.431-.996a.32.32 0 0 0 -.317-.316h-.412a.32.32 0 0 0 -.316.316v1.663a.253.253 0 0 1 -.506 0v-1.8h-.001v-3.714a.32.32 0 0 0 -.317-.317h-.327a.32.32 0 0 0 -.316.317v3.104a.22.22 0 1 1 -.44 0v-3.526a.32.32 0 0 0 -.318-.317h-.326a.32.32 0 0 0 -.316.317v3.526a.22.22 0 0 1 -.44.002h-.001v-3.106a.32.32 0 0 0 -.317-.317h-.327a.317.317 0 0 0 -.316.317v3.57a.22.22 0 1 1 -.44 0v-2.489a.32.32 0 0 0 -.317-.317h-.327a.32.32 0 0 0 -.317.317v6.152a1.97 1.97 0 0 0 1 1.812v1.067a.32.32 0 0 0 .317.317h2.873a.32.32 0 0 0 .317-.317v-.94a3.51 3.51 0 0 0 2.208-3.113v-.389z"/></svg>