<svg xmlns="http://www.w3.org/2000/svg" aria-hidden="true" class="cf-icon-svg cf-icon-svg--servicemembers" viewBox="0 0 14 19"><path d="m7.049 6.687-.05 7.419a1.11 1.11 0 0 1-1.115 1.1l-4.14-.027a1.11 1.11 0 0 1-1.1-1.116l.048-7.418a1.11 1.11 0 0 1 1.116-1.1l4.14.027a1.11 1.11 0 0 1 1.1 1.115zM3.282 9.33a.554.554 0 0 0-.55-.558h-.004a.554.554 0 0 0-.554.55l-.026 3.894a.554.554 0 0 0 .55.558h.004a.554.554 0 0 0 .554-.55zm.582-1.63a.576.576 0 1 0-.573-.58.576.576 0 0 0 .573.58m-.019-2.427a.554.554 0 1 0-.338-.115.55.55 0 0 0 .338.115m.497-1.52a.554.554 0 1 0-.338-.114.55.55 0 0 0 .338.115zm1.19 5.592a.554.554 0 0 0-.55-.558h-.004a.554.554 0 0 0-.555.55l-.025 3.894a.554.554 0 0 0 .55.558h.004a.554.554 0 0 0 .554-.55zm1.592-5.59a.554.554 0 1 0-.44-.216.55.55 0 0 0 .44.216m.496 1.519a.554.554 0 1 0-.338-.116.55.55 0 0 0 .338.116m4.99 9.36L8.693 15.98a1.11 1.11 0 0 1-1.212-.34 2.2 2.2 0 0 0 .626-1.527l.007-1.021.31.902a.554.554 0 1 0 1.048-.36L8.207 9.952a.6.6 0 0 0-.07-.14l.01-1.572a.576.576 0 0 0 .007-1.126l.003-.42a2.2 2.2 0 0 0-.103-.682l1.423-.49a1.11 1.11 0 0 1 1.408.688l2.412 7.016a1.11 1.11 0 0 1-.688 1.408zm-1.353-1.027a.554.554 0 0 0 .344-.705L10.335 9.22a.554.554 0 0 0-1.048.36l1.265 3.683a.554.554 0 0 0 .705.344"/></svg>