<svg viewBox="0 0 17 19" xmlns="http://www.w3.org/2000/svg"><path d="m8.5 1.684a7.8 7.8 0 0 1 2.108.282 7.93 7.93 0 0 1 5.526 5.527 8 8 0 0 1 0 4.215 7.9 7.9 0 0 1 -2.037 3.49 7.9 7.9 0 0 1 -3.49 2.036 8 8 0 0 1 -4.214 0 7.93 7.93 0 0 1 -5.527-5.527 8 8 0 0 1 0-4.215 7.93 7.93 0 0 1 5.527-5.526 7.8 7.8 0 0 1 2.107-.283zm0 1.108a6.7 6.7 0 0 0 -1.809.242 6.8 6.8 0 0 0 -1.627.687 6.9 6.9 0 0 0 -2.444 2.443 6.8 6.8 0 0 0 -.688 1.627 6.9 6.9 0 0 0 0 3.618 6.8 6.8 0 0 0 1.753 3.005 6.8 6.8 0 0 0 3.005 1.753 6.9 6.9 0 0 0 3.618 0 6.83 6.83 0 0 0 4.758-4.758 6.9 6.9 0 0 0 0-3.618 6.83 6.83 0 0 0 -4.758-4.757 6.7 6.7 0 0 0 -1.808-.242m2.55 5.02v-1.24h-4.76v1.334h3.102l-2.658 5.223h1.806z"/></svg>