<svg xmlns="http://www.w3.org/2000/svg" aria-hidden="true" class="cf-icon-svg cf-icon-svg--six-open" viewBox="0 0 17 19"><path d="M8.509 1.684a7.8 7.8 0 0 1 2.098.282 7.93 7.93 0 0 1 5.527 5.527 7.96 7.96 0 0 1 0 4.206 8 8 0 0 1-.8 1.895 7.93 7.93 0 0 1-4.727 3.64 7.97 7.97 0 0 1-4.205 0 8 8 0 0 1-1.896-.8 7.9 7.9 0 0 1-2.84-2.84 8 8 0 0 1-.8-1.896 8 8 0 0 1 0-4.21 7.94 7.94 0 0 1 5.536-5.522 7.8 7.8 0 0 1 2.107-.283zm0 1.108a6.7 6.7 0 0 0-1.81.242 7 7 0 0 0-1.633.688 6.83 6.83 0 0 0-3.133 4.066 6.87 6.87 0 0 0 0 3.612 7 7 0 0 0 .69 1.634 6.8 6.8 0 0 0 2.443 2.444 7 7 0 0 0 1.634.689 6.85 6.85 0 0 0 3.61 0 6.83 6.83 0 0 0 4.068-3.133 7 7 0 0 0 .689-1.633 6.86 6.86 0 0 0 0-3.61 6.83 6.83 0 0 0-4.758-4.757 6.7 6.7 0 0 0-1.8-.242m2.41 7.258a2.2 2.2 0 0 0-.468-.677 2 2 0 0 0-.684-.435 2.2 2.2 0 0 0-.818-.153 2 2 0 0 0-.24.019 1 1 0 0 0-.222.056l.028-.047 1.612-2.241H8.25L6.666 8.933a6 6 0 0 0-.527.968 2.7 2.7 0 0 0-.204 1.06 2.3 2.3 0 0 0 .204.973 2.2 2.2 0 0 0 .554.741 2.5 2.5 0 0 0 .819.468 3.17 3.17 0 0 0 2.001 0 2.5 2.5 0 0 0 .823-.468 2.2 2.2 0 0 0 .554-.75 2.4 2.4 0 0 0 .204-1 2.1 2.1 0 0 0-.176-.876zm-1.656 1.67a1 1 0 0 1-.75.287.97.97 0 0 1-.753-.305 1.05 1.05 0 0 1-.28-.732 1 1 0 0 1 .29-.75 1.02 1.02 0 0 1 .753-.287.98.98 0 0 1 .744.292 1.02 1.02 0 0 1 .28.736 1.03 1.03 0 0 1-.284.76z"/></svg>