<svg xmlns="http://www.w3.org/2000/svg" aria-hidden="true" class="cf-icon-svg cf-icon-svg--split-round" viewBox="0 0 17 19"><path d="M8.515 1.666a7.917 7.917 0 1 0 7.91 7.925 7.917 7.917 0 0 0-7.91-7.925m5.365 4.345-.959 3.667a.38.38 0 0 1-.653.088l-.72-.935-.218-.281-2.03 1.554-.004 4.687a.79.79 0 1 1-1.582 0l.004-4.686L5.685 8.55l-.217.282-.721.934a.38.38 0 0 1-.653-.087l-.959-3.667a.383.383 0 0 1 .335-.526h3.858a.38.38 0 0 1 .25.609L6.77 7.143l-.115.15L8.508 8.71l1.852-1.419-.115-.15-.81-1.048a.38.38 0 0 1 .252-.61h3.858a.383.383 0 0 1 .335.527z"/></svg>