<svg viewBox="0 0 17 19" xmlns="http://www.w3.org/2000/svg"><path d="m16.417 9.579a7.917 7.917 0 1 1 -7.917-7.917 7.917 7.917 0 0 1 7.917 7.917m-12.94.396h1.103a.396.396 0 0 0 0-.792h-1.103a.396.396 0 0 0 0 .792m1.19-3.667.781.781a.396.396 0 0 0 .56-.56l-.78-.78a.396.396 0 0 0 -.56.56zm1.341 5.76a.396.396 0 0 0 -.56 0l-.78.781a.396.396 0 1 0 .56.56l.78-.78a.396.396 0 0 0 0-.56zm5.59-2.489a3.096 3.096 0 1 0 -3.095 3.096 3.096 3.096 0 0 0 3.096-3.096zm-3.495-3.917a.396.396 0 0 0 .792 0v-1.104a.396.396 0 0 0 -.792 0zm.792 7.834a.396.396 0 0 0 -.792 0v1.104a.396.396 0 1 0 .792 0zm2.094-6.407a.396.396 0 0 0 .56 0l.78-.78a.396.396 0 0 0 -.56-.56l-.78.78a.395.395 0 0 0 0 .56m1.34 5.76-.78-.78a.396.396 0 0 0 -.56.56l.78.78a.396.396 0 0 0 .56-.56m1.587-3.27a.396.396 0 0 0 -.396-.396h-1.104a.396.396 0 1 0 0 .792h1.104a.396.396 0 0 0 .396-.396"/></svg>