<svg viewBox="0 0 17 19" xmlns="http://www.w3.org/2000/svg"><path d="m2.866 10.052h-1.589a.554.554 0 0 1 0-1.109h1.589a.554.554 0 0 1 0 1.109m1.65-3.984a.55.55 0 0 1 -.392-.162l-1.123-1.124a.554.554 0 0 1 .784-.784l1.123 1.124a.554.554 0 0 1 -.392.946m-1.123 9.09a.554.554 0 0 1 -.393-.944l1.123-1.124a.554.554 0 0 1 .784.784l-1.123 1.123a.55.55 0 0 1 -.392.163zm9.568-5.66a4.453 4.453 0 1 1 -4.454-4.454 4.453 4.453 0 0 1 4.454 4.453zm-4.461-5.081a.554.554 0 0 1 -.554-.555v-1.587a.554.554 0 1 1 1.108 0v1.588a.554.554 0 0 1 -.554.555zm0 12.856a.554.554 0 0 1 -.554-.554v-1.588a.554.554 0 0 1 1.108 0v1.588a.554.554 0 0 1 -.554.554m3.984-11.206a.554.554 0 0 1 -.392-.946l1.123-1.123a.554.554 0 0 1 .784.783l-1.123 1.123a.55.55 0 0 1 -.392.163m1.123 9.09a.55.55 0 0 1 -.392-.162l-1.123-1.123a.554.554 0 0 1 .784-.784l1.123 1.124a.554.554 0 0 1 -.392.946zm2.116-5.106h-1.589a.554.554 0 0 1 0-1.109h1.589a.554.554 0 0 1 0 1.109"/></svg>