<svg xmlns="http://www.w3.org/2000/svg" aria-hidden="true" class="cf-icon-svg cf-icon-svg--thought-bubble" viewBox="0 0 14 19"><path d="M11.835 8.827a2.648 2.648 0 0 1-3.381 3.964 3.734 3.734 0 0 1-6.686-2.29c0-.099.008-.195.015-.292a3.734 3.734 0 1 1 4.42-6.017 3.662 3.662 0 0 1 5.632 4.635m-7.434-.265a.803.803 0 0 0-.811-.867.813.813 0 0 0-.826.867.82.82 0 1 0 1.637 0m2.846 0a.8.8 0 0 0-.811-.867.813.813 0 0 0-.825.867.82.82 0 1 0 1.636 0m2.847 0a.8.8 0 0 0-.812-.867.813.813 0 0 0-.825.867.82.82 0 1 0 1.637 0m2.58 6.691a1.141 1.141 0 1 1 1.141-1.141 1.14 1.14 0 0 1-1.14 1.141z"/></svg>