<svg xmlns="http://www.w3.org/2000/svg" aria-hidden="true" class="cf-icon-svg cf-icon-svg--thought-bubble-round" viewBox="0 0 17 19"><path d="M16.417 9.583A7.917 7.917 0 1 1 8.5 1.666a7.917 7.917 0 0 1 7.917 7.917m-5.861 2.781a1.918 1.918 0 0 0 1.487-3.13A2.65 2.65 0 0 0 7.965 5.88a2.703 2.703 0 1 0-3.2 4.356q-.009.105-.01.21a2.703 2.703 0 0 0 4.84 1.659 1.9 1.9 0 0 0 .961.26zM6.661 9.042a.593.593 0 1 1-.587-.627.58.58 0 0 1 .587.627m2.06 0a.593.593 0 1 1-.587-.627.58.58 0 0 1 .587.627m2.061 0a.593.593 0 1 1-.587-.627.58.58 0 0 1 .587.627m2.694 4.018a.826.826 0 1 0-.826.826.826.826 0 0 0 .826-.826"/></svg>