<svg viewBox="0 0 17 19" xmlns="http://www.w3.org/2000/svg"><path d="m16.417 9.583a7.917 7.917 0 1 1 -7.917-7.917 7.917 7.917 0 0 1 7.917 7.917m-5.861 2.781a1.918 1.918 0 0 0 1.487-3.13 2.65 2.65 0 0 0 -4.078-3.354 2.703 2.703 0 1 0 -3.2 4.356q-.009.105-.01.21a2.703 2.703 0 0 0 4.84 1.659 1.9 1.9 0 0 0 .961.26zm-3.895-3.322a.593.593 0 1 1 -.587-.627.58.58 0 0 1 .587.627m2.06 0a.593.593 0 1 1 -.587-.627.58.58 0 0 1 .587.627m2.061 0a.593.593 0 1 1 -.587-.627.58.58 0 0 1 .587.627m2.694 4.018a.826.826 0 1 0 -.826.826.826.826 0 0 0 .826-.826"/></svg>