<svg xmlns="http://www.w3.org/2000/svg" aria-hidden="true" class="cf-icon-svg cf-icon-svg--three-closed" viewBox="0 0 17 19"><path d="M16.417 9.6A7.917 7.917 0 1 1 8.5 1.683 7.917 7.917 0 0 1 16.417 9.6m-5.489 1.56a1.5 1.5 0 0 0-.092-.523 1.5 1.5 0 0 0-.26-.444 1.7 1.7 0 0 0-.398-.342 1.7 1.7 0 0 0-.51-.208v-.028a1.5 1.5 0 0 0 .793-.505 1.4 1.4 0 0 0 .31-.923 1.6 1.6 0 0 0-.2-.821 1.8 1.8 0 0 0-.523-.58 2.3 2.3 0 0 0-.736-.343 3.3 3.3 0 0 0-.847-.111 3 3 0 0 0-.797.106 2.6 2.6 0 0 0-.718.315 2.2 2.2 0 0 0-.57.519 2.1 2.1 0 0 0-.36.727l1.444.333a.92.92 0 0 1 .32-.532.9.9 0 0 1 .579-.2.94.94 0 0 1 .574.187.63.63 0 0 1 .25.54.65.65 0 0 1-.357.63 1.1 1.1 0 0 1-.365.12 3 3 0 0 1-.426.033h-.454v1.13h.417a3 3 0 0 1 .481.042 1.5 1.5 0 0 1 .43.139.8.8 0 0 1 .306.264.7.7 0 0 1 .116.417.8.8 0 0 1-.088.388.8.8 0 0 1-.222.255.9.9 0 0 1-.306.144 1.3 1.3 0 0 1-.338.046 1.1 1.1 0 0 1-.731-.246 1.16 1.16 0 0 1-.38-.569l-1.445.38a2.2 2.2 0 0 0 .996 1.329 2.7 2.7 0 0 0 .769.31 3.7 3.7 0 0 0 .865.102 3.3 3.3 0 0 0 .894-.125 2.5 2.5 0 0 0 .792-.38 2 2 0 0 0 .57-.647 1.9 1.9 0 0 0 .217-.93z"/></svg>