<svg xmlns="http://www.w3.org/2000/svg" aria-hidden="true" class="cf-icon-svg cf-icon-svg--three-open" viewBox="0 0 17 19"><path d="M10.598 1.958a7.95 7.95 0 0 1 5.536 5.535 7.96 7.96 0 0 1 0 4.206 7.86 7.86 0 0 1-2.04 3.49 8 8 0 0 1-1.605 1.237 8 8 0 0 1-1.89.8 7.97 7.97 0 0 1-4.207 0 7.93 7.93 0 0 1-5.526-5.527 8 8 0 0 1 0-4.21 8 8 0 0 1 .8-1.887A8 8 0 0 1 2.902 4 7.86 7.86 0 0 1 8.5 1.675a7.8 7.8 0 0 1 2.098.283M6.691 3.025A6.75 6.75 0 0 0 3.688 4.78a7 7 0 0 0-1.067 1.384 7 7 0 0 0-.688 1.624 6.87 6.87 0 0 0 0 3.613 6.8 6.8 0 0 0 .688 1.627 6.82 6.82 0 0 0 4.07 3.13 6.86 6.86 0 0 0 3.609 0 7 7 0 0 0 1.628-.688 7 7 0 0 0 1.384-1.067 6.75 6.75 0 0 0 1.754-3.002 6.85 6.85 0 0 0 0-3.61 6.8 6.8 0 0 0-.687-1.627 6.9 6.9 0 0 0-2.452-2.452 6.8 6.8 0 0 0-1.627-.687 6.85 6.85 0 0 0-3.61 0zm4.19 7.668a1.5 1.5 0 0 0-.26-.444 1.7 1.7 0 0 0-.398-.342 1.7 1.7 0 0 0-.509-.208V9.67a1.5 1.5 0 0 0 .792-.505 1.4 1.4 0 0 0 .31-.923 1.6 1.6 0 0 0-.199-.821 1.8 1.8 0 0 0-.523-.58 2.3 2.3 0 0 0-.736-.344 3.3 3.3 0 0 0-.848-.11 3 3 0 0 0-.797.106 2.6 2.6 0 0 0-.717.315 2.2 2.2 0 0 0-.57.518 2.1 2.1 0 0 0-.361.728l1.445.333a.92.92 0 0 1 .32-.533.9.9 0 0 1 .578-.199.94.94 0 0 1 .574.187.63.63 0 0 1 .25.54.65.65 0 0 1-.356.63 1.1 1.1 0 0 1-.366.12 3 3 0 0 1-.426.033H7.63v1.13h.417a3 3 0 0 1 .481.042 1.5 1.5 0 0 1 .43.138.8.8 0 0 1 .307.264.7.7 0 0 1 .115.417.8.8 0 0 1-.087.389.8.8 0 0 1-.223.255.9.9 0 0 1-.305.143 1.3 1.3 0 0 1-.339.047 1.1 1.1 0 0 1-.731-.246 1.16 1.16 0 0 1-.38-.57l-1.445.38a2.2 2.2 0 0 0 .996 1.33 2.7 2.7 0 0 0 .769.31 3.7 3.7 0 0 0 .866.101 3.3 3.3 0 0 0 .893-.124 2.5 2.5 0 0 0 .792-.38 2 2 0 0 0 .57-.647 1.9 1.9 0 0 0 .218-.93 1.5 1.5 0 0 0-.093-.522z"/></svg>