<svg xmlns="http://www.w3.org/2000/svg" aria-hidden="true" class="cf-icon-svg cf-icon-svg--toolbox-round" viewBox="0 0 17 19"><path d="M16.417 9.583A7.917 7.917 0 1 1 8.5 1.666a7.917 7.917 0 0 1 7.917 7.917m-2.995-1.899a.79.79 0 0 0-.792-.784h-1.584v-.075a.317.317 0 0 0-.287-.315v-.37a.794.794 0 0 0-.792-.791H6.988a.794.794 0 0 0-.791.791v.371a.32.32 0 0 0-.281.314V6.9h-1.59a.79.79 0 0 0-.792.784v.785h1.308a1.029 1.029 0 0 1 2.054 0h3.164a1.029 1.029 0 0 1 2.053 0h1.309zm-.346 1.544h-.962a1.03 1.03 0 0 1-2.055 0H6.896a1.03 1.03 0 0 1-2.055 0H3.88v3.61a.32.32 0 0 0 .317.316h8.563a.32.32 0 0 0 .317-.317zm-7.207.337a.396.396 0 0 0 .396-.396v-.633a.396.396 0 0 0-.792 0v.633a.396.396 0 0 0 .396.396M9.966 6.14l.001.002v.372a.32.32 0 0 0-.262.311V6.9H7.257v-.075a.32.32 0 0 0-.269-.312v-.371l.002-.002zm1.12 3.425a.396.396 0 0 0 .396-.396v-.633a.396.396 0 0 0-.791 0v.633a.396.396 0 0 0 .396.396z"/></svg>