<svg viewBox="0 0 17 19" xmlns="http://www.w3.org/2000/svg"><path d="m16.417 9.583a7.917 7.917 0 1 1 -7.917-7.917 7.917 7.917 0 0 1 7.917 7.917m-2.995-1.899a.79.79 0 0 0 -.792-.784h-1.584v-.075a.317.317 0 0 0 -.287-.315v-.37a.794.794 0 0 0 -.792-.791h-2.979a.794.794 0 0 0 -.791.791v.371a.32.32 0 0 0 -.281.314v.075h-1.59a.79.79 0 0 0 -.792.784v.785h1.308a1.029 1.029 0 0 1 2.054 0h3.164a1.029 1.029 0 0 1 2.053 0h1.309zm-.346 1.544h-.962a1.03 1.03 0 0 1 -2.055 0h-3.163a1.03 1.03 0 0 1 -2.055 0h-.961v3.61a.32.32 0 0 0 .317.316h8.563a.32.32 0 0 0 .317-.317zm-7.207.337a.396.396 0 0 0 .396-.396v-.633a.396.396 0 0 0 -.792 0v.633a.396.396 0 0 0 .396.396m4.097-3.425.001.002v.372a.32.32 0 0 0 -.262.311v.075h-2.448v-.075a.32.32 0 0 0 -.269-.312v-.371l.002-.002zm1.12 3.425a.396.396 0 0 0 .396-.396v-.633a.396.396 0 0 0 -.791 0v.633a.396.396 0 0 0 .396.396z"/></svg>