<svg viewBox="0 0 17 19" xmlns="http://www.w3.org/2000/svg"><path d="m16.417 9.579a7.917 7.917 0 1 1 -7.917-7.917 7.917 7.917 0 0 1 7.917 7.917m-3.468-4.393c-.277-.277-1.211.208-1.488.485l-1.707 1.708-.015-.005-4.772-1.297a.68.68 0 0 0 -.593.158l-.428.428a.253.253 0 0 0 .06.422l3.174 1.755.557.557-1.472 1.47a2.5 2.5 0 0 0 -.376.56l-1.079-.327a.65.65 0 0 0 -.59.148l-.132.131a.355.355 0 0 0 0 .502l.776.776.015.014.587.588.015.015.775.776a.356.356 0 0 0 .502 0l.132-.132a.65.65 0 0 0 .148-.59l-.328-1.08a2.5 2.5 0 0 0 .56-.377l1.47-1.471.557.556 1.753 3.174a.253.253 0 0 0 .422.06l.428-.428a.68.68 0 0 0 .158-.594l-1.296-4.77-.005-.016 1.707-1.708c.277-.277.762-1.21.485-1.488"/></svg>