<svg viewBox="0 0 17 19" xmlns="http://www.w3.org/2000/svg"><path d="m16.417 9.6a7.917 7.917 0 1 1 -7.917-7.917 7.917 7.917 0 0 1 7.917 7.917m-5.431 2.113h-2.677l1.519-1.353q.223-.203.43-.412a3 3 0 0 0 .371-.449 2.1 2.1 0 0 0 .255-.523 2 2 0 0 0 .093-.635 1.9 1.9 0 0 0 -.2-.889 1.85 1.85 0 0 0 -.532-.63 2.3 2.3 0 0 0 -.76-.37 3.2 3.2 0 0 0 -.88-.12 2.9 2.9 0 0 0 -.912.144 2.4 2.4 0 0 0 -.764.42 2.3 2.3 0 0 0 -.55.666 2.3 2.3 0 0 0 -.274.89l1.491.204a1.23 1.23 0 0 1 .292-.717.893.893 0 0 1 1.227-.056.76.76 0 0 1 .222.568 1 1 0 0 1 -.148.536 2.4 2.4 0 0 1 -.389.472l-2.556 2.311v1.295h4.742z"/></svg>