<svg xmlns="http://www.w3.org/2000/svg" aria-hidden="true" class="cf-icon-svg cf-icon-svg--unfavorite" viewBox="0 0 17 19"><path d="m9.362 2.152 1.717 3.721 2.044.243 2.026.24c1.124.133 1.364.871.533 1.64L14.184 9.38l-1.512 1.397.8 4.02c.156.79-.116 1.25-.642 1.25a1.6 1.6 0 0 1-.753-.236L8.5 13.81l-3.576 2.002a1.6 1.6 0 0 1-.754.235c-.526 0-.798-.459-.641-1.249l.397-2 .401-2.02-1.51-1.397-1.498-1.385c-.832-.769-.592-1.507.532-1.64l2.026-.24 2.044-.243 1.717-3.721c.237-.514.55-.771.862-.771s.625.257.862.77zM6.928 6.338a1.11 1.11 0 0 1-.876.636l-2.042.242h-.002l-1.684.2L5.08 9.965a1.11 1.11 0 0 1 .335 1.03l-.401 2.019-.331 1.663 3.276-1.834a1.11 1.11 0 0 1 1.082 0l3.276 1.834-.731-3.682a1.11 1.11 0 0 1 .334-1.03l1.511-1.398.002-.001 1.243-1.15-1.684-.2-2.044-.242a1.11 1.11 0 0 1-.876-.636L8.5 2.928z"/></svg>