<svg xmlns="http://www.w3.org/2000/svg" aria-hidden="true" class="cf-icon-svg cf-icon-svg--unlock-round" viewBox="0 0 17 19"><path d="M16.417 9.583A7.917 7.917 0 1 1 8.5 1.666a7.917 7.917 0 0 1 7.917 7.917m-4.23-.585a.476.476 0 0 0-.475-.475H6.647L6.35 7.6a1.73 1.73 0 1 1 3.292-1.06.396.396 0 0 0 .753-.242 2.52 2.52 0 0 0-4.8 1.544l.22.682h-.544a.476.476 0 0 0-.475.475v5.108a.476.476 0 0 0 .475.475h6.44a.477.477 0 0 0 .476-.475zm-3.38 2.627v1.309a.317.317 0 1 1-.632 0v-1.309a.79.79 0 1 1 .633 0z"/></svg>