<svg viewBox="0 0 17 20.4" xmlns="http://www.w3.org/2000/svg"><path d="m16.416 10.283a7.917 7.917 0 1 1 -7.916-7.917 7.916 7.916 0 0 1 7.916 7.917m-11.87-2.954a5.1 5.1 0 0 0 -.908 2.139.79.79 0 0 0 .646.915 1 1 0 0 0 .135.011.79.79 0 0 0 .78-.657 3.5 3.5 0 0 1 .498-1.29v.324a.792.792 0 0 0 1.584 0v-2.234a.79.79 0 0 0 -.792-.792h-2.234a.792.792 0 0 0 0 1.584zm1.117 4.865a3.6 3.6 0 0 1 -.285-.58.792.792 0 1 0 -1.479.566 5 5 0 0 0 .412.839.792.792 0 1 0 1.352-.825m1.941 1.518a3.5 3.5 0 0 1 -.596-.249.792.792 0 0 0 -.742 1.399 5 5 0 0 0 .862.36.792.792 0 1 0 .476-1.51m1.136-6.887a.792.792 0 0 0 .014-1.583h-.008a.792.792 0 1 0 -.028 1.583h.007zm1.601 8.33a.792.792 0 1 0 -.523-1.495 3 3 0 0 1 -.309.092.792.792 0 0 0 .19 1.56.8.8 0 0 0 .193-.023q.227-.057.45-.134zm.581-7.688a.792.792 0 0 0 .414-1.467l-.003-.002a.792.792 0 0 0 -.835 1.346l.013.007a.8.8 0 0 0 .411.116m1.722 4.692a.79.79 0 0 0 -1.103.195 4 4 0 0 1 -.196.256.792.792 0 0 0 1.208 1.023q.151-.18.286-.371a.79.79 0 0 0 -.195-1.103m-.876-3.458.007.013a.792.792 0 0 0 1.398-.744l-.002-.002a.792.792 0 1 0 -1.403.733m1.233 1.066a.79.79 0 0 0 -.83.75l-.01.13a.79.79 0 0 0 .72.857l.07.004a.79.79 0 0 0 .787-.723q.009-.093.013-.187a.79.79 0 0 0 -.75-.83z"/></svg>