<svg xmlns="http://www.w3.org/2000/svg" aria-hidden="true" class="cf-icon-svg cf-icon-svg--upload" viewBox="0 0 12 19"><path d="M11.16 16.153a.477.477 0 0 1-.476.475H1.316a.477.477 0 0 1-.475-.475V3.046a.477.477 0 0 1 .475-.475h6.95l2.893 2.893zm-1.11-9.924H8.059a.575.575 0 0 1-.574-.574V3.679H1.95v11.84h8.102zm-1.234 4a.554.554 0 0 1-.784 0L6.55 8.747v5.121a.554.554 0 0 1-1.108 0V8.747l-1.483 1.482a.554.554 0 0 1-.783-.784l2.428-2.428a.554.554 0 0 1 .783 0l2.429 2.428a.554.554 0 0 1 0 .784"/></svg>