<svg viewBox="0 0 17 19" xmlns="http://www.w3.org/2000/svg"><path d="m16.417 9.57a7.917 7.917 0 1 1 -8.144-7.908 1.8 1.8 0 0 1 .451 0 7.913 7.913 0 0 1 7.693 7.907zm-10.567 6.268q.254.107.515.193a11.8 11.8 0 0 1 -1.572-5.92h-3.08a6.82 6.82 0 0 0 4.137 5.727m-3.624-8.916a6.7 6.7 0 0 0 -.511 2.082h3.078a11.83 11.83 0 0 1 1.55-5.89q-.249.083-.493.186a6.83 6.83 0 0 0 -3.624 3.622m8.87 2.082a14.4 14.4 0 0 0 -.261-2.31 10 10 0 0 0 -.713-2.26c-.447-.952-1.009-1.573-1.497-1.667h-.253c-.488.094-1.05.715-1.497 1.668a10 10 0 0 0 -.712 2.26 14.4 14.4 0 0 0 -.261 2.309zm-.974 5.676a9.8 9.8 0 0 0 .713-2.26 14.4 14.4 0 0 0 .26-2.309h-5.192a14.4 14.4 0 0 0 .261 2.31 9.8 9.8 0 0 0 .712 2.259c.487 1.036 1.109 1.68 1.624 1.68s1.137-.644 1.623-1.68zm4.652-2.462a6.7 6.7 0 0 0 .513-2.107h-3.082a11.77 11.77 0 0 1 -1.572 5.922q.261-.086.517-.194a6.83 6.83 0 0 0 3.624-3.621m-3.624-8.918a7 7 0 0 0 -.496-.187 11.8 11.8 0 0 1 1.55 5.89h3.081a6.82 6.82 0 0 0 -4.135-5.703"/></svg>