<svg xmlns="http://www.w3.org/2000/svg" aria-hidden="true" class="cf-icon-svg cf-icon-svg--wifi-round" viewBox="0 0 17 19"><path d="M16.417 9.583A7.917 7.917 0 1 1 8.5 1.666a7.917 7.917 0 0 1 7.917 7.917M14.3 8.2a.396.396 0 0 0 0-.56 8.196 8.196 0 0 0-11.6 0 .396.396 0 1 0 .56.56 7.405 7.405 0 0 1 10.48 0 .396.396 0 0 0 .56 0m-1.738 1.18a5.74 5.74 0 0 0-8.123-.001.396.396 0 0 0 .56.56 4.95 4.95 0 0 1 7.003 0 .396.396 0 0 0 .56-.56zm-1.74 1.738a3.285 3.285 0 0 0-4.645 0 .396.396 0 0 0 .56.56 2.493 2.493 0 0 1 3.526 0 .396.396 0 0 0 .56-.56zM9.63 13.481a1.123 1.123 0 1 0-1.123 1.123A1.123 1.123 0 0 0 9.63 13.48z"/></svg>