<svg xmlns="http://www.w3.org/2000/svg" aria-hidden="true" class="cf-icon-svg cf-icon-svg--winter" viewBox="0 0 17 19"><path d="M16.11 10.317a.554.554 0 0 1-.204.757l-1.83 1.053.943.545a.554.554 0 1 1-.554.96l-.953-.55-.003 2.13a.554.554 0 0 1-.554.553.554.554 0 0 1-.554-.555l.004-2.768-3.35-1.934v3.873l2.39 1.38a.554.554 0 0 1-.554.96l-1.837-1.06v1.094a.554.554 0 0 1-1.108 0V15.66l-1.837 1.06a.554.554 0 0 1-.554-.96l2.39-1.38v-3.873l-3.35 1.934.004 2.768a.554.554 0 0 1-.553.555h-.001a.554.554 0 0 1-.554-.553l-.003-2.13-.953.55a.554.554 0 1 1-.554-.96l.943-.545-1.83-1.054a.554.554 0 1 1 .553-.96l2.386 1.374 3.358-1.94L4.033 7.61 1.647 8.983a.554.554 0 1 1-.553-.961l1.83-1.053-.943-.545a.554.554 0 1 1 .554-.96l.953.55.003-2.13a.554.554 0 0 1 .554-.554.554.554 0 0 1 .554.555l-.004 2.768 3.35 1.935V4.715l-2.39-1.38a.554.554 0 0 1 .554-.96l1.837 1.06V2.341a.554.554 0 1 1 1.108 0v1.094l1.837-1.06a.554.554 0 0 1 .554.96l-2.39 1.38v3.873l3.35-1.935-.004-2.768a.554.554 0 0 1 .553-.554h.001a.554.554 0 0 1 .554.553l.003 2.13.953-.55a.554.554 0 1 1 .554.96l-.943.545 1.83 1.053a.554.554 0 1 1-.553.96L12.966 7.61 9.61 9.548l3.357 1.939 2.387-1.374a.554.554 0 0 1 .757.204z"/></svg>