<svg xmlns="http://www.w3.org/2000/svg" aria-hidden="true" class="cf-icon-svg cf-icon-svg--zero-open" viewBox="0 0 17 19"><path d="M10.59 1.957a8 8 0 0 1 1.895.795 7.8 7.8 0 0 1 1.608 1.237 8 8 0 0 1 1.241 1.6 7.91 7.91 0 0 1 0 7.992 7.96 7.96 0 0 1-4.744 3.644 7.87 7.87 0 0 1-6.093-.8 8 8 0 0 1-1.599-1.241 8 8 0 0 1-1.237-1.604 8 8 0 0 1-.795-1.895 8 8 0 0 1-.283-2.111 7.8 7.8 0 0 1 .283-2.099 7.9 7.9 0 0 1 5.518-5.518 7.96 7.96 0 0 1 4.206 0M6.682 3.025a6.79 6.79 0 0 0-4.749 4.748 6.7 6.7 0 0 0-.241 1.8 6.8 6.8 0 0 0 .242 1.815 7 7 0 0 0 .685 1.634 6.8 6.8 0 0 0 1.063 1.379 7 7 0 0 0 1.38 1.07 6.8 6.8 0 0 0 5.229.687 7 7 0 0 0 1.634-.69 6.82 6.82 0 0 0 3.14-4.08 6.8 6.8 0 0 0 .243-1.814 6.7 6.7 0 0 0-.242-1.8 6.8 6.8 0 0 0-.686-1.622 7 7 0 0 0-1.07-1.379 6.7 6.7 0 0 0-1.381-1.062 7 7 0 0 0-1.637-.686 6.85 6.85 0 0 0-3.61 0m4.244 5.478a3.3 3.3 0 0 0-.444-1.093 2.3 2.3 0 0 0-.792-.745 2.34 2.34 0 0 0-1.18-.278 2.37 2.37 0 0 0-1.186.278 2.3 2.3 0 0 0-.802.745 3.2 3.2 0 0 0-.449 1.093 6.4 6.4 0 0 0 0 2.644 3.3 3.3 0 0 0 .45 1.107 2.24 2.24 0 0 0 1.986 1.042 2.21 2.21 0 0 0 1.973-1.042 3.4 3.4 0 0 0 .444-1.107 6 6 0 0 0 .14-1.324 6 6 0 0 0-.14-1.32m-1.49 2.01a3.4 3.4 0 0 1-.14.695 1.5 1.5 0 0 1-.291.537.63.63 0 0 1-.496.218.64.64 0 0 1-.5-.218 1.5 1.5 0 0 1-.301-.537 3.2 3.2 0 0 1-.144-.695q-.037-.375-.037-.69 0-.305.037-.676a3.2 3.2 0 0 1 .144-.69 1.5 1.5 0 0 1 .3-.537.64.64 0 0 1 .501-.218.63.63 0 0 1 .495.218 1.5 1.5 0 0 1 .292.537 3.4 3.4 0 0 1 .14.69q.036.37.036.676 0 .315-.037.69z"/></svg>