<svg viewBox="0 0 12 19" xmlns="http://www.w3.org/2000/svg"><path d="m10.05 3.828a1.112 1.112 0 0 1 1.11 1.108v10.562a1.112 1.112 0 0 1 -1.11 1.108h-8.1a1.112 1.112 0 0 1 -1.11-1.108v-10.562a1.112 1.112 0 0 1 1.11-1.108h.415v1.108h-.414l-.002.002v10.558l.002.002h8.098l.002-.002v-10.558l-.002-.002h-.414v-1.108h.416zm-.98 4.076h-6.25v1.108h6.25zm0 2.337h-6.25v1.108h6.25zm0 2.337h-6.25v1.108h6.25zm-.543-8.935v1.25a.476.476 0 0 1 -.475.476h-4.104a.476.476 0 0 1 -.475-.475v-1.25a.476.476 0 0 1 .475-.476h.697v-1.298a.476.476 0 0 1 .475-.475h1.76a.476.476 0 0 1 .475.475v1.3h.697a.476.476 0 0 1 .475.474zm-1.977-.973a.554.554 0 1 0 -.554.554.554.554 0 0 0 .554-.554"/></svg>