<svg xmlns="http://www.w3.org/2000/svg" aria-hidden="true" class="cf-icon-svg cf-icon-svg--appendix-round" viewBox="0 0 17 19"><path d="M16.417 9.579A7.917 7.917 0 1 1 8.5 1.662a7.917 7.917 0 0 1 7.917 7.917m-4.233-1.805H9.259a.32.32 0 0 1-.317-.317v-2.9H5.16a.317.317 0 0 0-.317.317v9.368a.317.317 0 0 0 .317.316h6.707a.317.317 0 0 0 .317-.316zm-5.105 4.561a.396.396 0 1 0-.396.396h.001a.395.395 0 0 0 .395-.396m1.2 0a.396.396 0 0 0-.395-.395H7.88a.396.396 0 0 0 0 .791h.004a.396.396 0 0 0 .395-.396m1.2 0a.396.396 0 0 0-.396-.395H9.08a.396.396 0 0 0 0 .791h.003a.396.396 0 0 0 .396-.396m.258-5.356h2.43l-2.43-2.416zm.939 5.356a.396.396 0 1 0-.397.396h.002a.395.395 0 0 0 .395-.396"/></svg>