<svg xmlns="http://www.w3.org/2000/svg" aria-hidden="true" class="cf-icon-svg cf-icon-svg--audio-medium" viewBox="0 0 14 19"><path d="M7.365 4.785v9.63c0 .61-.353.756-.784.325l-2.896-2.896H1.708A1.11 1.11 0 0 1 .6 10.736V8.464a1.11 1.11 0 0 1 1.108-1.108h1.977L6.581 4.46c.43-.43.784-.285.784.325m2.468 7.311a3.53 3.53 0 0 0 0-4.992.554.554 0 0 0-.784.784 2.425 2.425 0 0 1 0 3.425.554.554 0 1 0 .784.783m1.791 1.792a6.06 6.06 0 0 0 0-8.575.554.554 0 1 0-.784.783 4.955 4.955 0 0 1 0 7.008.554.554 0 1 0 .784.784"/></svg>