<svg xmlns="http://www.w3.org/2000/svg" aria-hidden="true" class="cf-icon-svg cf-icon-svg--audio-medium-round" viewBox="0 0 17 19"><path d="M16.417 9.583A7.917 7.917 0 1 1 8.5 1.666a7.917 7.917 0 0 1 7.917 7.917M7.84 6.06c0-.435-.252-.54-.56-.231l-2.12 2.12H3.704a.794.794 0 0 0-.791.792v1.686a.794.794 0 0 0 .791.792h1.457l2.12 2.12c.308.308.56.204.56-.231zm1.792 5.337a2.564 2.564 0 0 0 0-3.626.396.396 0 1 0-.56.56 1.773 1.773 0 0 1 0 2.506.396.396 0 1 0 .56.56m2.597-1.813a4.38 4.38 0 0 0-1.292-3.118.396.396 0 0 0-.56.56 3.62 3.62 0 0 1 0 5.116.396.396 0 1 0 .56.56 4.38 4.38 0 0 0 1.292-3.118"/></svg>