<svg xmlns="http://www.w3.org/2000/svg" aria-hidden="true" class="cf-icon-svg cf-icon-svg--bank" viewBox="0 0 16 19"><path d="M15.442 14.75v.491H.558v-.49a.476.476 0 0 1 .475-.476h.478l-.003-.048v-.443a.476.476 0 0 1 .475-.475h.713V7.164H1.508a.554.554 0 0 1-.22-1.063L7.78 3.288a.55.55 0 0 1 .44 0L14.712 6.1a.554.554 0 0 1-.22 1.063h-1.188v6.145h.713a.476.476 0 0 1 .475.475v.443l-.003.048h.478a.476.476 0 0 1 .475.475zM3.804 13.31h2.058V8.264H3.804zm.377-7.254h7.639L8 4.4zm2.79 2.21v5.043h2.058V8.265zm5.225 5.043V8.265h-2.059v5.044z"/></svg>