<svg xmlns="http://www.w3.org/2000/svg" aria-hidden="true" class="cf-icon-svg cf-icon-svg--building-credit" viewBox="0 0 13 19"><path d="M12.348 9.353H.652v-.448a1.11 1.11 0 0 1 1.109-1.108h9.478a1.11 1.11 0 0 1 1.109 1.108zM.652 10.462h11.696v3.65a1.11 1.11 0 0 1-1.109 1.108H1.761a1.11 1.11 0 0 1-1.109-1.108zM2.41 13.65h3.819v-1.108h-3.82zm6.409-9.316a.554.554 0 0 1-.554.554H6.943v1.321a.554.554 0 0 1-1.108 0V4.888H4.513a.554.554 0 1 1 0-1.108h1.322V2.458a.554.554 0 1 1 1.108 0v1.321h1.322a.554.554 0 0 1 .554.555"/></svg>