<svg viewBox="0 0 14 19" xmlns="http://www.w3.org/2000/svg"><path d="m13.006 6.945v.462a.554.554 0 0 1 -.914.422v1.4a1.107 1.107 0 0 1 .371.825v2.09a.477.477 0 0 1 .344.456v.974a.476.476 0 0 1 -.475.475h-.613v1.002a.477.477 0 0 1 -.475.476h-1.05a.477.477 0 0 1 -.476-.476v-1.001h-5.63v1.002a.477.477 0 0 1 -.475.476h-.857a.477.477 0 0 1 -.475-.476v-1.002h-.611a.476.476 0 0 1 -.475-.475v-.975a.477.477 0 0 1 .343-.456v-2.09a1.107 1.107 0 0 1 .37-.826v-1.4a.554.554 0 0 1 -.914-.42v-.463a.554.554 0 0 1 .915-.42v-2.95a1.112 1.112 0 0 1 1.108-1.107h7.968a1.112 1.112 0 0 1 1.108 1.108v2.948a.554.554 0 0 1 .914.421zm-8.893 3.623a.792.792 0 1 0 -.792.792.792.792 0 0 0 .792-.792m2.333-4.794h-3.43v3.171h3.43zm-3.348-1.664a.554.554 0 0 0 .554.555h6.696a.554.554 0 0 0 0-1.109h-6.696a.554.554 0 0 0 -.554.554m7.886 4.834v-3.17h-3.43v3.171zm.487 1.623a.792.792 0 1 0 -.792.792.792.792 0 0 0 .792-.792"/></svg>