<svg xmlns="http://www.w3.org/2000/svg" aria-hidden="true" class="cf-icon-svg cf-icon-svg--chart" viewBox="0 0 15 19"><path d="M13.55 15.256H1.45a.554.554 0 0 1-.553-.554V3.168a.554.554 0 1 1 1.108 0v10.98h11.544a.554.554 0 0 1 0 1.108zM3.121 13.02V6.888a.476.476 0 0 1 .475-.475h.786a.476.476 0 0 1 .475.475v6.132zm2.785 0V3.507a.476.476 0 0 1 .475-.475h.786a.476.476 0 0 1 .475.475v9.513zm2.785 0V6.888a.476.476 0 0 1 .475-.475h.786a.476.476 0 0 1 .475.475v6.132zm2.786 0v-2.753a.476.476 0 0 1 .475-.475h.785a.476.476 0 0 1 .475.475v2.753z"/></svg>