<svg xmlns="http://www.w3.org/2000/svg" aria-hidden="true" class="cf-icon-svg cf-icon-svg--complaint-round" viewBox="0 0 17 19"><path d="M16.417 9.583A7.917 7.917 0 1 1 8.5 1.666a7.917 7.917 0 0 1 7.917 7.917M13.18 6.811a.794.794 0 0 0-.791-.792H4.654a.794.794 0 0 0-.791.792v5.187a.794.794 0 0 0 .791.791h2.93L8.338 14a.182.182 0 0 0 .335 0l.755-1.21h2.96a.794.794 0 0 0 .791-.792zM9.025 11.1a.503.503 0 1 1-.503-.503.503.503 0 0 1 .503.503m-.9-1.278V7.515a.396.396 0 0 1 .793 0v2.307a.396.396 0 1 1-.792 0z"/></svg>