<svg xmlns="http://www.w3.org/2000/svg" aria-hidden="true" class="cf-icon-svg cf-icon-svg--court" viewBox="0 0 15 19"><path d="M9.316 14.722a.477.477 0 0 1-.475.475H1.433a.477.477 0 0 1-.475-.475v-.863a.477.477 0 0 1 .475-.475h7.408a.476.476 0 0 1 .475.475zm-2.767-2.587a.55.55 0 0 1-.392-.163L2.96 8.776a.554.554 0 0 1 .784-.784L6.94 11.19a.554.554 0 0 1-.392.946zm7.33.992L9.435 8.682l1.085-1.084-3.173-3.173-2.97 2.97 3.173 3.172 1.102-1.101 4.445 4.445a.554.554 0 1 0 .784-.784zm-2.33-5.993a.55.55 0 0 1-.391-.162L7.96 3.775a.554.554 0 1 1 .784-.784l3.196 3.197a.554.554 0 0 1-.391.946"/></svg>