<svg xmlns="http://www.w3.org/2000/svg" aria-hidden="true" class="cf-icon-svg cf-icon-svg--credit-repair-round" viewBox="0 0 17 19"><path d="M16.417 9.583A7.917 7.917 0 1 1 8.5 1.666a7.917 7.917 0 0 1 7.917 7.917M3.787 7.417a.794.794 0 0 0-.791.792v.257h6.596a2.55 2.55 0 0 1-.22-1.036v-.013zm6.476 1.95q-.06-.053-.118-.109h-7.15v2.45a.794.794 0 0 0 .792.792h6.425q.026 0 .05-.002zm-3.45 1.283H4.2v.791h2.615zm6.87-3.22a1.76 1.76 0 0 0-.997-1.587V7.16a.285.285 0 0 1-.285.284h-.956a.285.285 0 0 1-.284-.284V5.843a1.76 1.76 0 0 0-.107 3.117v3.608a.869.869 0 1 0 1.738 0V8.96a1.76 1.76 0 0 0 .891-1.53"/></svg>