<svg xmlns="http://www.w3.org/2000/svg" aria-hidden="true" class="cf-icon-svg cf-icon-svg--credit-payment" viewBox="0 0 17 19"><path d="M7.782 8.282H.818v-.874A1.11 1.11 0 0 1 1.926 6.3h6.629a4.8 4.8 0 0 0-.773 1.982m7.09 4.859v.971a1.11 1.11 0 0 1-1.108 1.108H1.926a1.11 1.11 0 0 1-1.108-1.108V9.39h6.93a4.782 4.782 0 0 0 6.623 3.998 5 5 0 0 0 .501-.247M7.92 12.113H3.33v1.109h4.59zm8.262-3.129a3.672 3.672 0 1 1-3.672-3.671 3.67 3.67 0 0 1 3.672 3.671m-2.215.812a1.07 1.07 0 0 0-.265-.705 1.4 1.4 0 0 0-.397-.316 1.7 1.7 0 0 0-.41-.148 2 2 0 0 0-.375-.039 1.3 1.3 0 0 1-.216-.016.8.8 0 0 1-.221-.072.5.5 0 0 1-.164-.131.3.3 0 0 1-.074-.187.32.32 0 0 1 .182-.267 1 1 0 0 1 .5-.133 1 1 0 0 1 .175.03l.022.004a1 1 0 0 1 .214.075.6.6 0 0 1 .168.116.396.396 0 1 0 .56-.56 1.4 1.4 0 0 0-.403-.278 2 2 0 0 0-.352-.122v-.242a.396.396 0 1 0-.791 0v.232a1.7 1.7 0 0 0-.516.209 1.11 1.11 0 0 0-.55.936 1.1 1.1 0 0 0 .25.686 1.3 1.3 0 0 0 .425.34 1.6 1.6 0 0 0 .445.145 2 2 0 0 0 .346.027 1 1 0 0 1 .207.021 1 1 0 0 1 .21.075.7.7 0 0 1 .169.136.3.3 0 0 1 .07.184c0 .044 0 .135-.166.242a1 1 0 0 1-.51.14 2 2 0 0 1-.224-.027 1 1 0 0 1-.208-.066.4.4 0 0 1-.154-.12.396.396 0 0 0-.598.519 1.2 1.2 0 0 0 .459.336 2 2 0 0 0 .345.107v.237a.396.396 0 0 0 .791 0v-.242a1.7 1.7 0 0 0 .53-.22 1.05 1.05 0 0 0 .526-.906"/></svg>