<svg xmlns="http://www.w3.org/2000/svg" aria-hidden="true" class="cf-icon-svg cf-icon-svg--date" viewBox="0 0 13 19"><path d="M11.882 3.187a.476.476 0 0 1 .475.475v11.063a.476.476 0 0 1-.475.475H1.118a.476.476 0 0 1-.475-.475V3.662a.476.476 0 0 1 .475-.475h1.328v.721a1.425 1.425 0 0 0 2.85 0v-.72H7.71v.72a1.425 1.425 0 0 0 2.85 0v-.72zm-.634 3.37H1.752v7.535h9.496zm-7.384.821H2.621V8.67h1.243zm0 2.292H2.621v1.292h1.243zm0 2.292H2.621v1.291h1.243zm.561-8.054V2.475a.554.554 0 1 0-1.108 0v1.433a.554.554 0 1 0 1.108 0m1.613 3.47H4.794V8.67h1.244zm0 2.292H4.794v1.292h1.244zm0 2.292H4.794v1.291h1.244zm2.174-4.584H6.968V8.67h1.244zm0 2.292H6.968v1.292h1.244zm0 2.292H6.968v1.291h1.244zm1.477-8.054V2.475a.554.554 0 0 0-1.108 0v1.433a.554.554 0 0 0 1.108 0m.696 3.47H9.142V8.67h1.243zm0 2.292H9.142v1.292h1.243zm0 2.292H9.142v1.291h1.243z"/></svg>