<svg xmlns="http://www.w3.org/2000/svg" aria-hidden="true" class="cf-icon-svg cf-icon-svg--debt-collection-round" viewBox="0 0 17 19"><path d="M16.417 9.583A7.917 7.917 0 1 1 8.5 1.666a7.917 7.917 0 0 1 7.917 7.917m-13.099.331h2.775a2.2 2.2 0 0 1 .163-.632 2 2 0 0 1 .168-.32H3.318a.32.32 0 0 0-.316.316v.32a.32.32 0 0 0 .316.316m10.77-1.375a.32.32 0 0 0-.318-.317h-1.15A3.48 3.48 0 0 0 9.528 6.03H7.56a.32.32 0 0 0-.317.317v.404a.32.32 0 0 0 .316.316h.87l-.001.001h.779a.25.25 0 1 1 0 .502h-5.47a.32.32 0 0 0-.316.317v.32a.32.32 0 0 0 .316.317h3.047a2.246 2.246 0 1 1-.046 3.219H4.81a.32.32 0 0 0-.317.316v.32a.32.32 0 0 0 .317.317h6.394a1.95 1.95 0 0 0 1.8-.994h.765a.32.32 0 0 0 .317-.316zm-10.35 2.766h2.658a2 2 0 0 1-.14-.276 2.2 2.2 0 0 1-.167-.677H3.737a.32.32 0 0 0-.316.316v.32a.32.32 0 0 0 .316.317zM8.563 8.79v-.287a.238.238 0 0 0-.475 0v.28a1.2 1.2 0 0 0-.397.153.75.75 0 0 0-.376.637.74.74 0 0 0 .171.466.9.9 0 0 0 .291.234 1.1 1.1 0 0 0 .31.1 1.4 1.4 0 0 0 .242.02 1 1 0 0 1 .16.015.7.7 0 0 1 .164.06.5.5 0 0 1 .137.11.26.26 0 0 1 .063.165c0 .058-.016.135-.142.217a.77.77 0 0 1-.397.11 1 1 0 0 1-.17-.02 1 1 0 0 1-.161-.052.35.35 0 0 1-.131-.1.237.237 0 1 0-.36.31.8.8 0 0 0 .314.23 1.3 1.3 0 0 0 .256.08l.026.004v.287a.237.237 0 1 0 .475 0v-.29a1.2 1.2 0 0 0 .406-.16.72.72 0 0 0 .359-.616.73.73 0 0 0-.18-.479 1 1 0 0 0-.274-.217 1.2 1.2 0 0 0-.284-.103 1.3 1.3 0 0 0-.261-.027 1 1 0 0 1-.165-.013.6.6 0 0 1-.175-.056.4.4 0 0 1-.134-.108.28.28 0 0 1-.065-.167.28.28 0 0 1 .155-.235.76.76 0 0 1 .388-.105 1 1 0 0 1 .138.023l.016.004a1 1 0 0 1 .164.057.5.5 0 0 1 .137.094.237.237 0 1 0 .336-.336 1 1 0 0 0-.278-.19 1.3 1.3 0 0 0-.258-.09l-.016-.003z"/></svg>