<svg xmlns="http://www.w3.org/2000/svg" class="cf-icon-svg cf-icon-svg--debt" viewBox="0 0 16 19"><path d="M14.874 9.97a.554.554 0 0 1 .357.697l-.756 2.34a.554.554 0 1 1-1.054-.34l.347-1.075-7.151 3.66a.554.554 0 0 1-.518-.008l-2.58-1.41-1.97 1.008a.554.554 0 1 1-.505-.987l2.23-1.141a.554.554 0 0 1 .519.007l2.58 1.41 1.162-.595a3.287 3.287 0 1 1 2.967-1.518l2.75-1.407-1.058-.342a.554.554 0 1 1 .34-1.055zm-5.462 1.444a1.097 1.097 0 0 0 .059-1.088 1.115 1.115 0 0 0-.58-.526 1.498 1.498 0 0 0-.519-.105 1.745 1.745 0 0 0-.452.057 1.869 1.869 0 0 0-.368.143 1.405 1.405 0 0 1-.216.09.885.885 0 0 1-.252.041.57.57 0 0 1-.228-.047.356.356 0 0 1-.173-.152.364.364 0 0 1 .044-.365 1.059 1.059 0 0 1 .417-.377 1.118 1.118 0 0 1 .186-.059l.023-.006a1.225 1.225 0 0 1 .244-.033.643.643 0 0 1 .224.029.396.396 0 0 0 .242-.754 1.436 1.436 0 0 0-.506-.066 1.995 1.995 0 0 0-.406.059l-.174-.341a.396.396 0 1 0-.705.36l.17.331a1.755 1.755 0 0 0-.397.454 1.152 1.152 0 0 0-.067 1.128 1.137 1.137 0 0 0 .558.516 1.348 1.348 0 0 0 .555.115 1.66 1.66 0 0 0 .484-.079 2.173 2.173 0 0 0 .337-.14 1.077 1.077 0 0 1 .21-.082.951.951 0 0 1 .241-.03.698.698 0 0 1 .235.048.327.327 0 0 1 .168.152c.021.041.071.139-.04.332a1.07 1.07 0 0 1-.424.39 1.712 1.712 0 0 1-.23.084 1.168 1.168 0 0 1-.233.038.466.466 0 0 1-.215-.04.396.396 0 0 0-.297.734 1.284 1.284 0 0 0 .482.099c.035 0 .069-.002.103-.005a1.88 1.88 0 0 0 .394-.07l.173.34a.396.396 0 1 0 .705-.361l-.176-.343a1.767 1.767 0 0 0 .404-.471"/></svg>