<svg xmlns="http://www.w3.org/2000/svg" class="cf-icon-svg cf-icon-svg--debt-collection" viewBox="0 0 17 19"><path d="M5.212 10.418a2.975 2.975 0 0 0-.217.827h-3.92a.474.474 0 0 1-.473-.472v-.409a.474.474 0 0 1 .472-.473h4.357a.481.481 0 0 1 .066.004 2.998 2.998 0 0 0-.285.523M16.35 9.316v3.995a.476.476 0 0 1-.475.475h-1.063a2.777 2.777 0 0 1-2.556 1.411H3.195a.474.474 0 0 1-.473-.473v-.409a.474.474 0 0 1 .473-.473h2.797a3.01 3.01 0 1 0 .076-4.572H1.67a.474.474 0 0 1-.472-.473v-.409a.474.474 0 0 1 .472-.472h5.988l.001-.001h1.76a.356.356 0 0 0 0-.713H7.101a.474.474 0 0 1-.473-.473V6.2a.474.474 0 0 1 .472-.473h2.512q.023 0 .047.003l.002-.003h.212a4.944 4.944 0 0 1 4.39 3.114h1.611a.476.476 0 0 1 .475.475zM5.457 13.22H1.67a.474.474 0 0 1-.472-.472v-.408a.474.474 0 0 1 .472-.473h3.318a2.982 2.982 0 0 0 .468 1.353zM8.38 9.373v.324a1.9 1.9 0 0 1 .335.117 1.35 1.35 0 0 1 .394.271.396.396 0 0 1-.558.56.556.556 0 0 0-.16-.11 1.08 1.08 0 0 0-.206-.071l-.022-.005a1.035 1.035 0 0 0-.168-.028.942.942 0 0 0-.478.127.305.305 0 0 0-.172.25.295.295 0 0 0 .07.175.482.482 0 0 0 .155.124.77.77 0 0 0 .212.068 1.237 1.237 0 0 0 .208.016 1.745 1.745 0 0 1 .366.038 1.623 1.623 0 0 1 .4.145 1.405 1.405 0 0 1 .39.31 1.054 1.054 0 0 1 .26.692 1.028 1.028 0 0 1-.516.89 1.644 1.644 0 0 1-.51.212v.325a.396.396 0 0 1-.791 0v-.32a1.828 1.828 0 0 1-.328-.103 1.17 1.17 0 0 1-.45-.33l-.008-.009a.396.396 0 1 1 .606-.509.391.391 0 0 0 .146.113 1.048 1.048 0 0 0 .2.064 1.568 1.568 0 0 0 .215.027.96.96 0 0 0 .49-.135c.155-.101.155-.185.155-.225a.265.265 0 0 0-.065-.172.617.617 0 0 0-.162-.13.834.834 0 0 0-.2-.072.947.947 0 0 0-.199-.02 2.014 2.014 0 0 1-.338-.027 1.549 1.549 0 0 1-.436-.14 1.265 1.265 0 0 1-.415-.334 1.073 1.073 0 0 1-.247-.674 1.087 1.087 0 0 1 .54-.919 1.628 1.628 0 0 1 .495-.203v-.312a.396.396 0 0 1 .792 0"/></svg>