<svg xmlns="http://www.w3.org/2000/svg" aria-hidden="true" class="cf-icon-svg cf-icon-svg--debt-round" viewBox="0 0 17 19"><path d="M16.417 9.583A7.917 7.917 0 1 1 8.5 1.666a7.917 7.917 0 0 1 7.917 7.917m-2.235-.31a.396.396 0 0 0-.255-.498l-1.848-.597a.396.396 0 1 0-.243.753l.932.301-2.33 1.193a2.596 2.596 0 1 0-2.211 1.132l-1.004.513-2.059-1.124a.4.4 0 0 0-.37-.005l-1.762.901a.396.396 0 1 0 .36.705l1.576-.806 2.059 1.125a.4.4 0 0 0 .37.004l5.74-2.937-.305.945a.396.396 0 1 0 .753.243zm-4.559.612a1.4 1.4 0 0 1-.32.369l.137.269a.317.317 0 0 1-.566.286l-.134-.266a1.5 1.5 0 0 1-.309.053q-.038.003-.077.003a1 1 0 0 1-.386-.08.317.317 0 0 1 .24-.586.4.4 0 0 0 .168.032 1 1 0 0 0 .184-.03 1.4 1.4 0 0 0 .181-.065.84.84 0 0 0 .335-.304c.088-.15.05-.224.033-.259a.25.25 0 0 0-.13-.118.6.6 0 0 0-.184-.04.8.8 0 0 0-.19.024 1 1 0 0 0-.165.064 2 2 0 0 1-.267.109 1.3 1.3 0 0 1-.384.06 1.1 1.1 0 0 1-.44-.093.9.9 0 0 1-.44-.412.91.91 0 0 1 .057-.895 1.4 1.4 0 0 1 .313-.356l-.13-.259a.317.317 0 1 1 .565-.286l.135.268a1.6 1.6 0 0 1 .318-.045 1.1 1.1 0 0 1 .4.055.317.317 0 0 1-.196.602.5.5 0 0 0-.176-.024 1 1 0 0 0-.191.026l-.019.004a1 1 0 0 0-.146.046.84.84 0 0 0-.33.294.29.29 0 0 0-.035.285.28.28 0 0 0 .133.118.5.5 0 0 0 .177.038h.002a.7.7 0 0 0 .198-.03 1 1 0 0 0 .17-.07 1.5 1.5 0 0 1 .292-.112 1.4 1.4 0 0 1 .36-.044 1.2 1.2 0 0 1 .41.085.88.88 0 0 1 .458.42.87.87 0 0 1-.05.864z"/></svg>