<svg viewBox="0 0 17 19" xmlns="http://www.w3.org/2000/svg"><path d="m16.417 9.579a7.917 7.917 0 1 1 -7.917-7.917 7.917 7.917 0 0 1 7.917 7.917m-2.458 2.96a.396.396 0 0 0 -.396-.397h-.667a1.527 1.527 0 0 0 -1.249-1.114.777.777 0 0 0 .014-.145v-1.505a.794.794 0 0 0 -.792-.792h-2.668a2.984 2.984 0 0 0 -1.682-.516l-.11.002v-.652h2.997a.396.396 0 1 0 0-.792h-2.996v-1.3a.396.396 0 0 0 -.396-.397h-1.123a.396.396 0 0 0 0 .792h.727v2.487a2.997 2.997 0 1 0 3.836 3.466h.71a1.526 1.526 0 1 0 2.732 1.26h.667a.396.396 0 0 0 .396-.397m-5.881-3.032a2.205 2.205 0 1 1 -1.559-.646 2.19 2.19 0 0 1 1.559.646m4.078 3.03a.734.734 0 1 1 -.733-.734.735.735 0 0 1 .733.733z"/></svg>