<svg xmlns="http://www.w3.org/2000/svg" aria-hidden="true" class="cf-icon-svg cf-icon-svg--disability-round" viewBox="0 0 17 19"><path d="M16.417 9.579A7.917 7.917 0 1 1 8.5 1.662a7.917 7.917 0 0 1 7.917 7.917m-2.458 2.96a.396.396 0 0 0-.396-.397h-.667a1.53 1.53 0 0 0-1.249-1.114 1 1 0 0 0 .014-.145V9.378a.794.794 0 0 0-.792-.792H8.201a3 3 0 0 0-1.682-.516l-.11.002V7.42h2.997a.396.396 0 1 0 0-.792H6.41v-1.3a.396.396 0 0 0-.396-.397H4.891a.396.396 0 0 0 0 .792h.727V8.21a2.997 2.997 0 1 0 3.836 3.466h.71a1.526 1.526 0 1 0 2.732 1.26h.667a.396.396 0 0 0 .396-.397M8.078 9.507a2.205 2.205 0 1 1-1.559-.646 2.2 2.2 0 0 1 1.559.646m4.078 3.03a.734.734 0 1 1-.733-.734.735.735 0 0 1 .733.733z"/></svg>