<svg xmlns="http://www.w3.org/2000/svg" aria-hidden="true" class="cf-icon-svg cf-icon-svg--equipment-round" viewBox="0 0 17 19"><path d="M16.417 9.579A7.917 7.917 0 1 1 8.5 1.662a7.917 7.917 0 0 1 7.917 7.917m-3.831-2.295a.396.396 0 0 0 .182-.53 4.7 4.7 0 0 0-4.225-2.642.4.4 0 0 0-.077.008 1.53 1.53 0 0 0-1.16.55h-.001l-.005.007a2 2 0 0 0-.096.131.846.846 0 0 1-1.327-.084.396.396 0 0 0-.772.123v1.605a.396.396 0 0 0 .768.137.846.846 0 0 1 1.35-.07q.028.042.06.08a.85.85 0 0 1 .137.464v.284h2.416v-.764a.846.846 0 0 1 .846-.846.84.84 0 0 1 .388.094 3.9 3.9 0 0 1 .987 1.27.4.4 0 0 0 .356.223.4.4 0 0 0 .173-.04m-3.088.945a.32.32 0 0 0-.317-.316H7.938a.32.32 0 0 0-.317.316v6.687a.32.32 0 0 0 .317.317h1.243a.32.32 0 0 0 .317-.317z"/></svg>