<svg viewBox="0 0 14 19" xmlns="http://www.w3.org/2000/svg"><path d="m13.017 3.622v4.6a.554.554 0 0 1 -1.108 0v-3.262l-2.162 2.162a1.65 1.65 0 0 1 .13.646v5.57a1.664 1.664 0 0 1 -1.662 1.662h-5.57a1.664 1.664 0 0 1 -1.662-1.663v-5.57a1.664 1.664 0 0 1 1.662-1.662h5.57a1.654 1.654 0 0 1 .785.197l2.126-2.126h-3.263a.554.554 0 1 1 0-1.108h4.6a.554.554 0 0 1 .554.554m-4.247 4.478-2.844 2.844a.554.554 0 0 1 -.784-.783l2.947-2.948h-5.444a.555.555 0 0 0 -.554.555v5.57a.555.555 0 0 0 .554.553h5.57a.555.555 0 0 0 .554-.554z"/></svg>