<svg xmlns="http://www.w3.org/2000/svg" viewBox="0 0 17 19" class="cf-icon-svg"><path d="M16.417 9.583A7.917 7.917 0 1 1 8.5 1.666a7.917 7.917 0 0 1 7.917 7.917zm-7.152.384a2.324 2.324 0 0 1-.236-.428 2.28 2.28 0 0 1-.094-.267H5.153a2.247 2.247 0 0 0-2.24 2.24v1.345a.899.899 0 0 0 .896.896h3.827a1.37 1.37 0 0 1-.146-.617v-.926a2.314 2.314 0 0 1 1.408-2.123 2.247 2.247 0 0 1 .367-.12zM7.17 8.6a2.29 2.29 0 1 0-2.29-2.29A2.29 2.29 0 0 0 7.17 8.6zm5.402 2.068H9.796a1.547 1.547 0 0 0-1.543 1.542v.926a.619.619 0 0 0 .617.617h4.628a.619.619 0 0 0 .617-.617v-.926a1.547 1.547 0 0 0-1.543-1.542zm-1.388-.463a1.576 1.576 0 1 0-1.576-1.577 1.576 1.576 0 0 0 1.576 1.577z"/></svg>