<svg xmlns="http://www.w3.org/2000/svg" viewBox="0 0 17 19" class="cf-icon-svg"><path d="M16.5 9.5a8 8 0 1 1-8-8 8 8 0 0 1 8 8zM6.15 8.796a1.044 1.044 0 0 0-2.088 0v4.408a1.044 1.044 0 1 0 2.088 0zM5.704 4.21a.401.401 0 0 0-.4.4v2.353a1.83 1.83 0 0 1 1.106.53c.043.042.084.087.122.134h5.137v-.7H9.304a.423.423 0 0 1-.422-.422V4.21zm7.197 4.633a.401.401 0 0 0-.4-.4H6.916a1.87 1.87 0 0 1 .034.353v4.408a1.832 1.832 0 0 1-.313 1.029h5.864a.401.401 0 0 0 .4-.4zm-3.987 1.41a.4.4 0 0 0-.4-.4h-.001a.4.4 0 1 0 .4.4zm0 1.188a.4.4 0 0 0-.4-.4h-.001a.4.4 0 1 0 .4.4zm0 1.188a.4.4 0 0 0-.4-.4h-.001a.4.4 0 1 0 .4.4zm1.355-2.377a.4.4 0 0 0-.4-.4h-.002a.4.4 0 1 0 0 .8h.002a.4.4 0 0 0 .4-.4zm0 1.189a.4.4 0 0 0-.4-.4h-.002a.4.4 0 1 0 0 .8h.002a.4.4 0 0 0 .4-.4zm0 1.188a.4.4 0 0 0-.4-.4h-.002a.4.4 0 1 0 0 .8h.002a.4.4 0 0 0 .4-.4zm-.747-6.342h2.147v-.004L9.523 4.21h-.001zm2.101 3.965a.4.4 0 0 0-.4-.4.4.4 0 1 0 .4.4zm0 1.189a.4.4 0 0 0-.4-.4.4.4 0 1 0 .4.4zm0 1.188a.4.4 0 0 0-.4-.4.4.4 0 1 0 .4.4z"/></svg>