<svg xmlns="http://www.w3.org/2000/svg" aria-hidden="true" class="cf-icon-svg cf-icon-svg--five-open" viewBox="0 0 17 19"><path d="M8.5 1.675a7.8 7.8 0 0 1 2.107.283 7.93 7.93 0 0 1 5.527 5.526 7.97 7.97 0 0 1 0 4.206 8 8 0 0 1-.8 1.891 8 8 0 0 1-1.237 1.604A7.86 7.86 0 0 1 8.5 17.508a7.8 7.8 0 0 1-2.099-.282 7.96 7.96 0 0 1-5.535-5.532 8 8 0 0 1 0-4.21 7.86 7.86 0 0 1 2.04-3.49 8 8 0 0 1 1.605-1.237 8 8 0 0 1 1.886-.8A7.8 7.8 0 0 1 8.5 1.676zm0 1.108a6.7 6.7 0 0 0-1.804.242 7 7 0 0 0-1.624.688A7 7 0 0 0 3.688 4.78a6.75 6.75 0 0 0-1.997 4.811 6.7 6.7 0 0 0 .242 1.804 6.8 6.8 0 0 0 .688 1.624 6.9 6.9 0 0 0 2.451 2.452 6.8 6.8 0 0 0 1.628.687 6.86 6.86 0 0 0 3.609 0 6.76 6.76 0 0 0 3.002-1.755 7 7 0 0 0 1.068-1.384 6.8 6.8 0 0 0 .687-1.627 6.85 6.85 0 0 0 0-3.61 6.8 6.8 0 0 0-1.752-3.004 6.8 6.8 0 0 0-3.005-1.753A6.7 6.7 0 0 0 8.5 2.783m2.358 7.263a1.9 1.9 0 0 0-.505-.653 2.1 2.1 0 0 0-.754-.394 3.2 3.2 0 0 0-.927-.13q-.147 0-.329.014a2 2 0 0 0-.328.051l.055-1.037h2.64V6.563H6.69l-.157 3.751a4.6 4.6 0 0 1 .8-.208 5 5 0 0 1 .802-.079 2.5 2.5 0 0 1 .482.046 1.3 1.3 0 0 1 .43.163.9.9 0 0 1 .31.31.9.9 0 0 1 .121.481.87.87 0 0 1-.291.713 1.12 1.12 0 0 1-1.362.019 1.1 1.1 0 0 1-.384-.565l-1.418.435a2.1 2.1 0 0 0 .348.7 2.2 2.2 0 0 0 .565.523 2.7 2.7 0 0 0 .732.329 3.14 3.14 0 0 0 1.782-.028 2.5 2.5 0 0 0 .81-.43 2.1 2.1 0 0 0 .57-.728 2.4 2.4 0 0 0 .213-1.042 2.1 2.1 0 0 0-.185-.907"/></svg>