<svg xmlns="http://www.w3.org/2000/svg" aria-hidden="true" class="cf-icon-svg cf-icon-svg--flower" viewBox="0 0 10 19"><path d="M8.89 16.907a.554.554 0 0 1-.553.554H1.663a.554.554 0 0 1 0-1.108h2.783V14.88a4.16 4.16 0 0 1-3.007-.89 4.34 4.34 0 0 1-.878-3.162 4.34 4.34 0 0 1 3.163.877 2.95 2.95 0 0 1 .722 1.313V9.77A2.426 2.426 0 1 1 1.65 5.806a2.426 2.426 0 1 1 3.37-3.37 2.426 2.426 0 1 1 3.369 3.37 2.5 2.5 0 0 1 .353.292A2.426 2.426 0 0 1 5.554 9.74v4.055a2.95 2.95 0 0 1 .722-1.312 4.34 4.34 0 0 1 3.163-.878 4.34 4.34 0 0 1-.878 3.162 4.16 4.16 0 0 1-3.007.89v.696h2.783a.554.554 0 0 1 .554.554zM5.019 7.231a1.425 1.425 0 1 0-1.425-1.425A1.425 1.425 0 0 0 5.018 7.23z"/></svg>