<svg xmlns="http://www.w3.org/2000/svg" aria-hidden="true" class="cf-icon-svg cf-icon-svg--foreclosure-round" viewBox="0 0 17 19"><path d="M16.417 9.583A7.917 7.917 0 1 1 8.5 1.666a7.917 7.917 0 0 1 7.917 7.917m-2.921-1.738L8.68 5.104a.4.4 0 0 0-.393 0l-2.31 1.324v-.895a.32.32 0 0 0-.317-.317h-.969a.32.32 0 0 0-.316.317v1.813l-.873.5a.396.396 0 1 0 .394.686l4.588-2.628 4.62 2.63a.396.396 0 1 0 .39-.689zm-.872 1.326L8.487 6.815 4.376 9.17v4.466a.32.32 0 0 0 .316.317h7.615a.32.32 0 0 0 .317-.317zm-2.24 3.113a.396.396 0 0 1-.56.56l-1.32-1.319-1.318 1.32a.396.396 0 0 1-.56-.56l1.319-1.32-1.319-1.319a.396.396 0 0 1 .56-.56l1.319 1.32 1.319-1.32a.396.396 0 1 1 .56.56l-1.32 1.32z"/></svg>