<svg viewBox="0 0 16 19" xmlns="http://www.w3.org/2000/svg"><path d="m14.993 7.61a.554.554 0 0 1 -.756.207l-6.257-3.562-6.216 3.562a.554.554 0 0 1 -.55-.962l1.192-.683v-2.48a.476.476 0 0 1 .475-.474h1.222a.476.476 0 0 1 .475.475v1.234l3.126-1.79a.554.554 0 0 1 .55-.002l6.532 3.719a.554.554 0 0 1 .207.756m-1.399.937v6.198a.476.476 0 0 1 -.475.475h-10.238a.476.476 0 0 1 -.475-.475v-6.2l5.574-3.193zm-4.817 2.623 1.78-1.78a.554.554 0 0 0 -.784-.783l-1.78 1.78-1.779-1.78a.554.554 0 0 0 -.784.784l1.78 1.78-1.78 1.779a.554.554 0 0 0 .784.784l1.78-1.78 1.78 1.78a.554.554 0 0 0 .783-.784z"/></svg>