<svg xmlns="http://www.w3.org/2000/svg" aria-hidden="true" class="cf-icon-svg cf-icon-svg--fountain-pen-round" viewBox="0 0 17 19"><path d="M16.417 9.583A7.917 7.917 0 1 1 8.5 1.666a7.917 7.917 0 0 1 7.917 7.917m-4.242-.107-.101-.079a7.7 7.7 0 0 1-2.479-5.439v-.004a.396.396 0 0 0-.792 0V8.92a1.03 1.03 0 1 1-.633 0V3.955a.396.396 0 0 0-.793 0v.004A7.73 7.73 0 0 1 4.9 9.381l-.014.01-.09.07a.33.33 0 0 0-.015.421l1.486 2.573a.65.65 0 0 0 .504.29h3.438a.65.65 0 0 0 .504-.29l1.47-2.547.007-.011a.33.33 0 0 0-.015-.421m-.5 4.275a.32.32 0 0 0-.316-.317H5.605a.32.32 0 0 0-.317.317v.828a.32.32 0 0 0 .317.317h5.754a.32.32 0 0 0 .317-.317z"/></svg>