<svg viewBox="0 0 17 19" xmlns="http://www.w3.org/2000/svg"><path d="m16.417 9.583a7.917 7.917 0 1 1 -7.917-7.917 7.917 7.917 0 0 1 7.917 7.917m-4.242-.107-.101-.079a7.7 7.7 0 0 1 -2.479-5.439v-.004a.396.396 0 0 0 -.792 0v4.966a1.03 1.03 0 1 1 -.633 0v-4.965a.396.396 0 0 0 -.793 0v.004a7.727 7.727 0 0 1 -2.477 5.422l-.014.01-.09.07a.333.333 0 0 0 -.015.421l1.486 2.573a.646.646 0 0 0 .504.29h3.438a.646.646 0 0 0 .504-.29l1.47-2.547.007-.011a.333.333 0 0 0 -.015-.421m-.5 4.275a.318.318 0 0 0 -.316-.317h-5.754a.318.318 0 0 0 -.317.317v.828a.318.318 0 0 0 .317.317h5.754a.318.318 0 0 0 .317-.317z"/></svg>