<svg xmlns="http://www.w3.org/2000/svg" class="cf-icon-svg cf-icon-svg__gambling" viewBox="0 0 17 19"><path d="M16.417 9.518A7.917 7.917 0 1 1 8.5 1.6a7.917 7.917 0 0 1 7.917 7.917zM2.02 11.588l1.46-.991a5.243 5.243 0 0 1 .025-2.13L2.014 7.455a7.228 7.228 0 0 0-.079.26 6.805 6.805 0 0 0 0 3.594q.04.141.085.28zm3.697-6.334-.34-1.782q-.154.08-.302.167A6.923 6.923 0 0 0 2.623 6.09q-.09.152-.17.31l1.781.34a5.234 5.234 0 0 1 1.483-1.486m-.022 8.657a5.237 5.237 0 0 1-1.537-1.59l-1.696.325q.077.148.161.29a6.91 6.91 0 0 0 1.07 1.383 7.052 7.052 0 0 0 1.385 1.076q.148.087.3.167zM10.57 3.035q-.137-.044-.276-.084a6.805 6.805 0 0 0-3.595 0q-.136.039-.27.082l1.011 1.49a5.252 5.252 0 0 1 2.14-.028zm-.006 12.968-.905-1.333a5.238 5.238 0 0 1-2.297-.03l-.926 1.365c.087.028.175.055.263.08a6.81 6.81 0 0 0 3.595 0c.09-.026.18-.053.27-.082m-1.557-9.39a.475.475 0 0 0-.95 0v.458a2.135 2.135 0 0 0-.683.272 1.395 1.395 0 0 0-.695 1.179 1.375 1.375 0 0 0 .317.863 1.625 1.625 0 0 0 .535.43 2.007 2.007 0 0 0 .566.182 2.624 2.624 0 0 0 .441.036 1.298 1.298 0 0 1 .275.027 1.142 1.142 0 0 1 .28.101.853.853 0 0 1 .229.184.406.406 0 0 1 .098.261c0 .058 0 .193-.23.343a1.308 1.308 0 0 1-.678.188 2.123 2.123 0 0 1-.296-.036 1.428 1.428 0 0 1-.275-.088.574.574 0 0 1-.214-.164.475.475 0 0 0-.718.622 1.506 1.506 0 0 0 .579.424 2.302 2.302 0 0 0 .465.142h.003v.469a.475.475 0 0 0 .95 0v-.474a2.145 2.145 0 0 0 .701-.286 1.328 1.328 0 0 0 .663-1.14 1.35 1.35 0 0 0-.333-.886 1.806 1.806 0 0 0-.5-.4h-.003a2.09 2.09 0 0 0-.52-.188 2.248 2.248 0 0 0-.476-.05 1.721 1.721 0 0 1-.285-.022 1.077 1.077 0 0 1-.296-.095.693.693 0 0 1-.224-.18.438.438 0 0 1-.104-.263.449.449 0 0 1 .252-.376 1.29 1.29 0 0 1 .664-.178 1.356 1.356 0 0 1 .235.04l.029.005a1.526 1.526 0 0 1 .283.1.793.793 0 0 1 .229.156.475.475 0 0 0 .67-.673 1.74 1.74 0 0 0-.509-.35 2.384 2.384 0 0 0-.475-.162zM11.3 5.17a5.231 5.231 0 0 1 1.6 1.546l1.65-.316q-.08-.157-.17-.309a6.887 6.887 0 0 0-2.454-2.45q-.148-.087-.302-.166zm3.241 7.478-1.565-.3a5.223 5.223 0 0 1-1.654 1.65l.3 1.563q.153-.08.301-.167a7 7 0 0 0 1.387-1.075 6.913 6.913 0 0 0 1.07-1.381q.084-.143.161-.29m.527-1.338a6.805 6.805 0 0 0 0-3.594q-.037-.132-.079-.261l-1.364.926a5.242 5.242 0 0 1 .026 2.306l1.332.904q.045-.14.085-.28z"/></svg>