<svg xmlns="http://www.w3.org/2000/svg" class="cf-icon-svg cf-icon-svg--gambling-round" viewBox="0 0 17 19"><path d="M16.417 9.579A7.917 7.917 0 1 1 8.5 1.662a7.917 7.917 0 0 1 7.917 7.917m-2.868.028A5.049 5.049 0 1 0 8.5 14.655a5.049 5.049 0 0 0 5.049-5.048m-8.252.687-.932.632q-.028-.088-.054-.178a4.345 4.345 0 0 1 0-2.293 3.91 3.91 0 0 1 .05-.166l.951.646a3.331 3.331 0 0 0-.015 1.359m1.209-4.545.218 1.137a3.332 3.332 0 0 0-.947.948l-1.136-.218q.052-.1.109-.197a4.408 4.408 0 0 1 1.564-1.564 4.29 4.29 0 0 1 .192-.106m-.301 6.244a3.334 3.334 0 0 0 .504.415l-.202 1.053a4.085 4.085 0 0 1-.19-.107 4.504 4.504 0 0 1-.885-.686 4.405 4.405 0 0 1-.682-.882 3.863 3.863 0 0 1-.103-.185l1.082-.207a3.3 3.3 0 0 0 .476.6zm3.438-6.576c.06.016.118.034.176.053l-.631.931a3.351 3.351 0 0 0-1.365.017l-.645-.95c.056-.018.114-.035.172-.052a4.333 4.333 0 0 1 2.293 0zm-.405 7.474.577.851q-.085.027-.172.052a4.341 4.341 0 0 1-2.293 0 4.39 4.39 0 0 1-.168-.05l.59-.871a3.339 3.339 0 0 0 1.466.018m.468-2.592a.856.856 0 0 1-.43.74 1.378 1.378 0 0 1-.44.181v.291a.317.317 0 0 1-.634 0v-.287a1.488 1.488 0 0 1-.29-.09.979.979 0 0 1-.375-.274.317.317 0 1 1 .48-.415.355.355 0 0 0 .13.1.914.914 0 0 0 .173.057 1.355 1.355 0 0 0 .186.022.82.82 0 0 0 .426-.117c.14-.092.14-.17.14-.208a.244.244 0 0 0-.06-.157.54.54 0 0 0-.142-.115.716.716 0 0 0-.175-.062.826.826 0 0 0-.172-.018 1.708 1.708 0 0 1-.284-.022 1.301 1.301 0 0 1-.364-.118 1.055 1.055 0 0 1-.346-.278.892.892 0 0 1-.205-.56.904.904 0 0 1 .449-.763 1.37 1.37 0 0 1 .429-.173v-.28a.317.317 0 0 1 .633 0v.289a1.562 1.562 0 0 1 .296.102 1.12 1.12 0 0 1 .328.226.317.317 0 1 1-.447.448.483.483 0 0 0-.141-.097.91.91 0 0 0-.179-.062l-.018-.004a.867.867 0 0 0-.147-.025.82.82 0 0 0-.416.112.276.276 0 0 0-.154.228.267.267 0 0 0 .063.16.43.43 0 0 0 .138.11.675.675 0 0 0 .185.06 1.057 1.057 0 0 0 .18.014 1.445 1.445 0 0 1 .306.032 1.364 1.364 0 0 1 .336.12 1.179 1.179 0 0 1 .324.259.874.874 0 0 1 .216.574zm1.183-2.99a3.313 3.313 0 0 0-.604-.477l.207-1.082c.065.034.13.07.193.106a4.394 4.394 0 0 1 1.565 1.563c.038.064.074.13.109.197l-1.053.202a3.333 3.333 0 0 0-.417-.509m.465 4.1.999.192q-.05.094-.103.185a4.409 4.409 0 0 1-.682.882 4.454 4.454 0 0 1-.885.685 4.321 4.321 0 0 1-.192.107l-.191-.997a3.332 3.332 0 0 0 1.054-1.053zm1.335-2.954a4.342 4.342 0 0 1 0 2.293c-.017.06-.035.12-.054.179l-.85-.577a3.346 3.346 0 0 0-.017-1.471l.87-.59c.018.054.035.11.05.166z"/></svg>