<svg xmlns="http://www.w3.org/2000/svg" aria-hidden="true" class="cf-icon-svg cf-icon-svg--health-insurance-round" viewBox="0 0 17 19"><path d="M16.417 9.583A7.917 7.917 0 1 1 8.5 1.666a7.917 7.917 0 0 1 7.917 7.917M12.75 5.691a.32.32 0 0 0-.317-.317h-7.84a.32.32 0 0 0-.316.317v5.563c0 2.34 4.236 3.658 4.236 3.658s4.237-1.318 4.237-3.658zm-1.655 3.374v1.062a.344.344 0 0 1-.344.343H9.388v1.364a.344.344 0 0 1-.343.344H7.984a.344.344 0 0 1-.344-.344V10.47H6.276a.344.344 0 0 1-.343-.343V9.065a.344.344 0 0 1 .343-.343H7.64V7.358a.344.344 0 0 1 .344-.343h1.061a.344.344 0 0 1 .343.343v1.364h1.364a.344.344 0 0 1 .344.343z"/></svg>