<svg xmlns="http://www.w3.org/2000/svg" class="cf-icon-svg cf-icon-svg--help-round" viewBox="0 0 17 19"><path d="M16.476 9.583a7.916 7.916 0 1 1-15.833 0 7.916 7.916 0 0 1 15.833 0m-5.034-2.687c0-.404-.073-.774-.223-1.13A2.886 2.886 0 0 0 9.692 4.22a2.747 2.747 0 0 0-1.116-.227 2.899 2.899 0 0 0-2.672 1.773 2.803 2.803 0 0 0-.227 1.128v.02a.792.792 0 0 0 1.583 0v-.02a1.333 1.333 0 0 1 .814-1.22c.155-.067.315-.098.502-.098.18 0 .334.03.485.096a1.294 1.294 0 0 1 .7.71c.067.158.098.322.098.513 0 .225-.027.368-.05.45a1.546 1.546 0 0 1-.132.335 2.11 2.11 0 0 1-.219.318c-.126.15-.25.293-.365.424-.135.142-.26.28-.374.412-.17.2-.323.414-.451.639-.147.258-.262.54-.342.842-.08.301-.12.636-.12.995v.035a.792.792 0 1 0 1.583 0v-.035c0-.222.023-.42.068-.59.044-.168.107-.324.187-.463a2.49 2.49 0 0 1 .276-.39c.098-.115.209-.237.329-.363l.018-.02c.129-.144.264-.301.403-.466.138-.165.267-.352.384-.556a3.083 3.083 0 0 0 .388-1.567ZM9.58 14.195a.983.983 0 0 0-.614-.919l-.004-.001a1.016 1.016 0 0 0-.78 0 .972.972 0 0 0-.62.92c.001.138.027.27.08.391a1.01 1.01 0 0 0 .541.536 1.013 1.013 0 0 0 .78.001l.004-.002a1.017 1.017 0 0 0 .534-.534.98.98 0 0 0 .08-.392Z"/></svg>