<svg viewBox="0 0 17 19" xmlns="http://www.w3.org/2000/svg"><path d="m16.417 9.5a7.919 7.919 0 0 1 -15.212 3.082 7.87 7.87 0 0 1 -.621-3.082.554.554 0 0 1 1.109 0 6.81 6.81 0 0 0 13.081 2.65 6.811 6.811 0 0 0 -9.66-8.557 6.859 6.859 0 0 0 -1.847 1.554h1.276a.554.554 0 0 1 0 1.108h-2.61a.554.554 0 0 1 -.555-.554v-2.611a.554.554 0 0 1 1.109 0v1.262a7.898 7.898 0 0 1 6.013-2.769 7.911 7.911 0 0 1 7.917 7.917m-5.181 3a.554.554 0 0 1 -.784 0l-2.42-2.42a.552.552 0 0 1 -.22-.441v-4.471a.554.554 0 1 1 1.11 0v4.234l2.314 2.315a.554.554 0 0 1 0 .784z"/></svg>