<svg xmlns="http://www.w3.org/2000/svg" aria-hidden="true" class="cf-icon-svg cf-icon-svg--history-round" viewBox="0 0 17 19"><path d="M16.417 9.583A7.917 7.917 0 1 1 8.5 1.666a7.917 7.917 0 0 1 7.917 7.917m-2.787.06a5.076 5.076 0 0 0-7.6-4.401 5.1 5.1 0 0 0-1.252 1.015V5.57a.396.396 0 0 0-.792 0v1.66a.396.396 0 0 0 .396.395H6.04a.396.396 0 0 0 0-.791h-.717A4.27 4.27 0 0 1 8.556 5.36a4.282 4.282 0 1 1-4.283 4.283.396.396 0 0 0-.792 0 5.074 5.074 0 1 0 10.15 0zm-4.763-.099V6.872a.396.396 0 0 0-.791 0v2.841a.4.4 0 0 0 .153.313l1.537 1.536a.396.396 0 1 0 .56-.56z"/></svg>