<svg xmlns="http://www.w3.org/2000/svg" viewBox="0 0 13 19" class="cf-icon-svg"><path d="M11.665 7.915v1.31a5.257 5.257 0 0 1-1.514 3.694 5.174 5.174 0 0 1-1.641 1.126 5.04 5.04 0 0 1-1.456.384v1.899h2.312a.554.554 0 0 1 0 1.108H3.634a.554.554 0 0 1 0-1.108h2.312v-1.899a5.045 5.045 0 0 1-1.456-.384 5.174 5.174 0 0 1-1.641-1.126 5.257 5.257 0 0 1-1.514-3.695v-1.31a.554.554 0 1 1 1.109 0v1.31a4.131 4.131 0 0 0 1.195 2.917 3.989 3.989 0 0 0 5.722 0 4.133 4.133 0 0 0 1.195-2.917v-1.31a.554.554 0 1 1 1.109 0zM3.77 10.37a2.875 2.875 0 0 1-.233-1.146V4.738A2.905 2.905 0 0 1 3.77 3.58a3 3 0 0 1 1.59-1.59 2.902 2.902 0 0 1 1.158-.233 2.865 2.865 0 0 1 1.152.233 2.977 2.977 0 0 1 1.793 2.748l-.012 4.487a2.958 2.958 0 0 1-.856 2.09 3.025 3.025 0 0 1-.937.634 2.865 2.865 0 0 1-1.152.233 2.905 2.905 0 0 1-1.158-.233A2.957 2.957 0 0 1 3.77 10.37z"/></svg>