<svg xmlns="http://www.w3.org/2000/svg" aria-hidden="true" class="cf-icon-svg cf-icon-svg--microphone" viewBox="0 0 13 19"><path d="M11.665 7.915v1.31a5.26 5.26 0 0 1-1.514 3.694 5.2 5.2 0 0 1-1.641 1.126 5 5 0 0 1-1.456.384v1.899h2.312a.554.554 0 0 1 0 1.108H3.634a.554.554 0 0 1 0-1.108h2.312v-1.899a5 5 0 0 1-1.456-.384 5.2 5.2 0 0 1-1.641-1.126 5.26 5.26 0 0 1-1.514-3.695v-1.31a.554.554 0 1 1 1.109 0v1.31a4.13 4.13 0 0 0 1.195 2.917 3.99 3.99 0 0 0 5.722 0 4.13 4.13 0 0 0 1.195-2.917v-1.31a.554.554 0 1 1 1.109 0zM3.77 10.37a2.9 2.9 0 0 1-.233-1.146V4.738A2.9 2.9 0 0 1 3.77 3.58a3 3 0 0 1 1.59-1.59 2.9 2.9 0 0 1 1.158-.233 2.9 2.9 0 0 1 1.152.233 2.98 2.98 0 0 1 1.793 2.748l-.012 4.487a2.96 2.96 0 0 1-.856 2.09 3 3 0 0 1-.937.634 2.9 2.9 0 0 1-1.152.233 2.9 2.9 0 0 1-1.158-.233A2.96 2.96 0 0 1 3.77 10.37"/></svg>