<svg xmlns="http://www.w3.org/2000/svg" aria-hidden="true" class="cf-icon-svg cf-icon-svg--money" viewBox="0 0 17 19"><path d="M16.41 7.675v7.047a.476.476 0 0 1-.475.475H1.095a.476.476 0 0 1-.476-.475V7.675a.476.476 0 0 1 .475-.475h14.84a.476.476 0 0 1 .476.475M11.803 11.2a3.181 3.181 0 1 0-.25 1.242 3.2 3.2 0 0 0 .25-1.242m-1.976.116a1.1 1.1 0 0 1 .27.719 1.07 1.07 0 0 1-.537.924 1.7 1.7 0 0 1-.551.227v.365a.396.396 0 1 1-.792 0v-.36a2 2 0 0 1-.363-.112 1.2 1.2 0 0 1-.468-.344.396.396 0 1 1 .598-.518.44.44 0 0 0 .164.126 1 1 0 0 0 .216.07 2 2 0 0 0 .234.028 1.03 1.03 0 0 0 .532-.147c.176-.114.176-.212.176-.26a.3.3 0 0 0-.075-.197.7.7 0 0 0-.178-.143 1 1 0 0 0-.22-.079 1 1 0 0 0-.215-.021 2 2 0 0 1-.354-.029 1.6 1.6 0 0 1-.456-.147 1.3 1.3 0 0 1-.433-.347 1.1 1.1 0 0 1-.257-.7 1.13 1.13 0 0 1 .562-.955 1.7 1.7 0 0 1 .537-.216v-.352a.396.396 0 0 1 .792 0v.363a2 2 0 0 1 .37.127 1.4 1.4 0 0 1 .411.283.396.396 0 0 1-.559.56.6.6 0 0 0-.177-.121 1 1 0 0 0-.223-.078l-.023-.005a1 1 0 0 0-.184-.031 1.03 1.03 0 0 0-.52.14.35.35 0 0 0-.194.285.34.34 0 0 0 .08.2.5.5 0 0 0 .172.14 1 1 0 0 0 .232.074 1.3 1.3 0 0 0 .224.017 2 2 0 0 1 .384.04 1.7 1.7 0 0 1 .42.152 1.5 1.5 0 0 1 .405.322"/></svg>