<svg viewBox="0 0 17 19" xmlns="http://www.w3.org/2000/svg"><path d="m16.417 9.6a7.917 7.917 0 1 1 -7.917-7.917 7.917 7.917 0 0 1 7.917 7.917m-5.234-.925a2.268 2.268 0 0 0 -.204-.973 2.23 2.23 0 0 0 -.55-.74 2.398 2.398 0 0 0 -.818-.468 3.185 3.185 0 0 0 -2.006 0 2.45 2.45 0 0 0 -.823.468 2.184 2.184 0 0 0 -.555.75 2.378 2.378 0 0 0 -.203 1 2.108 2.108 0 0 0 .647 1.551 2.083 2.083 0 0 0 .684.435 2.223 2.223 0 0 0 .823.153 1.596 1.596 0 0 0 .236-.018 1.161 1.161 0 0 0 .227-.056l-.019.028-1.631 2.26h1.878l1.583-2.362a6.14 6.14 0 0 0 .527-.968 2.67 2.67 0 0 0 .204-1.06m-1.821-.755a1.076 1.076 0 0 1 .274.736.988.988 0 0 1 -1.042 1.038.982.982 0 0 1 -.744-.292 1.02 1.02 0 0 1 -.28-.736 1.05 1.05 0 0 1 .284-.765 1.01 1.01 0 0 1 .759-.291.949.949 0 0 1 .749.31"/></svg>