<svg xmlns="http://www.w3.org/2000/svg" aria-hidden="true" class="cf-icon-svg cf-icon-svg--phone" viewBox="0 0 16 19"><path d="M14.654 5.775 9.94 8.499l-.118-.204a2.13 2.13 0 0 1-.283-1.092 16.4 16.4 0 0 0-4.873 2.825 2.1 2.1 0 0 1 .795.785l.119.204-4.716 2.724-.118-.204a2.43 2.43 0 0 1 .481-2.881A16 16 0 0 1 5.97 6.61a15.8 15.8 0 0 1 6.076-2.11 3 3 0 0 1 .397-.035l.062-.004v.004a2.31 2.31 0 0 1 2.031 1.106zM1.417 14.7l4.716-2.724.249.432a.606.606 0 0 1-.22.825l-3.67 2.12a.606.606 0 0 1-.825-.221zm14.04-7.535a.606.606 0 0 1-.22.826l-3.67 2.12a.606.606 0 0 1-.825-.222l-.25-.431 4.716-2.724z"/></svg>