<svg xmlns="http://www.w3.org/2000/svg" class="cf-icon-svg cf-icon-svg--piggy-bank-check-round" viewBox="0 0 17 19"><path d="M16.417 9.583A7.917 7.917 0 1 1 8.5 1.666a7.917 7.917 0 0 1 7.917 7.917m-2.5-.382a.913.913 0 0 0-.91-.91h-.355a3.655 3.655 0 0 0-.833-1.393 3.412 3.412 0 0 1 .369-1.953.199.199 0 0 0-.152-.29.197.197 0 0 0-.124.026L9.914 5.844a3.648 3.648 0 0 0-.738-.075H7.642a3.657 3.657 0 0 0-3.587 2.947.71.71 0 0 0 0 1.419 3.656 3.656 0 0 0 1.001 1.876q.093.092.191.177v1.553a.365.365 0 0 0 .364.364h1.163a.365.365 0 0 0 .365-.364v-.694a3.64 3.64 0 0 0 .503.035h1.534a3.642 3.642 0 0 0 .503-.035v.694a.365.365 0 0 0 .365.364h1.163a.365.365 0 0 0 .364-.364v-1.553q.098-.085.19-.177a3.659 3.659 0 0 0 .891-1.451h.354a.913.913 0 0 0 .91-.91zM9.487 6.32a.364.364 0 1 1 0 .728H7.464a.364.364 0 1 1 0-.728h2.025zm.558 2.016a.416.416 0 0 0-.569.152L8.23 10.647l-.481-.579a.416.416 0 1 0-.64.533l.865 1.036a.415.415 0 0 0 .32.15.27.27 0 0 0 .034-.001.416.416 0 0 0 .325-.206l1.543-2.674a.417.417 0 0 0-.152-.568z"/></svg>