<svg xmlns="http://www.w3.org/2000/svg" aria-hidden="true" class="cf-icon-svg cf-icon-svg--piggy-bank" viewBox="0 0 15 19"><path d="M13.112 7.798a1.11 1.11 0 0 1 1.108 1.108v.674a1.11 1.11 0 0 1-1.108 1.108h-.52a4.66 4.66 0 0 1-1.134 1.848q-.118.117-.243.226v1.966a.476.476 0 0 1-.475.475H9.281a.476.476 0 0 1-.475-.475v-.873a5 5 0 0 1-.64.044H6.212a5 5 0 0 1-.641-.044v.873a.476.476 0 0 1-.475.475H3.637a.476.476 0 0 1-.475-.475v-1.966q-.125-.109-.243-.226a4.66 4.66 0 0 1-1.275-2.39.904.904 0 0 1 0-1.806 4.656 4.656 0 0 1 4.568-3.754h1.954a4.7 4.7 0 0 1 .939.096l2.545-1.481a.253.253 0 0 1 .378.25.3.3 0 0 1-.027.087 4.35 4.35 0 0 0-.47 2.486 4.66 4.66 0 0 1 1.061 1.774zM9.037 5.876a.475.475 0 0 0-.475-.475H5.984a.475.475 0 1 0 0 .95h2.578a.475.475 0 0 0 .475-.475m-.248 5.141a1.14 1.14 0 0 0-.283-.75 1.5 1.5 0 0 0-.426-.34 1.8 1.8 0 0 0-.441-.16 2 2 0 0 0-.405-.041 1.5 1.5 0 0 1-.245-.02 1 1 0 0 1-.256-.082.6.6 0 0 1-.193-.155.4.4 0 0 1-.091-.232.39.39 0 0 1 .22-.329 1.1 1.1 0 0 1 .571-.153 1 1 0 0 1 .203.033l.024.006a1.3 1.3 0 0 1 .244.085.7.7 0 0 1 .198.136.396.396 0 1 0 .56-.561 1.5 1.5 0 0 0-.433-.297 2 2 0 0 0-.4-.137l-.011-.002v-.3a.396.396 0 0 0-.792 0v.288a1.8 1.8 0 0 0-.588.233 1.18 1.18 0 0 0-.588.998 1.17 1.17 0 0 0 .268.731 1.4 1.4 0 0 0 .454.364 1.7 1.7 0 0 0 .48.156 2.3 2.3 0 0 0 .375.03 1 1 0 0 1 .237.023 1 1 0 0 1 .24.087.8.8 0 0 1 .2.16.36.36 0 0 1 .086.229c0 .051 0 .17-.2.3a1.13 1.13 0 0 1-.585.163 2 2 0 0 1-.254-.031 1.2 1.2 0 0 1-.237-.076.5.5 0 0 1-.186-.143.396.396 0 0 0-.599.518 1.3 1.3 0 0 0 .49.36 2 2 0 0 0 .396.12l.01.003v.295a.396.396 0 1 0 .793 0v-.3a1.8 1.8 0 0 0 .602-.244 1.13 1.13 0 0 0 .562-.965"/></svg>