<svg viewBox="0 0 16 19" xmlns="http://www.w3.org/2000/svg"><path d="m15.917 17.5h-15.834v-15.835h15.834zm-3.055-10.194a4.292 4.292 0 0 0 -3.685-3.511 5.812 5.812 0 0 0 -1.172-.065l-.248.015-.534.065a5.468 5.468 0 0 0 -1.592.514 4.733 4.733 0 0 0 -2.351 2.746 6.094 6.094 0 0 0 -.158.727 3.507 3.507 0 0 0 .02 1.128 2.688 2.688 0 0 0 1.152 1.988c.128.08.455.273.599.09a1.564 1.564 0 0 0 .148-.486.894.894 0 0 0 .084-.425c-.035-.168-.239-.339-.326-.485a2.477 2.477 0 0 1 -.272-.89 3.452 3.452 0 0 1 2.493-3.596 3.635 3.635 0 0 1 1.068-.143l.302.005a6.168 6.168 0 0 1 .722.114 2.61 2.61 0 0 1 1.845 1.642 4.106 4.106 0 0 1 .099 1.938 6.762 6.762 0 0 1 -.134.708 2.815 2.815 0 0 1 -1.75 2.2 1.168 1.168 0 0 1 -1.524-1.246c.16-.821.47-1.51.638-2.344a1.088 1.088 0 0 0 -.811-1.44c-.734-.13-1.229.564-1.41 1.03a2.775 2.775 0 0 0 -.084 1.454l.104.38.07.183-.98 4.15a6.504 6.504 0 0 0 -.04 2.033c.032.188 0 .493.114.603.138.027.183-.104.237-.178.15-.203.294-.408.435-.623a7.23 7.23 0 0 0 .698-1.37c.148-.38.209-.812.321-1.217l.258-1.014c.072.074.128.182.192.262a1.851 1.851 0 0 0 .718.47 3.248 3.248 0 0 0 2.616-.287 4.343 4.343 0 0 0 1.894-2.537c.08-.254.122-.51.183-.791a5.357 5.357 0 0 0 .06-1.796z"/></svg>