<svg xmlns="http://www.w3.org/2000/svg" viewBox="0 0 17 19" class="cf-icon-svg"><path d="M16.417 9.579A7.917 7.917 0 1 1 8.5 1.662a7.917 7.917 0 0 1 7.917 7.917zm-3.485-.683a.815.815 0 0 0-.813-.813h-7.22a.815.815 0 0 0-.812.813v3.546a.816.816 0 0 0 .633.792v-2.415a.35.35 0 0 1 .348-.348h6.827a.35.35 0 0 1 .348.348v2.426a.815.815 0 0 0 .689-.803zM5.35 7.403h6.299v-.692h-2.34a.419.419 0 0 1-.418-.418v-2.27H5.667a.318.318 0 0 0-.317.316zm6.26 3.701H5.352v3.216h6.256zm-.818.729H6.06v.633h4.734zm0 1.178H6.06v.633h4.734zM9.524 6.078h2.125v-.005l-2.124-2.05zm2.263 2.531a.4.4 0 1 0 .401.4.4.4 0 0 0-.4-.4z"/></svg>