<svg xmlns="http://www.w3.org/2000/svg" aria-hidden="true" class="cf-icon-svg cf-icon-svg--regulation" viewBox="0 0 13 19"><path d="M10.506 3.883a.56.56 0 0 1 .306.092.57.57 0 0 1 .206.251l1.776 4.138a.55.55 0 0 1 .045.23v.005a2.333 2.333 0 1 1-4.666 0v-.005a.55.55 0 0 1 .045-.23l1.447-3.372H7.078v7.538l3.918 1.624a.554.554 0 0 1-.212 1.066H2.302a.554.554 0 0 1-.212-1.066l3.88-1.608V4.992H3.335l1.447 3.372a.55.55 0 0 1 .045.23v.005a2.333 2.333 0 1 1-4.666 0v-.005a.55.55 0 0 1 .045-.23l1.776-4.138a.56.56 0 0 1 .206-.25.55.55 0 0 1 .306-.093H5.97v-.68a.554.554 0 1 1 1.108 0v.68zM3.677 8.6 2.494 5.843 1.312 8.599zm8.012 0-1.183-2.756L9.323 8.6z"/></svg>