<svg xmlns="http://www.w3.org/2000/svg" aria-hidden="true" class="cf-icon-svg cf-icon-svg--rss" viewBox="0 0 13 19"><path d="M.926 12.818a1.403 1.403 0 1 1 0 1.984 1.4 1.4 0 0 1 0-1.984m10.531 2.357a1.03 1.03 0 0 1-1.029-1.03 8.8 8.8 0 0 0-.694-3.438A8.83 8.83 0 0 0 1.591 5.31a1.03 1.03 0 1 1 0-2.059 10.8 10.8 0 0 1 4.24.857 10.9 10.9 0 0 1 3.463 2.334 10.87 10.87 0 0 1 3.19 7.703 1.027 1.027 0 0 1-1.027 1.029zm-4.538 0a1.03 1.03 0 0 1-1.029-1.03 4.297 4.297 0 0 0-4.299-4.298 1.03 1.03 0 0 1 0-2.059 6.36 6.36 0 0 1 5.857 3.883 6.3 6.3 0 0 1 .5 2.475 1.03 1.03 0 0 1-1.029 1.029"/></svg>