<svg viewBox="0 0 14 19" xmlns="http://www.w3.org/2000/svg"><path d="m13.014 3.638v11.133a.476.476 0 0 1 -.475.475h-9.325a1.342 1.342 0 0 1 -.813-.333l-1.076-1.053a1.301 1.301 0 0 1 -.34-.808v-9.414a.476.476 0 0 1 .476-.475h11.079a.476.476 0 0 1 .474.475m-2.208.954a.476.476 0 0 0 -.475-.475h-6.661a.476.476 0 0 0 -.475.475v3.212a.476.476 0 0 0 .475.475h6.66a.476.476 0 0 0 .476-.475zm-.5 5.883a.477.477 0 0 0 -.475-.476h-5.671a.477.477 0 0 0 -.475.476v3.442a.476.476 0 0 0 .475.475h5.67a.476.476 0 0 0 .475-.475zm-4.356.635h-1.21v2.2h1.21z"/></svg>