<svg xmlns="http://www.w3.org/2000/svg" aria-hidden="true" class="cf-icon-svg cf-icon-svg--save-round" viewBox="0 0 17 19"><path d="M16.417 9.579A7.917 7.917 0 1 1 8.5 1.662a7.917 7.917 0 0 1 7.917 7.917m-3.587-4.05a.32.32 0 0 0-.317-.317H4.449a.317.317 0 0 0-.317.317v6.86a.87.87 0 0 0 .226.538l.816.8a.9.9 0 0 0 .543.222h6.796a.32.32 0 0 0 .317-.317zm-1.598 3.066a.32.32 0 0 1-.316.317h-4.87a.317.317 0 0 1-.317-.317V6.22a.317.317 0 0 1 .317-.317h4.87a.32.32 0 0 1 .316.317zm-.36 1.888v2.543a.32.32 0 0 1-.317.317H6.4a.32.32 0 0 1-.316-.317v-2.543a.317.317 0 0 1 .316-.316h4.155a.317.317 0 0 1 .316.316zm-3.15.486h-.876v1.591h.876z"/></svg>