<svg xmlns="http://www.w3.org/2000/svg" aria-hidden="true" class="cf-icon-svg cf-icon-svg--servicemembers-round" viewBox="0 0 17 19"><path d="M16.417 9.583A7.917 7.917 0 1 1 8.5 1.666a7.917 7.917 0 0 1 7.917 7.917M8.834 7.36a.82.82 0 0 0-.81-.821l-3.049-.02a.82.82 0 0 0-.821.81l-.036 5.462a.82.82 0 0 0 .81.82l3.048.021a.82.82 0 0 0 .821-.81zm-3.2 5.206a.396.396 0 0 0 .395-.394l.02-2.866a.396.396 0 0 0-.394-.399h-.002a.396.396 0 0 0-.396.394l-.02 2.866a.396.396 0 0 0 .394.398h.003zm.86-5.308a.424.424 0 1 1-.427.42.424.424 0 0 1 .427-.42M6.08 5.816a.396.396 0 1 0 .396-.395.396.396 0 0 0-.396.395m.52-.805a.396.396 0 1 0-.072-.555.394.394 0 0 0 .072.555m1.086 7.172.019-2.866a.396.396 0 0 0-.394-.399H7.31a.396.396 0 0 0-.396.393l-.019 2.867a.396.396 0 0 0 .393.398h.003a.396.396 0 0 0 .396-.393zm-.217-8.021a.396.396 0 1 0 .396-.396.396.396 0 0 0-.396.396m1.106.778a.396.396 0 1 0 .072-.556.395.395 0 0 0-.072.556m.283.876a.396.396 0 1 0 .396-.395.396.396 0 0 0-.396.395m4.074 7.395a.82.82 0 0 0 .507-1.037l-1.776-5.165a.82.82 0 0 0-1.037-.506l-1.075.37a1.6 1.6 0 0 1 .074.493l-.002.303a.424.424 0 0 1 .075.82.4.4 0 0 1-.08.02L9.61 9.643a.4.4 0 0 1 .07.124l.932 2.711a.396.396 0 1 1-.749.258l-.268-.782-.006.873a1.6 1.6 0 0 1-.45 1.102.82.82 0 0 0 .911.273zm-.754-1.271a.396.396 0 1 1-.748.257l-.932-2.71a.396.396 0 1 1 .748-.258z"/></svg>