<svg xmlns="http://www.w3.org/2000/svg" aria-hidden="true" class="cf-icon-svg cf-icon-svg--serve-round" viewBox="0 0 17 19"><path d="M16.417 9.583A7.917 7.917 0 1 1 8.5 1.666a7.917 7.917 0 0 1 7.917 7.917m-4.431-.996a.32.32 0 0 0-.317-.316h-.412a.32.32 0 0 0-.316.316v1.663a.253.253 0 0 1-.506 0v-1.8h-.001V4.736a.32.32 0 0 0-.317-.317H9.79a.32.32 0 0 0-.316.317V7.84a.22.22 0 1 1-.44 0V4.314a.32.32 0 0 0-.318-.317H8.39a.32.32 0 0 0-.316.317V7.84a.22.22 0 0 1-.44.002h-.001V4.736a.32.32 0 0 0-.317-.317h-.327a.317.317 0 0 0-.316.317v3.57a.22.22 0 1 1-.44 0V5.817a.32.32 0 0 0-.317-.317h-.327a.32.32 0 0 0-.317.317v6.152a1.97 1.97 0 0 0 1 1.812v1.067a.32.32 0 0 0 .317.317h2.873a.32.32 0 0 0 .317-.317v-.94a3.51 3.51 0 0 0 2.208-3.113v-.389z"/></svg>