<svg xmlns="http://www.w3.org/2000/svg" aria-hidden="true" class="cf-icon-svg cf-icon-svg--settings-round" viewBox="0 0 17 19"><path d="M16.417 9.583A7.917 7.917 0 1 1 8.5 1.666a7.917 7.917 0 0 1 7.917 7.917m-2.327-.557a.39.39 0 0 0-.312-.371l-.952-.165-.05-.003a4.4 4.4 0 0 0-.467-1.125l.034-.039.556-.79a.39.39 0 0 0-.041-.482l-.81-.81a.39.39 0 0 0-.483-.042l-.79.557a.3.3 0 0 0-.039.033 4.4 4.4 0 0 0-1.124-.466.3.3 0 0 0-.004-.05l-.164-.952a.39.39 0 0 0-.37-.312H7.926a.39.39 0 0 0-.37.312l-.165.951a.3.3 0 0 0-.004.05 4.4 4.4 0 0 0-1.125.467.3.3 0 0 0-.039-.033L5.435 5.2a.39.39 0 0 0-.483.042l-.81.81a.39.39 0 0 0-.042.483l.557.79a.3.3 0 0 0 .033.038 4.4 4.4 0 0 0-.466 1.125l-.05.003-.952.165a.39.39 0 0 0-.312.37v1.147a.39.39 0 0 0 .312.37l.952.165.05.004a4.4 4.4 0 0 0 .466 1.124.3.3 0 0 0-.033.04l-.557.789a.39.39 0 0 0 .042.482l.81.81a.39.39 0 0 0 .483.042l.79-.557a.3.3 0 0 0 .039-.033 4.4 4.4 0 0 0 1.124.466.3.3 0 0 0 .004.051l.164.952a.39.39 0 0 0 .371.312h1.146a.39.39 0 0 0 .37-.312l.165-.952a.3.3 0 0 0 .004-.05 4.4 4.4 0 0 0 1.124-.467.3.3 0 0 0 .04.033l.789.557a.39.39 0 0 0 .483-.041l.81-.81a.39.39 0 0 0 .042-.483l-.557-.79-.033-.039a4.4 4.4 0 0 0 .466-1.124l.05-.004.952-.165a.39.39 0 0 0 .312-.37zm-3.686.573A1.904 1.904 0 1 1 8.5 7.695a1.904 1.904 0 0 1 1.904 1.904"/></svg>