<svg viewBox="0 0 17 19" xmlns="http://www.w3.org/2000/svg"><path d="m8.515 1.666a7.917 7.917 0 1 0 7.91 7.925 7.917 7.917 0 0 0 -7.91-7.925m5.365 4.345-.959 3.667a.38.38 0 0 1 -.653.088l-.72-.935-.218-.281-2.03 1.554-.004 4.687a.79.79 0 1 1 -1.582 0l.004-4.686-2.033-1.555-.217.282-.721.934a.38.38 0 0 1 -.653-.087l-.959-3.667a.383.383 0 0 1 .335-.526h3.858a.38.38 0 0 1 .25.609l-.808 1.048-.115.15 1.853 1.417 1.852-1.419-.115-.15-.81-1.048a.38.38 0 0 1 .252-.61h3.858a.383.383 0 0 1 .335.527z"/></svg>