<svg xmlns="http://www.w3.org/2000/svg" aria-hidden="true" class="cf-icon-svg cf-icon-svg--summer" viewBox="0 0 17 19"><path d="M2.866 10.052H1.277a.554.554 0 0 1 0-1.109h1.589a.554.554 0 0 1 0 1.109m1.65-3.984a.55.55 0 0 1-.392-.162L3.001 4.782a.554.554 0 0 1 .784-.784l1.123 1.124a.554.554 0 0 1-.392.946m-1.123 9.09A.554.554 0 0 1 3 14.214l1.123-1.124a.554.554 0 0 1 .784.784l-1.123 1.123a.55.55 0 0 1-.392.163zm9.568-5.66a4.453 4.453 0 1 1-4.454-4.454 4.453 4.453 0 0 1 4.454 4.453zM8.5 4.417a.554.554 0 0 1-.554-.555V2.275a.554.554 0 1 1 1.108 0v1.588a.554.554 0 0 1-.554.555zm0 12.856a.554.554 0 0 1-.554-.554v-1.588a.554.554 0 0 1 1.108 0v1.588a.554.554 0 0 1-.554.554m3.984-11.206a.554.554 0 0 1-.392-.946l1.123-1.123a.554.554 0 0 1 .784.783l-1.123 1.123a.55.55 0 0 1-.392.163m1.123 9.09a.55.55 0 0 1-.392-.162l-1.123-1.123a.554.554 0 0 1 .784-.784l1.123 1.124a.554.554 0 0 1-.392.946zm2.116-5.106h-1.589a.554.554 0 0 1 0-1.109h1.589a.554.554 0 0 1 0 1.109"/></svg>