<svg viewBox="0 0 17 19" xmlns="http://www.w3.org/2000/svg"><path d="m16.417 9.579a7.917 7.917 0 1 1 -7.917-7.917 7.917 7.917 0 0 1 7.917 7.917m-4.233-1.805h-2.925a.318.318 0 0 1 -.317-.317v-2.9h-3.782a.317.317 0 0 0 -.317.317v9.368a.317.317 0 0 0 .317.316h6.707a.317.317 0 0 0 .317-.316zm-1.704 3.106a.396.396 0 0 1 -.396.396h-1.207v1.208a.396.396 0 1 1 -.791 0v-1.208h-1.208a.396.396 0 1 1 0-.792h1.208v-1.207a.396.396 0 1 1 .791 0v1.207h1.208a.396.396 0 0 1 .396.396zm-.744-3.9h2.43l-2.43-2.417z"/></svg>