<svg viewBox="0 0 15 19" xmlns="http://www.w3.org/2000/svg"><path d="m14.427 14.75v.491h-13.854v-.49a.476.476 0 0 1 .475-.476h.411a.497.497 0 0 1 -.002-.048v-.443a.476.476 0 0 1 .475-.475h.41v-3.617h-.307a.554.554 0 1 1 0-1.108h10.963a.554.554 0 1 1 0 1.108h-.292v3.617h.362a.476.476 0 0 1 .475.475v.443a.364.364 0 0 1 -.003.048h.412a.476.476 0 0 1 .475.475m-1.72-7.043a5.182 5.182 0 1 0 -10.364 0zm-9.188 5.602h1.109v-3.062a.554.554 0 1 0 -1.109 0zm2.294-3.053v3.053h1.109v-3.053a.554.554 0 1 0 -1.109 0m2.294.008v3.045h1.109v-3.045a.554.554 0 1 0 -1.109 0m2.294.008v3.037h1.109v-3.037a.554.554 0 0 0 -1.109 0"/></svg>