<svg viewBox="0 0 17 19" xmlns="http://www.w3.org/2000/svg"><path d="m16.417 9.579a7.917 7.917 0 1 1 -7.917-7.917 7.917 7.917 0 0 1 7.917 7.917m-2.853 3.368a.318.318 0 0 0 -.316-.316h-.334v-.394a.318.318 0 0 0 -.316-.317h-.298v-2.67h.214a.396.396 0 0 0 0-.79h-8.057a.396.396 0 0 0 0 .79h.226v2.67h-.333a.318.318 0 0 0 -.317.317v.394h-.333a.318.318 0 0 0 -.317.316v.394h10.182zm-8.88-5.144h7.616a3.808 3.808 0 0 0 -7.617 0zm1.666 1.867v2.25h-.79v-2.25a.396.396 0 0 1 .791 0zm1.686.006v2.244h-.791v-2.244a.396.396 0 0 1 .791 0m1.686.007v2.237h-.791v-2.237a.396.396 0 0 1 .791 0m1.686.006v2.231h-.792v-2.23a.396.396 0 0 1 .792 0z"/></svg>