<svg viewBox="0 0 16 19" xmlns="http://www.w3.org/2000/svg"><path d="m15.081 8.456h-2.003a1.345 1.345 0 0 0 -2.683 0h-4.79a1.345 1.345 0 0 0 -2.683 0h-2.003v-1.112a1.112 1.112 0 0 1 1.108-1.108h2.304v-.085a.477.477 0 0 1 .402-.469v-.56a1.112 1.112 0 0 1 1.107-1.106h4.318a1.112 1.112 0 0 1 1.108 1.108v.558a.477.477 0 0 1 .412.47v.085h2.294a1.112 1.112 0 0 1 1.108 1.108zm-1.999 1.06v-.143h1.504v5.346a.476.476 0 0 1 -.475.475h-12.222a.476.476 0 0 1 -.475-.475v-5.346h1.503v.143a1.346 1.346 0 0 0 2.692 0v-.143h4.782v.143a1.346 1.346 0 0 0 2.691 0m-8.265 0v-.956a.554.554 0 1 0 -1.108 0v.955a.554.554 0 1 0 1.108 0zm5.342-4.391-.002-.002h-4.314l-.002.002v.56a.477.477 0 0 1 .39.466v.085h3.548v-.085a.477.477 0 0 1 .38-.465zm2.132 4.39v-.954a.554.554 0 0 0 -1.109 0v.955a.554.554 0 1 0 1.109 0z"/></svg>