<svg xmlns="http://www.w3.org/2000/svg" class="cf-icon-svg cf-icon-svg__two-open" viewBox="0 0 17 19"><path d="M10.594 1.975a8 8 0 0 1 1.895.795 7.857 7.857 0 0 1 1.604 1.237 8.05 8.05 0 0 1 1.241 1.6 7.909 7.909 0 0 1 0 7.991 8.021 8.021 0 0 1-2.845 2.845 7.888 7.888 0 0 1-4.007 1.082 7.825 7.825 0 0 1-3.985-1.082 8.039 8.039 0 0 1-1.599-1.241 7.848 7.848 0 0 1-1.237-1.604 8 8 0 0 1-.795-1.895 7.86 7.86 0 0 1-.283-2.112 7.782 7.782 0 0 1 .283-2.098 7.902 7.902 0 0 1 5.518-5.518 7.764 7.764 0 0 1 2.098-.283 7.848 7.848 0 0 1 2.112.283zM6.682 3.043A6.793 6.793 0 0 0 1.933 7.79a6.688 6.688 0 0 0-.241 1.8 6.764 6.764 0 0 0 .242 1.815 6.916 6.916 0 0 0 .685 1.634 6.775 6.775 0 0 0 1.063 1.378 6.975 6.975 0 0 0 1.38 1.071 6.822 6.822 0 0 0 5.235.686 6.789 6.789 0 0 0 3.012-1.757 6.924 6.924 0 0 0 1.07-1.382 6.785 6.785 0 0 0 .93-3.445 6.722 6.722 0 0 0-.929-3.42 6.967 6.967 0 0 0-1.07-1.38 6.77 6.77 0 0 0-1.38-1.063 6.937 6.937 0 0 0-1.633-.685A6.775 6.775 0 0 0 8.482 2.8a6.695 6.695 0 0 0-1.8.243zm4.176 10.095v-1.352H8.18l1.52-1.353q.222-.203.43-.412a2.996 2.996 0 0 0 .371-.449 2.115 2.115 0 0 0 .255-.523 2.028 2.028 0 0 0 .092-.635 1.89 1.89 0 0 0-.199-.889 1.853 1.853 0 0 0-.532-.63 2.296 2.296 0 0 0-.76-.37 3.23 3.23 0 0 0-.88-.12 2.854 2.854 0 0 0-.912.144 2.376 2.376 0 0 0-.764.42 2.315 2.315 0 0 0-.551.666 2.346 2.346 0 0 0-.273.89l1.491.204a1.232 1.232 0 0 1 .292-.717.893.893 0 0 1 1.227-.057.76.76 0 0 1 .222.57 1 1 0 0 1-.148.535 2.418 2.418 0 0 1-.389.472l-2.556 2.311v1.295z"/></svg>