<svg xmlns="http://www.w3.org/2000/svg" aria-hidden="true" class="cf-icon-svg cf-icon-svg--two-open" viewBox="0 0 17 19"><path d="M10.594 1.975a8 8 0 0 1 1.895.795 8 8 0 0 1 1.604 1.237 8 8 0 0 1 1.241 1.6 7.91 7.91 0 0 1 0 7.991 8 8 0 0 1-2.845 2.845 7.9 7.9 0 0 1-4.007 1.082 7.8 7.8 0 0 1-3.985-1.082 8 8 0 0 1-1.599-1.241 8 8 0 0 1-1.237-1.604 8 8 0 0 1-.795-1.895 8 8 0 0 1-.283-2.112 7.8 7.8 0 0 1 .283-2.098 7.9 7.9 0 0 1 5.518-5.518 7.8 7.8 0 0 1 2.098-.283 8 8 0 0 1 2.112.283M6.682 3.043A6.79 6.79 0 0 0 1.933 7.79a6.7 6.7 0 0 0-.241 1.8 6.8 6.8 0 0 0 .242 1.815 7 7 0 0 0 .685 1.634 6.8 6.8 0 0 0 1.063 1.378 7 7 0 0 0 1.38 1.071 6.82 6.82 0 0 0 5.235.686 6.8 6.8 0 0 0 3.012-1.757 7 7 0 0 0 1.07-1.382 6.8 6.8 0 0 0 .93-3.445 6.7 6.7 0 0 0-.929-3.42 7 7 0 0 0-1.07-1.38 6.8 6.8 0 0 0-1.38-1.063 7 7 0 0 0-1.633-.685A6.8 6.8 0 0 0 8.482 2.8a6.7 6.7 0 0 0-1.8.243m4.176 10.095v-1.352H8.18l1.52-1.353q.222-.203.43-.412a3 3 0 0 0 .371-.449 2.1 2.1 0 0 0 .255-.523 2 2 0 0 0 .092-.635 1.9 1.9 0 0 0-.199-.889 1.85 1.85 0 0 0-.532-.63 2.3 2.3 0 0 0-.76-.37 3.2 3.2 0 0 0-.88-.12 2.9 2.9 0 0 0-.912.144 2.4 2.4 0 0 0-.764.42 2.3 2.3 0 0 0-.551.666 2.4 2.4 0 0 0-.273.89l1.491.204a1.23 1.23 0 0 1 .292-.717.893.893 0 0 1 1.227-.057.76.76 0 0 1 .222.57 1 1 0 0 1-.148.535 2.4 2.4 0 0 1-.389.472l-2.556 2.311v1.295z"/></svg>