<svg xmlns="http://www.w3.org/2000/svg" aria-hidden="true" class="cf-icon-svg cf-icon-svg--unfavorite-round" viewBox="0 0 17 19"><path d="M16.417 9.583A7.917 7.917 0 1 1 8.5 1.666a7.917 7.917 0 0 1 7.917 7.917m-2.693-.801c.603-.559.43-1.095-.387-1.192l-1.472-.174-1.485-.176-1.247-2.704c-.172-.373-.4-.56-.626-.56-.228 0-.455.187-.627.56L6.633 7.24l-1.485.176-1.471.174c-.817.097-.991.633-.387 1.192l1.088 1.006 1.098 1.015-.292 1.467-.289 1.453c-.114.574.084.908.466.908a1.16 1.16 0 0 0 .548-.171l2.598-1.455 2.598 1.455a1.16 1.16 0 0 0 .547.17c.382 0 .58-.333.466-.907l-.58-2.92 1.098-1.015zm-.7-.431-.925.855-.003.002L11 10.222a.79.79 0 0 0-.239.735l.538 2.704-2.406-1.346a.79.79 0 0 0-.773 0L5.715 13.66l.245-1.236v-.002l.292-1.466a.79.79 0 0 0-.239-.735L3.989 8.35l2.737-.325a.79.79 0 0 0 .626-.455l1.155-2.503L9.66 7.571a.79.79 0 0 0 .626.455z"/></svg>