<svg xmlns="http://www.w3.org/2000/svg" class="cf-icon-svg cf-icon-svg__update" viewBox="0 0 16 19"><path d="M5.857 3.882v3.341a1.03 1.03 0 0 1-2.058 0v-.97a5.401 5.401 0 0 0-1.032 2.27 1.03 1.03 0 1 1-2.02-.395A7.462 7.462 0 0 1 2.235 4.91h-.748a1.03 1.03 0 1 1 0-2.058h3.34a1.03 1.03 0 0 1 1.03 1.03zm-3.25 9.237a1.028 1.028 0 0 1-1.358-.523 7.497 7.497 0 0 1-.37-1.036 1.03 1.03 0 1 1 1.983-.55 5.474 5.474 0 0 0 .269.751 1.029 1.029 0 0 1-.524 1.358zm2.905 2.439a1.028 1.028 0 0 1-1.42.322 7.522 7.522 0 0 1-.885-.652 1.03 1.03 0 0 1 1.34-1.563 5.435 5.435 0 0 0 .643.473 1.03 1.03 0 0 1 .322 1.42zm3.68.438a1.03 1.03 0 0 1-1.014 1.044h-.106a7.488 7.488 0 0 1-.811-.044 1.03 1.03 0 0 1 .224-2.046 5.41 5.41 0 0 0 .664.031h.014a1.03 1.03 0 0 1 1.03 1.015zm.034-12.847a1.03 1.03 0 0 1-1.029 1.01h-.033a1.03 1.03 0 0 1 .017-2.06h.017l.019.001a1.03 1.03 0 0 1 1.009 1.05zm3.236 11.25a1.029 1.029 0 0 1-.3 1.425 7.477 7.477 0 0 1-.797.453 1.03 1.03 0 1 1-.905-1.849 5.479 5.479 0 0 0 .578-.328 1.03 1.03 0 0 1 1.424.3zM10.475 3.504a1.029 1.029 0 0 1 1.41-.359l.018.011a1.03 1.03 0 1 1-1.06 1.764l-.01-.006a1.029 1.029 0 0 1-.358-1.41zm4.26 9.445a7.5 7.5 0 0 1-.315.56 1.03 1.03 0 1 1-1.749-1.086 5.01 5.01 0 0 0 .228-.405 1.03 1.03 0 1 1 1.836.93zm-1.959-6.052a1.03 1.03 0 0 1 1.79-1.016l.008.013a1.03 1.03 0 1 1-1.79 1.017zm2.764 2.487a9.327 9.327 0 0 1 0 .366 1.03 1.03 0 0 1-1.029 1.005h-.025A1.03 1.03 0 0 1 13.482 9.7a4.625 4.625 0 0 0 0-.266 1.03 1.03 0 0 1 1.003-1.055h.026a1.03 1.03 0 0 1 1.029 1.004z"/></svg>