<svg xmlns="http://www.w3.org/2000/svg" viewBox="0 0 16 19" class="cf-icon-svg"><path d="M15.215 13.09a.554.554 0 0 1-.554.555h-.924a2.109 2.109 0 1 1-3.782-1.734h-.976a4.141 4.141 0 1 1-5.306-4.802V3.677h-.998a.554.554 0 0 1 0-1.108h1.552a.554.554 0 0 1 .554.554v1.791h4.136a.554.554 0 0 1 0 1.109H4.78v.895a3.76 3.76 0 0 1 .145-.002 4.121 4.121 0 0 1 2.324.713h3.674a1.112 1.112 0 0 1 1.108 1.108v2.065a1.081 1.081 0 0 1-.019.202 2.11 2.11 0 0 1 1.725 1.532h.923a.554.554 0 0 1 .554.555zm-7.256-2.033A3.033 3.033 0 1 0 7.07 13.2a3.012 3.012 0 0 0 .889-2.144zm4.744 2.032a1 1 0 1 0-1 1 1.001 1.001 0 0 0 1-1z"/></svg>