<svg xmlns="http://www.w3.org/2000/svg" aria-hidden="true" class="cf-icon-svg cf-icon-svg--wifi" viewBox="0 0 16 19"><path d="M14.897 7.404a.55.55 0 0 1-.392-.163 9.19 9.19 0 0 0-13.01 0 .554.554 0 1 1-.784-.783 10.3 10.3 0 0 1 14.578 0 .554.554 0 0 1-.392.946m-2.172 2.172a.55.55 0 0 1-.392-.162 6.127 6.127 0 0 0-8.666 0 .554.554 0 0 1-.784-.784 7.23 7.23 0 0 1 10.233 0 .554.554 0 0 1-.391.946m-2.173 2.173a.55.55 0 0 1-.392-.162 3.054 3.054 0 0 0-4.32 0 .554.554 0 1 1-.784-.784 4.163 4.163 0 0 1 5.888 0 .554.554 0 0 1-.392.946m-1.141 2.048a1.403 1.403 0 1 1-1.403-1.403 1.403 1.403 0 0 1 1.403 1.403"/></svg>