<svg xmlns="http://www.w3.org/2000/svg" aria-hidden="true" class="cf-icon-svg cf-icon-svg--winter-round" viewBox="0 0 17 19"><path d="M16.417 9.579A7.917 7.917 0 1 1 8.5 1.662a7.917 7.917 0 0 1 7.917 7.917m-7.13.001 2.293-1.323 1.641.944a.396.396 0 0 0 .395-.686L12.372 7.8l.631-.364a.396.396 0 1 0-.395-.686l-.639.368-.001-1.448a.396.396 0 0 0-.396-.396.396.396 0 0 0-.396.397l.002 1.904-2.287 1.321V6.25l1.644-.95a.396.396 0 0 0-.395-.685l-1.25.72v-.732a.396.396 0 1 0-.791 0v.733L6.85 4.615a.396.396 0 1 0-.396.686l1.645.95v2.644L5.811 7.574l.003-1.904a.396.396 0 0 0-.396-.397.395.395 0 0 0-.396.396L5.02 7.117l-.638-.368a.396.396 0 0 0-.396.686l.632.364-1.245.716a.396.396 0 1 0 .396.686l1.641-.944L7.703 9.58 5.41 10.904 3.769 9.96a.396.396 0 1 0-.396.686l1.245.716-.632.365a.396.396 0 1 0 .396.685l.638-.368.002 1.448a.395.395 0 0 0 .396.395.396.396 0 0 0 .396-.396l-.003-1.904 2.288-1.32v2.644l-1.645.95a.396.396 0 1 0 .396.685l1.25-.72v.732a.396.396 0 0 0 .79 0v-.733l1.25.721a.396.396 0 0 0 .396-.685l-1.645-.95v-2.645l2.287 1.321-.002 1.904a.395.395 0 0 0 .395.396.396.396 0 0 0 .396-.395l.002-1.449.639.37a.396.396 0 1 0 .395-.686l-.631-.365 1.244-.716a.396.396 0 1 0-.395-.686l-1.641.944z"/></svg>