<svg viewBox="0 0 17 19" xmlns="http://www.w3.org/2000/svg"><path d="m16.417 9.579a7.917 7.917 0 1 1 -7.917-7.917 7.917 7.917 0 0 1 7.917 7.917m-7.13.001 2.293-1.323 1.641.944a.396.396 0 0 0 .395-.686l-1.244-.715.631-.364a.396.396 0 1 0 -.395-.686l-.639.368-.001-1.448a.396.396 0 0 0 -.396-.396.396.396 0 0 0 -.396.397l.002 1.904-2.287 1.321v-2.646l1.644-.95a.396.396 0 0 0 -.395-.685l-1.25.72v-.732a.396.396 0 1 0 -.791 0v.733l-1.249-.721a.396.396 0 1 0 -.396.686l1.645.95v2.644l-2.288-1.321.003-1.904a.396.396 0 0 0 -.396-.397.395.395 0 0 0 -.396.396l-.002 1.448-.638-.368a.396.396 0 0 0 -.396.686l.632.364-1.245.716a.396.396 0 1 0 .396.686l1.641-.944 2.293 1.323-2.293 1.324-1.641-.944a.396.396 0 1 0 -.396.686l1.245.716-.632.365a.396.396 0 1 0 .396.685l.638-.368.002 1.448a.395.395 0 0 0 .396.395.396.396 0 0 0 .396-.396l-.003-1.904 2.288-1.32v2.644l-1.645.95a.396.396 0 1 0 .396.685l1.25-.72v.732a.396.396 0 0 0 .79 0v-.733l1.25.721a.396.396 0 0 0 .396-.685l-1.645-.95v-2.645l2.287 1.321-.002 1.904a.395.395 0 0 0 .395.396.396.396 0 0 0 .396-.395l.002-1.449.639.37a.396.396 0 1 0 .395-.686l-.631-.365 1.244-.716a.396.396 0 1 0 -.395-.686l-1.641.944z"/></svg>