<svg xmlns="http://www.w3.org/2000/svg" class="cf-icon-svg cf-icon-svg__youtube" viewBox="0 0 14 19"><path fill-rule="evenodd" d="M13.07 6.503a1.592 1.592 0 0 0-1.12-1.128A37.622 37.622 0 0 0 7 5.11a37.622 37.622 0 0 0-4.95.266A1.592 1.592 0 0 0 .93 6.503a16.7 16.7 0 0 0-.265 3.07A16.7 16.7 0 0 0 .93 12.64a1.592 1.592 0 0 0 1.12 1.128 37.62 37.62 0 0 0 4.95.266 37.62 37.62 0 0 0 4.95-.266 1.592 1.592 0 0 0 1.12-1.128 16.7 16.7 0 0 0 .265-3.069 16.7 16.7 0 0 0-.265-3.07zM8.95 9.587 5.701 7.74v3.694z"/></svg>