<svg viewBox="0 0 16 19" xmlns="http://www.w3.org/2000/svg"><path d="m15.917 17.5h-15.834v-15.835h15.834zm-2.845-10.487a1.327 1.327 0 0 0 -.934-.94 31.353 31.353 0 0 0 -4.125-.221 31.353 31.353 0 0 0 -4.125.222 1.327 1.327 0 0 0 -.933.94 13.917 13.917 0 0 0 -.221 2.557 13.917 13.917 0 0 0 .22 2.558 1.327 1.327 0 0 0 .934.94 31.351 31.351 0 0 0 4.125.222 31.351 31.351 0 0 0 4.125-.223 1.327 1.327 0 0 0 .934-.94 13.917 13.917 0 0 0 .22-2.557 13.917 13.917 0 0 0 -.22-2.558m-3.434 2.57-2.706-1.538v3.079z"/></svg>