<svg xmlns="http://www.w3.org/2000/svg" aria-hidden="true" class="cf-icon-svg cf-icon-svg--zero-closed" viewBox="0 0 17 19"><path d="M16.417 9.6A7.917 7.917 0 1 1 8.5 1.683 7.917 7.917 0 0 1 16.417 9.6m-5.352.168a6 6 0 0 0-.139-1.32 3.3 3.3 0 0 0-.444-1.093 2.3 2.3 0 0 0-.792-.745 2.34 2.34 0 0 0-1.18-.278 2.37 2.37 0 0 0-1.186.278 2.3 2.3 0 0 0-.802.745 3.2 3.2 0 0 0-.449 1.093 6.35 6.35 0 0 0 0 2.644 3.3 3.3 0 0 0 .45 1.107 2.24 2.24 0 0 0 1.986 1.042 2.21 2.21 0 0 0 1.973-1.042 3.4 3.4 0 0 0 .444-1.107 6 6 0 0 0 .14-1.324zm-1.63-.676q.037.37.037.676 0 .315-.037.69a3.4 3.4 0 0 1-.139.694 1.5 1.5 0 0 1-.291.537.63.63 0 0 1-.496.218.64.64 0 0 1-.5-.218 1.5 1.5 0 0 1-.301-.537 3.2 3.2 0 0 1-.144-.694q-.037-.375-.037-.69 0-.306.037-.676a3.2 3.2 0 0 1 .144-.69 1.5 1.5 0 0 1 .3-.537.64.64 0 0 1 .501-.218.63.63 0 0 1 .495.218 1.5 1.5 0 0 1 .292.537 3.4 3.4 0 0 1 .14.69z"/></svg>