<svg xmlns="http://www.w3.org/2000/svg" viewBox="0 0 17 19" class="cf-icon-svg"><path d="M10.59 1.957a8.103 8.103 0 0 1 1.895.795 7.808 7.808 0 0 1 1.608 1.237 8.05 8.05 0 0 1 1.241 1.6 7.909 7.909 0 0 1 0 7.992 7.96 7.96 0 0 1-4.744 3.644 7.873 7.873 0 0 1-6.093-.8 8.039 8.039 0 0 1-1.599-1.241 7.848 7.848 0 0 1-1.237-1.604 8 8 0 0 1-.795-1.895 7.86 7.86 0 0 1-.283-2.111 7.782 7.782 0 0 1 .283-2.099 7.902 7.902 0 0 1 5.518-5.518 7.956 7.956 0 0 1 4.206 0zM6.682 3.025a6.793 6.793 0 0 0-4.749 4.748 6.688 6.688 0 0 0-.241 1.8 6.764 6.764 0 0 0 .242 1.815 6.915 6.915 0 0 0 .685 1.634 6.775 6.775 0 0 0 1.063 1.379 6.987 6.987 0 0 0 1.38 1.07 6.81 6.81 0 0 0 5.229.687 6.937 6.937 0 0 0 1.634-.69 6.818 6.818 0 0 0 3.14-4.08 6.775 6.775 0 0 0 .243-1.814 6.687 6.687 0 0 0-.242-1.8 6.76 6.76 0 0 0-.686-1.622 6.967 6.967 0 0 0-1.07-1.379 6.72 6.72 0 0 0-1.381-1.062 7.038 7.038 0 0 0-1.637-.686 6.848 6.848 0 0 0-3.61 0zm4.244 5.478a3.285 3.285 0 0 0-.444-1.093 2.29 2.29 0 0 0-.792-.745 2.344 2.344 0 0 0-1.18-.278 2.37 2.37 0 0 0-1.186.278 2.318 2.318 0 0 0-.802.745 3.22 3.22 0 0 0-.449 1.093 6.364 6.364 0 0 0 0 2.644 3.314 3.314 0 0 0 .45 1.107 2.238 2.238 0 0 0 1.986 1.042 2.207 2.207 0 0 0 1.973-1.042 3.382 3.382 0 0 0 .444-1.107 6.14 6.14 0 0 0 .14-1.324 6.082 6.082 0 0 0-.14-1.32zm-1.49 2.01a3.39 3.39 0 0 1-.14.695 1.504 1.504 0 0 1-.291.537.626.626 0 0 1-.496.218.64.64 0 0 1-.5-.218 1.509 1.509 0 0 1-.301-.537 3.175 3.175 0 0 1-.144-.695q-.037-.375-.037-.69 0-.305.037-.676a3.174 3.174 0 0 1 .144-.69 1.509 1.509 0 0 1 .3-.537.64.64 0 0 1 .501-.218.626.626 0 0 1 .495.218 1.504 1.504 0 0 1 .292.537 3.39 3.39 0 0 1 .14.69q.036.37.036.676 0 .315-.037.69z"/></svg>