<svg xmlns="http://www.w3.org/2000/svg" aria-hidden="true" class="cf-icon-svg cf-icon-svg--agreement-round" viewBox="0 0 17 19"><path d="M16.417 9.583A7.917 7.917 0 1 1 8.5 1.666a7.917 7.917 0 0 1 7.917 7.917m-4.12 2.361a.5.5 0 0 0-.036-.167.6.6 0 0 0-.14-.197l-.384-.385-.111-.109-.002-.002L9.162 8.62l-.003-.005-.285-.285-.801.801a1.17 1.17 0 0 1-.548.326 1.1 1.1 0 0 1-1.009-.244l-.01-.01-.017-.015-.175-.175a1.1 1.1 0 0 1-.333-.641 1.15 1.15 0 0 1 .042-.515 1.2 1.2 0 0 1 .261-.452l.008-.01.013-.013.593-.593-1.283-1.308-2.451 2.49.621.586.613.612a1.5 1.5 0 0 0-.032.46 2 2 0 0 0 .109.513 2.6 2.6 0 0 0 .267.547 3.3 3.3 0 0 0 .453.556L8.67 14.72a.5.5 0 0 0 .162.108.4.4 0 0 0 .164.025.3.3 0 0 0 .187-.088l.171-.17a.34.34 0 0 0 .077-.15.4.4 0 0 0-.002-.164.4.4 0 0 0-.124-.196l-.42-.424a.13.13 0 0 1-.003-.188l.084-.068a.09.09 0 0 1 .123 0l.64.628q.315.315.559.099l.17-.171a.4.4 0 0 0 .066-.088.25.25 0 0 0 .03-.124.4.4 0 0 0-.043-.16.7.7 0 0 0-.147-.191l-.618-.605a.137.137 0 0 1-.001-.193l.062-.063a.125.125 0 0 1 .182.003l.67.683q.034.036.094.09a.4.4 0 0 0 .132.083.3.3 0 0 0 .158.019.3.3 0 0 0 .173-.102l.216-.216a.4.4 0 0 0 .066-.088.25.25 0 0 0 .03-.124.4.4 0 0 0-.041-.157.6.6 0 0 0-.127-.172l-.646-.632a.17.17 0 0 1 .001-.243l.024-.027a.14.14 0 0 1 .204.006l.543.554q.022.023.078.074a.5.5 0 0 0 .133.088.35.35 0 0 0 .167.031.3.3 0 0 0 .184-.099l.171-.171a.4.4 0 0 0 .048-.07.25.25 0 0 0 .029-.124zm1.472-4.019-2.44-2.44-.905.905a6.5 6.5 0 0 0-.96-.127 3 3 0 0 0-.544.015 2 2 0 0 0-.513.127 1.3 1.3 0 0 0-.433.282L6.8 7.862l-.002.002a.54.54 0 0 0-.117.199l-.001.005a.5.5 0 0 0-.016.21.44.44 0 0 0 .138.248l.17.17a.4.4 0 0 0 .185.097l.004.001a.4.4 0 0 0 .198-.005.5.5 0 0 0 .228-.145L8.631 7.6a.345.345 0 0 1 .487 0l2.992 2.997.04.04.08-.12a2.5 2.5 0 0 0 .261-.534 2 2 0 0 0 .107-.506 2 2 0 0 0 0-.254.34.34 0 0 1 .02-.145zm-3.112 4.866.004-.003-.035.022z"/></svg>