<svg xmlns="http://www.w3.org/2000/svg" aria-hidden="true" class="cf-icon-svg cf-icon-svg--cart-round" viewBox="0 0 17 19"><path d="M16.417 9.579A7.917 7.917 0 1 1 8.5 1.662a7.917 7.917 0 0 1 7.917 7.917m-3.34-2.323a.63.63 0 0 0-.628-.628H5.892l-.436-1a.38.38 0 0 0-.351-.23H3.68a.384.384 0 1 0 0 .768h1.173l1.785 4.096a.4.4 0 0 0-.087-.01 1.161 1.161 0 1 0 0 2.322h.042a.792.792 0 1 0 .864 0h3.452a.792.792 0 1 0 .864 0h.565a.384.384 0 1 0 0-.767H6.55a.393.393 0 0 1 0-.787.4.4 0 0 0 .098-.013l5.803-.602a.714.714 0 0 0 .625-.694z"/></svg>