<svg xmlns="http://www.w3.org/2000/svg" aria-hidden="true" class="cf-icon-svg cf-icon-svg--compass-round" viewBox="0 0 17 19"><path d="M16.417 9.583A7.917 7.917 0 1 1 8.5 1.666a7.917 7.917 0 0 1 7.917 7.917m-2.829.276a5 5 0 0 0-.181-1.354A5.07 5.07 0 0 0 9.85 4.958q-.225-.062-.456-.103a.993.993 0 1 0-1.79-.002 5 5 0 0 0-.462.105 5.2 5.2 0 0 0-1.213.511 5 5 0 0 0-1.028.795 5.2 5.2 0 0 0-.795 1.028 5.1 5.1 0 0 0-.514 3.921 5.2 5.2 0 0 0 .514 1.219 5 5 0 0 0 .795 1.03 5.1 5.1 0 0 0 2.243 1.31 5 5 0 0 0 1.35.18 5.07 5.07 0 0 0 2.575-.695 5.2 5.2 0 0 0 1.03-.795 5 5 0 0 0 .795-1.03 5.2 5.2 0 0 0 .512-1.219 5 5 0 0 0 .181-1.354zM9.676 5.594a4.5 4.5 0 0 1 1.06.445 4.44 4.44 0 0 1 1.59 1.586 4.4 4.4 0 0 1 .445 1.056 4.47 4.47 0 0 1 0 2.358 4.5 4.5 0 0 1-.445 1.06 4.3 4.3 0 0 1-.692.897 4.5 4.5 0 0 1-.897.692 4.4 4.4 0 0 1-2.242.606 4.4 4.4 0 0 1-1.174-.158 4.44 4.44 0 0 1-3.092-3.097 4.4 4.4 0 0 1 .447-3.414 4.5 4.5 0 0 1 .692-.894 4.3 4.3 0 0 1 .895-.692 4.5 4.5 0 0 1 1.056-.445 4.3 4.3 0 0 1 1.176-.158 4.4 4.4 0 0 1 1.181.158m-2.143.762a3.7 3.7 0 0 0-.871.367 3.6 3.6 0 0 0-.732.566 3.8 3.8 0 0 0-.572.74 3.65 3.65 0 0 0-.367 2.797 3.7 3.7 0 0 0 .369.873 3.64 3.64 0 0 0 2.174 1.674 3.6 3.6 0 0 0 .96.13 3.6 3.6 0 0 0 1.842-.497 3.7 3.7 0 0 0 .74-.571 3.5 3.5 0 0 0 .565-.733 3.8 3.8 0 0 0 .368-.876 3.7 3.7 0 0 0 0-1.932 3.6 3.6 0 0 0-.935-1.603 3.6 3.6 0 0 0-.736-.568 3.7 3.7 0 0 0-.874-.367 3.6 3.6 0 0 0-.97-.129 3.6 3.6 0 0 0-.961.13zm-2.067 3.51a.4.4 0 1 0 .4-.399.4.4 0 0 0-.4.4zm4.988-1.821L9.303 10.24a1.2 1.2 0 0 1-.428.427L6.68 11.818c-.154.081-.214.021-.134-.133L7.697 9.49a1.2 1.2 0 0 1 .428-.428l2.195-1.15c.154-.082.214-.022.134.133m-1.476 1.82a.478.478 0 1 0-.478.478.48.48 0 0 0 .478-.478M8.502 6.83a.4.4 0 1 0 .4.4.4.4 0 0 0-.4-.4m0 5.273a.4.4 0 1 0 .4.4.4.4 0 0 0-.4-.4M8.5 4.067a.36.36 0 1 0 .36.36.36.36 0 0 0-.36-.36m2.24 5.799a.4.4 0 1 0 .399-.4.4.4 0 0 0-.4.4z"/></svg>