<svg xmlns="http://www.w3.org/2000/svg" aria-hidden="true" class="cf-icon-svg cf-icon-svg--credit-repair" viewBox="0 0 17 19"><path d="M10.407 8.295H.695v-.448a1.11 1.11 0 0 1 1.109-1.108h8.252a3.7 3.7 0 0 0 .35 1.556zM.695 9.404h10.517q.071.066.145.129v4.626l-.074.003h-9.48a1.11 1.11 0 0 1-1.108-1.108zm1.758 3.188h3.819v-1.109h-3.82zM14.848 4.41a2.57 2.57 0 0 1 .156 4.552v5.269a1.27 1.27 0 0 1-2.539 0V8.96l-.074-.043a2.57 2.57 0 0 1-1.226-2.18v-.011A2.57 2.57 0 0 1 12.62 4.41v1.923a.417.417 0 0 0 .416.415h1.396a.417.417 0 0 0 .415-.415V4.41z"/></svg>