<svg xmlns="http://www.w3.org/2000/svg" aria-hidden="true" class="cf-icon-svg cf-icon-svg--dialogue-round" viewBox="0 0 17 19"><path d="M16.417 9.583A7.917 7.917 0 1 1 8.5 1.666a7.917 7.917 0 0 1 7.917 7.917M7.115 7.447h3.087V5.93a.32.32 0 0 0-.317-.317h-6.35a.317.317 0 0 0-.317.317v4.441a.317.317 0 0 0 .316.317h.725v.94c0 .175.12.242.269.15l1.479-.923v-2.3a1.11 1.11 0 0 1 1.108-1.108m6.667 1.108a.317.317 0 0 0-.316-.316h-6.35a.32.32 0 0 0-.318.316v4.442a.32.32 0 0 0 .317.316h3.573l.03.022 1.767 1.102c.148.092.269.025.269-.15v-.974h.712a.317.317 0 0 0 .316-.316z"/></svg>