<svg xmlns="http://www.w3.org/2000/svg" aria-hidden="true" class="cf-icon-svg cf-icon-svg--eight-closed" viewBox="0 0 17 19"><path d="M16.417 9.6A7.917 7.917 0 1 1 8.5 1.683 7.917 7.917 0 0 1 16.417 9.6m-5.34 1.594a1.6 1.6 0 0 0-.092-.542 1.6 1.6 0 0 0-.615-.796 1.7 1.7 0 0 0-.46-.218V9.61a1.46 1.46 0 0 0 .723-.518 1.5 1.5 0 0 0 .278-.917 1.65 1.65 0 0 0-.19-.801 1.8 1.8 0 0 0-.505-.58 2.2 2.2 0 0 0-.727-.347 3.2 3.2 0 0 0-.866-.115 3.1 3.1 0 0 0-.87.12 2.2 2.2 0 0 0-.732.357 1.7 1.7 0 0 0-.5.588 1.7 1.7 0 0 0-.186.806 1.4 1.4 0 0 0 .287.903 1.6 1.6 0 0 0 .714.513v.019a1.73 1.73 0 0 0-.83.56 1.6 1.6 0 0 0-.254.454 1.6 1.6 0 0 0-.093.551 1.9 1.9 0 0 0 .204.903 1.9 1.9 0 0 0 .54.635 2.4 2.4 0 0 0 .782.375 3.53 3.53 0 0 0 1.862 0 2.3 2.3 0 0 0 .786-.38 1.85 1.85 0 0 0 .744-1.542m-1.801-.69a.86.86 0 0 1 .255.634.83.83 0 0 1-.25.635.92.92 0 0 1-.658.236.93.93 0 0 1-.662-.236.82.82 0 0 1-.255-.635.86.86 0 0 1 .255-.638.9.9 0 0 1 .662-.25.9.9 0 0 1 .653.254M8.053 8.833a.8.8 0 0 1-.208-.547.73.73 0 0 1 .213-.537.76.76 0 0 1 .565-.213.8.8 0 0 1 .556.213.7.7 0 0 1 .231.537.76.76 0 0 1-.222.547.75.75 0 0 1-.565.23.73.73 0 0 1-.57-.23"/></svg>