<svg xmlns="http://www.w3.org/2000/svg" aria-hidden="true" class="cf-icon-svg cf-icon-svg--equipment" viewBox="0 0 12 19"><path d="M11.405 5.34a.554.554 0 1 1-.996.485 5.6 5.6 0 0 0-1.375-1.782 1.2 1.2 0 0 0-1.786 1.05v.61a.476.476 0 0 1-.475.475h-2.48a.476.476 0 0 1-.475-.475v.07a1.2 1.2 0 0 0-.196-.657 2 2 0 0 1-.084-.113 1.202 1.202 0 0 0-1.94.134.554.554 0 0 1-1.06-.23v-2.28a.554.554 0 0 1 1.07-.202 1.2 1.2 0 0 0 1.902.148 2 2 0 0 1 .137-.186l.007-.011h.003a2.17 2.17 0 0 1 1.668-.781h.03l.058-.003a6.66 6.66 0 0 1 5.993 3.748zM6.768 7.455a.476.476 0 0 0-.475-.475H4.578a.477.477 0 0 0-.475.475V16.9a.476.476 0 0 0 .475.475h1.715a.476.476 0 0 0 .475-.475z"/></svg>