<svg xmlns="http://www.w3.org/2000/svg" aria-hidden="true" class="cf-icon-svg cf-icon-svg--flag" viewBox="0 0 14 19"><path d="M1.529 15.694a.554.554 0 0 1-.554-.555V3.46a.554.554 0 0 1 1.108 0v11.68a.554.554 0 0 1-.554.555zm11.496-6.007a1.03 1.03 0 0 1-.283.704l-.136.103a3.8 3.8 0 0 1-2.275.923c-1.723.003-2.832-1.728-4.703-1.728a3.96 3.96 0 0 0-1.916.555l-.167.092c-.193.122-.35.011-.35-.246V4.46a.82.82 0 0 1 .217-.61l.107-.063q.159-.094.311-.174a3.95 3.95 0 0 1 1.685-.489c1.932-.071 3.05 1.715 4.795 1.726a3.7 3.7 0 0 0 2.2-.852l.166-.122c.192-.158.35-.078.35.18z"/></svg>