<svg xmlns="http://www.w3.org/2000/svg" aria-hidden="true" class="cf-icon-svg cf-icon-svg--folder-save" viewBox="0 0 15 19"><path d="M14.322 5.809v8.937a.476.476 0 0 1-.475.475H1.153a.476.476 0 0 1-.475-.475V4.192a.476.476 0 0 1 .475-.475H5.12a.86.86 0 0 1 .691.423l.612 1.194h7.424a.476.476 0 0 1 .475.475M10.31 7.306a.554.554 0 0 0-.757.203l-2.396 4.15-1.054-1.265a.554.554 0 0 0-.852.71l1.563 1.876a.56.56 0 0 0 .426.199l.047-.002a.55.55 0 0 0 .433-.275l2.793-4.839a.555.555 0 0 0-.203-.757"/></svg>