<svg xmlns="http://www.w3.org/2000/svg" aria-hidden="true" class="cf-icon-svg cf-icon-svg--folder-save-round" viewBox="0 0 17 19"><path d="M16.417 9.579A7.917 7.917 0 1 1 8.5 1.662a7.917 7.917 0 0 1 7.917 7.917m-3.122-2.755a.317.317 0 0 0-.317-.317H7.752l-.436-.852a.57.57 0 0 0-.461-.282H4.038a.32.32 0 0 0-.317.317v7.438a.32.32 0 0 0 .317.316h8.94a.317.317 0 0 0 .317-.316zm-2.66 1.663-1.963 3.398a.4.4 0 0 1-.309.197l-.034.001a.4.4 0 0 1-.304-.142l-1.097-1.318a.396.396 0 1 1 .608-.507l.734.882L9.95 8.09a.396.396 0 0 1 .685.396z"/></svg>