<svg xmlns="http://www.w3.org/2000/svg" aria-hidden="true" class="cf-icon-svg cf-icon-svg--furniture-round" viewBox="0 0 17 19"><path d="M16.417 9.579A7.917 7.917 0 1 1 8.5 1.662a7.917 7.917 0 0 1 7.917 7.917m-2.788-.658a1.159 1.159 0 0 0-2.318 0v1.767H5.66V8.92a1.159 1.159 0 1 0-1.43 1.127v3.333a.343.343 0 0 0 .342.342H12.4a.343.343 0 0 0 .342-.342v-3.333a1.16 1.16 0 0 0 .887-1.127zM5.097 7.063A1.95 1.95 0 0 1 6.45 8.921v.975h4.069v-.975a1.95 1.95 0 0 1 1.354-1.858v-1a.794.794 0 0 0-.792-.791H5.888a.794.794 0 0 0-.791.791z"/></svg>