<svg xmlns="http://www.w3.org/2000/svg" aria-hidden="true" class="cf-icon-svg cf-icon-svg--gift-round" viewBox="0 0 17 19"><path d="M16.417 9.579A7.917 7.917 0 1 1 8.5 1.662a7.917 7.917 0 0 1 7.917 7.917M4.406 13.927h3.716v-3.356l-.695 1.1a.396.396 0 1 1-.67-.423l.99-1.567-1.302.54a.491.491 0 0 1-.731-.487V8.212a.491.491 0 0 1 .731-.489l1.677.697V5.07H4.406a.32.32 0 0 0-.317.317v8.223a.32.32 0 0 0 .317.317m8.54-8.54a.317.317 0 0 0-.317-.317H8.913v3.35l1.677-.697a.491.491 0 0 1 .73.489v1.522a.491.491 0 0 1-.73.488L9.288 9.68l.99 1.567a.396.396 0 1 1-.67.423l-.695-1.1v3.356h3.716a.317.317 0 0 0 .317-.317z"/></svg>