<svg xmlns="http://www.w3.org/2000/svg" aria-hidden="true" class="cf-icon-svg cf-icon-svg--healthcare-round" viewBox="0 0 17 19"><path d="M16.417 9.579A7.917 7.917 0 1 1 8.5 1.662a7.917 7.917 0 0 1 7.917 7.917m-3.193-.767a1.588 1.588 0 1 0-1.999 1.534v1.515a2.014 2.014 0 0 1-4.027 0v-.334a2.676 2.676 0 0 0 2.262-2.64v-2.14a1.24 1.24 0 0 0-.506-1.002.894.894 0 1 0-.395.754.42.42 0 0 1 .08.248v2.14a1.851 1.851 0 1 1-3.703 0v-2.14a.42.42 0 0 1 .1-.273.895.895 0 1 0-.356-.77 1.25 1.25 0 0 0-.565 1.043v2.14a2.676 2.676 0 0 0 2.262 2.64v.334a2.835 2.835 0 1 0 5.67 0v-1.515a1.59 1.59 0 0 0 1.177-1.534m-.821 0a.767.767 0 1 1-.767-.767.77.77 0 0 1 .767.767"/></svg>