<svg xmlns="http://www.w3.org/2000/svg" aria-hidden="true" class="cf-icon-svg cf-icon-svg--history" viewBox="0 0 17 19"><path d="M16.417 9.5a7.919 7.919 0 0 1-15.212 3.082A7.9 7.9 0 0 1 .584 9.5a.554.554 0 0 1 1.109 0 6.81 6.81 0 0 0 13.081 2.65 6.811 6.811 0 0 0-9.66-8.557 6.9 6.9 0 0 0-1.847 1.554h1.276a.554.554 0 0 1 0 1.108h-2.61a.554.554 0 0 1-.555-.554V3.09a.554.554 0 0 1 1.109 0v1.262A7.9 7.9 0 0 1 8.5 1.583 7.91 7.91 0 0 1 16.417 9.5m-5.181 3a.554.554 0 0 1-.784 0l-2.42-2.42a.55.55 0 0 1-.22-.441V5.168a.554.554 0 1 1 1.11 0v4.234l2.314 2.315a.554.554 0 0 1 0 .784z"/></svg>