<svg xmlns="http://www.w3.org/2000/svg" aria-hidden="true" class="cf-icon-svg cf-icon-svg--house" viewBox="0 0 16 19"><path d="M14.993 7.61a.554.554 0 0 1-.756.207L7.98 4.255 1.764 7.817a.554.554 0 0 1-.55-.962l1.192-.683v-2.48a.476.476 0 0 1 .475-.474h1.222a.476.476 0 0 1 .475.475v1.234l3.126-1.79a.55.55 0 0 1 .55-.001l6.531 3.718a.554.554 0 0 1 .208.756m-1.399.937v6.198a.476.476 0 0 1-.475.475H2.881a.476.476 0 0 1-.475-.475v-6.2L7.98 5.353zm-6.782 1.01H4.578v2.262h2.234zm4.61 0H9.188v2.262h2.234z"/></svg>