<svg xmlns="http://www.w3.org/2000/svg" aria-hidden="true" class="cf-icon-svg cf-icon-svg--lightbulb" viewBox="0 0 11 19"><path d="M10.328 6.83a5.9 5.9 0 0 1-1.439 3.64 2.9 2.9 0 0 0-.584 1v1.037a.95.95 0 0 1-.95.95h-3.71a.95.95 0 0 1-.95-.95V11.47a2.9 2.9 0 0 0-.584-1A5.9 5.9 0 0 1 .67 6.83a4.83 4.83 0 0 1 9.28-1.878 4.8 4.8 0 0 1 .38 1.88zm-.95 0a3.878 3.878 0 0 0-7.756 0c0 2.363 2.023 3.409 2.023 4.64v1.037h3.71V11.47c0-1.231 2.023-2.277 2.023-4.64M7.83 14.572a.475.475 0 0 1-.475.476h-3.71a.475.475 0 0 1 0-.95h3.71a.475.475 0 0 1 .475.474m-.64 1.262a.24.24 0 0 1-.078.265 2.67 2.67 0 0 1-3.274 0 .237.237 0 0 1 .145-.425h2.983a.24.24 0 0 1 .225.16z"/></svg>