<svg xmlns="http://www.w3.org/2000/svg" aria-hidden="true" class="cf-icon-svg cf-icon-svg--open-quote-round" viewBox="0 0 17 19"><path d="M16.417 9.583A7.917 7.917 0 1 1 8.5 1.666a7.917 7.917 0 0 1 7.917 7.917m-8.768.56a2.214 2.214 0 0 0-3.232-1.298 3 3 0 0 1 .258-.384 3.5 3.5 0 0 1 1.44-1.036 4 4 0 0 1 .453-.15 2 2 0 0 0 .41-.112.568.568 0 0 0-.153-1.063 1 1 0 0 0-.409.043q-.229.055-.453.13a4.9 4.9 0 0 0-1.589.882 4.07 4.07 0 0 0-1.46 3.205 2.94 2.94 0 0 0 .463 1.578 2.45 2.45 0 0 0 3.246.811 2.3 2.3 0 0 0 1.057-1.41 2.25 2.25 0 0 0-.031-1.196m6.34 0a2.214 2.214 0 0 0-3.232-1.298 3 3 0 0 1 .258-.384 3.5 3.5 0 0 1 1.44-1.036 4 4 0 0 1 .453-.15 2 2 0 0 0 .41-.112.568.568 0 0 0-.153-1.063 1 1 0 0 0-.409.043q-.229.055-.453.13a4.9 4.9 0 0 0-1.59.882 4.07 4.07 0 0 0-1.459 3.204 2.94 2.94 0 0 0 .462 1.579 2.45 2.45 0 0 0 3.247.811 2.3 2.3 0 0 0 1.057-1.41 2.25 2.25 0 0 0-.031-1.196"/></svg>