<svg xmlns="http://www.w3.org/2000/svg" aria-hidden="true" class="cf-icon-svg cf-icon-svg--photo" viewBox="0 0 18 19"><path d="M16.205 6.813v7.29a1.12 1.12 0 0 1-1.115 1.115H2.91a1.12 1.12 0 0 1-1.115-1.115v-7.29A1.12 1.12 0 0 1 2.91 5.698h2.902v-.365a1.12 1.12 0 0 1 1.115-1.115h4.146a1.12 1.12 0 0 1 1.115 1.115v.365h2.902a1.12 1.12 0 0 1 1.115 1.115m-3.789 3.645A3.416 3.416 0 1 0 9 13.874a3.416 3.416 0 0 0 3.416-3.416M10.627 8.83A2.301 2.301 0 1 1 9 8.157a2.3 2.3 0 0 1 1.627.674zm-.643-3.262a.558.558 0 1 0 .558-.557.56.56 0 0 0-.558.557"/></svg>