<svg xmlns="http://www.w3.org/2000/svg" aria-hidden="true" class="cf-icon-svg cf-icon-svg--policy-round" viewBox="0 0 17 19"><path d="M16.417 9.583A7.917 7.917 0 1 1 8.5 1.666a7.916 7.916 0 0 1 7.917 7.917m-2.85-3.64a1.164 1.164 0 0 0-1.162-1.162h-6.18a1.163 1.163 0 0 0-1.162 1.162v5.288h5.565a.71.71 0 0 1 .614.705v1.146a.48.48 0 0 1-.425.475h-.106a.478.478 0 0 1-.259-.838.41.41 0 0 0 .105-.455.4.4 0 0 0-.364-.24h-5.5a1.162 1.162 0 1 0 0 2.325h5.988a1 1 0 0 0 .167 0h.024a.4.4 0 0 0 .113-.017 1.27 1.27 0 0 0 1.044-1.146l.005-6.04a1.9 1.9 0 0 0 .786-.117 1.17 1.17 0 0 0 .747-1.086m-2.695.464H6.134V7.2h4.738zm0 1.568H6.134v.792h4.738zm0 1.569H6.134v.792h4.738zm1.903-3.6a.37.37 0 0 1-.241.347l-.007.001-.017.009a1.2 1.2 0 0 1-.476.052v-.41a.37.37 0 0 1 .143-.292.36.36 0 0 1 .228-.078.37.37 0 0 1 .37.37z"/></svg>