<svg xmlns="http://www.w3.org/2000/svg" aria-hidden="true" class="cf-icon-svg cf-icon-svg--quick-cash-round" viewBox="0 0 17 19"><path d="M16.417 9.583A7.917 7.917 0 1 1 8.5 1.666a7.917 7.917 0 0 1 7.917 7.917m-3.325.418a4.58 4.58 0 0 0-1.112-3l.44-.44a.396.396 0 1 0-.56-.56l-.445.447a4.6 4.6 0 0 0-2.529-1.032v-.604l.323-.001a.396.396 0 0 0 0-.792h-.002l-1.436.005a.396.396 0 0 0 .001.792h.002l.32-.001v.601a4.602 4.602 0 1 0 4.998 4.585m-.744 0A3.858 3.858 0 1 1 8.49 6.143a3.86 3.86 0 0 1 3.858 3.858M6.322 7.833a3.067 3.067 0 1 0 2.168-.898 3.05 3.05 0 0 0-2.168.898m3.561 2.954a1 1 0 0 1-.504.87 1.6 1.6 0 0 1-.483.204v.301a.396.396 0 0 1-.792 0v-.296a2 2 0 0 1-.307-.098 1.14 1.14 0 0 1-.438-.321.396.396 0 1 1 .598-.518.4.4 0 0 0 .134.104 1 1 0 0 0 .19.061 2 2 0 0 0 .205.025.9.9 0 0 0 .462-.127c.143-.093.143-.168.143-.205a.24.24 0 0 0-.059-.155.6.6 0 0 0-.15-.121.8.8 0 0 0-.19-.068 1 1 0 0 0-.187-.02 2 2 0 0 1-.328-.025 1.5 1.5 0 0 1-.424-.137 1.2 1.2 0 0 1-.405-.325 1.05 1.05 0 0 1-.241-.658 1.06 1.06 0 0 1 .527-.897 1.6 1.6 0 0 1 .47-.195v-.289a.396.396 0 1 1 .792 0v.3a2 2 0 0 1 .313.11 1.3 1.3 0 0 1 .384.265.396.396 0 0 1-.559.56.5.5 0 0 0-.15-.103 1 1 0 0 0-.194-.068l-.021-.005a1 1 0 0 0-.16-.027.9.9 0 0 0-.452.121.28.28 0 0 0-.158.228.27.27 0 0 0 .063.159.5.5 0 0 0 .145.116.7.7 0 0 0 .2.064 1 1 0 0 0 .198.015 1.7 1.7 0 0 1 .355.037 1.6 1.6 0 0 1 .39.141 1.4 1.4 0 0 1 .379.301 1.03 1.03 0 0 1 .254.676"/></svg>