<svg xmlns="http://www.w3.org/2000/svg" aria-hidden="true" class="cf-icon-svg cf-icon-svg--settings" viewBox="0 0 17 19"><path d="M16.014 8.86v1.44a.59.59 0 0 1-.468.556l-1.182.204a.5.5 0 0 1-.114.006 6 6 0 0 1-.634 1.528.5.5 0 0 1 .078.084l.691.98a.586.586 0 0 1-.062.725l-1.02 1.02a.586.586 0 0 1-.724.061l-.98-.69a.4.4 0 0 1-.085-.078 6 6 0 0 1-1.544.637.5.5 0 0 1 0 .175l-.182 1.053a.67.67 0 0 1-.633.532h-1.31a.67.67 0 0 1-.633-.532l-.182-1.053a.5.5 0 0 1 0-.175 6 6 0 0 1-1.544-.637.4.4 0 0 1-.085.077l-.98.691a.586.586 0 0 1-.725-.062l-1.02-1.02a.586.586 0 0 1-.061-.723l.691-.98a.5.5 0 0 1 .077-.085 6 6 0 0 1-.633-1.528.5.5 0 0 1-.114-.006l-1.182-.204a.586.586 0 0 1-.468-.556V8.86a.586.586 0 0 1 .468-.556L2.636 8.1a.4.4 0 0 1 .114-.005 6 6 0 0 1 .633-1.528.5.5 0 0 1-.077-.085l-.691-.98a.59.59 0 0 1 .061-.724l1.02-1.02a.59.59 0 0 1 .725-.062l.98.691a.4.4 0 0 1 .085.078 6 6 0 0 1 1.528-.634.4.4 0 0 1 .005-.114l.204-1.182a.586.586 0 0 1 .556-.468h1.442a.586.586 0 0 1 .556.468l.204 1.182a.5.5 0 0 1 .005.114 6 6 0 0 1 1.528.634.4.4 0 0 1 .085-.078l.98-.691a.586.586 0 0 1 .724.062l1.02 1.02a.586.586 0 0 1 .062.724l-.691.98a.5.5 0 0 1-.078.085 6 6 0 0 1 .634 1.528.4.4 0 0 1 .114.005l1.182.204a.59.59 0 0 1 .468.556m-4.955.72a2.559 2.559 0 1 0-2.56 2.56 2.56 2.56 0 0 0 2.56-2.56"/></svg>