<svg xmlns="http://www.w3.org/2000/svg" aria-hidden="true" class="cf-icon-svg cf-icon-svg--share-alt" viewBox="0 0 12 19"><path d="M11.182 6.771v9.364a.497.497 0 0 1-.496.495H1.314a.497.497 0 0 1-.496-.495V6.771a.497.497 0 0 1 .496-.495h3.259v1.108H1.927v8.138h8.146V7.384h-2.65V6.276h3.263a.497.497 0 0 1 .496.495M8.91 4.97a.554.554 0 0 1-.783 0L6.552 3.394v7.36a.554.554 0 0 1-1.109 0v-7.36L3.87 4.97a.554.554 0 0 1-.784-.783l2.52-2.521a.554.554 0 0 1 .784 0l2.521 2.52a.554.554 0 0 1 0 .784z"/></svg>