<svg xmlns="http://www.w3.org/2000/svg" aria-hidden="true" class="cf-icon-svg cf-icon-svg--supplement-round" viewBox="0 0 17 19"><path d="M16.417 9.579A7.917 7.917 0 1 1 8.5 1.662a7.917 7.917 0 0 1 7.917 7.917m-4.233-1.805H9.259a.32.32 0 0 1-.317-.317v-2.9H5.16a.317.317 0 0 0-.317.317v9.368a.317.317 0 0 0 .317.316h6.707a.317.317 0 0 0 .317-.316zM10.48 10.88a.396.396 0 0 1-.396.396H8.877v1.208a.396.396 0 1 1-.791 0v-1.208H6.878a.396.396 0 1 1 0-.792h1.208V9.277a.396.396 0 1 1 .791 0v1.207h1.208a.396.396 0 0 1 .396.396zm-.744-3.9h2.43l-2.43-2.417z"/></svg>