<svg xmlns="http://www.w3.org/2000/svg" aria-hidden="true" class="cf-icon-svg cf-icon-svg--update-round" viewBox="0 0 17 19"><path d="M16.416 9.583a7.916 7.916 0 1 1-15.833 0 7.916 7.916 0 0 1 15.833 0M4.546 6.629a5.1 5.1 0 0 0-.908 2.139.792.792 0 1 0 1.56.27c.08-.464.252-.901.5-1.29v.323a.792.792 0 1 0 1.583 0V5.837a.79.79 0 0 0-.792-.792H4.255a.792.792 0 1 0 0 1.584zm1.117 4.865a3.6 3.6 0 0 1-.285-.58.792.792 0 0 0-1.479.566c.111.29.25.573.412.839a.79.79 0 1 0 1.352-.825m1.941 1.519a3.5 3.5 0 0 1-.596-.25.792.792 0 0 0-.742 1.399q.413.219.862.36a.792.792 0 1 0 .476-1.51zM8.74 6.125a.792.792 0 0 0 .014-1.583h-.009a.792.792 0 0 0-.027 1.583zm1.601 8.33a.792.792 0 1 0-.523-1.495 3 3 0 0 1-.309.092.792.792 0 1 0 .383 1.537 5 5 0 0 0 .45-.134zm.581-7.688a.792.792 0 0 0 .414-1.467l-.003-.002a.792.792 0 1 0-.835 1.346l.013.007c.128.079.27.116.411.116m1.722 4.692a.79.79 0 0 0-1.103.195 4 4 0 0 1-.197.256.791.791 0 1 0 1.209 1.023q.151-.18.286-.371a.79.79 0 0 0-.195-1.103m-.876-3.458.007.013a.792.792 0 0 0 1.398-.744l-.002-.002A.792.792 0 0 0 11.768 8zm1.233 1.066a.79.79 0 0 0-.83.75l-.01.13a.791.791 0 0 0 1.577.138q.009-.093.013-.187a.79.79 0 0 0-.75-.83z"/></svg>