<svg xmlns="http://www.w3.org/2000/svg" aria-hidden="true" class="cf-icon-svg cf-icon-svg--web-round" viewBox="0 0 17 19"><path d="M16.5 9.5a8 8 0 1 1-8-8 8 8 0 0 1 8 8m-2.97.006a5.03 5.03 0 1 0-5.03 5.03 5.03 5.03 0 0 0 5.03-5.03m-7.383-.4H4.289a4.24 4.24 0 0 1 2.565-3.498q.1-.042.2-.079a7.7 7.7 0 0 0-.907 3.577m0 .8a7.7 7.7 0 0 0 .908 3.577q-.102-.037-.201-.079a4.22 4.22 0 0 1-2.565-3.498zm.8-.8a9 9 0 0 1 .163-1.402 6.2 6.2 0 0 1 .445-1.415c.289-.615.66-1.013.945-1.013s.656.398.945 1.013a6.2 6.2 0 0 1 .445 1.415 9 9 0 0 1 .163 1.402zm3.106.8a9 9 0 0 1-.163 1.402 6.2 6.2 0 0 1-.445 1.415c-.289.616-.66 1.013-.945 1.013s-.656-.397-.945-1.013a6.2 6.2 0 0 1-.445-1.415 9 9 0 0 1-.163-1.402zm1.438-3.391a4.2 4.2 0 0 1 1.22 2.591h-1.858a7.7 7.7 0 0 0-.908-3.577q.102.037.201.08a4.2 4.2 0 0 1 1.345.906m-.638 3.391h1.858a4.24 4.24 0 0 1-2.565 3.498q-.1.043-.2.08a7.7 7.7 0 0 0 .907-3.578"/></svg>