<svg viewBox="0 0 17 19" xmlns="http://www.w3.org/2000/svg"><path d="m16.417 9.579a7.917 7.917 0 1 1 -7.917-7.917 7.917 7.917 0 0 1 7.917 7.917m-4.233-1.805h-2.925a.318.318 0 0 1 -.317-.317v-2.9h-3.782a.317.317 0 0 0 -.317.317v9.368a.317.317 0 0 0 .317.316h6.707a.317.317 0 0 0 .317-.316zm-5.105 4.561a.396.396 0 1 0 -.396.396h.001a.395.395 0 0 0 .395-.396m1.2 0a.396.396 0 0 0 -.395-.395h-.004a.396.396 0 0 0 0 .791h.004a.396.396 0 0 0 .395-.396m1.2 0a.396.396 0 0 0 -.396-.395h-.003a.396.396 0 0 0 0 .791h.003a.396.396 0 0 0 .396-.396m.258-5.356h2.43l-2.43-2.416zm.939 5.356a.396.396 0 1 0 -.397.396h.002a.395.395 0 0 0 .395-.396"/></svg>