<svg viewBox="0 0 12 19" xmlns="http://www.w3.org/2000/svg"><path d="m11.16 16.153a.477.477 0 0 1 -.476.475h-9.368a.477.477 0 0 1 -.475-.475v-13.107a.477.477 0 0 1 .475-.475h6.95l2.893 2.893zm-1.11-9.924h-1.991a.576.576 0 0 1 -.574-.574v-1.976h-5.536v11.84h8.102zm-6.4 6.365a.553.553 0 1 0 -.552-.552.552.552 0 0 0 .552.552m1.554 0a.553.553 0 1 0 -.553-.552.553.553 0 0 0 .553.552m1.554 0a.553.553 0 1 0 -.553-.552.553.553 0 0 0 .553.552m1.553 0a.553.553 0 1 0 -.552-.552.553.553 0 0 0 .552.552"/></svg>