<svg xmlns="http://www.w3.org/2000/svg" viewBox="0 0 16 19" class="cf-icon-svg"><path d="M11.26 16.151h-.043a4.012 4.012 0 0 1-2.809-1.182L1.667 8.227a2.799 2.799 0 0 1 0-3.954l.065-.065a2.799 2.799 0 0 1 3.954 0l6.855 6.856a1.752 1.752 0 1 1-2.478 2.478L5.424 8.903a.554.554 0 0 1 .784-.784l4.639 4.64a.644.644 0 1 0 .91-.912L4.903 4.991a1.694 1.694 0 0 0-2.386 0l-.066.066a1.694 1.694 0 0 0 0 2.386l6.742 6.742a2.908 2.908 0 0 0 2.037.858h.031a2.76 2.76 0 0 0 2.782-2.814 2.91 2.91 0 0 0-.858-2.037l-7.03-7.03a.554.554 0 1 1 .784-.783l7.03 7.03a4.01 4.01 0 0 1 1.183 2.809 3.868 3.868 0 0 1-3.89 3.933z"/></svg>