<svg viewBox="0 0 17 19" xmlns="http://www.w3.org/2000/svg"><path d="m16.417 9.583a7.917 7.917 0 1 1 -7.917-7.917 7.917 7.917 0 0 1 7.917 7.917m-2.526 3.104a.318.318 0 0 0 -.317-.316h-.372v-.384a.318.318 0 0 0 -.316-.316h-.55v-4.457h.866a.396.396 0 0 0 .158-.76l-4.702-2.038a.396.396 0 0 0 -.315 0l-4.703 2.038a.396.396 0 0 0 .158.76h.865v4.457h-.549a.318.318 0 0 0 -.316.316v.384h-.372a.318.318 0 0 0 -.317.316v.383h10.782zm-8.436-4.733h1.502v3.717h-1.502zm5.839-1.532h-5.588l2.794-1.21zm-3.545 1.532h1.502v3.717h-1.501zm2.294 0h1.502v3.717h-1.502z"/></svg>