<svg viewBox="0 0 17 19" xmlns="http://www.w3.org/2000/svg"><path d="m16.22 5.224v8.407a.825.825 0 0 1 -1.076.839l-5.574-1.398-.325 1.3a.951.951 0 0 1 -1.152.69l-3.084-.77a.952.952 0 0 1 -.691-1.152l.326-1.304-1.473-.37h-1.916a.476.476 0 0 1 -.475-.475v-3.127a.476.476 0 0 1 .475-.475h1.916l11.973-3.004a.825.825 0 0 1 1.076.84zm-7.627 7.839c.009-.035.072-.2.049-.225-.012-.011-.06-.014-.076-.018l-.147-.037-1.05-.264-1.804-.452-.006.025a1.429 1.429 0 0 0 -.044.174l-.07.28-.152.61c-.009.035-.07.192-.047.216.01.011.058.014.072.018l.145.036 1.063.266 1.218.304.423.106c.018.004.142.05.157.038z"/></svg>