<svg xmlns="http://www.w3.org/2000/svg" viewBox="0 0 17 19" class="cf-icon-svg"><path d="M16.417 9.583A7.917 7.917 0 1 1 8.5 1.666a7.917 7.917 0 0 1 7.917 7.917zM3.107 7.189v.61h4.929a3.605 3.605 0 0 1 .512-1.402h-4.65a.794.794 0 0 0-.791.792zm9.959 4.454-.03.013A3.625 3.625 0 0 1 8.009 8.59H3.107v3.337a.794.794 0 0 0 .791.792h8.376a.794.794 0 0 0 .792-.792zm-4.927-1.13H4.887v.792h3.252zm6.32-2.197a2.833 2.833 0 1 0-1.393 2.44 2.834 2.834 0 0 0 1.392-2.44zm-1.69.634a.825.825 0 0 1-.414.713 1.322 1.322 0 0 1-.41.171v.183a.317.317 0 0 1-.633 0v-.179a1.466 1.466 0 0 1-.264-.083.94.94 0 0 1-.361-.264.317.317 0 1 1 .478-.415.318.318 0 0 0 .118.091.854.854 0 0 0 .16.052 1.257 1.257 0 0 0 .174.021.773.773 0 0 0 .393-.109c.125-.081.125-.149.125-.182a.214.214 0 0 0-.052-.138.489.489 0 0 0-.13-.104.663.663 0 0 0-.161-.058.762.762 0 0 0-.16-.016 1.623 1.623 0 0 1-.27-.022 1.246 1.246 0 0 1-.35-.113 1.014 1.014 0 0 1-.334-.267.86.86 0 0 1-.198-.54.872.872 0 0 1 .433-.738 1.305 1.305 0 0 1 .399-.162v-.175a.317.317 0 1 1 .633 0v.183a1.527 1.527 0 0 1 .27.094 1.086 1.086 0 0 1 .316.218.317.317 0 0 1-.447.448.448.448 0 0 0-.13-.089.864.864 0 0 0-.164-.057l-.018-.004a.839.839 0 0 0-.135-.023.76.76 0 0 0-.385.103.246.246 0 0 0-.139.202.238.238 0 0 0 .056.14.39.39 0 0 0 .125.1.628.628 0 0 0 .171.055 1.009 1.009 0 0 0 .167.013 1.396 1.396 0 0 1 .294.031 1.297 1.297 0 0 1 .322.116 1.12 1.12 0 0 1 .312.248.844.844 0 0 1 .209.556z"/></svg>