<svg viewBox="0 0 17 19" xmlns="http://www.w3.org/2000/svg"><path d="m16.417 9.583a7.917 7.917 0 1 1 -7.917-7.917 7.917 7.917 0 0 1 7.917 7.917m-12.214-3.907v1.551h8.594v-1.55a.35.35 0 0 0 -.348-.35h-.986v.387a1.03 1.03 0 1 1 -2.059 0v-.386h-1.804v.386a1.03 1.03 0 1 1 -2.058 0v-.386h-.99a.349.349 0 0 0 -.35.348zm8.594 8.117v-5.773h-8.594v5.774a.35.35 0 0 0 .348.349h7.898a.35.35 0 0 0 .348-.349zm-6.412-5.028h-.985v.982h.985zm0 1.743h-.985v.982h.985zm0 1.743h-.985v.982h.985zm.186-6.141a.396.396 0 0 0 .396-.396v-.89a.396.396 0 0 0 -.792 0v.89a.396.396 0 0 0 .396.396m1.538 2.655h-.986v.982h.986zm0 1.743h-.986v.982h.986zm0 1.743h-.986v.982h.986zm1.723-3.486h-.986v.982h.986zm0 1.743h-.986v.982h.986zm0 1.743h-.986v.982h.986zm.601-6.141a.396.396 0 0 0 .396-.396v-.89a.396.396 0 0 0 -.792 0v.89a.396.396 0 0 0 .396.396m1.122 2.655h-.986v.982h.986zm0 1.743h-.986v.982h.986zm0 1.743h-.986v.982h.986z"/></svg>