<svg viewBox="0 0 13 19" xmlns="http://www.w3.org/2000/svg"><path d="m11.816 3.746a.55.55 0 0 1 -.193-.035 14.657 14.657 0 0 0 -10.246-.005.554.554 0 0 1 -.386-1.04 15.767 15.767 0 0 1 11.018.006.554.554 0 0 1 -.193 1.074m-.446.922s-.311-.12-.697-.243a13.82 13.82 0 0 0 -8.202-.05c-.43.132-.84.29-.84.29a.463.463 0 0 0 -.262.61l4.943 11.95c.1.241.263.241.363 0l4.956-11.945a.464.464 0 0 0 -.26-.61zm-8.52 1.704a1.425 1.425 0 1 1 1.425 1.425 1.425 1.425 0 0 1 -1.425-1.425m3.662 6.971a1.425 1.425 0 1 1 1.425-1.425 1.425 1.425 0 0 1 -1.425 1.425m1.658-3.955a1.425 1.425 0 1 1 1.425-1.425 1.425 1.425 0 0 1 -1.425 1.425"/></svg>