<svg viewBox="0 0 17 19" xmlns="http://www.w3.org/2000/svg"><path d="m16.417 9.579a7.917 7.917 0 1 1 -7.917-7.917 7.917 7.917 0 0 1 7.917 7.917m-4.165-4.6a10.965 10.965 0 0 0 -7.662-.004.396.396 0 1 0 .275.742 10.173 10.173 0 0 1 7.11.003.396.396 0 1 0 .277-.741m-.435 1.48s-.23-.09-.498-.175a9.597 9.597 0 0 0 -5.697-.034c-.3.09-.596.205-.596.205a.308.308 0 0 0 -.175.407l3.444 8.327c.067.16.175.16.242 0l3.453-8.323a.31.31 0 0 0 -.173-.408zm-4.942 2.203a1.026 1.026 0 1 0 -1.026-1.026 1.026 1.026 0 0 0 1.026 1.026m1.546 3.852a1.026 1.026 0 1 0 -1.026-1.025 1.026 1.026 0 0 0 1.026 1.025m1.16-2.747a1.026 1.026 0 1 0 -1.026-1.026 1.026 1.026 0 0 0 1.025 1.027z"/></svg>