<svg viewBox="0 0 14 19" xmlns="http://www.w3.org/2000/svg"><path d="m2.215 16.087a1.48 1.48 0 0 1 -1.48-1.48v-6.247a1.48 1.48 0 0 1 2.96 0v6.248a1.48 1.48 0 0 1 -1.48 1.48zm9.941-8.23h-.316v-2.157l-.336-.336-2.503-2.503-.336-.337h-5.845a.476.476 0 0 0 -.474.476v2.934a2.408 2.408 0 0 1 .815.188 2.455 2.455 0 0 1 .293.148v-2.637h4.352v2.276a.632.632 0 0 0 .63.63h2.296v1.319h-6.139a2.44 2.44 0 0 1 .052.501v6.248a2.426 2.426 0 0 1 -.486 1.458h7.997a1.111 1.111 0 0 0 1.108-1.109v-5.99a1.112 1.112 0 0 0 -1.108-1.108zm-5.391 3.041a.475.475 0 1 1 -.002-.95h.002a.475.475 0 0 1 0 .95m0 1.543a.475.475 0 0 1 -.002-.95h.002a.475.475 0 0 1 0 .95m0 1.543a.475.475 0 1 1 -.002-.95h.002a.475.475 0 0 1 0 .95m1.92-3.086h-.002a.475.475 0 0 1 0-.95h.003a.475.475 0 0 1 0 .95zm0 1.543h-.002a.475.475 0 0 1 0-.95h.003a.475.475 0 0 1 0 .95zm0 1.543h-.002a.475.475 0 0 1 0-.95h.003a.475.475 0 0 1 0 .95zm1.92-3.086a.475.475 0 0 1 -.001-.95h.001a.475.475 0 1 1 0 .95m0 1.543a.475.475 0 0 1 -.001-.95h.001a.475.475 0 1 1 0 .95m0 1.543a.475.475 0 0 1 -.001-.95h.001a.475.475 0 1 1 0 .95"/></svg>