<svg viewBox="0 0 17 19" xmlns="http://www.w3.org/2000/svg"><path d="m16.417 9.583a7.917 7.917 0 1 1 -7.917-7.917 7.917 7.917 0 0 1 7.917 7.917m-2.882-2.625a.396.396 0 0 0 -.396-.396h-.855a1.58 1.58 0 0 0 -3.058 0h-5.314a.396.396 0 0 0 0 .792h5.314a1.58 1.58 0 0 0 3.058 0h.855a.396.396 0 0 0 .396-.396m0 2.63a.396.396 0 0 0 -.396-.396h-5.314a1.58 1.58 0 0 0 -3.058 0h-.855a.396.396 0 0 0 0 .792h.855a1.58 1.58 0 0 0 3.058 0h5.314a.396.396 0 0 0 .396-.396m0 2.63a.396.396 0 0 0 -.396-.396h-.855a1.58 1.58 0 0 0 -3.058 0h-5.314a.396.396 0 1 0 0 .791h5.314a1.58 1.58 0 0 0 3.058 0h.855a.396.396 0 0 0 .396-.396zm-6.452-2.63a.788.788 0 1 1 -.787-.788.788.788 0 0 1 .787.788m4.46-2.63a.787.787 0 1 1 -.788-.787.788.788 0 0 1 .787.787zm0 5.26a.787.787 0 1 1 -.788-.788.788.788 0 0 1 .787.787z"/></svg>