<svg xmlns="http://www.w3.org/2000/svg" class="cf-icon-svg cf-icon-svg__five-open" viewBox="0 0 17 19"><path d="M8.5 1.675a7.8 7.8 0 0 1 2.107.283 7.933 7.933 0 0 1 5.527 5.526 7.965 7.965 0 0 1 0 4.206 7.924 7.924 0 0 1-.8 1.891 8.07 8.07 0 0 1-1.237 1.604A7.86 7.86 0 0 1 8.5 17.508a7.777 7.777 0 0 1-2.099-.282 7.96 7.96 0 0 1-5.535-5.532 7.99 7.99 0 0 1 0-4.21 7.864 7.864 0 0 1 2.04-3.49 8.07 8.07 0 0 1 1.605-1.237 7.923 7.923 0 0 1 1.886-.8A7.753 7.753 0 0 1 8.5 1.676zm0 1.108a6.67 6.67 0 0 0-1.804.242 6.849 6.849 0 0 0-1.624.688A6.983 6.983 0 0 0 3.688 4.78a6.751 6.751 0 0 0-1.997 4.811 6.676 6.676 0 0 0 .242 1.804 6.84 6.84 0 0 0 .688 1.624 6.918 6.918 0 0 0 2.451 2.452 6.838 6.838 0 0 0 1.628.687 6.855 6.855 0 0 0 3.609 0 6.757 6.757 0 0 0 3.002-1.755 6.98 6.98 0 0 0 1.068-1.384 6.816 6.816 0 0 0 .687-1.627 6.846 6.846 0 0 0 0-3.61 6.799 6.799 0 0 0-1.752-3.004 6.8 6.8 0 0 0-3.005-1.753A6.729 6.729 0 0 0 8.5 2.783zm2.358 7.263a1.89 1.89 0 0 0-.505-.653 2.12 2.12 0 0 0-.754-.394 3.238 3.238 0 0 0-.927-.13c-.098 0-.208.005-.329.014a2.017 2.017 0 0 0-.328.051l.055-1.037h2.64V6.563H6.69l-.157 3.751a4.632 4.632 0 0 1 .8-.208 4.722 4.722 0 0 1 .802-.079 2.54 2.54 0 0 1 .482.046 1.282 1.282 0 0 1 .43.163.932.932 0 0 1 .31.31.902.902 0 0 1 .121.481.872.872 0 0 1-.291.713 1.117 1.117 0 0 1-1.362.019 1.1 1.1 0 0 1-.384-.565l-1.418.435a2.088 2.088 0 0 0 .348.7 2.221 2.221 0 0 0 .565.523 2.707 2.707 0 0 0 .732.329 3.14 3.14 0 0 0 1.782-.028 2.47 2.47 0 0 0 .81-.43 2.09 2.09 0 0 0 .57-.728 2.37 2.37 0 0 0 .213-1.042 2.091 2.091 0 0 0-.185-.907z"/></svg>