<svg xmlns="http://www.w3.org/2000/svg" viewBox="0 0 12 19" class="cf-icon-svg"><path d="M8.053 15.845a3.755 3.755 0 0 1-1.677.265 3.575 3.575 0 0 1-1.672-.265.621.621 0 0 1-.232-.49c0-.182-.006-.664-.01-1.305-2.136.464-2.587-1.03-2.587-1.03a2.033 2.033 0 0 0-.853-1.123c-.697-.477.053-.467.053-.467a1.614 1.614 0 0 1 1.176.791 1.635 1.635 0 0 0 2.235.638 1.643 1.643 0 0 1 .488-1.027c-1.705-.193-3.498-.852-3.498-3.795a2.972 2.972 0 0 1 .79-2.061 2.76 2.76 0 0 1 .076-2.032s.644-.207 2.111.787a7.272 7.272 0 0 1 3.846 0c1.466-.994 2.11-.787 2.11-.787a2.758 2.758 0 0 1 .077 2.032 2.968 2.968 0 0 1 .789 2.06c0 2.951-1.796 3.6-3.507 3.791a1.83 1.83 0 0 1 .521 1.422c0 1.026-.009 1.855-.009 2.107a.578.578 0 0 1-.227.49z"/></svg>