<svg viewBox="0 0 17 19" xmlns="http://www.w3.org/2000/svg"><path d="m16.417 9.583a7.917 7.917 0 1 1 -7.917-7.917 7.917 7.917 0 0 1 7.917 7.917m-3.667-3.892a.318.318 0 0 0 -.317-.317h-7.84a.318.318 0 0 0 -.316.317v5.563c0 2.34 4.236 3.658 4.236 3.658s4.237-1.318 4.237-3.658zm-1.655 3.374v1.062a.344.344 0 0 1 -.344.343h-1.363v1.364a.344.344 0 0 1 -.343.344h-1.061a.344.344 0 0 1 -.344-.344v-1.364h-1.364a.344.344 0 0 1 -.343-.343v-1.062a.344.344 0 0 1 .343-.343h1.364v-1.364a.344.344 0 0 1 .344-.343h1.061a.344.344 0 0 1 .343.343v1.364h1.364a.344.344 0 0 1 .344.343z"/></svg>