<svg xmlns="http://www.w3.org/2000/svg" class="cf-icon-svg cf-icon-svg__lightbulb-round" viewBox="0 0 17 19"><path d="M16.417 9.583A7.917 7.917 0 1 1 8.5 1.666a7.917 7.917 0 0 1 7.917 7.917zm-4.231-1.918a3.692 3.692 0 1 0-7.384 0 3.748 3.748 0 0 0 .389 1.665 7.163 7.163 0 0 0 .723 1.137 2.128 2.128 0 0 1 .483.857v.817a.633.633 0 0 0 .634.633h2.926a.633.633 0 0 0 .633-.633v-.817a2.125 2.125 0 0 1 .483-.857 7.142 7.142 0 0 0 .724-1.137 3.748 3.748 0 0 0 .389-1.665zm-1.913 5.942a.317.317 0 0 0-.316-.316H7.03a.317.317 0 1 0 0 .633h2.926a.317.317 0 0 0 .316-.317zm-.473.933a.158.158 0 0 0-.15-.107H7.298a.158.158 0 0 0-.098.283 2.075 2.075 0 0 0 2.547 0 .158.158 0 0 0 .053-.176z"/></svg>