<svg viewBox="0 0 17 19" xmlns="http://www.w3.org/2000/svg"><path d="m16.417 9.583a7.917 7.917 0 1 1 -7.917-7.917 7.917 7.917 0 0 1 7.917 7.917m-2.572 2.526a1.178 1.178 0 0 0 -.347-.84l-2.048-2.047a1.19 1.19 0 0 0 -1.68 0l-.607.607-.937-.938.6-.6a1.19 1.19 0 0 0 0-1.68l-2.044-2.047a1.19 1.19 0 0 0 -1.68 0l-1.768 1.768a1.19 1.19 0 0 0 0 1.679l2.047 2.047a1.19 1.19 0 0 0 1.68 0l.606-.607.938.938-.601.6a1.19 1.19 0 0 0 0 1.68l2.047 2.047a1.19 1.19 0 0 0 1.68 0l1.767-1.768a1.179 1.179 0 0 0 .347-.84zm-5.577-4.379-.6.6-.82-.818a.396.396 0 0 0 -.559.56l.818.818-.607.607a.396.396 0 0 1 -.56 0l-2.046-2.046a.398.398 0 0 1 0-.56l1.768-1.767a.396.396 0 0 1 .56 0l2.047 2.047a.398.398 0 0 1 0 .56zm4.67 4.098a.398.398 0 0 1 0 .56l-1.767 1.767a.398.398 0 0 1 -.56 0l-2.047-2.047a.398.398 0 0 1 0-.56l.6-.6.819.818a.396.396 0 1 0 .56-.56l-.819-.818.607-.608a.4.4 0 0 1 .56 0z"/></svg>