<svg viewBox="0 0 17 19" xmlns="http://www.w3.org/2000/svg"><path d="m16.417 9.583a7.917 7.917 0 1 1 -7.917-7.917 7.917 7.917 0 0 1 7.917 7.917m-11.253-3.413a.792.792 0 0 0 -.792-.792h-.002a.792.792 0 0 0 0 1.583h.002a.792.792 0 0 0 .792-.791m0 3.475a.792.792 0 0 0 -.792-.791h-.002a.792.792 0 0 0 0 1.583h.002a.792.792 0 0 0 .792-.792m0 3.476a.792.792 0 0 0 -.792-.791h-.002a.792.792 0 1 0 0 1.583h.002a.792.792 0 0 0 .792-.792m8.286-6.951a.792.792 0 0 0 -.792-.791h-5.736a.792.792 0 1 0 0 1.583h5.736a.792.792 0 0 0 .792-.791zm0 3.476a.792.792 0 0 0 -.792-.791h-5.736a.792.792 0 1 0 0 1.583h5.736a.792.792 0 0 0 .792-.792m0 3.476a.792.792 0 0 0 -.792-.791h-5.736a.792.792 0 1 0 0 1.583h5.736a.792.792 0 0 0 .792-.792"/></svg>