<svg xmlns="http://www.w3.org/2000/svg" class="cf-icon-svg cf-icon-svg__list-round" viewBox="0 0 17 19"><path d="M16.417 9.583A7.917 7.917 0 1 1 8.5 1.666a7.917 7.917 0 0 1 7.917 7.917zM5.164 6.17a.792.792 0 0 0-.792-.792H4.37a.792.792 0 0 0 0 1.583h.002a.792.792 0 0 0 .792-.791zm0 3.475a.792.792 0 0 0-.792-.791H4.37a.792.792 0 0 0 0 1.583h.002a.792.792 0 0 0 .792-.792zm0 3.476a.792.792 0 0 0-.792-.791H4.37a.792.792 0 1 0 0 1.583h.002a.792.792 0 0 0 .792-.792zM13.45 6.17a.792.792 0 0 0-.792-.791H6.922a.792.792 0 1 0 0 1.583h5.736a.792.792 0 0 0 .792-.791zm0 3.476a.792.792 0 0 0-.792-.791H6.922a.792.792 0 1 0 0 1.583h5.736a.792.792 0 0 0 .792-.792zm0 3.476a.792.792 0 0 0-.792-.791H6.922a.792.792 0 1 0 0 1.583h5.736a.792.792 0 0 0 .792-.792z"/></svg>