<svg xmlns="http://www.w3.org/2000/svg" viewBox="0 0 784.5 1200" class="cf-icon-svg"><path d="M65.2 240.4H65c-35.9 0-65 29.1-65 65s29.1 65 65 65h.2c35.9 0 65-29.1 65-65s-29.1-64.9-65-65zm0 274.6H65c-35.9 0-65 29.1-65 65s29.1 65 65 65h.2c35.9 0 65-29.1 65-65s-29.1-65-65-65zm0 274.4H65c-35.9 0-65 29.1-65 65s29.1 65 65 65h.2c35.9 0 65-29.1 65-65s-29.1-65-65-65zm201.3-418.9h453c35.9 0 65-29.1 65-65s-29.1-65-65-65h-453c-35.9 0-65 29.1-65 65s29.1 65 65 65zm453 144.5h-453c-35.9 0-65 29.1-65 65s29.1 65 65 65h453c35.9 0 65-29.1 65-65s-29.1-65-65-65zm0 274.4h-453c-35.9 0-65 29.1-65 65s29.1 65 65 65h453c35.9 0 65-29.1 65-65s-29.1-65-65-65z"/></svg>