<svg viewBox="0 0 13 19" xmlns="http://www.w3.org/2000/svg"><path d="m11.665 7.915v1.31a5.257 5.257 0 0 1 -1.514 3.694 5.174 5.174 0 0 1 -1.641 1.126 5.04 5.04 0 0 1 -1.456.384v1.899h2.312a.554.554 0 0 1 0 1.108h-5.732a.554.554 0 0 1 0-1.108h2.312v-1.899a5.045 5.045 0 0 1 -1.456-.384 5.174 5.174 0 0 1 -1.641-1.126 5.257 5.257 0 0 1 -1.514-3.695v-1.31a.554.554 0 1 1 1.109 0v1.31a4.131 4.131 0 0 0 1.195 2.917 3.989 3.989 0 0 0 5.722 0 4.133 4.133 0 0 0 1.195-2.917v-1.31a.554.554 0 1 1 1.109 0zm-7.895 2.455a2.875 2.875 0 0 1 -.233-1.146v-4.486a2.905 2.905 0 0 1 .233-1.158 3 3 0 0 1 1.59-1.59 2.902 2.902 0 0 1 1.158-.233 2.865 2.865 0 0 1 1.152.233 2.977 2.977 0 0 1 1.793 2.748l-.012 4.487a2.958 2.958 0 0 1 -.856 2.09 3.025 3.025 0 0 1 -.937.634 2.865 2.865 0 0 1 -1.152.233 2.905 2.905 0 0 1 -1.158-.233 2.957 2.957 0 0 1 -1.578-1.579"/></svg>