<svg viewBox="0 0 17 19" xmlns="http://www.w3.org/2000/svg"><path d="m16.417 9.583a7.917 7.917 0 1 1 -7.917-7.917 7.917 7.917 0 0 1 7.917 7.917m-2.983-2.172a.318.318 0 0 0 -.316-.317h-9.228a.318.318 0 0 0 -.317.317v4.36a.318.318 0 0 0 .317.316h9.227a.318.318 0 0 0 .316-.316zm-2.936 2.18a1.986 1.986 0 1 1 -.157-.776 1.98 1.98 0 0 1 .157.776m-3.512-3.777a.317.317 0 0 0 .448 0l.744-.745v.9a.317.317 0 1 0 .633 0v-.9l.745.745a.317.317 0 1 0 .448-.448l-1.285-1.286a.317.317 0 0 0 -.448 0l-1.285 1.286a.316.316 0 0 0 0 .448m3.018 8.002a.317.317 0 1 0 -.448-.448l-.745.744v-.9a.317.317 0 0 0 -.633 0v.9l-.744-.744a.317.317 0 0 0 -.448.448l1.285 1.284a.317.317 0 0 0 .448 0l1.285-1.285zm-.912-3.135a.663.663 0 0 0 .33-.569.673.673 0 0 0 -.166-.442.906.906 0 0 0 -.25-.2 1.056 1.056 0 0 0 -.26-.093 1.134 1.134 0 0 0 -.237-.025.853.853 0 0 1 -.142-.011.535.535 0 0 1 -.148-.048.347.347 0 0 1 -.11-.089.219.219 0 0 1 -.052-.13.223.223 0 0 1 .125-.187.644.644 0 0 1 .33-.089.675.675 0 0 1 .117.02l.014.003a.738.738 0 0 1 .142.049.395.395 0 0 1 .113.078.237.237 0 1 0 .336-.336.867.867 0 0 0 -.254-.175 1.197 1.197 0 0 0 -.236-.08h-.001v-.234a.237.237 0 0 0 -.475 0v.227a1.06 1.06 0 0 0 -.34.135.696.696 0 0 0 -.346.588.686.686 0 0 0 .158.431.814.814 0 0 0 .267.214 1.003 1.003 0 0 0 .282.092 1.326 1.326 0 0 0 .22.017.65.65 0 0 1 .136.014.574.574 0 0 1 .14.05.421.421 0 0 1 .113.092.2.2 0 0 1 .05.13c0 .047-.014.104-.115.17a.65.65 0 0 1 -.337.093 1.03 1.03 0 0 1 -.148-.018.706.706 0 0 1 -.137-.044.283.283 0 0 1 -.106-.081.238.238 0 0 0 -.359.31.751.751 0 0 0 .289.212 1.14 1.14 0 0 0 .232.071h.001v.233a.237.237 0 0 0 .475 0v-.236a1.073 1.073 0 0 0 .349-.142"/></svg>