<svg viewBox="0 0 17 19" xmlns="http://www.w3.org/2000/svg"><path d="m10.603 1.966a8.006 8.006 0 0 1 1.895.795 7.926 7.926 0 0 1 3.636 8.938 8.103 8.103 0 0 1 -.795 1.895 7.69 7.69 0 0 1 -1.237 1.604 8.08 8.08 0 0 1 -1.604 1.236 7.883 7.883 0 0 1 -4.007 1.083 7.778 7.778 0 0 1 -2.099-.283 7.937 7.937 0 0 1 -5.526-5.534 7.882 7.882 0 0 1 .8-6.101 8.111 8.111 0 0 1 1.237-1.6 7.736 7.736 0 0 1 1.599-1.237 8.037 8.037 0 0 1 1.886-.795 7.754 7.754 0 0 1 2.103-.282 7.849 7.849 0 0 1 2.112.282zm-3.915 1.068a6.95 6.95 0 0 0 -1.628.685 6.66 6.66 0 0 0 -1.372 1.06 7.048 7.048 0 0 0 -1.068 1.383 6.83 6.83 0 0 0 -.687 5.24 6.818 6.818 0 0 0 4.758 4.766 6.691 6.691 0 0 0 1.8.242 6.776 6.776 0 0 0 3.446-.93 7.002 7.002 0 0 0 1.383-1.067 6.618 6.618 0 0 0 1.06-1.374 7.02 7.02 0 0 0 .686-1.637 6.88 6.88 0 0 0 0-3.619 6.748 6.748 0 0 0 -1.748-3 6.778 6.778 0 0 0 -1.378-1.063 6.939 6.939 0 0 0 -1.634-.685 6.771 6.771 0 0 0 -1.815-.242 6.666 6.666 0 0 0 -1.803.242zm4.278 4.733a2.23 2.23 0 0 0 -.55-.741 2.398 2.398 0 0 0 -.818-.468 3.185 3.185 0 0 0 -2.006 0 2.45 2.45 0 0 0 -.823.468 2.184 2.184 0 0 0 -.555.75 2.378 2.378 0 0 0 -.203 1 2.108 2.108 0 0 0 .647 1.552 2.083 2.083 0 0 0 .684.435 2.223 2.223 0 0 0 .823.152 1.603 1.603 0 0 0 .236-.018 1.163 1.163 0 0 0 .226-.056l-.018.028-1.631 2.26h1.878l1.583-2.362a6.124 6.124 0 0 0 .527-.967 2.67 2.67 0 0 0 .204-1.06 2.268 2.268 0 0 0 -.204-.973m-1.632 1.703a1.02 1.02 0 0 1 -.753.287.982.982 0 0 1 -.744-.292 1.021 1.021 0 0 1 -.28-.736 1.05 1.05 0 0 1 .284-.764 1.01 1.01 0 0 1 .759-.292.949.949 0 0 1 .749.31 1.076 1.076 0 0 1 .274.737 1.011 1.011 0 0 1 -.289.75"/></svg>