<svg xmlns="http://www.w3.org/2000/svg" viewBox="0 0 16 19" class="cf-icon-svg"><path d="M6.808 11.29a3.19 3.19 0 0 1 .097 1.464 3.236 3.236 0 0 1-.535 1.277 3.15 3.15 0 0 1-2.286 1.316 3.43 3.43 0 0 1-2.628-.836A3.905 3.905 0 0 1 .26 12.269a4.433 4.433 0 0 1-.052-.653 5.807 5.807 0 0 1 .027-.74 5.497 5.497 0 0 1 .33-1.388 5.684 5.684 0 0 1 1.498-2.193A6.744 6.744 0 0 1 4.41 5.923q.344-.118.699-.201a1.241 1.241 0 0 1 .606-.046.792.792 0 0 1-.066 1.548 5.624 5.624 0 0 0-1.356.458 4.567 4.567 0 0 0-1.988 1.812 3.05 3.05 0 0 1 .998-.367 3.092 3.092 0 0 1 3.248 1.552 3.057 3.057 0 0 1 .257.611zm8.941.435a3.053 3.053 0 0 1 .038.708 3.185 3.185 0 0 1-1.207 2.265 3.334 3.334 0 0 1-2.609.615 3.375 3.375 0 0 1-2.165-1.35 3.722 3.722 0 0 1-.55-1.085 4.446 4.446 0 0 1-.203-1.224 5.63 5.63 0 0 1 .567-2.656 5.76 5.76 0 0 1 1.598-1.967 6.88 6.88 0 0 1 2.357-1.21 4.863 4.863 0 0 1 .676-.162.792.792 0 0 1 .602 1.404 1.277 1.277 0 0 1-.542.201 5.487 5.487 0 0 0-1.278.47 4.536 4.536 0 0 0-1.885 1.76 3.051 3.051 0 0 1 1.242-.4 3.098 3.098 0 0 1 3.359 2.631z"/></svg>