<svg viewBox="0 0 17 19" xmlns="http://www.w3.org/2000/svg"><path d="m16.417 9.583a7.917 7.917 0 1 1 -7.917-7.917 7.917 7.917 0 0 1 7.917 7.917m-5.129 4.093a3.52 3.52 0 0 1 -.081.001 2.969 2.969 0 0 1 -1.683-.52h-4.11v-.59h3.473a2.965 2.965 0 0 1 -.425-.709l-.016-.039h-3.032v-.59h2.861a2.993 2.993 0 0 1 -.047-.53 2.98 2.98 0 0 1 1.71-2.695h-1.48v-.634h1.55a.916.916 0 0 1 .83-.537l.45-.002v-1.57a.318.318 0 0 0 -.316-.316h-6.148a.318.318 0 0 0 -.317.316v8.606a.318.318 0 0 0 .317.317h6.148a.318.318 0 0 0 .316-.317zm-3.647-5.381a.9.9 0 0 1 .223.592.887.887 0 0 1 -.443.76 1.433 1.433 0 0 1 -.469.192v.229a.317.317 0 0 1 -.633 0v-.226h-.003a1.516 1.516 0 0 1 -.31-.095 1.006 1.006 0 0 1 -.387-.283.317.317 0 1 1 .478-.415.383.383 0 0 0 .143.11.956.956 0 0 0 .185.059 1.407 1.407 0 0 0 .198.024.875.875 0 0 0 .453-.126c.136-.088.154-.165.154-.23a.271.271 0 0 0 -.066-.175.576.576 0 0 0 -.154-.123.782.782 0 0 0 -.187-.067.884.884 0 0 0 -.183-.019 1.761 1.761 0 0 1 -.295-.023 1.342 1.342 0 0 1 -.378-.122 1.09 1.09 0 0 1 -.357-.287.92.92 0 0 1 -.212-.577.932.932 0 0 1 .464-.787 1.418 1.418 0 0 1 .457-.182v-.22a.317.317 0 1 1 .633 0v.23h.003a1.598 1.598 0 0 1 .315.108 1.162 1.162 0 0 1 .34.234.317.317 0 1 1 -.447.448.532.532 0 0 0 -.153-.105.99.99 0 0 0 -.19-.066l-.019-.004a.917.917 0 0 0 -.157-.027.864.864 0 0 0 -.444.12.3.3 0 0 0 -.169.251.294.294 0 0 0 .07.177.466.466 0 0 0 .15.12.726.726 0 0 0 .198.064 1.129 1.129 0 0 0 .19.015 1.51 1.51 0 0 1 .319.033 1.406 1.406 0 0 1 .347.126 1.207 1.207 0 0 1 .336.267m2.76-2.248h-1.943v.633h1.942zm.806 6.997a2.345 2.345 0 0 0 1.851-3.785l.233-.233a.317.317 0 1 0 -.448-.447l-.237.237a2.333 2.333 0 0 0 -1.083-.442v-.313h.05a.317.317 0 0 0 0-.633h-.002l-.731.003a.317.317 0 0 0 0 .633h.05v.31a2.345 2.345 0 0 0 .317 4.67m1.096-1.718a.317.317 0 0 1 -.448.448l-.848-.849a.316.316 0 0 1 -.117-.245v-1.323a.317.317 0 1 1 .633 0v1.19l.78.778z"/></svg>