<svg xmlns="http://www.w3.org/2000/svg" viewBox="0 0 14 19" class="cf-icon-svg"><path d="M8.978 14.043a4.224 4.224 0 0 0 1.077.139h.032v1.03a.435.435 0 0 1-.434.433H1.094a.435.435 0 0 1-.434-.434V3.237a.435.435 0 0 1 .434-.434h8.559a.435.435 0 0 1 .434.434v1.38l-.55.002a1.334 1.334 0 0 0-.559.124v-.832h-7.21v10.626h7.21v-.494zM4.995 7.452a1.068 1.068 0 0 1 .264.702 1.044 1.044 0 0 1-.524.902 1.677 1.677 0 0 1-.525.219v.238a.396.396 0 1 1-.792 0V9.28a1.844 1.844 0 0 1-.341-.107 1.19 1.19 0 0 1-.457-.335.396.396 0 1 1 .599-.518.413.413 0 0 0 .152.118 1.089 1.089 0 0 0 .205.066 1.616 1.616 0 0 0 .223.027.975.975 0 0 0 .505-.14c.163-.105.163-.194.163-.237a.28.28 0 0 0-.069-.181.637.637 0 0 0-.167-.135.86.86 0 0 0-.208-.074.98.98 0 0 0-.204-.02 2.058 2.058 0 0 1-.344-.028 1.575 1.575 0 0 1-.444-.143 1.287 1.287 0 0 1-.422-.34 1.09 1.09 0 0 1-.25-.682 1.103 1.103 0 0 1 .548-.933 1.66 1.66 0 0 1 .511-.208v-.228a.396.396 0 0 1 .792 0v.239a1.904 1.904 0 0 1 .348.121 1.369 1.369 0 0 1 .4.276.396.396 0 0 1-.559.56.578.578 0 0 0-.166-.114 1.121 1.121 0 0 0-.212-.074l-.023-.005a1.057 1.057 0 0 0-.174-.03.977.977 0 0 0-.494.132.32.32 0 0 0-.18.264.31.31 0 0 0 .074.183.503.503 0 0 0 .161.13.796.796 0 0 0 .22.071 1.27 1.27 0 0 0 .214.017 1.774 1.774 0 0 1 .373.038 1.654 1.654 0 0 1 .407.148 1.423 1.423 0 0 1 .396.314zm.881 3.186a4.195 4.195 0 0 0 .274.95H2.399v-.95zm1.184 2.303a4.25 4.25 0 0 0 .656.537H2.4v-.95h4.298a4.28 4.28 0 0 0 .363.413zm1.291-7.974H5.885v.95H8.35zm-1.193 1.89q-.05.047-.098.095a4.229 4.229 0 0 0-.661.856h-.514v-.95zm5.51 1.099a3.285 3.285 0 1 1-3.088-1.26v-.259h-.038a.475.475 0 0 1-.002-.95l1.026-.003h.001a.475.475 0 0 1 .002.95h-.04v.262a3.266 3.266 0 0 1 1.46.595l.336-.336a.475.475 0 0 1 .671.672l-.328.328zm-1.056 3.519a.475.475 0 0 0 0-.672L10.53 9.72V8.067a.475.475 0 0 0-.95 0V9.92a.474.474 0 0 0 .174.368l1.186 1.186a.475.475 0 0 0 .672 0z"/></svg>