<svg xmlns="http://www.w3.org/2000/svg" viewBox="0 0 17 19" class="cf-icon-svg cf-icon-svg__percentage-round"><path d="M16.417 9.583a7.916 7.916 0 1 1-15.833 0 7.916 7.916 0 0 1 15.833 0ZM5.909 8.836c1 0 1.812-.813 1.812-1.813 0-.999-.813-1.812-1.812-1.812-1 0-1.812.813-1.812 1.812 0 1 .813 1.813 1.812 1.813Zm0-1.109a.705.705 0 1 1 .002-1.41.705.705 0 0 1-.002 1.41Zm5.72-1.402a.792.792 0 0 0-1.316-.88l-4.924 7.372a.792.792 0 0 0 1.317.88l4.923-7.372Zm1.286 5.837c0-1-.813-1.812-1.812-1.812-1 0-1.812.813-1.812 1.812 0 1 .813 1.812 1.812 1.812 1 0 1.812-.813 1.812-1.812Zm-1.109 0a.705.705 0 1 1-1.409-.001.705.705 0 0 1 1.41.001Z"/></svg>