<svg viewBox="0 0 16 19" xmlns="http://www.w3.org/2000/svg"><path d="m14.654 5.775-4.714 2.724-.118-.204a2.13 2.13 0 0 1 -.283-1.092 16.37 16.37 0 0 0 -4.873 2.825 2.122 2.122 0 0 1 .795.785l.119.204-4.716 2.724-.118-.204a2.43 2.43 0 0 1 .481-2.881 16 16 0 0 1 4.743-4.046 15.82 15.82 0 0 1 6.076-2.11 2.839 2.839 0 0 1 .397-.035l.062-.004v.004a2.311 2.311 0 0 1 2.031 1.106zm-13.237 8.925 4.716-2.724.249.432a.606.606 0 0 1 -.22.825l-3.67 2.12a.606.606 0 0 1 -.825-.221zm14.04-7.535a.606.606 0 0 1 -.22.826l-3.67 2.12a.606.606 0 0 1 -.825-.222l-.25-.431 4.716-2.724z"/></svg>