<svg xmlns="http://www.w3.org/2000/svg" viewBox="0 0 1000 1200" class="cf-icon-svg"><path d="M420.83 451.24h134.66a24.82 24.82 0 100-49.63H420.83a24.82 24.82 0 100 49.63zm173.41 77.29a27.8 27.8 0 00-38 10.17l-83.12 144L441 644.09a27.78 27.78 0 10-42.7 35.56l57.7 69.19a27.73 27.73 0 0021.35 10c.8 0 1.61 0 2.35-.1A27.78 27.78 0 00501.37 745l103-178.48a27.81 27.81 0 00-10.13-37.99z"/><path d="M500 100C223.86 100 0 323.86 0 600s223.86 500 500 500 500-223.86 500-500-223.86-500-500-500zm351.07 519.92a58.09 58.09 0 01-57.89 57.93H766a242.79 242.79 0 01-59.24 96.51q-6.11 6.17-12.7 11.83v102.7a24.85 24.85 0 01-24.82 24.79h-76.16a24.86 24.86 0 01-24.82-24.79v-45.64a240.33 240.33 0 01-33.51 2.37H432.68a240.29 240.29 0 01-33.48-2.37v45.63a24.85 24.85 0 01-24.82 24.79h-76.16a24.86 24.86 0 01-24.82-24.79v-102.7q-6.57-5.66-12.73-11.83a243.32 243.32 0 01-66.61-124.83 47.23 47.23 0 010-94.36 243.21 243.21 0 01238.62-196.09h102.07a242.84 242.84 0 0149.07 5l133-77.39a12.92 12.92 0 018.25-1.68 13.19 13.19 0 0111.48 14.72 13.5 13.5 0 01-1.41 4.54 227.35 227.35 0 00-24.57 129.94A242.9 242.9 0 01766 526.84h27.18a58.08 58.08 0 0157.89 57.89z"/></svg>