<svg viewBox="0 0 15 19" xmlns="http://www.w3.org/2000/svg"><path d="m14.22 8.957a1.163 1.163 0 0 0 -1.16-1.16h-.45a4.654 4.654 0 0 0 -1.061-1.772 4.346 4.346 0 0 1 .47-2.488.253.253 0 0 0 -.351-.336l-2.546 1.481a4.646 4.646 0 0 0 -.939-.096h-1.953a4.657 4.657 0 0 0 -4.569 3.754.904.904 0 0 0 0 1.807 4.656 4.656 0 0 0 1.276 2.39q.117.117.243.226v1.977a.465.465 0 0 0 .463.464h1.482a.465.465 0 0 0 .463-.464v-.884a4.636 4.636 0 0 0 .641.045h1.954a4.639 4.639 0 0 0 .641-.045v.884a.465.465 0 0 0 .464.464h1.48a.465.465 0 0 0 .464-.464v-1.977q.126-.109.244-.226a4.659 4.659 0 0 0 1.134-1.848h.45a1.163 1.163 0 0 0 1.16-1.16zm-5.64-3.668a.464.464 0 1 1 0 .927h-2.578a.464.464 0 1 1 0-.928h2.578zm.71 2.567a.53.53 0 0 0 -.725.194l-1.585 2.747-.613-.736a.53.53 0 0 0 -.815.678l1.101 1.32a.529.529 0 0 0 .407.19.345.345 0 0 0 .045-.002.53.53 0 0 0 .413-.262l1.965-3.404a.53.53 0 0 0 -.193-.725" fill-rule="evenodd"/></svg>