<svg xmlns="http://www.w3.org/2000/svg" viewBox="0 0 17 19" class="cf-icon-svg cf-icon-svg__power-round"><path d="M16.416 9.583a7.916 7.916 0 1 1-15.833 0 7.916 7.916 0 0 1 15.833 0Zm-2.854-.455a5.154 5.154 0 0 0-1.01-2.474 5.008 5.008 0 0 0-.97-.97.791.791 0 1 0-.953 1.264c.244.184.467.408.663.666.196.257.354.534.468.821a3.506 3.506 0 0 1-.463 3.445c-.185.246-.41.47-.667.666a3.478 3.478 0 0 1-.82.467c-.29.115-.59.193-.889.23a3.431 3.431 0 0 1-.895-.005 3.54 3.54 0 0 1-1.667-.69 3.5 3.5 0 0 1-.668-.672 3.464 3.464 0 0 1-.69-1.7 3.553 3.553 0 0 1 .241-1.77c.115-.28.269-.547.457-.795.185-.245.41-.47.668-.665a.792.792 0 0 0-.959-1.26 5.056 5.056 0 0 0-1.63 2.117 5.104 5.104 0 0 0 5.34 7.012 5.23 5.23 0 0 0 1.278-.33c.42-.168.82-.396 1.193-.679s.699-.61.972-.97c.27-.356.49-.74.656-1.143a5.118 5.118 0 0 0 .345-2.565Zm-5.858-.223a.792.792 0 1 0 1.584 0V4.729a.792.792 0 1 0-1.584 0v4.176Z"/></svg>