<svg viewBox="0 0 13 19" xmlns="http://www.w3.org/2000/svg"><path d="m12.48 3.638v11.096a.476.476 0 0 1 -.475.475h-11.01a.476.476 0 0 1 -.475-.475v-11.096a.476.476 0 0 1 .475-.475h11.01a.476.476 0 0 1 .475.475m-10.628 5.35v.247h9.296v-.245a1.112 1.112 0 0 0 -1.108-1.11h-7.08a1.112 1.112 0 0 0 -1.108 1.108m9.296 3.685v-2.33h-9.296v2.33a1.112 1.112 0 0 0 1.108 1.107h7.08a1.112 1.112 0 0 0 1.108-1.108zm-4.864-1.135h-3.034v1.109h3.035zm-.584-6.613a.792.792 0 1 0 .792-.791.792.792 0 0 0 -.792.791"/></svg>