<svg xmlns="http://www.w3.org/2000/svg" class="cf-icon-svg cf-icon-svg__quick-cash" viewBox="0 0 15 19"><path d="M14.048 10.55a6.548 6.548 0 1 1-7.102-6.525V3.16l-.466.002h-.002a.554.554 0 0 1-.002-1.109l2.044-.007h.002a.554.554 0 0 1 .001 1.108l-.469.002v.868a6.517 6.517 0 0 1 3.614 1.474l.634-.634a.554.554 0 0 1 .784.783l-.626.626a6.522 6.522 0 0 1 1.588 4.276zm-1.059 0A5.49 5.49 0 1 0 7.5 16.04a5.49 5.49 0 0 0 5.49-5.49zm-1.108 0a4.364 4.364 0 1 1-.344-1.705 4.352 4.352 0 0 1 .344 1.705zM9.38 11.668a1.375 1.375 0 0 0-.34-.904 1.848 1.848 0 0 0-.512-.407l-.002-.001a2.156 2.156 0 0 0-.532-.193 2.317 2.317 0 0 0-.487-.05 1.78 1.78 0 0 1-.296-.023 1.126 1.126 0 0 1-.31-.1.733.733 0 0 1-.234-.188.467.467 0 0 1-.11-.281.475.475 0 0 1 .265-.4 1.346 1.346 0 0 1 .692-.185 1.41 1.41 0 0 1 .245.04l.03.007a1.546 1.546 0 0 1 .294.103.834.834 0 0 1 .24.164.475.475 0 1 0 .67-.672 1.782 1.782 0 0 0-.52-.358 2.454 2.454 0 0 0-.483-.165l-.015-.003v-.496a.475.475 0 0 0-.95 0v.482a2.184 2.184 0 0 0-.71.28 1.423 1.423 0 0 0-.709 1.203 1.404 1.404 0 0 0 .323.88 1.666 1.666 0 0 0 .547.439 2.05 2.05 0 0 0 .579.187 2.708 2.708 0 0 0 .452.036 1.37 1.37 0 0 1 .285.029 1.192 1.192 0 0 1 .292.105.905.905 0 0 1 .24.192.43.43 0 0 1 .106.279c0 .062 0 .207-.244.365a1.363 1.363 0 0 1-.706.196 2.182 2.182 0 0 1-.307-.038 1.493 1.493 0 0 1-.287-.091.604.604 0 0 1-.225-.173.475.475 0 1 0-.718.622 1.536 1.536 0 0 0 .59.433 2.325 2.325 0 0 0 .476.145l.016.003v.494a.475.475 0 0 0 .95 0v-.499a2.203 2.203 0 0 0 .728-.295 1.355 1.355 0 0 0 .677-1.162z"/></svg>