<svg xmlns="http://www.w3.org/2000/svg" viewBox="0 0 15 19" class="cf-icon-svg"><path d="M13.112 7.798a1.112 1.112 0 0 1 1.108 1.108v.674a1.112 1.112 0 0 1-1.108 1.108h-.52a4.657 4.657 0 0 1-1.134 1.848q-.118.117-.243.226v1.966a.476.476 0 0 1-.475.475H9.281a.476.476 0 0 1-.475-.475v-.873a4.664 4.664 0 0 1-.64.044H6.212a4.664 4.664 0 0 1-.641-.044v.873a.476.476 0 0 1-.475.475H3.637a.476.476 0 0 1-.475-.475v-1.966q-.125-.109-.243-.226a4.656 4.656 0 0 1-1.275-2.39.904.904 0 0 1 0-1.806 4.656 4.656 0 0 1 4.568-3.754h1.954a4.653 4.653 0 0 1 .939.096l2.545-1.481a.253.253 0 0 1 .378.25.256.256 0 0 1-.027.087 4.345 4.345 0 0 0-.47 2.486 4.657 4.657 0 0 1 1.061 1.774h.52zM9.037 5.876a.475.475 0 0 0-.475-.475H5.984a.475.475 0 1 0 0 .95h2.578a.475.475 0 0 0 .475-.475zm-.248 5.141a1.142 1.142 0 0 0-.283-.75 1.533 1.533 0 0 0-.426-.34 1.792 1.792 0 0 0-.441-.16 1.924 1.924 0 0 0-.405-.041 1.475 1.475 0 0 1-.245-.02.936.936 0 0 1-.256-.082.606.606 0 0 1-.193-.155.385.385 0 0 1-.091-.232.392.392 0 0 1 .22-.329 1.114 1.114 0 0 1 .571-.153 1.168 1.168 0 0 1 .203.033l.024.006a1.28 1.28 0 0 1 .244.085.683.683 0 0 1 .198.136.396.396 0 1 0 .56-.561 1.477 1.477 0 0 0-.433-.297 2.035 2.035 0 0 0-.4-.137l-.011-.002v-.3a.396.396 0 0 0-.792 0v.288a1.813 1.813 0 0 0-.588.233 1.182 1.182 0 0 0-.588.998 1.166 1.166 0 0 0 .268.731 1.388 1.388 0 0 0 .454.364 1.71 1.71 0 0 0 .48.156 2.262 2.262 0 0 0 .375.03 1.128 1.128 0 0 1 .237.023.975.975 0 0 1 .24.087.746.746 0 0 1 .2.16.355.355 0 0 1 .086.229c0 .051 0 .17-.2.3a1.128 1.128 0 0 1-.585.163 1.832 1.832 0 0 1-.254-.031 1.24 1.24 0 0 1-.237-.076.497.497 0 0 1-.186-.143.396.396 0 0 0-.599.518 1.276 1.276 0 0 0 .49.36 1.926 1.926 0 0 0 .396.12l.01.003v.295a.396.396 0 1 0 .793 0v-.3a1.827 1.827 0 0 0 .602-.244 1.125 1.125 0 0 0 .562-.965z"/></svg>