<svg viewBox="0 0 17 19" xmlns="http://www.w3.org/2000/svg"><path d="m8.5 1.684a7.802 7.802 0 0 1 2.108.282 7.93 7.93 0 0 1 5.526 5.527 7.998 7.998 0 0 1 0 4.215 7.913 7.913 0 0 1 -2.037 3.49 7.91 7.91 0 0 1 -3.49 2.036 7.998 7.998 0 0 1 -4.214 0 7.934 7.934 0 0 1 -5.527-5.527 7.998 7.998 0 0 1 0-4.215 7.932 7.932 0 0 1 5.527-5.526 7.8 7.8 0 0 1 2.107-.283zm0 1.108a6.726 6.726 0 0 0 -1.809.242 6.825 6.825 0 0 0 -1.627.687 6.87 6.87 0 0 0 -2.444 2.443 6.824 6.824 0 0 0 -.688 1.627 6.887 6.887 0 0 0 0 3.618 6.803 6.803 0 0 0 1.753 3.005 6.798 6.798 0 0 0 3.005 1.753 6.888 6.888 0 0 0 3.618 0 6.826 6.826 0 0 0 4.758-4.758 6.888 6.888 0 0 0 0-3.618 6.825 6.825 0 0 0 -4.758-4.757 6.727 6.727 0 0 0 -1.808-.242m2.55 5.02v-1.24h-4.76v1.334h3.102l-2.658 5.223h1.806z"/></svg>