<svg xmlns="http://www.w3.org/2000/svg" viewBox="0 0 17 19" class="cf-icon-svg"><path d="M8.509 1.684a7.766 7.766 0 0 1 2.098.282 7.933 7.933 0 0 1 5.527 5.527 7.964 7.964 0 0 1 0 4.206 8.012 8.012 0 0 1-.8 1.895 7.925 7.925 0 0 1-4.727 3.64 7.972 7.972 0 0 1-4.205 0 8.01 8.01 0 0 1-1.896-.8 7.908 7.908 0 0 1-2.84-2.84 7.997 7.997 0 0 1-.8-1.896 7.99 7.99 0 0 1 0-4.21 7.938 7.938 0 0 1 5.536-5.522 7.796 7.796 0 0 1 2.107-.283zm0 1.108a6.725 6.725 0 0 0-1.81.242 6.905 6.905 0 0 0-1.633.688 6.825 6.825 0 0 0-3.133 4.066 6.87 6.87 0 0 0 0 3.612 6.912 6.912 0 0 0 .69 1.634 6.806 6.806 0 0 0 2.443 2.444 6.928 6.928 0 0 0 1.634.689 6.854 6.854 0 0 0 3.61 0 6.826 6.826 0 0 0 4.068-3.133 6.934 6.934 0 0 0 .689-1.633 6.855 6.855 0 0 0 0-3.61 6.825 6.825 0 0 0-4.758-4.757 6.695 6.695 0 0 0-1.8-.242zm2.41 7.258a2.155 2.155 0 0 0-.468-.677 2.028 2.028 0 0 0-.684-.435 2.235 2.235 0 0 0-.818-.153 1.704 1.704 0 0 0-.24.019.965.965 0 0 0-.222.056l.028-.047 1.612-2.241H8.25L6.666 8.933a6.168 6.168 0 0 0-.527.968 2.674 2.674 0 0 0-.204 1.06 2.273 2.273 0 0 0 .204.973 2.204 2.204 0 0 0 .554.741 2.463 2.463 0 0 0 .819.468 3.172 3.172 0 0 0 2.001 0 2.46 2.46 0 0 0 .823-.468 2.182 2.182 0 0 0 .554-.75 2.374 2.374 0 0 0 .204-1 2.124 2.124 0 0 0-.176-.876zm-1.656 1.67a1.007 1.007 0 0 1-.75.287.97.97 0 0 1-.753-.305 1.047 1.047 0 0 1-.28-.732 1.012 1.012 0 0 1 .29-.75 1.023 1.023 0 0 1 .753-.287.98.98 0 0 1 .744.292 1.02 1.02 0 0 1 .28.736 1.034 1.034 0 0 1-.284.76z"/></svg>