<svg xmlns="http://www.w3.org/2000/svg" viewBox="0 0 1000 1200" class="cf-icon-svg"><path d="M500.48 100C224.34 99.74.26 323.38 0 599.52S223.38 1099.74 499.52 1100 999.74 876.62 1000 600.48 776.62 100.26 500.48 100zM839.3 374.39L778.74 606a24 24 0 01-41.25 5.53l-45.51-59-13.73-17.8-128.2 98.18-.28 296a49.94 49.94 0 11-99.89 0l.28-295.91-128.41-98.31-13.75 17.8-45.51 59a24 24 0 01-41.23-5.49L160.7 374.4c-6.46-15.71 5-32.52 21.12-33.24H425.5a24 24 0 0115.84 38.48l-51.08 66.23-7.26 9.45 117 89.62 117-89.63-7.29-9.45-51.08-66.23a24 24 0 0115.84-38.48h243.71c16.1.72 27.59 17.53 21.12 33.24z"/></svg>