<svg xmlns="http://www.w3.org/2000/svg" viewBox="0 0 884.82 1200" class="cf-icon-svg"><path d="M855.05 186.49H539a31.15 31.15 0 00-20.54 49.9l66.24 85.89 9.45 12.25-151.74 116.25-151.77-116.23 9.45-12.25 66.24-85.89a31.15 31.15 0 00-20.54-49.9h-316c-20.91.92-35.79 22.72-27.41 43.1l78.54 300.32a31.16 31.16 0 0053.5 7.18l59-76.53 17.8-23.08L377.78 565l-.37 383.71a64.77 64.77 0 10129.54 0l.37-383.93 166.26-127.29 17.8 23.08 59 76.53a31.16 31.16 0 0053.5-7.18l78.56-300.32c8.39-20.37-6.5-42.17-27.39-43.11z"/></svg>