<svg xmlns="http://www.w3.org/2000/svg" class="cf-icon-svg cf-icon-svg__three-open" viewBox="0 0 17 19"><path d="M10.598 1.958a7.948 7.948 0 0 1 5.536 5.535 7.956 7.956 0 0 1 0 4.206 7.863 7.863 0 0 1-2.04 3.49 8.081 8.081 0 0 1-1.605 1.237 7.914 7.914 0 0 1-1.89.8 7.965 7.965 0 0 1-4.207 0 7.934 7.934 0 0 1-5.526-5.527 7.99 7.99 0 0 1 0-4.21 7.94 7.94 0 0 1 .8-1.887A8.05 8.05 0 0 1 2.902 4 7.86 7.86 0 0 1 8.5 1.675a7.77 7.77 0 0 1 2.098.283M6.691 3.025A6.753 6.753 0 0 0 3.688 4.78a6.987 6.987 0 0 0-1.067 1.384 6.847 6.847 0 0 0-.688 1.624 6.872 6.872 0 0 0 0 3.613 6.811 6.811 0 0 0 .688 1.627 6.824 6.824 0 0 0 4.07 3.13 6.857 6.857 0 0 0 3.609 0 6.855 6.855 0 0 0 1.628-.688 7.011 7.011 0 0 0 1.384-1.067 6.754 6.754 0 0 0 1.754-3.002 6.847 6.847 0 0 0 0-3.61 6.834 6.834 0 0 0-.687-1.627 6.92 6.92 0 0 0-2.452-2.452 6.84 6.84 0 0 0-1.627-.687 6.847 6.847 0 0 0-3.61 0zm4.19 7.668a1.529 1.529 0 0 0-.26-.444 1.647 1.647 0 0 0-.398-.342 1.69 1.69 0 0 0-.509-.208V9.67a1.51 1.51 0 0 0 .792-.505 1.402 1.402 0 0 0 .31-.923 1.626 1.626 0 0 0-.199-.821 1.814 1.814 0 0 0-.523-.58 2.282 2.282 0 0 0-.736-.344 3.251 3.251 0 0 0-.848-.11 3.01 3.01 0 0 0-.797.106 2.625 2.625 0 0 0-.717.315 2.222 2.222 0 0 0-.57.518 2.142 2.142 0 0 0-.361.728l1.445.333a.92.92 0 0 1 .32-.533.891.891 0 0 1 .578-.199.936.936 0 0 1 .574.187.633.633 0 0 1 .25.54.654.654 0 0 1-.356.63 1.128 1.128 0 0 1-.366.12 2.706 2.706 0 0 1-.426.033H7.63v1.13h.417a2.816 2.816 0 0 1 .481.042 1.488 1.488 0 0 1 .43.138.821.821 0 0 1 .307.264.714.714 0 0 1 .115.417.789.789 0 0 1-.087.389.776.776 0 0 1-.223.255.93.93 0 0 1-.305.143 1.292 1.292 0 0 1-.339.047 1.085 1.085 0 0 1-.731-.246 1.163 1.163 0 0 1-.38-.57l-1.445.38a2.186 2.186 0 0 0 .996 1.33 2.723 2.723 0 0 0 .769.31 3.665 3.665 0 0 0 .866.101 3.26 3.26 0 0 0 .893-.124 2.506 2.506 0 0 0 .792-.38 1.958 1.958 0 0 0 .57-.647 1.89 1.89 0 0 0 .218-.93 1.462 1.462 0 0 0-.093-.522z"/></svg>