<svg xmlns="http://www.w3.org/2000/svg" class="cf-icon-svg cf-icon-svg__ticket-round" viewBox="0 0 17 19"><path d="M16.417 9.579A7.917 7.917 0 1 1 8.5 1.662a7.917 7.917 0 0 1 7.917 7.917zm-2.33-1.947a.438.438 0 0 0-.327-.408.66.66 0 0 1-.301-.199.629.629 0 0 1-.169-.265.43.43 0 0 0-.403-.329H4.11a.43.43 0 0 0-.402.33.629.629 0 0 1-.169.264.662.662 0 0 1-.302.199.438.438 0 0 0-.327.408v.752a.428.428 0 0 0 .328.401.624.624 0 0 1 .259.164.865.865 0 0 1-.012 1.282.612.612 0 0 1-.246.154.425.425 0 0 0-.33.4v.752a.439.439 0 0 0 .328.408.669.669 0 0 1 .305.202.618.618 0 0 1 .164.254.432.432 0 0 0 .404.329h8.778a.432.432 0 0 0 .404-.329.622.622 0 0 1 .163-.254.67.67 0 0 1 .306-.202.439.439 0 0 0 .327-.408v-.752a.426.426 0 0 0-.33-.4.614.614 0 0 1-.245-.154.865.865 0 0 1-.012-1.282.622.622 0 0 1 .258-.163.428.428 0 0 0 .329-.402zM5.94 11.504V7.657a.396.396 0 0 0-.791 0v3.847a.396.396 0 0 0 .791 0zm3.803-1.174a.897.897 0 0 1-.448.77 1.461 1.461 0 0 1-.48.196v.327a.317.317 0 0 1-.633 0v-.324l-.008-.002a1.546 1.546 0 0 1-.315-.096 1.015 1.015 0 0 1-.391-.287.317.317 0 1 1 .479-.415.392.392 0 0 0 .147.113.968.968 0 0 0 .189.061 1.386 1.386 0 0 0 .202.025.894.894 0 0 0 .465-.13c.16-.103.16-.197.16-.238a.283.283 0 0 0-.069-.182.604.604 0 0 0-.158-.127.79.79 0 0 0-.192-.068.888.888 0 0 0-.188-.02 1.817 1.817 0 0 1-.299-.023 1.37 1.37 0 0 1-.383-.124 1.107 1.107 0 0 1-.362-.29.93.93 0 0 1-.214-.584.943.943 0 0 1 .47-.797 1.439 1.439 0 0 1 .467-.185v-.316a.317.317 0 1 1 .633 0v.326l.008.001a1.629 1.629 0 0 1 .32.11 1.176 1.176 0 0 1 .344.236.316.316 0 1 1-.447.448.556.556 0 0 0-.157-.107 1.023 1.023 0 0 0-.194-.068l-.02-.004a.928.928 0 0 0-.161-.027.888.888 0 0 0-.456.122.311.311 0 0 0-.174.261.305.305 0 0 0 .072.184.484.484 0 0 0 .154.124.76.76 0 0 0 .204.065 1.176 1.176 0 0 0 .195.015 1.531 1.531 0 0 1 .323.034 1.411 1.411 0 0 1 .352.127 1.219 1.219 0 0 1 .34.27.91.91 0 0 1 .225.6zm2.108 1.174V7.657a.396.396 0 0 0-.792 0v3.847a.396.396 0 0 0 .792 0z"/></svg>