<svg xmlns="http://www.w3.org/2000/svg" viewBox="0 0 13 19" class="cf-icon-svg"><path d="M11.067 7.235c.005.101.007.202.007.304a6.66 6.66 0 0 1-6.705 6.706 6.675 6.675 0 0 1-3.612-1.059 4.838 4.838 0 0 0 .562.033 4.734 4.734 0 0 0 2.927-1.009 2.36 2.36 0 0 1-2.201-1.636 2.345 2.345 0 0 0 .443.042 2.387 2.387 0 0 0 .621-.083 2.36 2.36 0 0 1-1.89-2.31v-.03a2.337 2.337 0 0 0 1.067.294 2.357 2.357 0 0 1-.729-3.146 6.687 6.687 0 0 0 4.857 2.462A2.358 2.358 0 0 1 8.71 4.91a2.355 2.355 0 0 1 1.72.744 4.711 4.711 0 0 0 1.497-.572 2.362 2.362 0 0 1-1.037 1.303 4.702 4.702 0 0 0 1.353-.37 4.78 4.78 0 0 1-1.176 1.22z"/></svg>