<svg xmlns="http://www.w3.org/2000/svg" class="cf-icon-svg" viewBox="0 0 16 19"><path d="M15.917 1.666v15.833H.083V1.666zM13.743 6.02a4.702 4.702 0 0 1-1.353.37 2.365 2.365 0 0 0 1.036-1.303 4.725 4.725 0 0 1-1.496.572 2.359 2.359 0 0 0-4.017 2.149 6.685 6.685 0 0 1-4.856-2.462 2.357 2.357 0 0 0 .728 3.146 2.339 2.339 0 0 1-1.067-.295v.03a2.359 2.359 0 0 0 1.89 2.311 2.362 2.362 0 0 1-1.064.04 2.36 2.36 0 0 0 2.202 1.637 4.733 4.733 0 0 1-2.928 1.01 4.838 4.838 0 0 1-.562-.034 6.702 6.702 0 0 0 10.318-5.647c0-.102-.002-.203-.007-.304a4.785 4.785 0 0 0 1.176-1.22z"/></svg>