<svg xmlns="http://www.w3.org/2000/svg" viewBox="0 0 15 19" class="cf-icon-svg"><path d="M12.981 6.677c.006.122.008.243.008.366a7.991 7.991 0 0 1-8.046 8.047 8.01 8.01 0 0 1-4.335-1.271 5.805 5.805 0 0 0 .675.04 5.68 5.68 0 0 0 3.513-1.21 2.832 2.832 0 0 1-2.642-1.965 2.813 2.813 0 0 0 .531.051 2.865 2.865 0 0 0 .746-.1 2.831 2.831 0 0 1-2.269-2.772v-.037a2.805 2.805 0 0 0 1.281.354 2.828 2.828 0 0 1-.874-3.775 8.024 8.024 0 0 0 5.828 2.954 2.83 2.83 0 0 1 2.755-3.472 2.826 2.826 0 0 1 2.064.893 5.654 5.654 0 0 0 1.796-.686 2.835 2.835 0 0 1-1.244 1.564 5.642 5.642 0 0 0 1.624-.445 5.735 5.735 0 0 1-1.41 1.464z"/></svg>