<svg viewBox="0 0 17 19" xmlns="http://www.w3.org/2000/svg"><path d="m16.417 9.6a7.917 7.917 0 1 1 -7.917-7.917 7.917 7.917 0 0 1 7.917 7.917m-5.431 2.113h-2.677l1.519-1.353q.223-.203.43-.412a2.974 2.974 0 0 0 .371-.449 2.105 2.105 0 0 0 .255-.523 2.037 2.037 0 0 0 .093-.635 1.89 1.89 0 0 0 -.2-.889 1.853 1.853 0 0 0 -.532-.63 2.295 2.295 0 0 0 -.76-.37 3.226 3.226 0 0 0 -.88-.12 2.854 2.854 0 0 0 -.912.144 2.373 2.373 0 0 0 -.764.42 2.31 2.31 0 0 0 -.55.666 2.34 2.34 0 0 0 -.274.89l1.491.204a1.234 1.234 0 0 1 .292-.717.893.893 0 0 1 1.227-.056.76.76 0 0 1 .222.568 1.002 1.002 0 0 1 -.148.536 2.42 2.42 0 0 1 -.389.472l-2.556 2.311v1.295h4.742z"/></svg>