<svg xmlns="http://www.w3.org/2000/svg" class="cf-icon-svg cf-icon-svg__updating-round" viewBox="0 0 17 20.4"><path d="M16.416 10.283A7.917 7.917 0 1 1 8.5 2.366a7.916 7.916 0 0 1 7.916 7.917zM4.546 7.329a5.084 5.084 0 0 0-.908 2.139.792.792 0 0 0 .646.915.813.813 0 0 0 .135.011.792.792 0 0 0 .78-.657 3.506 3.506 0 0 1 .498-1.29v.324a.792.792 0 0 0 1.584 0V6.537a.792.792 0 0 0-.792-.792H4.255a.792.792 0 0 0 0 1.584zm1.117 4.865a3.548 3.548 0 0 1-.285-.58.792.792 0 1 0-1.479.566 5.097 5.097 0 0 0 .412.839.792.792 0 1 0 1.352-.825zm1.941 1.518a3.54 3.54 0 0 1-.596-.249.792.792 0 0 0-.742 1.399 5.163 5.163 0 0 0 .862.36.792.792 0 1 0 .476-1.51zM8.74 6.825a.792.792 0 0 0 .014-1.583h-.008a.792.792 0 1 0-.028 1.583h.007zm1.601 8.33a.792.792 0 1 0-.523-1.495 3.381 3.381 0 0 1-.309.092.792.792 0 0 0 .19 1.56.806.806 0 0 0 .193-.023c.151-.038.302-.083.45-.134zm.581-7.688A.792.792 0 0 0 11.336 6l-.003-.002a.792.792 0 0 0-.835 1.346l.013.007a.787.787 0 0 0 .411.116zm1.722 4.692a.792.792 0 0 0-1.103.195 3.574 3.574 0 0 1-.196.256.792.792 0 0 0 1.208 1.023c.1-.12.197-.244.286-.371a.792.792 0 0 0-.195-1.103zm-.876-3.458.007.013a.792.792 0 0 0 1.398-.744l-.002-.002a.792.792 0 1 0-1.403.733zm1.233 1.066a.792.792 0 0 0-.83.75 3.623 3.623 0 0 1-.01.13.791.791 0 0 0 .72.857.767.767 0 0 0 .07.004.792.792 0 0 0 .787-.723c.006-.062.01-.124.013-.187a.791.791 0 0 0-.75-.83z"/></svg>