<svg viewBox="0 0 17 19" xmlns="http://www.w3.org/2000/svg"><path d="m16.417 9.579a7.917 7.917 0 1 1 -7.917-7.917 7.917 7.917 0 0 1 7.917 7.917m-4.233-1.805h-2.925a.317.317 0 0 1 -.317-.317v-2.9h-3.782a.318.318 0 0 0 -.317.317v9.368a.318.318 0 0 0 .317.316h6.707a.317.317 0 0 0 .317-.316zm-1.676 2.623a.396.396 0 0 1 -.56 0l-1.042-1.042v3.614a.396.396 0 0 1 -.792 0v-3.614l-1.042 1.042a.396.396 0 0 1 -.56-.56l1.718-1.718a.395.395 0 0 1 .56 0l1.718 1.718a.397.397 0 0 1 0 .56m-.77-3.418h2.43l-2.43-2.416z"/></svg>