<svg viewBox="0 0 17 19" xmlns="http://www.w3.org/2000/svg"><path d="m16.417 9.583a7.917 7.917 0 1 1 -7.917-7.917 7.917 7.917 0 0 1 7.917 7.917m-2.117-1.383a.396.396 0 0 0 0-.56 8.196 8.196 0 0 0 -11.6 0 .396.396 0 1 0 .56.56 7.405 7.405 0 0 1 10.48 0 .396.396 0 0 0 .56 0m-1.738 1.18a5.74 5.74 0 0 0 -8.123-.001.396.396 0 0 0 .56.56 4.952 4.952 0 0 1 7.003 0 .396.396 0 0 0 .56-.56zm-1.74 1.738a3.285 3.285 0 0 0 -4.645 0 .396.396 0 0 0 .56.56 2.493 2.493 0 0 1 3.526 0 .396.396 0 0 0 .56-.56zm-1.192 2.363a1.123 1.123 0 1 0 -1.123 1.123 1.123 1.123 0 0 0 1.123-1.124z"/></svg>