<svg xmlns="http://www.w3.org/2000/svg" viewBox="0 0 12 19" class="cf-icon-svg"><path d="M11.059 7.014a1.327 1.327 0 0 0-.934-.94A31.352 31.352 0 0 0 6 5.854a31.351 31.351 0 0 0-4.125.222 1.327 1.327 0 0 0-.934.94 13.917 13.917 0 0 0-.22 2.557 13.917 13.917 0 0 0 .22 2.558 1.327 1.327 0 0 0 .934.94A31.35 31.35 0 0 0 6 13.29a31.35 31.35 0 0 0 4.125-.222 1.327 1.327 0 0 0 .934-.94 13.918 13.918 0 0 0 .22-2.557 13.917 13.917 0 0 0-.22-2.558zm-3.435 2.57L4.92 8.045v3.079z" fill-rule="evenodd"/></svg>