<svg xmlns="http://www.w3.org/2000/svg" class="cf-icon-svg cf-icon-svg__youtube-square" viewBox="0 0 16 19"><path d="M15.917 17.5H.083V1.665h15.834zM13.072 7.013a1.327 1.327 0 0 0-.934-.94 31.353 31.353 0 0 0-4.125-.221 31.353 31.353 0 0 0-4.125.222 1.327 1.327 0 0 0-.933.94 13.917 13.917 0 0 0-.221 2.557 13.917 13.917 0 0 0 .22 2.558 1.327 1.327 0 0 0 .934.94 31.351 31.351 0 0 0 4.125.222 31.351 31.351 0 0 0 4.125-.223 1.327 1.327 0 0 0 .934-.94 13.917 13.917 0 0 0 .22-2.557 13.917 13.917 0 0 0-.22-2.558zm-3.434 2.57L6.932 8.045v3.079z"/></svg>